<svg id="Isolation_Mode" xmlns="http://www.w3.org/2000/svg" viewBox="0 0 53.1 47.8"><style>.st0{stroke-linecap:round}.st0,.st1{fill:none;stroke:#d80022;stroke-width:2;stroke-linejoin:round;stroke-miterlimit:10}</style><path class="st0" d="M52.1 13.8L26.5 1 1 13.8"/><path class="st1" d="M50 40.4v4.3H30.8s-1.1 2.1-4.3 2.1c-3.2 0-4.3-2.1-4.3-2.1H3.1v-4.3m0 1s3.9-3.2 11.7-3.2c7.8 0 11.7 3.2 11.7 3.2V17.9s-4-3.1-11.7-3.1c-7.7 0-11.7 3.1-11.7 3.1v23.5zm46.9 0s-3.9-3.2-11.7-3.2c-7.8 0-11.7 3.2-11.7 3.2V17.9s4-3.1 11.7-3.1c7.7 0 11.7 3.1 11.7 3.1v23.5z"/></svg>