<svg id="Isolation_Mode" xmlns="http://www.w3.org/2000/svg" viewBox="0 0 48.4 48.1"><style>.st0{fill:none;stroke:#d80022;stroke-width:1.935;stroke-linecap:round;stroke-miterlimit:10}.st1{fill:#d80022}</style><path class="st0" d="M47 27.4l-3.7 3.5.4 5.1c.1.7-.4 1.3-1.1 1.5L37.7 39l-2 4.7c-.3.6-1 1-1.6.9l-5-1-4 3.2c-.3.2-.6.3-.9.3-.3 0-.7-.1-.9-.3l-4-3.2-5 1c-.7.1-1.4-.2-1.6-.9l-2-4.7-4.9-1.4c-.7-.2-1.1-.8-1.1-1.5l.4-5.1-3.7-3.5c-.5-.5-.6-1.3-.2-1.8l2.7-4.3-1.6-4.8c-.2-.9.1-1.6.7-1.9l4.4-2.6.8-5c.1-.7.7-1.2 1.4-1.2l5.1-.2 3.1-4.1c.4-.6 1.2-.7 1.8-.4l4.6 2.2 4.6-2.2c.6-.3 1.4-.1 1.8.4l3.1 4.1 5.1.2c.7 0 1.3.5 1.4 1.2l.8 5 4.4 2.6c.6.3.9 1.1.7 1.7l-1.6 4.8 2.7 4.3c.3.7.3 1.4-.2 1.9z"/><path class="st1" d="M22.3 20.2c0 2-.3 3.5-1 4.5s-1.6 1.5-2.9 1.5c-1.2 0-2.2-.5-2.8-1.6-.7-1-1-2.5-1-4.5s.3-3.5 1-4.5c.6-1 1.6-1.5 2.9-1.5 1.3 0 2.2.5 2.9 1.5.6 1.2.9 2.7.9 4.6m-5.9 0c0 1.5.2 2.6.5 3.3.3.7.8 1.1 1.6 1.1 1.4 0 2.1-1.5 2.1-4.4 0-2.9-.7-4.4-2.1-4.4-.7 0-1.2.4-1.6 1.1-.4.7-.5 1.8-.5 3.3m14-5.7l-10.6 19H18l10.6-19h1.8zm3.4 13.3c0 2-.3 3.5-1 4.5s-1.6 1.5-2.9 1.5c-1.2 0-2.2-.5-2.8-1.5-.7-1-1-2.5-1-4.4 0-2 .3-3.5 1-4.5.6-1 1.6-1.5 2.9-1.5 1.2 0 2.2.5 2.9 1.5.6 1 .9 2.5.9 4.4m-6 0c0 1.5.2 2.6.5 3.3.3.7.8 1.1 1.6 1.1s1.3-.4 1.6-1.1c.3-.7.5-1.8.5-3.3 0-1.5-.2-2.6-.5-3.3-.3-.7-.9-1.1-1.6-1.1s-1.3.4-1.6 1.1c-.3.7-.5 1.8-.5 3.3"/></svg>