<svg id="Isolation_Mode" xmlns="http://www.w3.org/2000/svg" viewBox="0 0 50.2 46.5"><style>.st0{stroke-linecap:round;stroke-linejoin:round;stroke-miterlimit:10}.st0,.st1{fill:none;stroke:#d80022;stroke-width:2}</style><path class="st0" d="M11.6 40.7h6.8m10.7-10.3v-2.6c0-1-.8-1.8-1.8-1.8h-8l-1.8-1.8c-.8-.9-1.5-1.8-2.7-1.8h-12c-1 0-1.8.8-1.8 1.8v15c0 .5.2.9.5 1.2m5.3-4.6C4.1 35.8 2 38 2 40.7s2.2 4.8 4.8 4.8c2.7 0 4.8-2.2 4.8-4.8 0-2.7-2.1-4.9-4.8-4.9zM26.2 30c-4.3 0-7.7 3.5-7.7 7.7 0 4.3 3.5 7.7 7.7 7.7 4.3 0 7.7-3.5 7.7-7.7S30.4 30 26.2 30zm-1-4.8L19.4 7.8H4.9v14.5M26.2 1l11.6 37.7 9.7-1.9"/><path transform="rotate(-11.999 43.64 27.95)" class="st1" d="M39.3 22.3h8.6v11.4h-8.6z"/></svg>