<svg id="Isolation_Mode" xmlns="http://www.w3.org/2000/svg" viewBox="0 0 55.2 52.2"><style>.st0,.st1{fill:none;stroke:#d80022;stroke-width:2;stroke-linejoin:round;stroke-miterlimit:10}.st1{stroke-linecap:round}.st2{fill:#d80022}</style><path class="st0" d="M27.6 8.9c0-4.3-3.5-7.9-7.9-7.9-4.3 0-7.9 3.5-7.9 7.9 0 1.2.3 2.4.8 3.4"/><path class="st1" d="M52.2 25.8h-2c-1 0-1.5-.5-1.6-.9-.5-3.4-2.7-7.8-8.2-9.7-.1-3.1.6-5.3 2-8.8-3.1.8-6.5 2.5-8.5 6.9-2.3-.6-4.7-.9-7.2-.9-6.6 0-11.6 2-15.6 5.1-3.6 2.8-5.9 7.5-5.6 14 .1 4.8 3.5 8.5 6.1 10.6.4.3 1.1.8.7 2-.4 1.2-1.1 2.9-1.1 2.9-.4 1.1.1 2.3 1.2 2.7l3.9 1.5c1.1.4 2.3-.1 2.7-1.2 0 0 .5-1.3.9-2.5.8-2.1 1.3-.4 6.7-.4 5.7 0 6.2-1.1 6.8.6.4 1.1.9 2.2.9 2.2.4 1.1 1.6 1.6 2.7 1.2l3.9-1.5c1.1-.4 1.6-1.6 1.2-2.7l-.6-1.7s-.6-1.1.7-1.8c2.7-1.5 4.8-3.7 6.1-6.5.3-.6.7-1.4 2-1.4h2c1.1 0 2-.9 2-2v-5.9c-.1-1-1-1.8-2.1-1.8z"/><path class="st2" d="M41.5 29.2c-1.3 0-2.3-1-2.3-2.3 0-1.3 1-2.3 2.3-2.3 1.3 0 2.3 1 2.3 2.3 0 1.3-1 2.3-2.3 2.3"/><path class="st1" d="M5.6 24.6S1 23.5 1 19.4c0-1.7.9-3.3 2.4-3.9"/></svg>