<svg id="Isolation_Mode" xmlns="http://www.w3.org/2000/svg" viewBox="0 0 48.4 42.8"><style>.st0,.st1{fill:none;stroke:#d80022;stroke-width:2;stroke-linecap:round;stroke-miterlimit:10}.st1{stroke-linejoin:round}</style><path class="st0" d="M1 14.7L24.2 1.2l23.2 13.5v27.1H1z"/><path class="st1" d="M22 20.1s2.2-4.9 2.5-5.8c.2-.5.4-.8.4-1.4 0-1.6-1.2-2.3-1.9-2.3-.5 0-1 .3-1.5 1l-7 9.7c-.6.9-1 1.9-1 3v5.9c0 2.8 2.3 5 5 5h11.9c1.6 0 2.5-1.3 2.5-2.1 0-.9-.5-1.6-.5-1.6s1.7-.6 1.7-2.1c0-1.3-1.3-1.8-1.3-1.8s1.3-.7 1.3-2c0-1.5-1.5-2-1.5-2s.2-1.1.2-1.7c0-.8-.8-1.8-2.3-1.8H22z"/></svg>