<svg id="Isolation_Mode" xmlns="http://www.w3.org/2000/svg" viewBox="0 0 58.6 49.1"><style>.st0,.st1{stroke-linecap:round;stroke-miterlimit:10}.st0{fill:none;stroke:#d80022;stroke-width:2}.st1{stroke-linejoin:round}.st1,.st2{fill:none;stroke:#d80022;stroke-width:2}</style><path class="st0" d="M18 32.9l5.1 2.9 5.2-2.9"/><path class="st1" d="M22.8 35.9l-4.3 5.3-3.9-4.7m8.8-.6l4.3 5.3 3.9-4.7"/><path class="st0" d="M28.8 33.7c-.2-1.9-.1-3.2-.1-4.9.8-.4 2.4-3.3 2.6-5.7.7-.1 1.7-.7 2-3.3.2-1.4-.5-2.2-.9-2.4 1.1-3.3 3.3-13.3-4.2-14.4-.8-1.4-2.7-2-5.3-2-10.3.2-11.5 7.8-9.3 16.4-.4.2-1.1 1-.9 2.4.3 2.6 1.4 3.2 2 3.3.3 2.4 1.8 5.2 2.7 5.7 0 1.7.1 3-.1 4.9-2 5.5-15.8 3.9-16.4 14.5H45c-.5-10.6-14.1-9.1-16.2-14.5z"/><path class="st1" d="M37.9 7.4c1.8-.7 3.7-1.1 5.8-1.1 7.7 0 13.9 5.4 13.9 12s-6.2 12-13.9 12c-1.3 0-2.6-.2-3.8-.5 0 0-2.4 3-6.3 3 1.9-2.7 1.9-4.9 1.9-4.9l-.9-.6"/><path class="st2" d="M39.4 21.1h8.5m-8.5-3.9H50"/></svg>