<svg id="Isolation_Mode" xmlns="http://www.w3.org/2000/svg" viewBox="0 0 53.7 41.8"><style>.st0{fill:none;stroke:#d80022;stroke-width:2;stroke-miterlimit:10}.st1{stroke-linejoin:round}.st1,.st2{fill:none;stroke:#d80022;stroke-width:2;stroke-linecap:round;stroke-miterlimit:10}</style><path class="st0" d="M27.1 36.5c0 2.4-1.9 4.3-4.3 4.3s-4.3-1.9-4.3-4.3 1.9-4.3 4.3-4.3c2.4.1 4.3 2 4.3 4.3zm18.5 0c0 2.4-1.9 4.3-4.3 4.3S37 38.9 37 36.5s1.9-4.3 4.3-4.3c2.4.1 4.3 2 4.3 4.3z"/><path class="st1" d="M1 1h6.6c4 0 5.4 1.8 6.4 5.3l3.1 23.2h28.2l7.4-19.9"/><path class="st2" d="M38.6 13c0 6.6-2.7 12-6.1 12-3.4 0-6.1-5.4-6.1-12s2.7-12 6.1-12c3.3 0 6.1 5.4 6.1 12z"/><path class="st2" d="M44.5 13c0 6.6-5.4 12-12 12s-12-5.4-12-12 5.4-12 12-12 12 5.4 12 12z"/><path class="st0" d="M32.5 1v24m-10.9-6.2c2.6-1.4 6.5-2.2 10.8-2.2 4.3 0 8.2.8 10.7 2.2"/></svg>