<?xml version="1.0" encoding="UTF-8"?>
<!DOCTYPE svg PUBLIC "-//W3C//DTD SVG 1.1//EN" "http://www.w3.org/Graphics/SVG/1.1/DTD/svg11.dtd">
<!-- Creator: CorelDRAW X7 -->
<svg xmlns="http://www.w3.org/2000/svg" xml:space="preserve" width="189mm" height="210mm" version="1.1" style="shape-rendering:geometricPrecision; text-rendering:geometricPrecision; image-rendering:optimizeQuality; fill-rule:evenodd; clip-rule:evenodd"
viewBox="0 0 18900 21000"
 xmlns:xlink="http://www.w3.org/1999/xlink">
 <defs>
  <style type="text/css">
   <![CDATA[
    .fil0 {fill:black}
   ]]>
  </style>
 </defs>
 <g id="Слой_x0020_1">
  <metadata id="CorelCorpID_0Corel-Layer"/>
  <path class="fil0" d="M7847 1989l0 3316 2542 0 0 -3316 -2542 0zm1990 2653l-1326 0 0 -1989 1326 0 0 1989zm2431 10832l-6410 0c-221,0 -332,110 -332,331 0,111 111,221 332,332l6521 0c221,0 332,-221 332,-332 -99,-198 -205,-331 -443,-331zm-6410 -2653c-221,0 -332,221 -332,332 0,110 111,221 332,331l6521 0c221,0 332,-221 332,-331 -111,-221 -222,-332 -443,-332l-6410 0zm9284 5526l0 -8510 -12268 0 0 8510 12268 0zm-553 -7847l0 7184 -11052 0 0 -7184 11052 0zm443 -10500l-13706 0c-773,0 -1326,553 -1326,1326l0 18348c0,773 553,1326 1326,1326l16248 0c773,0 1326,-553 1326,-1326l0 -15806 -3868 -3868zm-3095 663l0 5858 -8400 0 0 -5858 8400 0zm5526 19674l-16137 0c-331,0 -663,-332 -663,-663l0 -18348c0,-331 332,-663 663,-663l1658 0 0 6521 9727 0 0 -6631 2100 0 3426 3426 -111 15695c0,331 -331,663 -663,663z"/>
 </g>
</svg>
