<?xml version="1.0" encoding="UTF-8"?>
<!DOCTYPE svg PUBLIC "-//W3C//DTD SVG 1.1//EN" "http://www.w3.org/Graphics/SVG/1.1/DTD/svg11.dtd">
<!-- Creator: CorelDRAW X7 -->
<svg xmlns="http://www.w3.org/2000/svg" xml:space="preserve" width="190.909mm" height="162.273mm" version="1.1" style="shape-rendering:geometricPrecision; text-rendering:geometricPrecision; image-rendering:optimizeQuality; fill-rule:evenodd; clip-rule:evenodd"
viewBox="0 0 19091 16227"
 xmlns:xlink="http://www.w3.org/1999/xlink">
 <defs>
  <style type="text/css">
   <![CDATA[
    .fil0 {fill:black;fill-rule:nonzero}
   ]]>
  </style>
 </defs>
 <g id="Слой_x0020_1">
  <metadata id="CorelCorpID_0Corel-Layer"/>
  <path class="fil0" d="M477 1909l3341 0 0 -1432c0,-263 214,-477 477,-477l10500 0c264,0 478,214 478,477l0 1432 3341 0c263,0 477,214 477,477l0 10500c0,264 -214,478 -477,478l-3341 0 0 2386c0,264 -214,477 -478,477 -3499,0 -7000,-2 -10500,-2 -262,0 -475,-212 -475,-475l-2 -2386 -3341 0c-263,0 -477,-214 -477,-478l0 -10500c0,-263 214,-477 477,-477zm4296 0l9545 0 0 -954 -9545 0 0 954zm13363 955l-17181 0 0 9545 2863 0 0 -3341c0,-263 214,-477 477,-477l10500 0c264,0 478,214 478,477l0 3341 2863 0 0 -9545zm-13363 12411l9545 0 0 -5730 -9545 0 0 5730zm1432 -3343l0 -955 6681 0 0 955 -6681 0zm0 1909l0 -955 6681 0 0 955 -6681 0zm8590 -7636l0 -955 1910 0 0 955 -1910 0z"/>
 </g>
</svg>
