<svg xmlns="http://www.w3.org/2000/svg" viewBox="0 0 15 15">
  <metadata><?xpacket begin="﻿" id="W5M0MpCehiHzreSzNTczkc9d"?>
<x:xmpmeta xmlns:x="adobe:ns:meta/" x:xmptk="Adobe XMP Core 5.6-c142 79.160924, 2017/07/13-01:06:39        ">
   <rdf:RDF xmlns:rdf="http://www.w3.org/1999/02/22-rdf-syntax-ns#">
      <rdf:Description rdf:about=""/>
   </rdf:RDF>
</x:xmpmeta>
                                                                                                    
                                                                                                    
                                                                                                    
                                                                                                    
                                                                                                    
                                                                                                    
                                                                                                    
                                                                                                    
                                                                                                    
                                                                                                    
                                                                                                    
                                                                                                    
                                                                                                    
                                                                                                    
                                                                                                    
                                                                                                    
                                                                                                    
                                                                                                    
                                                                                                    
                                                                                                    
                           
<?xpacket end="w"?></metadata>
<defs>
    <style>
      .cls-1 {
        fill: #d70022;
        fill-rule: evenodd;
      }
    </style>
  </defs>
  <path id="Forma_1_copy_5" data-name="Forma 1 copy 5" class="cls-1" d="M1013.24,786.171h-0.7V785h-1.17v1.172h-7.74V785h-1.17v1.172h-0.7a1.762,1.762,0,0,0-1.76,1.758v10.313a1.761,1.761,0,0,0,1.76,1.757h11.48a1.761,1.761,0,0,0,1.76-1.757V787.929A1.762,1.762,0,0,0,1013.24,786.171Zm0.59,12.071a0.586,0.586,0,0,1-.59.586h-11.48a0.586,0.586,0,0,1-.59-0.586v-7.735h12.66v7.735Zm0-8.907h-12.66v-1.406a0.586,0.586,0,0,1,.59-0.586h0.7v1.172h1.17v-1.172h7.74v1.172h1.17v-1.172h0.7a0.586,0.586,0,0,1,.59.586v1.406Zm-11.6,2.4h1.17v1.172h-1.17v-1.172Zm2.34,0h1.17v1.172h-1.17v-1.172Zm2.34,0h1.18v1.172h-1.18v-1.172Zm2.35,0h1.17v1.172h-1.17v-1.172Zm2.34,0h1.17v1.172h-1.17v-1.172Zm-9.37,2.344h1.17v1.171h-1.17v-1.171Zm2.34,0h1.17v1.171h-1.17v-1.171Zm2.34,0h1.18v1.171h-1.18v-1.171Zm2.35,0h1.17v1.171h-1.17v-1.171Zm-7.03,2.343h1.17V797.6h-1.17v-1.172Zm2.34,0h1.17V797.6h-1.17v-1.172Zm2.34,0h1.18V797.6h-1.18v-1.172Zm2.35,0h1.17V797.6h-1.17v-1.172Zm2.34-2.343h1.17v1.171h-1.17v-1.171Z" transform="translate(-1000 -785)"/>
</svg>
