<svg id="Isolation_Mode" xmlns="http://www.w3.org/2000/svg" viewBox="0 0 54.7 42.8"><style>.st0{fill:#fff}</style><path class="st0" d="M47.2 30.4l7.4-19.9c.2-.5.1-1-.2-1.4-.2-.6-.8-1-1.4-1H15.3L15 6.5v-.2l-.1-.2C14 2.8 13.1 0 8.1 0H1.5C.7 0 0 .7 0 1.5S.7 3 1.5 3h6.6c2.8 0 3 .7 3.9 3.9l4.1 23.2c.1.7.7 1.2 1.5 1.2H22c-2.5.6-4.4 2.9-4.4 5.6 0 3.2 2.6 5.8 5.8 5.8 3.2 0 5.8-2.6 5.8-5.8 0-2.7-1.9-5-4.4-5.6h15.8c-2.6.7-4.5 3-4.5 5.7 0 3.2 2.6 5.8 5.8 5.8s5.8-2.6 5.8-5.8c0-2.7-1.9-5-4.4-5.6H46c.5 0 1-.4 1.2-1zM26.1 37c0 1.5-1.2 2.8-2.8 2.8-1.5 0-2.8-1.2-2.8-2.8s1.2-2.8 2.8-2.8c1.6.1 2.8 1.3 2.8 2.8zm18.5 0c0 1.5-1.2 2.8-2.8 2.8S39 38.6 39 37s1.2-2.8 2.8-2.8 2.8 1.3 2.8 2.8zm-25.7-8.6l-3-17.2h35.3l-6.4 17.2H18.9z"/><path class="st0" d="M41.6 15.6h-18c-.6 0-1 .4-1 1s.4 1 1 1h18c.6 0 1-.4 1-1s-.5-1-1-1zm0 5.9h-18c-.6 0-1 .4-1 1s.4 1 1 1h18c.6 0 1-.4 1-1s-.5-1-1-1z"/></svg>