<svg xmlns="http://www.w3.org/2000/svg" width="20" height="21" viewBox="0 0 20 21"><defs><style>.cls-1{fill:#d70022;fill-rule:evenodd}</style></defs><path id="Shape_1_copy" data-name="Shape 1 copy" class="cls-1" d="M1196.21 486.872a2.442 2.442 0 0 0 .34-1.251 2.709 2.709 0 0 0-2.78-2.622 4.412 4.412 0 0 0-3.18 1.516.609.609 0 1 1-1.18 0 4.412 4.412 0 0 0-3.18-1.516 2.709 2.709 0 0 0-2.78 2.622 2.442 2.442 0 0 0 .34 1.251H1180v7.628h1.3v9.5h17.39v-9.5h1.31v-7.626h-3.79zm-9.98-2.5a3.489 3.489 0 0 1 2.94 2.5h-2.94a1.254 1.254 0 1 1 0-2.503zm3.04 18.261h-6.51V494.5h6.51v8.132zm0-9.5h-7.82v-4.886h7.82v4.886zm4.5-8.759a1.254 1.254 0 1 1 0 2.5h-2.94a3.489 3.489 0 0 1 2.94-2.505zm3.47 18.261h-6.51V494.5h6.51v8.132zm1.31-9.5h-7.82v-4.886h7.82v4.886z" transform="translate(-1180 -483)"/></svg>