<svg id="Isolation_Mode" xmlns="http://www.w3.org/2000/svg" viewBox="0 0 49 59.2"><style>.st0{fill:none;stroke:#d80022;stroke-width:2;stroke-linecap:round;stroke-linejoin:round;stroke-miterlimit:10}</style><path class="st0" d="M12.5 43.9v14.3l12-6.5 12 6.5v-14M44.6 28c-.1.4 0 .9-.1 1.4 1.7 2.2 2 5.2.6 7.7s-4.1 3.7-6.9 3.3c-.4.3-.8.6-1.1 1-.1 2.8-1.8 5.3-4.4 6.3-.8.3-1.5.4-2.3.4-1.9 0-3.7-.9-5-2.3-.3 0-.6.1-.9.1-.3 0-.5-.1-.8-.1-1.8 2.1-4.7 2.9-7.3 1.9-2.6-1-4.3-3.5-4.4-6.3-.4-.3-.8-.6-1.2-1-2.8.3-5.5-.9-6.9-3.4-1.4-2.5-1.1-5.5.6-7.7-.1-.5-.1-.9-.1-1.4-2.5-1.4-3.8-4.3-3.3-7.1.5-2.9 2.8-5.1 5.7-5.6.2-.3.3-.7.5-1-1-2.7-.3-5.8 1.9-7.7 2.3-1.9 5.4-2.1 7.9-.6l.9-.3C19 2.9 21.6 1 24.5 1s5.6 1.9 6.5 4.7l.9.3c2.5-1.5 5.7-1.3 7.9.6s3 5 2 7.7c.2.3.3.6.5.9 2.9.4 5.2 2.7 5.7 5.6.4 2.9-.9 5.7-3.4 7.2zm-20.1 9.9c7.4 0 13.4-6 13.4-13.4s-6-13.4-13.4-13.4-13.4 6-13.4 13.4 6 13.4 13.4 13.4z"/></svg>