<svg id="Isolation_Mode" xmlns="http://www.w3.org/2000/svg" viewBox="0 0 95.2 95.2"><style>.st0,.st1{fill:none;stroke:#d70022;stroke-width:4;stroke-miterlimit:10}.st1{stroke-linejoin:round}.st2{fill:#d70022}</style><path class="st0" d="M63.7 48.2l28.7 28.7-15.6 15.5-28.6-28.7M33.9 49.5L2.8 18.4 18.4 2.8l31.7 31.7"/><path class="st1" d="M86.5 19.3L19.4 86.4 4.9 90.3l3.9-14.5L75.9 8.7"/><path class="st2" d="M87.9 20.7l1.6-1.6A9.476 9.476 0 0 0 76.1 5.7l-1.6 1.6 13.4 13.4zM9.1 75.4l10.7 10.7-14 3.3z"/><path class="st0" d="M76.7 72.8l5.8-5.8m2 9.7l3.9-3.9m-15.6-7.7l3.9-3.9m-11.6 0l5.8-5.8m-9.7-2l3.9-3.9M36 32.1l5.8-5.8m1.9 9.7l3.9-3.9m-15.5-7.8l3.9-3.9m-11.7 0l5.8-5.8m-9.7-1.9l3.9-3.9"/></svg>