<svg xmlns="http://www.w3.org/2000/svg" width="19" height="7" viewBox="0 0 19 7"><defs><style>.cls-1{fill:#d70022;fill-rule:evenodd}</style></defs><path id="Shape_1_copy_9" data-name="Shape 1 copy 9" class="cls-1" d="M11.925 3.5a3.276 3.276 0 0 0-.085-.749 3.465 3.465 0 0 0-.98-1.724A3.686 3.686 0 0 0 8.291 0H3.624a3.7 3.7 0 0 0-2.562 1.028 3.406 3.406 0 0 0 0 4.945A3.679 3.679 0 0 0 3.625 7h3.851a.265.265 0 0 0 .185-.074.243.243 0 0 0 0-.353L7.586 6.5a4.2 4.2 0 0 1-.947-1.35A.259.259 0 0 0 6.4 5H3.627a1.529 1.529 0 0 1-1.558-1.5A1.528 1.528 0 0 1 3.625 2h4.682a1.528 1.528 0 0 1 1.556 1.5 1.045 1.045 0 0 0 1.031.992 1.06 1.06 0 0 0 .678-.244.983.983 0 0 0 .353-.748zM19 3.5A3.567 3.567 0 0 0 15.366 0h-3.845a.26.26 0 0 0-.24.157.244.244 0 0 0 .061.274l.068.065a4.191 4.191 0 0 1 .943 1.348.26.26 0 0 0 .24.154h2.76a1.53 1.53 0 0 1 1.558 1.5A1.529 1.529 0 0 1 15.355 5h-4.67A1.529 1.529 0 0 1 9.13 3.5a1.044 1.044 0 0 0-1.03-.994 1.063 1.063 0 0 0-.682.247.984.984 0 0 0-.352.749 3.36 3.36 0 0 0 .221 1.2c.02.054.044.105.066.158s.05.1.073.156.051.1.079.15l.078.134c.055.088.117.172.176.258a3.607 3.607 0 0 0 .248.288l.128.123.011.01.124.094c.042.037.093.068.141.115l.062.06.145.1.07.052.128.079.02.021a3.739 3.739 0 0 0 1.865.5h4.669A3.564 3.564 0 0 0 19 3.495z"/></svg>