<svg id="Layer_1" xmlns="http://www.w3.org/2000/svg" xmlns:xlink="http://www.w3.org/1999/xlink" viewBox="0 0 246.5 70.7"><style>.st0,.st1{clip-path:url(#SVGID_2_)}.st1{fill:#fff}.st2{clip-path:url(#SVGID_4_);fill:url(#SVGID_5_)}</style><defs><path id="SVGID_1_" d="M16.3 13.8h230.2V57H16.3z"/></defs><clipPath id="SVGID_2_"><use xlink:href="#SVGID_1_" overflow="visible"/></clipPath><path class="st0" d="M76.6 43.3c-5.3 0-8.9-4.4-8.9-9.7 0-5.4 3.7-9.7 8.9-9.7 3.5 0 5.5 1.3 7.9 3.4l4-4.7c-2.9-2.8-6.1-5-11.9-5-9.4 0-16 7.2-16 15.9 0 8.9 6.7 15.9 15.8 15.9 5.9 0 9.4-1.8 12.6-5.2l-4.3-4.6c-2.5 2.3-4.6 3.7-8.1 3.7m14.7.3c-.3 0-1.1-.1-1.4-.1l-.4 5.4c.9.2 2.5.4 3.4.4 5.9 0 8.6-2.5 8.6-18.1h6V49h6.7V25.4H95.1c0 16.7-1.3 18.2-3.8 18.2M128 25.2c-4 0-6.5.7-9.1 1.9l1.7 5.1c2.2-.8 4-1.3 6.5-1.3 3.3 0 5 1.5 5 4.3v.4c-1.7-.6-3.4-1-5.8-1-5.6 0-9.5 2.4-9.5 7.5 0 4.7 3.6 7.3 8.1 7.3 3.2 0 5.5-1.2 7.1-3V49h6.5V35.3c0-3.2-.8-5.8-2.5-7.5-1.7-1.7-4.3-2.6-8-2.6m4.2 15.5c0 2.4-2.1 4.1-5.2 4.1-2.2 0-3.6-1.1-3.6-2.9 0-2.2 1.8-3.3 4.6-3.3 1.6 0 3.1.4 4.3.9v1.2zm26.9-4.1c2-.9 3.7-2.5 3.7-5.3 0-3.7-3.1-5.9-7.9-5.9H142V49h12.9c5.4 0 8.8-2.4 8.8-6.4 0-3.3-1.7-5.1-4.6-6m-10.4-6.2h4.8c1.9 0 2.7 1 2.7 2.2 0 1.4-.9 2.4-2.8 2.4h-4.7v-4.6zm5.2 13.4h-5.3v-4.7h5.1c2.3 0 3.2 1 3.2 2.3.1 1.4-.9 2.4-3 2.4M189 25.4h-19.2v2c0 5.7-.3 11.6-2.3 15.8H165v11.2h5.6l.5-5.5h14.8v5.5h5.6l.8-11.2H189V25.4zm-6.7 17.9h-8c1.4-3.5 1.7-7.6 1.8-11.6v-.5h6.3v12.1zm23-18.3c-7.3 0-12.8 5.5-12.8 12.2 0 6.8 5.4 12.3 12.7 12.3 7.3 0 12.8-5.5 12.8-12.3 0-6.8-5.4-12.2-12.7-12.2m0 18.8c-3.7 0-6.2-3-6.2-6.5 0-3.6 2.3-6.5 6.1-6.5 3.7 0 6.2 3 6.2 6.5s-2.3 6.5-6.1 6.5m34.5-18.4l-6.5 9.9-6.4-9.9h-6.7V49h6.6V35l6.4 9.5 6.6-9.7V49h6.7V25.4z"/><path class="st1" d="M53.3 17.9l-.1-1.3-1.2-.4c-.3-.1-7-2.3-16.5-2.4h-.4c-9.4.1-16.2 2.3-16.5 2.4l-1.2.4-.1 1.3c0 .3-.8 7.9-.4 16.1.2 3.4 1.2 6.7 3 9.9 1.4 2.5 3.4 4.8 5.8 7 4.1 3.7 8.3 5.7 8.8 5.9l.5.2.2.1.2-.1s.5-.2.7-.3c.5-.2 4.6-2.2 8.8-5.9 2.4-2.2 4.4-4.5 5.8-7 1.8-3.1 2.9-6.4 3-9.9.4-8.1-.4-15.7-.4-16m-1.6 16c0 1-.2 1.9-.3 2.8H31V32l4.2-3.8 4.5 4h9.9L35.2 19.3 20.9 32.2h3.5v11.1h24.3C43.9 51 35.2 54.9 35.2 54.9s-15.8-7.1-16.5-21c-.4-8.1.4-15.8.4-15.8s6.6-2.2 15.9-2.3h.4c9.2.1 15.9 2.3 15.9 2.3s.8 7.7.4 15.8"/><defs><path id="SVGID_3_" d="M35 15.9c-9.2.1-15.9 2.3-15.9 2.3s-.8 7.7-.4 15.8c.7 13.9 16.5 21 16.5 21s8.7-3.9 13.5-11.6H24.4V32.3h-3.5l14.3-12.9 14.3 12.9h-9.9l-4.5-4L31 32v4.7h20.3c.2-.9.3-1.8.3-2.8.4-8.1-.4-15.8-.4-15.8s-6.6-2.2-15.9-2.3h-.2l-.1.1z"/></defs><clipPath id="SVGID_4_"><use xlink:href="#SVGID_3_" overflow="visible"/></clipPath><linearGradient id="SVGID_5_" gradientUnits="userSpaceOnUse" x1="-67.306" y1="404.907" x2="-66.306" y2="404.907" gradientTransform="scale(38.6502 -38.6502) rotate(-35 -676.452 94.765)"><stop offset="0" stop-color="#cf4334"/><stop offset=".108" stop-color="#ce3b31"/><stop offset=".271" stop-color="#cc262a"/><stop offset=".3" stop-color="#cc2229"/><stop offset=".738" stop-color="#a1191d"/><stop offset="1" stop-color="#861316"/></linearGradient><path class="st2" d="M29.4 0l41 28.7-29.4 42L0 42z"/></svg>