<svg xmlns="http://www.w3.org/2000/svg" width="13" height="17" viewBox="0 0 13 17"><defs><style>.cls-1{fill:#d70022;fill-rule:evenodd}</style></defs><path id="Forma_1_copy_28" data-name="Forma 1 copy 28" class="cls-1" d="M34.5 2289a6.392 6.392 0 0 0-6.5 6.26 5.879 5.879 0 0 0 .568 2.55 39.441 39.441 0 0 0 5.657 8.07.373.373 0 0 0 .548 0 39.472 39.472 0 0 0 5.657-8.07 5.877 5.877 0 0 0 .568-2.55A6.392 6.392 0 0 0 34.5 2289zm0 9.01a2.505 2.505 0 1 1 2.5-2.51 2.511 2.511 0 0 1-2.5 2.51z" transform="translate(-28 -2289)"/></svg>