<svg xmlns="http://www.w3.org/2000/svg" width="13" height="17" viewBox="0 0 13 17"><defs><style>.cls-1{fill:#fff;fill-rule:evenodd;opacity:.9}</style></defs><path id="Forma_1_copy_11" data-name="Forma 1 copy 11" class="cls-1" d="M315.5 3410a6.392 6.392 0 0 0-6.5 6.26 5.878 5.878 0 0 0 .568 2.55 39.41 39.41 0 0 0 5.658 8.07.373.373 0 0 0 .548 0 39.455 39.455 0 0 0 5.657-8.07 5.879 5.879 0 0 0 .569-2.55 6.393 6.393 0 0 0-6.5-6.26zm0 9.01a2.505 2.505 0 1 1 2.5-2.51 2.511 2.511 0 0 1-2.5 2.51z" transform="translate(-309 -3410)"/></svg>