<svg version="1.1" id="Isolation_Mode" xmlns="http://www.w3.org/2000/svg" xmlns:xlink="http://www.w3.org/1999/xlink" x="0px"
	 y="0px" width="54.716px" height="42.773px" viewBox="0 0 54.716 42.773" enable-background="new 0 0 54.716 42.773"
	 xml:space="preserve">
<path fill="none" stroke="#fff" stroke-width="3" stroke-miterlimit="10" d="M27.648,37.013c0,2.353-1.909,4.261-4.262,4.261
	c-2.352,0-4.261-1.908-4.261-4.261c0-2.354,1.909-4.262,4.261-4.262C25.739,32.751,27.648,34.659,27.648,37.013z M46.114,37.013
	c0,2.353-1.909,4.261-4.261,4.261c-2.353,0-4.262-1.908-4.262-4.261c0-2.354,1.909-4.262,4.262-4.262
	C44.205,32.751,46.114,34.659,46.114,37.013z"/>
<path fill="none" stroke="#fff" stroke-width="3" stroke-linecap="round" stroke-linejoin="round" stroke-miterlimit="10" d="
	M1.5,1.5h6.624c3.971,0,4.41,1.81,5.432,5.251l4.086,23.158l0.151,0.001h28.049l7.374-19.887"/>
<line fill="none" stroke="#fff" stroke-width="3" stroke-linecap="round" stroke-linejoin="round" stroke-miterlimit="10" x1="14.342" y1="9.701" x2="53.05" y2="9.701"/>
<line fill="none" stroke="#fff" stroke-width="2" stroke-linecap="round" stroke-linejoin="round" stroke-miterlimit="10" x1="23.634" y1="16.618" x2="41.592" y2="16.618"/>
<line fill="none" stroke="#fff" stroke-width="2" stroke-linecap="round" stroke-linejoin="round" stroke-miterlimit="10" x1="23.634" y1="22.451" x2="41.592" y2="22.451"/>
</svg>
