<svg width="928" height="1079" viewBox="0 0 928 1079" xmlns="http://www.w3.org/2000/svg" xmlns:xlink="http://www.w3.org/1999/xlink"><title>Group 2</title><desc>Created using Figma</desc><use xlink:href="#a" fill="url(#b)"/><use xlink:href="#c" fill="#FFF"/><defs><linearGradient id="b" x2="1" gradientUnits="userSpaceOnUse" gradientTransform="matrix(417.194 337.975 292.122 -482.679 68.993 578.964)"><stop offset="0" stop-color="#EF4130"/><stop offset=".139" stop-color="#EE362B"/><stop offset=".3" stop-color="#ED1C24"/><stop offset="1" stop-color="#9E0B0F"/></linearGradient><path id="a" d="M914.246 101.525l-3.392-32.282-30.798-10.257C872.999 56.638 704.578 1.451 469.806.051c-1.239-.036-4.538-.047-6.009-.051-1.427.004-4.721.014-5.961.051-234.765 1.4-403.197 56.587-410.255 58.936L16.785 69.246l-3.39 32.281c-.84 7.989-20.452 198.003-10.666 400.706 4.114 85.234 29.308 167.851 74.884 245.556 36.053 61.471 84.907 119.964 145.204 173.853 103.125 92.168 207.332 141.538 218.869 146.868 5.217 2.41 17.637 7.71 18.163 7.94l3.905 1.66 3.911-1.65c.506-.21 12.455-5.27 18.056-7.84 11.477-5.29 115.102-54.27 218.248-146.212 60.501-53.93 109.529-112.486 145.723-174.042 45.789-77.875 71.097-160.686 75.221-246.131 9.789-202.672-9.826-392.719-10.667-400.71z"/><path id="c" d="M914.246 101.525l-3.392-32.282-30.798-10.257C872.999 56.638 704.578 1.451 469.806.051c-1.239-.036-4.538-.047-6.009-.051-1.427.004-4.721.014-5.961.051-234.765 1.4-403.197 56.587-410.255 58.936L16.785 69.246l-3.39 32.281c-.84 7.989-20.452 198.003-10.666 400.706 4.114 85.234 29.308 167.851 74.884 245.556 36.053 61.471 84.907 119.964 145.204 173.853 103.125 92.168 207.332 141.538 218.869 146.868 5.217 2.41 17.637 7.71 18.163 7.94l3.905 1.66 3.911-1.65c.506-.21 12.455-5.27 18.056-7.84 11.477-5.29 115.102-54.27 218.248-146.212 60.501-53.93 109.529-112.486 145.723-174.042 45.789-77.875 71.097-160.686 75.221-246.131 9.789-202.672-9.826-392.719-10.667-400.71zm-39.659 398.279a462.88 462.88 0 0 1-8.663 69.575H359.033V452.107l104.744-94.311 111.45 100.356 246.203-.016-357.655-322.021-.002.002-.002-.002-357.655 322.02 88.174.006v275.983h605.146C680.668 925.759 463.947 1023.17 463.947 1023.17h-.25S69.773 846.112 53.054 499.805c-9.709-201.144 10.45-393.014 10.45-393.014s165.451-55.099 395.334-56.362a457.66 457.66 0 0 1 4.984-.044c1.011 0 4.32.029 4.984.044 229.882 1.263 395.333 56.362 395.333 56.362s20.163 191.87 10.448 393.013z"/></defs></svg>