<svg xmlns="http://www.w3.org/2000/svg" width="19" height="11" viewBox="0 0 19 11"><defs><style>.cls-1{fill-rule:evenodd}</style></defs><path id="view" class="cls-1" d="M18.653 4.672a9.181 9.181 0 0 0-.629-.656A16.228 16.228 0 0 0 14.1 1.16a10.792 10.792 0 0 0-3-1.029A9.189 9.189 0 0 0 9.5 0a9.083 9.083 0 0 0-1.628.131 11.041 11.041 0 0 0-3 1.029A16.173 16.173 0 0 0 .946 4.016a9.804 9.804 0 0 0-.628.656 1.209 1.209 0 0 0 0 1.635 14.106 14.106 0 0 0 2.02 1.857 13.16 13.16 0 0 0 5.277 2.655A9.184 9.184 0 0 0 9.5 11a9.027 9.027 0 0 0 1.855-.181 13.057 13.057 0 0 0 5.3-2.655 13.925 13.925 0 0 0 2-1.857 1.192 1.192 0 0 0-.002-1.635zm-.866.908a12.216 12.216 0 0 1-1.855 1.72 11.786 11.786 0 0 1-4.813 2.423A8.1 8.1 0 0 1 9.5 9.88h-.03a7.849 7.849 0 0 1-1.6-.162A11.952 11.952 0 0 1 3.038 7.3 11.86 11.86 0 0 1 1.2 5.58q-.1-.075 0-.18a3.016 3.016 0 0 1 .268-.3c.132-.138.232-.236.282-.3A14.577 14.577 0 0 1 5.4 2.18a9.938 9.938 0 0 1 2.68-.939A8.633 8.633 0 0 1 9.5 1.12a8.321 8.321 0 0 1 1.412.121 9.977 9.977 0 0 1 2.68.939A14.152 14.152 0 0 1 17.22 4.8q.4.394.567.6a.122.122 0 0 1 0 .18zM9.5 1.947a3.553 3.553 0 0 0-2.577 1.04A3.385 3.385 0 0 0 5.862 5.5 3.35 3.35 0 0 0 6.924 8 3.573 3.573 0 0 0 9.5 9.032 3.5 3.5 0 0 0 12.046 8a3.365 3.365 0 0 0 1.062-2.5 3.4 3.4 0 0 0-1.062-2.513A3.482 3.482 0 0 0 9.5 1.947zm1.742 5.268a2.391 2.391 0 0 1-1.742.707 2.431 2.431 0 0 1-1.763-.716 2.365 2.365 0 0 1 0-3.421A2.431 2.431 0 0 1 9.5 3.068a2.381 2.381 0 0 1 1.742.716 2.312 2.312 0 0 1 .722 1.716 2.315 2.315 0 0 1-.722 1.715z"/></svg>