<svg xmlns="http://www.w3.org/2000/svg" width="13" height="13" viewBox="0 0 13 13">
  <metadata><?xpacket begin="﻿" id="W5M0MpCehiHzreSzNTczkc9d"?>
<x:xmpmeta xmlns:x="adobe:ns:meta/" x:xmptk="Adobe XMP Core 5.6-c142 79.160924, 2017/07/13-01:06:39        ">
   <rdf:RDF xmlns:rdf="http://www.w3.org/1999/02/22-rdf-syntax-ns#">
      <rdf:Description rdf:about=""/>
   </rdf:RDF>
</x:xmpmeta>
                                                                                                    
                                                                                                    
                                                                                                    
                                                                                                    
                                                                                                    
                                                                                                    
                                                                                                    
                                                                                                    
                                                                                                    
                                                                                                    
                                                                                                    
                                                                                                    
                                                                                                    
                                                                                                    
                                                                                                    
                                                                                                    
                                                                                                    
                                                                                                    
                                                                                                    
                                                                                                    
                           
<?xpacket end="w"?></metadata>
<defs>
    <style>
      .cls-1 {
        fill-rule: evenodd;
        fill: #d90d2d
      }
    </style>
  </defs>
  <path id="Forma_1_copy_17" data-name="Forma 1 copy 17" class="cls-1" d="M6.221,7.142L11.5,12.729a0.825,0.825,0,0,0,1.215,0,0.948,0.948,0,0,0,0-1.286L8.045,6.5l4.67-4.943a0.948,0.948,0,0,0,0-1.286A0.826,0.826,0,0,0,11.5.27L6.221,5.856A0.948,0.948,0,0,0,6.221,7.142Z"/>
  <path id="Forma_1_copy_18" data-name="Forma 1 copy 18" class="cls-1" d="M6.717,7.142L1.462,12.729a0.819,0.819,0,0,1-1.21,0,0.951,0.951,0,0,1,0-1.286L4.9,6.5,0.252,1.556A0.951,0.951,0,0,1,.252.27a0.819,0.819,0,0,1,1.21,0L6.717,5.856A0.951,0.951,0,0,1,6.717,7.142Z"/>
</svg>
