<?xml version="1.0" encoding="UTF-8"?>
<!DOCTYPE svg PUBLIC "-//W3C//DTD SVG 1.1//EN" "http://www.w3.org/Graphics/SVG/1.1/DTD/svg11.dtd">
<!-- Creator: CorelDRAW X7 -->
<svg xmlns="http://www.w3.org/2000/svg" xml:space="preserve" width="276.592mm" height="52.171mm" version="1.1" style="shape-rendering:geometricPrecision; text-rendering:geometricPrecision; image-rendering:optimizeQuality; fill-rule:evenodd; clip-rule:evenodd"
viewBox="0 0 27659 5217"
 xmlns:xlink="http://www.w3.org/1999/xlink">
 <defs>
  <style type="text/css">
   <![CDATA[
    .fil0 {fill:black}
    .fil1 {fill:white}
    .fil2 {fill:url(#id0)}
   ]]>
  </style>
  <linearGradient id="id0" gradientUnits="userSpaceOnUse" x1="216.88" y1="2602.52" x2="4207.89" y2="2602.52">
   <stop offset="0" style="stop-opacity:1; stop-color:#CF4334"/>
   <stop offset="1" style="stop-opacity:1; stop-color:#9F191D"/>
  </linearGradient>
 </defs>
 <g id="Слой_x0020_1">
  <metadata id="CorelCorpID_0Corel-Layer"/>
  <g>
   <path class="fil0" d="M7188 3548c-638,0 -1072,-530 -1072,-1168 0,-651 446,-1169 1072,-1169 422,0 663,157 952,410l482 -567c-349,-337 -735,-602 -1433,-602 -1133,0 -1928,867 -1928,1916 0,1072 807,1915 1903,1915 711,0 1133,-217 1519,-626l-519 -554c-301,277 -554,445 -976,445l0 0zm1772 37c-36,0 -133,-13 -169,-13l-48 651c108,24 301,48 409,48 711,0 1037,-301 1037,-2181l723 0 0 2145 807 0 0 -2843 -2301 0c0,2012 -157,2193 -458,2193l0 0zm4422 -2217c-482,0 -784,84 -1097,228l205 615c265,-96 482,-157 783,-157 398,0 603,181 603,518l0 49c-205,-73 -410,-121 -699,-121 -675,0 -1145,289 -1145,904 0,566 434,879 976,879 386,0 663,-144 855,-361l0 313 784 0 0 -1651c0,-385 -97,-698 -302,-903 -204,-205 -518,-313 -963,-313l0 0zm506 1867c0,289 -253,494 -627,494 -265,0 -434,-132 -434,-349 0,-265 217,-398 555,-398 192,0 373,48 518,109l0 144 -12 0zm3241 -494c241,-108 445,-301 445,-638 0,-446 -373,-711 -951,-711l-1555 0 0 2843 1555 0c650,0 1060,-289 1060,-771 0,-398 -205,-614 -554,-723l0 0zm-1253 -747l578 0c229,0 325,121 325,265 0,169 -108,289 -337,289l-566 0c0,0 0,-554 0,-554zm626 1615l-638 0 0 -567 614 0c277,0 386,121 386,277 12,169 -109,290 -362,290l0 0zm4229 -2217l-2313 0 0 241c0,686 -36,1397 -277,1903l-301 0 0 1350 674 0 60 -663 1784 0 0 663 674 0 97 -1350 -398 0 0 -2144zm-807 2156l-964 0c169,-421 205,-915 217,-1397l0 -61 759 0 0 1458 -12 0zm2771 -2205c-879,0 -1542,663 -1542,1470 0,820 651,1482 1530,1482 880,0 1542,-662 1542,-1482 0,-819 -650,-1470 -1530,-1470l0 0zm0 2266c-446,0 -747,-362 -747,-784 0,-433 277,-783 735,-783 446,0 747,362 747,783 0,422 -277,784 -735,784l0 0zm4157 -2217l-783 1192 -771 -1192 -808 0 0 2843 796 0 0 -1687 771 1145 795 -1169 0 1711 807 0 0 -2843 -807 0z"/>
  </g>
  <g>
   <path class="fil1" d="M4399 494l-12 -157 -144 -48c-37,-12 -844,-277 -1988,-289l-49 0c-1132,12 -1952,277 -1988,289l-144 48 -12 157c0,36 -97,952 -49,1940 25,410 145,807 362,1193 169,301 410,578 699,843 494,446 1000,687 1060,711l60 24 24 12 24 -12c0,0 61,-24 85,-36 60,-24 554,-265 1060,-711 289,-265 530,-542 699,-843 217,-374 349,-771 361,-1193 49,-976 -48,-1892 -48,-1928l0 0zm-193 1928c0,120 -24,229 -36,337l-2458 0 0 -566 506 -458 543 482 1192 0 -1735 -1554 -1723 1554 422 0 0 1337 2928 0c-578,928 -1627,1398 -1627,1398 0,0 -1903,-855 -1988,-2530 -48,-976 49,-1904 49,-1904 0,0 795,-265 1915,-277l48 0c1109,12 1916,277 1916,277 0,0 97,928 48,1904z"/>
  </g>
  <path class="fil2" d="M2194 253c-1108,12 -1915,277 -1915,277 0,0 -97,928 -49,1904 85,1675 1988,2530 1988,2530 0,0 1049,-470 1627,-1398l-2928 0 0 -1337 -422 0 1723 -1554 1723 1554 -1192 0 -543 -482 -494 446 0 566 2446 0c24,-108 36,-217 36,-337 49,-976 -48,-1904 -48,-1904 0,0 -795,-265 -1916,-277l-36 12c12,-12 0,0 0,0z"/>
 </g>
</svg>
