<?xml version="1.0" encoding="UTF-8"?>
<!DOCTYPE svg PUBLIC "-//W3C//DTD SVG 1.1//EN" "http://www.w3.org/Graphics/SVG/1.1/DTD/svg11.dtd">
<!-- Creator: CorelDRAW X7 -->
<svg xmlns="http://www.w3.org/2000/svg" xml:space="preserve" version="1.1" style="shape-rendering:geometricPrecision; text-rendering:geometricPrecision; image-rendering:optimizeQuality; fill-rule:evenodd; clip-rule:evenodd"
viewBox="0 0 33927 15559"
 xmlns:xlink="http://www.w3.org/1999/xlink">
 <defs>
  <style type="text/css">
   <![CDATA[
    .str0 {stroke:#595959;stroke-width:25;stroke-opacity:0.501961}
    .str1 {stroke:#CA2031;stroke-width:17.64}
    .fil1 {fill:none}
    .fil5 {fill:#D0D1D3}
    .fil2 {fill:white}
    .fil6 {fill:#151B23;fill-rule:nonzero}
    .fil7 {fill:#D70022;fill-rule:nonzero}
    .fil0 {fill:#FAFAFA;fill-opacity:0.501961}
    .fil4 {fill:url(#id0)}
    .fil3 {fill:url(#id1)}
   ]]>
  </style>
  <linearGradient id="id0" gradientUnits="userSpaceOnUse" x1="3603.46" y1="6915.52" x2="4488.54" y2="6915.52">
   <stop offset="0" style="stop-opacity:1; stop-color:#CF4334"/>
   <stop offset="1" style="stop-opacity:1; stop-color:#9F191D"/>
  </linearGradient>
  <linearGradient id="id1" gradientUnits="userSpaceOnUse" xlink:href="#id0" x1="3999.46" y1="4423.69" x2="4884.54" y2="4423.69">
  </linearGradient>
 </defs>
 <path class="fil0 str0" d="M23627 3077l-26 68 63 41 68 -41 -23 -87 -82 19zm-5886 1875l112 86 52 -78 19 -68 -63 -41 -75 -12 -45 113zm-217 263l33 49 128 -79 -30 -75 -79 -4 -41 68 -11 41zm6709 -2036l-52 97 -266 151 -198 -188 -195 -19 -277 180 -191 237 -67 240 -128 42 -157 -79 -150 15 -78 101 -72 -60 -63 72 -75 -75 108 -113 -262 -19 -149 132 82 285 -154 147 0 -222 -101 0 -105 94 -22 -113 150 -139 -161 11 -479 245 93 112 -135 136 53 97 97 -49 11 139 116 139 -179 46 -56 71 48 120 -146 23 -195 -60 -59 221 -330 -56 0 488 -236 -37 -363 -331 135 -94 -221 -327 -142 -67 -214 71 -240 -94 -33 376 -438 184 -165 -113 26 -86 -445 -8 -120 158 -26 105 -30 -154 -83 -71 -101 101 -135 68 -7 94 63 83 0 3 4 0 26 154 210 297 4 0 0 4 0 195 105 128 7 8 -7 3 -244 196 -15 112 0 4 0 0 -60 87 -41 210 -3 8 -8 0 -120 -16 -191 158 -4 0 0 0 -63 34 153 237 0 0 0 4 53 657 0 4 -4 4 -135 150 90 67 4 4 0 4 -38 177 79 86 4 0 0 4 0 124 93 64 4 3 0 8 -45 120 0 0 -4 0 -138 169 -15 124 228 0 4 0 4 0 97 79 109 -71 4 -4 7 7 60 76 4 3 0 0 78 121 4 7 -7 4 -90 56 0 105 101 8 78 -56 12 -8 3 11 101 192 0 4 0 3 -7 230 131 75 4 4 0 3 -60 245 75 161 165 49 7 4 -4 7 -123 297 -27 364 128 136 135 -105 3 0 4 0 202 -8 75 -132 8 -11 7 8 109 112 146 -169 228 -488 0 -4 4 -4 153 -22 4 0 0 0 296 116 4 4 0 4 63 191 176 -78 8 -4 4 4 108 75 4 3 0 0 198 451 259 481 161 -105 0 -4 0 0 168 -67 8 0 3 3 128 106 71 -64 7 -4 4 4 105 97 94 -97 3 -4 4 0 236 11 4 0 0 0 149 117 289 -109 4 0 7 4 94 78 400 -184 4 0 0 0 116 27 127 -49 -15 -94 -3 -8 7 0 307 -161 -75 -222 -3 -4 3 -3 105 -113 -45 -105 -194 -132 -8 -4 4 -7 105 -199 -195 -135 -8 -8 4 -7 94 -106 0 -443 0 -8 4 0 378 -146 15 -169 0 -11 11 0 225 -15 48 -139 -7 -143 0 -8 7 -4 109 -48 -83 -290 -153 -109 -4 -3 0 -4 101 -353 -138 -369 0 -3 4 -4 74 -101 4 -4 8 0 265 94 173 -38 56 -105 4 -4 3 0 203 -30 37 -131 -337 -699 0 0 0 -4 34 -173 0 0 3 -4 225 -157 -86 -166 0 -7 4 -4 217 -207 4 0 0 0 194 -22 113 -124 18 -218 -123 -113 -4 -4 0 -3 -7 -139 -79 -121 -7 -7 7 -4 97 -90 -104 -124 -8 -7 8 -4 250 -233 4 -4 0 0 112 -45 87 -124 -161 -331 -199 0 0 0 -4 0 -153 -71 -4 0 -4 -4 -78 -210 -4 -8 4 -3 318 -372 0 -185 -416 -311zm3745 79l-45 -534 -150 -83 348 -240 -48 -162 -644 -52 -79 101 -176 15 -19 139 -142 -11 0 -192 161 -52 64 -132 -34 -349 -64 -26 -78 48 -4 -127 -154 60 -101 -117 38 -191 127 112 75 -60 105 120 63 -150 -15 -176 120 -98 206 22 341 -263 -82 -97 168 26 -4 -169 -183 38 -56 -121 -248 -48 98 -121 -127 -94 116 -82 -146 -192 -416 244 -26 199 -113 151 281 112 -153 68 -450 -124 -520 349 -783 425 -209 346 18 101 -142 41 -198 181 138 176 128 -37 191 105 -19 192 -176 18 -116 72 -251 -158 0 319 -255 192 -97 188 423 319 4 4 0 4 0 191 0 4 -4 0 -315 372 79 203 150 68 202 0 8 0 0 3 78 169 135 19 4 0 0 4 86 150 176 -86 4 0 3 0 165 52 124 -112 3 0 4 0 195 -15 142 -151 -26 -146 0 -8 7 -3 143 -45 41 -139 0 -8 7 0 124 -11 41 -117 0 -7 4 0 228 -53 60 -109 4 -4 4 0 340 -18 8 0 0 3 78 218 240 -71 0 0 0 0 258 7 210 -604 4 -8 11 4 124 67 161 -48zm-2707 4756l127 -86 90 -72 123 -30 -41 -251 217 -68 165 -147 150 -3 -113 161 109 90 157 -176 38 -278 142 -53 112 -146 -116 -91 -101 128 -108 -101 -30 -507 -94 -301 30 -218 180 -259 105 -8 48 -146 210 289 146 -22 11 -109 -33 -222 -38 -154 -142 -79 -4 -4 0 -4 -30 -142 -90 -83 -146 11 -7 0 0 -3 -90 -230 -124 -26 -3 -4 -4 0 -202 -297 -143 151 0 3 -3 0 -195 12 -127 116 -4 4 -4 -4 -168 -52 -180 86 -8 4 -3 -8 -87 -154 -116 -15 75 154 0 4 0 8 -90 127 0 4 -3 0 -116 49 -244 225 105 121 4 7 -4 8 -97 90 75 116 3 0 0 4 8 139 123 113 4 3 0 4 -19 226 0 3 -3 4 -116 128 0 4 -4 0 -195 22 -210 196 83 165 4 7 -4 4 -229 162 -33 165 329 691 154 -105 4 0 3 0 348 117 4 0 0 7 38 192 3 4 -3 3 -83 151 64 124 138 -102 0 -4 4 0 176 0 8 0 0 8 90 150zm265 5948l-18 575 101 176 -401 34 -131 289 371 384 11 139 206 -196 352 4 251 -203 153 -304 71 -834 105 -436 -67 -511 -101 -30 -8 0 0 -8 -22 -120 -169 -120 -187 139 112 120 176 15 12 4 -4 7 -41 278 0 8 -8 0 -123 4 18 176 0 4 -3 4 -184 120 0 4 -4 0 -295 19 -75 97 60 117 3 11 -11 0 -150 34zm-164 -616l131 214 -49 158 79 225 138 -30 -56 -109 -4 -4 4 -7 82 -106 4 -3 4 0 296 -19 176 -117 -23 -180 0 -11 11 0 128 -4 37 -259 -172 -15 -4 0 0 -4 -120 -128 -7 -7 7 -8 203 -150 3 -4 4 4 176 124 4 4 0 3 26 121 90 26 41 -579 -64 -184 -280 -578 -94 -113 -82 -406 -57 -135 -22 -23 -210 -86 -75 -90 64 -128 -157 -64 -326 -56 -255 131 -89 387 -105 -139 -124 158 -101 -297 -217 132 -180 -30 11 -173 233 -586 59 -590 68 -286 -56 -233 75 -210 -34 -229 494 -485 157 30 15 -60 -45 -68 68 -45 -83 -150 -168 0 -146 109 -8 4 -3 -8 -71 -139 0 -3 0 -8 82 -150 -34 -184 -337 -113 -157 105 -37 135 0 4 -8 4 -202 30 -60 101 0 4 -4 0 -180 41 0 0 -3 0 -262 -90 -72 90 139 365 0 4 0 3 -97 346 146 105 3 4 0 0 87 304 0 8 -8 0 -108 53 7 139 0 3 0 0 -52 147 -4 7 -8 0 -221 15 -15 169 0 8 -7 0 -378 146 0 440 0 4 0 4 -86 97 191 136 7 3 -4 8 -104 199 194 128 0 0 4 3 45 117 0 4 -4 7 -101 109 75 211 303 -158 8 -4 3 4 102 112 3 4 0 4 -149 327 15 158 0 7 -4 4 -113 64 8 128 251 0 4 0 3 7 116 173 128 -11 206 -188 30 -143 3 -8 8 0 153 0 49 -93 4 -8 3 0 113 19 4 0 3 7 101 312 0 4 -3 4 -68 67 -3 4 0 0 -251 41 63 132 0 7 -3 4 -98 105 -26 143 0 4 0 0 -150 173 64 79 4 3 -4 8 -97 131 0 162 262 131 3 0 0 4 214 297 135 -128 0 -3 3 0 289 3 0 4 3 0 128 101 382 -127 15 -4 -4 15 -41 162zm-1082 266l146 233 157 136 333 -162 45 -139 247 -278 139 -64 33 -143 -370 124 -4 4 -4 -4 -127 -105 -281 -4 -135 132 -179 270zm-2659 -871l333 -173 255 90 307 -49 449 444 558 578 221 -86 135 64 97 -49 187 56 102 -11 176 -271 -214 -297 -269 -135 -4 0 0 -7 0 -169 0 -4 0 0 97 -132 -64 -79 -3 -3 3 -8 150 -173 26 -142 0 -4 4 0 98 -105 -68 -139 -4 -12 12 -3 258 -42 60 -60 -97 -300 -98 -15 -45 93 -3 4 -8 0 -150 0 -33 139 0 0 -4 4 -210 195 0 0 -4 0 -134 12 -8 0 0 -8 -116 -173 -258 0 -8 0 0 -7 -7 -143 0 -7 3 0 113 -68 -15 -154 0 -4 0 0 150 -323 -94 -101 -618 323 15 94 0 7 -7 4 -135 49 0 3 -4 0 -116 -26 -401 184 -3 4 -8 -4 -93 -82 -293 109 -3 0 -4 0 -150 -117 -228 -11 -98 101 -7 4 -8 -4 -101 -97 -71 63 -7 4 -4 -4 -131 -109 -161 68 -161 102 202 135 8 4 -8 11 -60 82 94 91 168 -91 8 -7 4 11 78 139 128 -30 11 0 0 8 18 255 132 72 11 7 -8 8 -75 105 210 312zm4373 -1676l-7 -19 288 158 94 248 138 180 173 275 123 199 143 109 41 127 41 113 176 83 22 176 184 233 15 -203 -26 -150 142 -11 52 -23 131 68 -104 -225 -158 0 -165 -76 -190 -135 -124 -315 -67 -200 146 -86 273 -15 -614 -417 -438 -391 -199 -376 -273 -191 -127 -162 -90 38 -19 94 161 112 90 132 -49 64 -78 -19 -27 113 158 116 157 357 -15 -4 22 23zm-23383 -2168l41 75 -7 181 127 67 0 0 90 60 82 -60 4 0 0 0 127 8 135 -83 11 -101 4 -8 8 0 149 19 79 -23 4 -3 4 7 59 117 131 48 30 -26 8 -146 -82 -64 -4 -4 0 -4 -8 -94 -52 -52 -82 -60 -4 -4 0 -4 7 -146 -161 -128 -3 0 0 -4 -15 -98 -64 -30 -4 -4 0 -3 0 -60 -26 -45 -94 -8 -15 41 -3 4 -4 0 -38 8 -7 0 0 -4 -26 -34 -41 0 -60 56 0 106 0 3 -4 0 -34 53 30 23 4 0 0 7 4 49 0 11 -12 0 -67 -4 -26 45 18 94 0 4 -3 4 -210 214zm-318 -992l-71 87 -34 56 15 71 75 34 -11 113 187 120 4 214 146 278 202 -206 -19 -91 0 -3 0 0 34 -57 3 -3 4 0 64 3 -4 -37 -34 -27 -7 -3 4 -8 41 -56 0 -102 -135 -139 -135 -26 0 0 0 -4 -97 -64 -4 0 0 -3 -22 -79 -49 -8 -49 27 -3 3 -8 -7 -97 -83zm127 -477l-79 34 -41 79 -56 15 -7 97 82 49 -19 184 98 87 45 -26 3 -4 4 4 56 7 8 0 0 8 26 82 90 60 135 30 0 0 3 0 131 139 60 -56 4 0 4 0 48 0 4 0 4 0 22 34 30 -8 15 -33 -60 -83 -3 0 0 -4 -4 -79 -64 -22 -3 0 -4 -4 -19 -41 0 0 0 -4 0 -68 -30 -37 -4 -4 0 -4 0 -143 -213 -278 -266 -11zm303 -654l-134 -11 -98 -94 11 -90 -93 -19 -53 132 -198 169 15 105 105 -4 78 64 27 139 90 -11 101 19 0 71 -128 165 244 12 299 -222 -22 -38 0 -4 0 -3 0 -49 0 -4 0 0 37 -37 0 0 0 0 53 -30 -8 -42 -60 -4 -33 23 -4 4 -4 0 -56 -34 0 0 -4 -4 -34 -64 0 0 0 -3 -3 -57 0 -4 3 -3 30 -53 -142 -11 -4 0 -3 0 -12 -8zm427 -830l-22 38 -161 93 -83 132 -89 180 -12 151 27 86 -64 79 -4 60 4 4 153 7 60 -26 4 0 0 0 124 0 67 -60 0 -4 4 0 90 8 7 0 4 3 37 132 34 -19 0 -4 4 4 67 8 4 0 4 3 30 49 176 -19 104 -67 116 -166 4 -41 -78 -98 -4 0 0 -3 -11 -87 -195 -37 -4 0 0 0 -97 -72 0 0 0 0 -128 -236 0 0 0 -4 -41 -94 -37 -19 -75 19 -4 0 0 0 -15 0zm-445 1488l213 278 0 4 0 3 0 143 30 38 4 3 0 0 0 72 15 34 63 22 102 4 29 -56 0 0 4 0 184 -154 22 -155 -82 -71 0 -4 -4 0 -41 -90 0 -4 0 0 7 -157 -247 -132 -299 222zm651 409l-180 147 -33 60 0 4 -8 0 -93 -4 3 71 60 79 101 8 4 0 4 4 26 52 4 0 0 4 0 56 60 30 4 4 0 4 14 97 161 124 79 -33 19 -49 -11 -79 -23 -49 0 -4 0 -3 34 -61 4 0 0 -3 138 -64 79 -72 4 -90 -19 -60 -71 -56 -4 -4 0 0 -23 -64 -71 -7 -108 48 0 0 -4 0 -75 -7 -4 0 -3 -4 -68 -79zm464 312l0 15 0 4 -3 4 -83 75 0 0 -3 4 -135 60 -30 52 22 45 0 4 0 0 12 83 0 4 0 0 -23 56 0 0 -4 4 -82 37 -8 139 79 57 0 0 0 0 56 56 4 0 0 4 8 94 78 64 124 -23 239 -124 30 -41 0 -199 0 0 0 -4 27 -135 0 -4 0 0 104 -124 -82 -94 -52 30 0 0 0 0 -45 15 -4 0 -4 0 -67 -41 0 0 0 -4 -60 -109 -98 -4zm-554 -811l-3 154 41 86 82 79 4 4 0 3 -23 158 68 83 71 4 109 -49 0 0 3 0 68 7 7 -41 0 -4 0 0 49 -67 4 0 0 0 97 -106 0 -67 0 -4 0 0 60 -60 -11 -120 -72 -45 -3 0 0 -4 -30 -64 -150 8 -34 45 -7 3 -8 -3 -127 -79 -37 -12 -158 91zm588 323l-97 105 -45 64 -8 45 23 64 75 60 0 0 0 4 22 63 0 0 0 4 -4 60 102 8 7 0 0 4 60 109 64 37 37 -11 56 -38 8 -3 3 7 94 102 64 22 56 0 187 -169 0 0 0 0 97 -71 -22 -64 0 0 -37 -102 -191 -327 -116 -3 -42 37 -7 4 -4 -4 -49 -30 0 0 -45 -34 -22 19 0 0 -4 0 -82 23 -4 0 0 0 -49 -23 -29 30 -4 4 0 0 -94 4zm-67 -395l30 -34 41 -63 0 -151 -67 -41 -4 0 0 0 -53 -86 -3 0 0 -4 -12 -87 -97 64 0 0 -4 0 -183 19 -4 0 -4 -4 -33 -49 -60 -11 -41 26 -8 4 -4 -11 -41 -135 -79 -4 -67 64 0 0 -4 0 -123 0 -60 26 -38 60 4 57 30 60 49 26 30 -26 3 0 4 0 71 3 8 0 0 8 7 53 0 7 -3 4 -57 34 -33 30 0 45 26 41 251 132 161 -94 4 0 3 0 38 15 4 0 0 0 123 75 34 -42 4 -3 3 0 154 -8zm-53 -477l15 94 53 83 71 37 4 4 0 4 0 161 0 0 0 4 -45 68 -4 0 -26 33 30 64 71 45 4 0 3 4 12 132 0 3 -4 4 -56 57 0 56 78 -4 34 -30 7 -4 4 0 49 23 75 -19 30 -22 3 -4 4 4 53 37 0 0 41 26 37 -33 4 -4 4 0 120 4 45 -68 29 -90 -26 -26 -3 0 0 0 -53 -68 0 -4 0 0 -45 -135 0 -4 0 0 30 -98 0 0 4 0 97 -116 0 0 4 0 60 -60 15 -68 -79 -94 -187 0 -4 0 -3 0 -206 -135 -4 0 0 -7 4 -79 -27 -12 -18 23 -4 0 -4 0 -176 26 -4 15 0 4 0 0 -116 169zm813 184l-49 45 -97 113 -30 90 41 132 53 67 33 30 4 4 -4 8 -30 94 -3 0 0 0 -45 71 187 316 131 -79 4 0 0 0 164 -8 184 -109 -38 -105 -179 -229 -86 -42 -4 0 0 0 -68 -75 -7 -3 7 -8 49 -68 19 -82 -41 -42 -87 76 -7 3 -8 -3 -82 -91 -4 -3 0 -4 -7 -98zm243 143l12 11 3 4 0 4 -22 90 -4 4 0 0 -45 60 60 67 90 42 0 0 4 0 179 233 0 0 0 3 42 106 56 -12 45 -60 0 -4 3 0 113 -7 3 0 0 0 45 41 68 -37 18 -241 -104 -60 -4 0 -4 -7 -4 -98 -48 -45 -83 26 -3 4 0 -4 -266 -139 -154 19zm266 19l157 82 83 -26 3 0 4 4 56 49 4 3 0 4 4 98 108 60 8 0 -4 8 -19 240 323 0 41 -26 3 0 0 0 109 3 8 0 0 4 29 83 87 37 0 4 3 0 71 75 120 -124 4 0 4 0 288 4 8 -184 0 -4 3 0 56 -64 -63 -64 -154 42 -3 0 -4 -4 -232 -135 0 0 -4 -4 -139 -255 -209 -128 -322 -19 -113 79 0 0 -3 0 -124 7 -37 57 -4 4 0 0 -150 90zm-483 -271l139 -64 -19 -64 0 0 0 -3 41 -237 4 -8 7 0 120 12 150 -151 -19 -172 -150 0 0 7 -15 -11 -161 -147 -97 8 -4 0 -3 -4 -116 -94 -4 -4 0 0 -19 -86 -90 -64 -30 26 -15 79 0 8 -11 0 -213 -19 -4 0 0 -4 -75 -60 -210 -56 0 0 -3 0 -109 -83 0 0 0 0 -60 -60 -56 56 -34 139 0 4 0 0 -63 98 0 4 -4 0 -146 26 33 90 128 233 90 68 198 33 8 0 0 8 15 94 78 98 4 3 0 4 -4 11 172 -22 23 -26 4 -4 7 4 38 18 3 0 0 8 -3 79 198 131 191 -3 4 0 3 3 79 94zm895 23l-116 -113 -4 -4 0 -3 45 -166 -86 -109 -79 4 0 0 -3 -4 -199 -128 -153 151 -4 4 -4 0 -112 -12 -41 226 18 71 4 8 -7 3 -146 68 -15 71 7 113 75 83 90 -75 7 -4 4 4 23 22 176 -19 0 0 3 0 86 45 158 -93 37 -61 4 -3 4 0 127 -8 101 -71zm-221 3513l-4 109 60 142 68 -15 48 -45 101 49 -3 72 -30 63 33 38 102 34 37 139 37 169 -41 109 41 90 113 -71 48 15 38 75 22 128 75 52 86 -56 83 4 157 67 -4 75 34 57 79 15 63 -68 68 68 89 56 -22 135 22 79 87 98 74 26 72 -45 60 19 44 90 180 56 79 -56 78 -113 -138 -304 -11 -7 -4 -4 0 -4 -30 -90 -4 -4 4 -7 75 -57 19 -56 -38 -79 -191 -60 -93 22 -45 113 -4 4 -4 0 -120 -11 -3 0 0 -4 -109 -105 -195 -45 -3 0 -4 -4 -41 -83 -4 -7 4 -4 78 -83 -48 -52 -4 0 0 -8 4 -49 0 -7 7 0 67 -23 8 -120 -101 4 -49 34 -11 7 -4 -15 -15 -143 0 -7 4 0 49 -19 3 -86 -45 -49 -3 -4 0 -4 7 -199 -56 -79 -4 -4 0 -3 0 -267 -52 -117 0 -3 0 -4 26 -105 -71 -79 -4 11 0 0 -37 120 0 4 0 0 -26 53 -4 3 0 0 -210 117 -52 98 0 0 -4 3 -142 45 0 0 -4 0 -71 12 -146 127 -4 0 -4 0 -209 19 -8 8zm-1026 -87l94 87 -12 101 -22 75 52 102 109 -49 52 -109 64 -68 154 27 82 -68 60 -4 41 34 154 -11 112 -30 75 -15 4 -8 3 -64 -7 -56 -75 -109 -4 -4 0 -4 11 -127 -82 -109 0 0 -4 -4 -30 -120 0 0 0 0 -3 -72 -72 -22 0 0 0 0 -209 -113 -4 -4 0 -3 -4 -117 -202 -34 0 0 -4 0 -213 -127 -4 -4 0 -4 0 -71 -30 -53 -105 -11 -7 0 0 -4 -154 -240 -206 105 0 0 0 0 -119 22 -8 147 0 4 -4 3 -33 30 11 117 60 79 93 22 0 0 4 0 165 162 4 4 0 3 0 121 0 3 -4 0 -75 83 -4 79 60 4 68 -27 11 -7 4 15 3 131 42 61 97 18 7 4 0 8 4 221zm846 -605l4 68 30 120 86 105 0 4 0 4 -11 131 75 106 0 3 4 0 7 61 0 0 0 3 -4 60 202 -18 147 -124 3 -4 0 0 75 -11 142 -45 49 -94 4 -4 0 0 210 -117 26 -48 33 -121 15 -56 -104 -150 -45 -38 -45 30 -4 4 0 0 -41 7 -8 0 -3 -3 -83 -121 -26 19 -105 113 -4 0 0 0 -60 37 -3 0 -4 0 -79 -18 -3 0 0 -4 -120 -105 -83 -60 -74 7 -124 15 -49 72 -3 30 41 22 3 0 0 8 -14 82 0 4 -4 4 -53 22zm-288 -263l4 113 202 109 71 26 53 -22 11 -72 -41 -18 -4 -4 0 -4 4 -41 0 0 0 -4 52 -75 4 -4 3 0 132 -19 0 0 78 -7 0 0 4 0 86 64 0 0 0 0 120 105 71 19 56 -34 105 -113 4 0 0 0 26 -19 -79 -97 -3 -8 3 -4 34 -41 -7 -83 -158 -11 -3 0 -4 -4 -90 -127 -112 -4 -8 0 0 -8 -41 -101 -124 -150 -18 22 -23 109 0 4 0 0 -30 41 -4 8 -3 -4 -191 -64 0 195 0 4 -4 4 -37 45 33 71 4 4 -4 4 -15 49 0 0 -3 4 -154 142zm-412 -1059l-56 0 0 0 -4 0 -60 -23 -105 128 -22 132 0 202 0 4 -4 0 -33 49 0 0 -4 0 -23 11 150 241 105 11 7 0 0 4 34 56 0 4 0 4 0 67 210 121 206 37 153 -146 12 -42 -38 -71 0 -4 4 -7 41 -46 0 -199 -71 -7 -8 0 0 -4 -52 -113 -116 -18 -41 33 -8 8 -4 -11 -74 -121 0 0 0 -3 -12 -136 -123 0 -4 0 -4 -7 -56 -154zm300 -244l-98 71 -183 165 52 151 124 0 11 0 0 7 11 143 64 109 34 -30 3 0 4 0 127 22 4 0 4 4 49 113 67 4 0 -4 11 4 195 67 26 -34 23 -112 0 0 0 -4 26 -30 37 -68 4 -49 -52 -30 -4 0 -4 -7 -7 -57 -30 -18 -19 30 -4 4 -4 0 -131 3 -15 38 -3 7 -8 0 -67 -11 -4 0 -4 -7 -67 -132 0 0 0 -4 -23 -191 -149 -154zm614 529l-4 53 0 4 0 0 -37 64 127 154 0 0 0 3 19 42 93 -27 0 0 0 0 128 -15 11 -97 0 -4 4 -4 67 -34 0 -3 0 0 127 -30 15 -109 -34 -188 -247 -79 -138 37 -15 147 0 4 -4 4 -112 78zm-667 -710l38 98 0 0 26 68 153 157 4 4 0 4 19 192 67 127 56 12 15 -38 0 -4 8 0 131 -7 22 -30 4 -8 8 4 45 22 3 4 0 4 8 60 49 26 112 -79 11 -146 0 -8 8 0 142 -41 7 -214 0 -8 8 0 127 -3 71 -57 4 -3 8 3 134 87 113 -154 3 -8 8 8 131 94 90 -42 37 -49 -75 -97 -157 -162 -90 -41 -4 0 0 -4 -29 -83 -98 0 -37 27 -4 0 -4 0 -333 -4 -75 45 -7 4 -4 -4 -45 -41 -101 7 -41 60 -4 4 -4 0 -67 15 -191 113 0 0 -4 0 -165 7 -131 79zm1285 245l-139 -87 -64 53 -3 0 -4 0 -120 7 -7 203 243 79 7 4 0 4 38 199 0 0 0 0 -11 101 63 -26 0 0 4 0 206 -30 0 0 4 0 146 45 0 4 4 3 44 75 75 -71 -7 -161 -30 -79 -101 -113 -255 -45 -4 0 -3 -4 -60 -45 0 -4 0 -4 -26 -108zm486 589l-71 64 -7 8 -8 -8 -48 -82 -139 -45 -202 30 -75 26 0 4 -8 0 -131 33 -60 34 -14 98 0 7 -8 0 -131 19 -90 27 15 37 112 4 4 0 0 4 90 131 161 8 8 3 3 8 8 94 0 4 -4 3 -30 38 75 90 0 0 4 8 86 124 33 -8 53 -34 7 -3 4 3 53 45 0 0 0 0 104 154 4 4 0 4 -7 26 82 94 4 4 0 4 -26 109 48 109 23 0 33 -72 0 0 42 -86 0 -8 7 0 67 4 4 0 0 0 90 56 23 -30 -15 -97 -64 -64 -4 -4 0 -4 15 -101 0 -8 11 0 165 19 135 -41 19 -113 -49 -7 -4 0 0 -4 -33 -38 -4 -7 7 -4 71 -53 4 -22 -63 -8 -8 -3 0 -4 -7 -42 0 -3 0 -4 37 -64 -26 -15 -120 64 0 4 -4 -4 -142 -26 -4 0 -4 -4 -59 -98 0 -4 0 0 -38 -116 0 0 0 -4 -4 -267zm42 327l15 53 59 94 135 26 120 -64 8 -4 3 4 34 27 7 3 -3 8 -38 67 4 30 67 8 8 0 0 11 -8 38 0 4 -3 0 -64 48 22 30 53 8 82 0 86 -79 4 -195 0 -12 11 0 79 8 79 -90 52 -135 0 0 0 0 79 -87 93 -237 -48 -33 0 0 0 0 -53 -64 -71 15 -7 0 -4 -4 -94 -90 -146 -4 -4 53 0 0 -7 71 0 4 -4 0 -105 90 -3 4 -8 -4 -82 -38 -68 -7 -63 244 -4 4 -4 4 -142 18 -67 173zm602 323l-89 83 -4 4 -4 0 -79 0 -18 116 0 4 -8 4 -142 45 0 0 -4 0 -161 -19 -11 86 64 64 0 0 0 4 18 105 0 4 0 4 -30 41 -3 8 -8 -4 -97 -60 -60 -4 -38 83 0 0 -33 79 0 3 -8 0 -26 0 0 260 56 75 4 4 0 3 -8 199 45 53 4 0 0 8 -7 93 0 4 -4 4 -45 15 15 124 37 -26 4 -4 4 0 112 -4 11 0 0 8 -11 139 0 7 -7 0 -68 23 -3 41 52 53 4 7 -4 8 -79 82 38 72 194 45 4 4 0 0 109 105 105 11 45 -109 3 -4 4 0 90 -26 15 -83 11 -82 0 -8 8 0 116 -30 15 -94 0 0 0 -4 97 -165 0 0 4 -4 161 -90 4 -4 3 4 83 42 41 0 26 -106 4 -3 4 -4 82 -23 45 -37 -64 -64 -37 15 -60 34 -4 0 -4 0 -258 -87 0 0 -4 0 -60 -49 0 -3 0 0 -71 -154 0 -4 0 -4 34 -90 0 -4 4 -4 119 -71 4 -4 4 0 67 8 4 0 4 4 52 71 4 0 0 4 4 120 48 38 64 -27 0 -4 4 0 60 8 3 0 0 0 42 30 0 0 0 0 93 90 41 -22 30 -64 -56 -75 0 0 0 -4 -11 -60 0 -4 4 0 56 -113 15 -90 -49 -4 0 -3 -4 0 -168 -72 0 -4 0 0 -71 -56 -4 0 0 -4 -26 -82 -68 18 -7 4 -4 -7 -30 -42 0 -3 -3 0 -12 -76 0 0 -7 -45 -79 -18 -7 -4 0 -4 -8 -101 -180 -8 -7 0 0 -11 0 -132 -79 0zm555 -1551l-120 56 -4 0 -4 0 -344 -131 -113 127 -7 8 -8 -4 -52 -45 -4 -4 0 -4 0 -206 -30 -68 0 -4 4 -3 273 -308 -11 -132 -78 -98 -109 15 -157 106 0 0 -4 0 -139 -8 -18 53 97 90 8 7 -8 8 -120 124 0 0 -60 64 -7 191 0 8 -8 0 -295 -4 -117 117 72 75 0 0 3 3 79 106 7 7 -7 4 -45 56 0 0 -4 0 -97 45 -4 0 -4 -3 -127 -91 -105 151 23 105 56 45 258 45 4 4 0 0 105 116 0 0 0 0 34 83 0 4 0 0 7 169 0 4 0 0 4 285 7 34 60 -158 4 -4 4 0 142 -22 67 -244 4 -8 8 0 75 8 0 0 0 0 82 37 97 -82 8 -68 3 -60 0 -8 12 0 157 8 4 0 3 0 94 90 71 -15 8 0 0 4 60 64 41 33 75 -82 60 -79 -68 -60 -4 -4 0 -4 0 -94 0 -7 8 0 251 -109 -8 -135 -149 -203zm5650 -2728l67 7 15 -45 -49 -48 -52 15 19 71zm217 353l82 30 83 -15 -38 -124 -101 57 -26 52zm191 60l-101 8 -49 176 -161 -150 -41 154 168 188 12 162 -315 -282 -7 -177 131 -161 18 -260 -52 27 -64 176 -97 87 -105 30 -97 146 7 387 -239 380 11 229 247 0 198 240 0 230 -142 172 41 79 113 64 -210 49 -60 -222 157 -274 -67 -207 -240 -33 -134 127 -15 290 -218 225 -202 75 -135 147 -460 -286 0 -135 307 139 161 -64 258 -165 176 -353 -26 -192 296 -710 33 -124 -33 -162 195 -184 41 -263 -154 -199 157 -22 -22 -188 -154 -12 -11 139 30 83 -97 -41 -146 112 -176 230 -135 131 -206 49 -109 101 109 143 -120 211 -161 48 -4 76 143 146 -49 139 23 87 56 78 -184 166 -56 -90 -49 -215 -191 -304 -108 90 64 113 0 8 0 3 -135 237 52 173 0 4 -4 3 -82 128 0 4 -4 0 -135 45 -86 101 -3 4 -4 0 -337 15 -172 143 0 4 -4 0 -112 0 -8 285 0 4 -4 4 -131 184 86 180 326 26 0 0 4 0 153 121 4 3 0 4 4 158 56 49 371 22 4 0 3 0 116 147 0 4 0 3 12 237 63 83 0 4 0 0 -4 157 244 0 4 0 3 0 225 207 307 135 4 0 0 4 112 188 202 124 206 19 165 -124 8 -4 3 4 154 142 153 -3 8 0 4 3 116 173 60 4 3 0 4 4 112 112 232 -296 15 -192 0 -4 0 -3 154 -211 -26 -173 -176 -131 -4 -4 0 -7 45 -248 -120 -162 0 -4 0 -4 38 -345 -146 -192 -4 -4 0 -3 60 -177 -60 -139 -4 -11 11 0 188 -53 82 -203 -41 -240 -199 -49 -3 -4 -4 0 -180 -240 -4 -4 0 -4 38 -146 0 -4 7 -4 270 -120 26 -109 -112 -244 -4 -4 4 -4 26 -161 4 -4 3 -4 120 -19 -112 -236 0 0 0 -4 0 -19zm-4074 5839l139 0 112 192 90 11 4 0 29 -83 0 0 0 -4 161 -150 27 -113 0 -3 0 0 97 -109 4 -4 7 0 120 26 30 -49 19 -90 -30 -90 -105 -38 -4 -3 0 -4 -18 -56 0 -4 3 -4 49 -60 15 -150 0 -4 4 0 172 -169 7 -8 4 8 97 98 8 3 -8 8 -52 75 67 11 4 0 0 4 176 124 135 -19 4 0 0 0 127 72 120 3 165 -112 -292 -222 -4 -4 0 0 -142 -282 0 0 -105 -236 -83 -19 0 0 -3 0 -173 -72 0 0 0 0 -90 -82 -22 67 -4 8 -7 0 -139 -8 -30 38 -3 4 0 0 -87 45 -3 0 -4 0 -68 -15 -41 34 -3 3 -4 0 -86 0 0 0 -4 0 -109 -48 -45 90 -3 3 -4 0 -154 31 -101 172 -3 4 -4 0 -277 -7 -75 157 4 158 3 4 -7 4 -75 19 -26 124 63 146 0 0 0 0 27 98 116 34 3 3 0 0 109 98 0 4 0 4 4 97 161 139 0 4 0 4 11 90 0 0 0 0zm-1307 -169l277 64 158 97 89 -71 139 71 461 91 164 -76 0 -7 -7 -87 -161 -139 0 0 0 -3 -4 -102 -105 -94 -120 -37 -3 0 0 -8 -27 -97 -63 -151 -4 0 0 -3 26 -124 -131 -64 -93 49 -8 3 -4 -7 -82 -102 -168 -56 -191 56 11 57 0 0 0 0 -4 176 0 4 -4 4 -262 195 -7 94 198 120 8 4 -4 8 -79 135zm-1078 481l56 -72 184 -15 15 -135 89 -49 90 8 113 86 71 -64 -86 -135 -38 -139 94 -98 82 -22 127 135 263 19 0 -4 0 0 3 -4 71 -127 -194 -117 -4 -4 0 -7 7 -102 0 -3 4 -4 262 -196 4 -172 -22 -121 -72 -67 -37 26 -4 0 -3 0 -68 -19 0 0 -4 0 -277 -240 -48 11 -15 94 0 4 0 0 -60 109 7 56 60 79 4 4 -4 4 -34 67 0 4 -3 0 -53 30 -3 4 -4 -4 -98 -94 -37 -26 -56 -8 -68 30 -3 4 -4 -4 -56 -45 -4 -4 0 -3 -4 -121 -48 -67 -64 -4 -116 71 -30 87 67 146 56 49 255 83 56 -30 0 0 41 -19 8 -4 4 4 75 79 7 7 -7 4 -57 45 0 0 0 0 -78 27 -30 105 -4 7 -7 0 -49 0 0 0 -4 0 -78 -41 -154 86 -97 162 -12 101 -3 4 -4 4 -116 26 -11 79 0 0 -15 83 194 56 4 4 0 4 41 86 0 4 0 4 -18 60 0 3 -4 0 -71 57 26 79zm1951 -3555l-49 83 -34 79 0 0 -3 4 -158 206 0 0 0 0 -236 233 0 0 0 4 -198 90 -4 87 64 124 0 7 -4 4 -86 98 -11 131 0 4 -4 4 -56 67 0 4 -4 0 -187 8 -26 120 -4 4 0 0 -79 52 -7 4 -8 -4 -75 -86 -101 169 -3 4 -4 0 -172 15 -150 176 26 83 71 52 165 76 52 7 60 -15 4 0 4 4 281 240 60 15 41 -26 7 -4 4 8 79 71 0 4 0 4 11 52 195 -60 0 -4 3 4 176 60 0 0 4 4 75 98 93 -49 4 0 4 0 139 68 71 -19 -8 -151 0 -3 4 0 79 -169 0 -4 7 0 277 7 94 -165 -71 -105 0 -4 0 -4 7 -101 0 0 30 -184 -191 -124 0 0 -4 -4 -30 -83 -3 -3 3 -8 109 -128 -23 -112 0 0 -37 -199 0 -4 0 -4 94 -128 -8 -146 -101 -252 -180 -105 -3 -4 0 -4 -27 -120 -48 -53zm1217 -1070l-109 3 -150 136 -4 0 -3 0 -139 7 -4 0 -3 -4 -45 -71 -221 199 -38 128 0 4 0 0 -235 210 -259 443 56 57 0 0 0 4 30 120 176 105 0 4 4 0 105 255 0 4 0 0 7 154 0 4 -3 0 -90 128 37 195 0 0 23 116 0 4 -4 4 -105 128 26 79 195 120 4 4 0 7 -30 188 0 0 -8 101 68 102 149 -30 49 -90 4 -8 7 4 116 49 83 0 41 -34 4 -4 3 0 68 15 82 -41 34 -42 4 -3 3 0 139 7 26 -75 4 -15 11 11 98 90 168 72 86 19 4 0 4 3 104 241 0 0 143 278 299 225 161 -94 23 -101 0 -4 4 -4 97 -63 4 0 3 0 116 11 105 -327 0 -4 0 0 146 -109 4 -4 4 0 157 46 0 0 0 0 210 139 314 7 4 0 4 0 217 162 266 -151 4 -3 7 3 135 98 157 -19 169 -75 30 -79 -191 -109 -8 -4 0 -7 0 -240 -112 -113 -64 -8 -4 0 -3 -3 -116 -170 -154 4 -4 0 -3 -4 -150 -139 -161 121 -4 3 -4 0 -209 -22 -4 0 0 0 -206 -124 0 -4 0 0 -116 -188 -307 -135 0 0 0 0 -225 -203 -251 0 -7 0 0 -11 4 -162 -64 -82 0 0 0 -4 -11 -237 -109 -143 -371 -18 -3 0 -4 -4 -60 -53 0 -3 0 -4 -8 -154 -149 -117 -326 -26 -4 0 -4 -4 -89 -191 0 -4 0 -4 134 -188 12 -285zm-6373 -2078l-45 34 -26 67 7 233 0 8 -7 0 -169 56 -11 79 0 8 -8 0 -56 3 -15 57 -4 3 0 0 -26 27 60 56 109 79 209 56 4 0 0 4 71 60 206 19 12 -75 0 -4 3 -4 41 -30 4 -3 8 3 93 68 4 4 0 3 23 87 112 90 97 -4 4 -3 0 3 153 136 8 -68 -26 -86 -68 -76 -7 -7 4 -4 67 -101 -11 -113 -60 -120 -4 -4 0 -4 19 -82 -60 -8 -4 0 -4 -7 -11 -53 -105 -4 -7 0 0 -4 -30 -56 -4 -4 4 -3 26 -53 -7 -64 -79 -26 -26 30 0 4 -8 0 -56 -8 0 0 -4 0 -56 -49 -86 11 -7 0 -4 -3 -49 -90 -60 -30 -97 52 -11 4 -4 -11 -26 -83zm1056 1322l198 128 79 -4 3 0 4 4 94 113 0 4 0 7 -45 166 120 112 325 19 0 0 4 0 214 132 0 0 3 3 139 256 225 135 157 -41 4 0 3 3 68 68 108 -113 -97 -90 -4 -4 0 -7 26 -60 4 -8 4 4 142 4 150 -98 0 -105 -101 -53 -8 -3 4 -8 30 -86 -94 -34 -63 30 -11 4 -4 -12 -75 -191 -187 -8 -4 0 -4 -4 -120 -139 -112 -71 0 0 -4 0 -108 -105 0 0 0 0 -318 -365 -4 0 0 -3 26 -184 0 -4 0 0 120 -135 -79 -27 -7 -4 0 -3 0 -124 -98 0 -63 60 -4 4 -4 0 -135 -8 -3 0 0 0 -64 -68 -64 0 -86 31 -146 105 -93 199 -4 7 -8 0 -157 -11 -86 45 -64 98 68 71 0 4 3 0 27 90 0 0 0 4 -8 79 154 0 7 0 0 7 23 184zm-1082 -1773l-98 8 -150 120 -89 120 -169 -7 -105 169 -120 15 -7 135 -180 116 11 173 72 90 -83 106 19 82 120 30 22 121 -37 67 7 0 79 -19 4 0 3 0 42 23 149 -30 56 -90 34 -139 4 -4 0 -4 94 -94 14 -60 4 -4 8 0 52 -7 11 -75 0 -8 8 0 168 -56 -7 -226 0 0 0 -3 30 -72 0 -4 4 0 52 -45 56 -169 -71 -116 -4 0 0 -4 -3 -139zm924 -240l-161 3 -198 76 -11 161 18 71 -59 49 -42 -112 -78 -4 -124 -117 -150 98 -104 11 7 139 71 117 4 4 0 3 -56 173 26 87 94 -49 3 0 4 0 67 30 0 4 4 0 49 90 86 -12 4 0 3 0 57 53 45 4 26 -34 4 -4 7 4 90 30 7 0 0 8 8 75 0 0 -4 3 -26 49 26 45 109 4 3 0 4 8 15 56 60 8 8 0 0 11 -19 90 60 116 0 0 0 4 11 102 82 -42 0 0 4 0 154 12 93 -196 0 -4 4 0 146 -112 0 0 4 0 90 -30 3 0 0 0 131 0 64 -53 -124 -161 -78 -16 -4 -3 -4 -4 -37 -124 -49 4 -7 75 -4 11 -7 -4 -42 -7 -3 -4 -4 0 -30 -52 -38 11 -7 86 0 11 -11 0 -56 -15 -4 0 0 -3 -34 -64 -153 0 -4 0 -4 -4 -60 -90 -146 0 -4 0 -3 -4 -42 -49 -3 -7 3 -4 251 -304 -15 -308zm2153 -613l42 -252 59 83 -26 177 75 158 19 259 105 158 22 161 382 229 236 -41 176 -240 49 -256 -79 -304 8 -444 -49 -161 -120 -196 -22 -150 56 -34 71 102 75 -49 -68 -132 -262 -176 -370 -34 -72 53 -187 109 4 146 -127 207 -247 4 -83 105 180 244 4 4 0 3 -30 143 149 75 4 4 0 0 26 45zm-453 1022l-15 -83 15 -67 -63 -90 60 -106 179 -225 154 -49 86 -154 34 -218 -34 -64 -157 -75 -4 -4 0 -7 30 -147 -176 -236 -210 263 -108 -8 -135 94 -98 -4 -41 98 -45 83 -75 60 42 83 -53 52 -179 -26 -49 169 -38 259 -104 45 -480 -64 -217 8 8 143 116 -27 0 0 3 0 154 23 4 0 3 4 60 86 0 4 0 4 0 105 0 4 -3 3 -53 60 4 121 0 3 0 0 -15 106 0 3 -4 0 -75 60 -22 61 30 63 41 8 4 -83 0 -7 7 0 53 -19 7 0 0 8 34 52 26 8 8 -76 0 -7 7 0 67 -4 8 -4 0 8 37 128 79 15 4 0 3 3 120 158 19 -49 -11 -154 0 0 0 -3 56 -109 0 0 0 0 198 -218 4 -4 8 4 116 26 3 0 4 4 34 67 4 4 0 4 -19 116 0 4 -4 0 -86 87 -146 161 -37 143 97 0 7 0 0 7 0 128 79 27 56 -64 4 -4 4 0 71 0 30 -132 0 0 0 -3 135 -139 -34 -57 0 0 -41 -71 0 -4 0 -4 30 -109 0 -3 3 0 131 -132 12 -71 0 -8 11 0 90 27 56 11 67 -75 0 -4 4 0 11 -4zm2056 992l-180 233 64 98 4 3 -4 8 -41 75 30 124 3 8 -7 3 -116 64 -4 4 -4 -4 -149 -94 -143 4 -7 4 0 -8 -26 -109 -356 -274 -41 60 101 162 0 3 0 4 -30 139 0 4 -4 0 -86 86 41 68 0 4 0 0 8 75 0 7 -12 0 -138 8 -112 147 -4 86 131 56 56 -67 4 -4 0 0 127 -41 8 -4 3 7 79 158 4 8 -8 3 -292 233 -4 132 0 4 -3 0 -105 79 -4 3 -4 0 -127 -52 -94 75 -273 304 26 64 4 0 0 4 0 203 41 33 116 -127 4 -4 7 4 345 131 120 -52 67 -169 0 -8 8 0 228 23 4 0 4 3 168 192 187 98 259 26 104 -56 4 -4 4 4 281 233 172 22 315 -533 0 -4 0 0 235 -211 34 -127 0 -4 4 0 232 -207 8 -7 7 7 45 75 131 -7 154 -135 0 0 3 0 236 -4 172 -143 0 0 4 0 337 -15 86 -105 4 0 0 -4 135 -41 78 -124 -52 -169 0 -4 0 -4 64 -109 -68 -15 -41 64 0 4 -7 0 -79 0 -101 98 -4 3 -7 -3 -124 -27 -94 109 0 4 -3 0 -281 22 -4 0 -4 -3 -1209 -868 -116 37 0 0 -4 0 -524 -56zm-1846 -1334l37 42 49 -34 -15 -60 -37 -30 -30 41 -4 41zm3632 139l64 -49 0 -101 -75 -19 11 169zm1007 1469l-93 -169 -244 -267 -183 0 -26 109 -4 162 -135 79 -71 -15 -49 71 -93 -71 108 -98 0 -109 -348 -4 -172 -127 -262 22 -94 -127 157 -16 83 -161 -210 -49 -97 120 -49 -90 -539 -131 -68 67 -78 -71 -285 165 -146 -143 45 -127 -45 -128 176 -56 161 112 79 -127 -4 -233 -217 -233 -64 229 -292 191 -22 147 -143 128 57 293 153 233 142 15 4 4 0 3 79 109 520 57 120 -38 4 0 3 4 1214 868 269 -23 98 -113 3 -3 4 3 124 27 101 -94 3 -4 4 0 79 0 41 -64 4 -4 7 0 75 15 64 -108 -68 -117 -3 -7 7 -8 116 -98zm-427 -507l-108 11 -86 -142 22 -132 135 -34 41 147 -4 150zm-206 -526l45 -436 34 -169 142 -154 173 -56 67 -98 -37 -120 123 79 116 -11 26 -87 75 8 8 -87 90 34 18 -86 68 75 52 -68 15 -105 98 71 63 -60 131 30 109 -128 835 -15 198 -109 23 -150 -83 -101 -202 49 -34 75 -344 -27 -146 -127 -131 75 -131 -57 -169 109 -134 0 -72 57 -89 -98 -45 199 -105 8 -11 79 -255 82 -94 -41 -56 68 75 75 -105 97 -165 -67 -22 124 -120 -4 -7 98 -165 86 -101 -37 -116 86 -4 128 105 109 7 165 -101 105 79 177 90 11 7 79 101 23 71 37zm-2606 98l-146 131 -71 -127 98 -19 -120 -229 -187 26 -184 -60 -232 34 -127 315 -90 -52 -135 -309 22 -240 -217 23 -60 206 94 113 -86 120 -142 -79 -27 -165 -3 0 -72 79 -3 4 -4 0 -60 -15 0 0 -82 -19 -12 60 0 4 0 3 -134 132 -27 101 42 72 33 60 4 4 -4 7 -138 143 -30 135 0 8 -8 0 -75 0 -56 64 0 0 -127 142 -23 177 319 361 108 101 113 71 0 4 3 0 116 135 191 8 4 0 4 4 75 191 56 -26 4 0 3 0 109 38 11 3 -3 8 -34 90 101 49 4 4 0 3 0 106 105 -15 7 0 0 3 86 102 4 4 0 3 7 121 87 -68 3 -4 4 4 127 52 98 -75 3 -127 0 -4 4 -4 292 -233 -71 -143 -120 38 -56 71 -4 8 -7 -4 -146 -60 -4 -4 0 -7 4 -94 0 -4 4 -4 116 -150 0 -4 3 0 139 -7 -8 -60 -41 -72 -4 -4 8 -7 86 -86 30 -136 -101 -165 -4 -8 4 -3 49 -72 3 -7 8 4 371 285 3 4 0 0 23 101 138 -3 0 0 4 0 146 93 105 -60 -30 -120 0 -4 4 -3 37 -72 -63 -101 -4 -4 4 -4 183 -240 -71 -105 -142 -19 -4 0 -4 -4 -153 -237 -4 0 0 0 -53 -285zm-6702 -1176l330 717 205 -109 19 -394 -97 -154 -45 180 -101 -64 -79 -233 -97 64 -135 -7zm1161 5271l0 49 -154 -4 -60 87 -75 11 -93 165 -157 60 -113 -169 -266 -34 -119 128 262 158 -79 53 -135 -83 -78 64 45 90 97 0 4 0 3 4 116 142 4 8 -4 4 -86 165 113 139 3 4 -3 4 -27 52 -3 113 63 79 60 -68 8 -7 4 3 101 38 37 -60 4 -8 7 4 83 34 3 0 0 7 0 124 98 46 7 3 0 4 0 120 49 83 120 -15 37 -68 4 -7 4 0 191 0 119 -128 -7 -64 -109 -15 -7 0 0 -7 -8 -94 -97 -139 -4 -4 0 -4 53 -195 -64 -98 -7 -7 11 -4 142 -83 4 -4 7 4 49 53 101 -8 56 -112 -18 -196 0 -7 3 -4 150 -98 -22 -240 -120 -4 -86 60 -4 4 -8 -4 -93 -64 -116 -60zm1022 1450l165 -52 22 -128 142 -79 154 -37 52 -19 -3 -207 -94 -19 -4 -3 0 0 -45 -68 -3 0 0 -4 -4 -124 -60 27 0 0 -4 0 -67 -4 -11 0 0 -12 7 -90 0 0 0 -3 75 -83 0 -113 -161 -158 -94 -18 -3 0 0 -4 -68 -87 0 0 0 -3 -11 -121 -135 -48 0 0 -4 -4 -56 -113 -71 23 -4 0 0 0 -142 -19 -15 98 0 3 -4 4 -134 79 26 248 4 4 -8 3 -150 102 19 192 0 0 0 3 -60 124 -4 4 -3 0 -109 8 -4 0 -3 -4 -49 -49 -131 75 63 94 4 0 -4 8 -52 191 97 135 240 27 26 -68 0 -7 8 0 82 7 8 0 0 8 26 124 93 11 83 -53 0 0 4 0 292 60 3 0 0 4 79 135zm-711 1124l153 56 408 -11 -34 -162 105 -18 75 -444 -67 -94 -101 -22 15 -83 127 -120 -116 -158 56 -26 71 -34 -71 -128 -284 -60 -75 49 52 135 0 4 0 0 -52 255 63 121 4 3 0 4 -67 195 26 121 4 11 -15 0 -120 -15 -64 30 -7 4 -4 -8 -41 -64 -41 45 63 151 4 7 -4 4 -86 71 0 0 -4 0 -75 42 102 139zm-322 60l149 4 146 -68 -93 -135 -8 -8 8 -4 86 -45 78 -67 -63 -151 0 -3 4 -4 48 -60 8 -11 7 11 45 71 60 -26 0 -4 4 4 108 11 -22 -113 0 0 0 -3 67 -192 -67 -120 0 -4 0 -4 52 -255 -52 -135 -94 -15 -7 0 0 -4 -26 -124 -68 -8 -26 72 -4 3 -3 0 -244 -26 8 79 108 11 8 0 0 8 7 75 0 4 -4 4 -123 135 0 4 -4 0 -195 0 -37 71 0 4 -8 0 -127 15 -7 0 0 -4 -56 -90 0 -4 0 0 0 -116 -98 -46 -7 -3 0 -8 0 -120 -68 -30 -37 60 -4 8 -7 -4 -101 -38 -60 68 67 83 71 -16 4 0 4 4 45 68 93 26 4 0 0 4 41 109 94 165 3 0 0 4 -26 162 98 180 3 0 0 4 34 142 0 0 0 0 -7 147 153 154 0 4 4 0 34 90zm-944 511l-52 52 7 147 139 195 -12 207 -22 98 120 154 60 -27 33 -56 75 38 79 22 90 -56 0 -259 63 -369 236 -225 19 -237 -23 -101 113 -87 -34 -90 -150 -150 -52 45 -4 0 -4 0 -157 -4 -90 68 34 60 4 8 -8 3 -78 49 97 139 105 23 7 0 0 3 34 132 4 7 -8 4 -82 34 0 0 -4 0 -82 -7 -105 206 -8 11 -7 -7 -82 -71 -49 56 0 4 -8 0 -198 -19zm-45 -184l34 94 15 71 194 19 49 -60 8 -4 7 4 79 67 101 -199 4 -7 7 0 86 7 71 -30 -30 -116 -105 -19 -3 0 0 -4 -143 -199 -108 -7 -53 22 60 225 4 8 -7 0 -270 128zm-64 -94l0 41 53 38 266 -124 -57 -214 -48 22 -45 143 0 4 -4 3 -67 53 0 0 -4 4 -94 30zm-206 -308l8 169 195 90 0 30 89 -30 68 -53 45 -146 0 -4 4 0 108 -49 -82 -71 -34 56 -4 8 -7 -4 -221 -53 -165 53 -4 4zm-146 -338l105 112 4 158 30 49 4 0 0 0 168 -56 4 0 4 0 217 52 67 -120 -30 -98 -101 0 -4 0 -3 -3 -203 -181 -142 -7 -120 94zm-250 -470l119 199 0 124 120 132 124 -94 3 -4 4 0 139 7 -8 -146 0 -4 4 -4 75 -52 -105 -199 -37 71 -4 8 -4 -4 -131 -12 -4 0 -3 -3 -72 -98 -220 79zm-229 -1289l11 173 -52 64 26 75 79 60 -4 124 45 196 -15 180 -34 300 38 53 78 -34 53 87 232 -83 7 -4 4 4 71 98 120 11 86 -173 0 -4 4 0 90 -37 -34 -53 -4 -4 4 -3 53 -94 -57 -49 -7 -8 7 -7 68 -68 7 -56 0 -4 4 -4 75 -33 7 -4 4 7 49 87 64 -53 7 -113 0 0 0 0 26 -48 -112 -139 -4 -4 4 -4 86 -165 -109 -136 -97 0 -7 0 -4 -3 -60 -117 -180 -161 -26 236 -97 -48 -188 11 -67 90 -139 -229 -112 86 0 0zm184 1079l-8 -117 0 0 0 -7 0 -8 8 0 7 0 120 -11 0 -72 0 0 0 -3 0 -4 4 -4 3 -4 0 0 135 -101 -86 -53 0 0 0 0 0 0 0 0 0 0 0 0 -109 -127 0 0 -3 -4 -4 -4 0 -4 0 -3 15 -102 0 0 0 -11 0 -11 11 3 11 4 94 34 0 0 4 0 4 0 0 4 0 3 0 0 74 121 105 0 0 0 15 0 8 0 0 7 0 8 7 109 75 63 4 4 4 4 0 4 0 4 -8 150 0 4 0 3 0 4 0 4 -108 143 -15 18 -15 19 -4 -22 -4 -23 -15 -124 -168 188 -4 4 -4 4 -7 -4 -8 -4 -127 -60 -4 -4 -4 -4 0 -3 -3 -15 0 0zm894 -316l-67 56 -7 8 -8 -11 -49 -87 -63 26 -8 57 0 4 0 3 -63 60 56 49 4 4 -4 8 -53 97 42 57 3 7 -11 4 -97 41 -41 79 116 222 3 7 -3 4 -79 53 7 146 199 180 105 0 7 0 0 8 34 109 0 4 0 3 -34 57 98 79 112 7 4 0 3 4 30 45 72 -45 -30 -60 -4 -8 7 -3 94 -76 4 0 3 0 158 4 56 -41 7 -143 -33 -143 -101 -184 0 0 0 -3 26 -162 -94 -162 0 0 0 0 -41 -105 -90 -26 -4 0 0 -4 -45 -60 -67 11 -7 0 -4 -3 -143 -177zm-883 199l7 117 131 60 184 -203 11 -15 4 19 19 142 108 -142 8 -151 -79 -64 -4 -3 0 -4 -7 -113 0 0 -109 0 -7 0 -4 -4 -79 -124 -93 -33 0 0 -15 101 0 0 0 0 108 132 0 0 0 0 98 60 11 7 -8 8 -146 109 0 0 0 79 0 7 -7 0 -131 15zm15262 3588l415 165 382 91 75 304 281 147 195 -4 277 -169 217 67 225 -11 60 101 127 4 41 -154 4 -7 4 0 123 -64 -135 -147 -3 -7 7 -8 127 -105 -48 -146 -4 -12 11 0 247 0 154 -127 0 -4 4 0 138 19 251 -335 4 -4 3 0 161 -11 49 -83 4 0 4 -3 138 -57 105 -131 11 -139 -112 -75 -4 0 0 -8 0 -131 0 -8 4 0 243 -188 83 -188 0 -3 3 -4 214 -75 -15 -169 -127 -117 -146 -26 -4 0 -4 -4 -120 -364 -75 -72 -7 -3 4 -8 74 -105 -7 -105 -90 101 -4 4 -3 -4 -75 -11 -45 165 0 8 -4 0 -404 109 -8 3 -4 -7 -67 -90 -90 0 -4 0 0 -4 -89 -45 -45 113 -4 3 -4 0 -191 64 -4 4 -3 -4 -98 -34 -26 113 0 8 -7 0 -195 22 19 98 119 101 4 4 -4 8 -101 120 -18 180 63 154 12 -30 41 -248 0 -4 0 0 63 -116 4 -4 8 0 82 11 7 0 0 8 15 94 4 0 -4 4 -37 221 15 222 34 116 0 4 0 4 -45 113 0 3 -4 0 -67 64 -23 42 23 75 3 4 -3 3 -30 75 0 4 -4 4 -75 15 -4 86 0 0 -3 4 -94 154 0 4 -4 0 -142 45 -94 128 -3 4 -4 0 -109 -12 -26 166 0 0 -4 3 -78 91 0 0 -4 0 -255 116 -33 113 -4 7 -4 0 -165 57 -7 3 -4 -11 -22 -94 -176 -34 -4 0 -4 -7 -15 -128 -120 -154 -157 0 -4 0 -3 -4 -334 -266 -3 0 0 0 -105 -143 -165 120 -4 0 -3 0 -94 0 4 19 0 7 -4 4 -49 49 19 75 0 4 -4 4 -71 82 64 124zm-2367 707l629 -237 225 -15 41 60 337 75 26 150 124 64 359 38 143 22 71 68 112 -41 105 -87 71 -180 -120 -147 12 -229 78 -22 8 -102 101 -7 30 -109 -68 -128 -3 -8 3 -3 75 -83 -18 -75 -4 -4 4 -4 52 -52 -11 -53 -150 11 0 0 -4 -3 -367 -256 -22 102 -4 3 -4 4 -449 38 -30 120 0 4 -4 3 -90 23 12 83 0 3 -4 4 -124 79 -3 79 0 7 -8 0 -82 19 -146 124 -4 4 -4 0 -344 -45 -4 0 0 -4 -213 -146 -98 -8 -63 165 0 4 -8 4 -243 15 15 169 146 259 3 8 -7 7 -101 72 22 158zm-1355 -500l19 169 157 90 4 165 157 34 64 79 176 -94 33 124 113 165 176 19 52 -116 236 -11 157 -117 -26 -173 0 -4 4 -3 101 -68 -143 -255 0 0 0 -4 -15 -166 -127 98 -7 4 -4 -8 -116 -146 -4 -4 0 -4 41 -176 -63 -75 -195 -8 0 4 -8 0 -123 26 -4 0 -4 -4 -101 -78 -7 82 0 4 0 4 -98 146 -3 4 -4 0 -180 -15 -142 49 -56 79 90 45 3 0 0 4 27 105 3 11 -11 0 -172 19 0 0zm1056 -413l108 -38 79 -41 135 -136 -30 -86 0 -4 0 -4 22 -97 -33 -128 0 -4 3 -4 90 -112 45 -139 -131 -45 -4 0 0 -4 -26 -83 0 -4 4 -3 105 -136 -56 -135 0 -4 0 -3 26 -105 0 -4 4 -4 138 -64 67 -68 -146 -281 0 -4 0 -4 23 -98 -157 68 -4 0 -4 0 -202 -90 -232 34 -86 105 -4 4 -4 0 -239 0 -4 642 86 -11 7 0 0 7 15 128 120 128 0 0 0 0 41 113 113 79 7 7 -7 8 -86 101 67 75 4 4 0 4 -34 131 0 4 -4 4 -86 56 -7 154 198 8 4 0 4 3 71 76 0 0zm-2292 -1045l236 1138 127 -18 87 -128 86 34 22 131 270 147 209 -79 113 49 78 169 158 -19 -23 -94 -93 -45 -12 -8 8 -7 67 -90 0 -4 4 0 146 -49 4 0 0 0 176 15 93 -143 8 -93 0 -19 15 11 112 86 112 -18 8 -169 0 -4 4 0 86 -57 30 -124 -71 -78 -4 -8 4 -4 86 -101 -109 -75 0 0 -4 -4 -37 -113 -124 -131 0 -4 0 0 -18 -124 -83 11 -112 102 0 0 -4 0 -209 -19 -64 49 -8 4 -3 -4 -68 -53 -179 180 -8 4 -7 -4 -143 -139 0 -3 0 0 -26 -105 -116 -158 -483 165 -4 4 -4 -4 -101 -41 -45 30 -7 4 -4 -4 -78 -45 -98 56zm-370 -481l254 4 -105 109 214 353 101 -60 4 -4 7 4 75 45 45 -30 4 -4 7 4 101 41 487 -165 4 -4 3 8 124 161 0 4 4 0 22 105 135 132 180 -181 7 -3 8 3 63 53 60 -49 4 0 4 0 210 19 104 -94 8 -650 -86 0 -120 98 -8 7 -3 -7 -53 -68 0 -4 0 0 15 -248 -352 -11 -7 0 0 -4 -64 -116 -183 4 -8 0 0 -8 -37 -128 -113 -150 -617 -293 0 199 0 4 -4 4 -116 67 33 132 4 11 -11 0 -154 -11 -116 49 -67 124 15 353 0 4 0 0 -82 191zm-951 -823l71 19 3 128 -41 49 26 90 -97 113 23 82 209 49 8 113 105 4 78 18 75 90 -112 94 0 79 112 -37 101 56 86 -19 75 -64 210 -41 82 -195 -15 -357 0 0 0 -4 71 -128 4 -3 0 0 124 -53 3 0 0 0 143 11 -34 -128 -4 -3 8 -4 116 -71 0 -496 -83 -87 -7 -7 7 -8 90 -109 -7 -67 -169 116 0 0 -3 0 -128 -4 -3 0 0 -3 -124 -68 -135 19 -4 0 -3 0 -176 -128 -79 -15 -15 -4 8 -11 56 -79 -83 -86 -164 161 -15 147 0 3 -4 4 -49 57 15 48 101 38 4 0 4 4 33 97 0 4 0 4 -18 90 0 0 0 4 -38 56 -3 4 -4 0 -124 -26 -93 101 -23 117 0 3 -4 0 -161 154 -29 79zm3411 -1296l-131 -94 -266 150 -4 4 -4 -4 -224 -161 -315 -8 -4 0 0 0 -209 -139 -150 -45 -139 105 -105 335 0 7 -7 0 -124 -15 -93 60 -19 102 0 4 -4 3 -168 94 11 83 0 4 -4 4 -86 105 83 86 0 0 0 4 0 285 625 301 4 0 0 0 116 154 3 0 0 4 34 124 180 -4 7 0 0 4 64 120 356 8 11 0 0 11 -15 252 41 56 116 -98 0 0 4 0 97 0 12 0 0 0 232 0 86 -105 4 0 3 0 236 -34 4 0 4 0 198 90 165 -71 7 -165 0 -8 4 0 169 -131 22 -79 -146 -45 -4 0 0 -4 -108 -105 0 -4 0 -4 -19 -139 0 -4 4 -3 187 -162 7 -94 -123 -15 -4 -4 -4 -3 -138 -282 -468 -75 -8 0 0 -8 0 -131 0 -4 0 -4 64 -75 -67 -233zm606 2311l-56 26 -22 98 56 139 3 3 -3 4 -105 136 22 75 135 48 8 0 0 12 -53 146 0 4 0 0 -86 113 30 124 0 4 0 3 -22 94 30 90 3 4 -3 4 -139 139 -4 4 0 0 -82 41 0 0 0 0 -112 38 -38 172 105 139 135 -101 11 -11 0 7 240 -15 63 -169 4 -4 7 0 102 8 71 -150 0 -4 3 0 128 -49 37 -86 0 -98 0 -4 8 -4 116 -64 -8 -97 -48 -147 0 -3 0 0 -27 -136 -104 -165 -4 -4 4 -4 44 -101 -78 -49 -139 15 0 0 0 0 -146 0 -7 0 -4 -7 -75 -218zm-221 -7278l83 109 56 -26 -15 -154 -60 -30 -64 101zm4186 3817l-59 68 -4 4 -4 0 -142 30 -128 56 8 143 37 94 0 4 0 3 -71 162 71 116 0 4 0 4 15 173 0 4 0 3 -112 218 0 4 -4 0 -187 116 71 121 4 3 -4 4 -78 109 41 139 157 53 4 0 0 4 22 105 0 3 -4 4 -116 124 -7 87 75 18 4 0 0 4 37 113 0 4 -4 3 -86 87 -37 131 -4 12 -11 -8 -165 -98 -4 0 0 -3 -78 -169 -150 67 -23 143 0 4 -3 4 -334 364 15 169 0 8 -7 3 -90 38 -8 4 -3 -8 -128 -278 -86 117 -3 3 -4 0 -345 15 -134 252 153 241 4 3 0 4 -30 135 0 8 -8 0 -149 22 -87 166 -30 447 0 11 -11 0 -146 -15 -105 49 0 86 251 226 375 263 149 -12 8 0 0 8 7 26 98 4 172 -124 8 -4 3 8 109 150 329 263 161 0 4 0 4 4 123 161 0 4 0 4 15 124 173 34 7 0 0 3 23 91 149 -49 30 -105 -157 0 -7 0 -4 -4 -34 -75 -4 -8 8 -4 75 -45 0 0 0 0 101 -15 206 -143 75 -112 0 0 0 0 153 -139 34 -102 0 0 0 0 90 -154 0 0 108 -169 94 -259 0 0 71 -207 -75 -173 0 -3 0 -4 19 -188 0 -4 0 -3 97 -117 -116 -98 -4 -3 0 -4 -18 -109 0 -11 11 0 198 -27 23 -116 4 -11 11 3 105 38 183 -60 49 -120 4 -8 7 4 94 49 93 0 4 0 4 3 67 91 393 -106 45 -169 4 -7 8 0 78 11 98 -113 15 -15 3 23 11 120 240 38 142 -98 8 -184 -150 -105 -4 -4 0 -4 -11 -233 0 -3 4 -4 82 -64 4 0 4 0 206 -8 -191 -435 -105 -72 -180 83 -7 4 -4 -12 -67 -199 -289 -116 -146 22 -224 485 0 0 0 0 -150 176 -8 8 -7 -8 -109 -108 -71 124 -4 3 -3 0 -184 0 -142 109 -8 4 -3 -8 -135 -142 -4 -4 0 -4 26 -372 0 0 0 0 124 -285 -157 -49 -4 0 0 -4 -75 -169 0 -4 0 -4 56 -236 -127 -72 -4 -3 0 -4 7 -233 -93 -184 -75 52 -4 4 -3 0 -109 -7 -8 0 0 -8 0 -116 0 -4 4 -4 86 -52 -75 -121 0 0zm-887 4517l-19 -91 0 -7 8 -4 86 -26 -38 -132 0 -7 8 -4 105 -38 7 -3 4 7 82 162 203 -120 7 -4 4 7 71 98 0 0 0 0 60 56 79 -30 0 0 0 0 108 0 4 0 4 4 52 86 4 4 -4 4 -210 267 -3 7 -8 -4 -127 -90 -157 15 -4 0 -4 0 -94 -56 0 0 -108 -79 -112 -11 -8 0 0 -11 0 0zm4 -83l15 75 105 8 3 0 4 0 0 3 4 0 0 0 108 79 90 57 154 -16 4 0 0 0 3 4 4 0 120 87 202 -256 -49 -79 -101 0 -78 30 -4 4 -4 0 -4 -4 -3 -3 -60 -57 0 0 -4 0 0 0 0 0 0 0 -67 -94 -195 117 -8 7 -7 4 -4 -7 -7 -12 -75 -154 -90 34 37 124 0 8 4 7 -7 4 -12 4 -78 26zm1453 1266l82 4 82 158 641 60 430 -260 139 -3 45 -143 209 -195 292 -16 87 83 123 -113 517 83 75 -203 176 -124 -75 -180 78 -492 132 -132 -90 -237 -188 -18 131 -245 233 -161 -210 -316 -4 -3 4 -4 71 -102 -127 -71 -4 -4 0 -4 -19 -248 -123 31 -8 0 -3 -8 -79 -139 -165 94 -7 4 -4 -4 -101 -102 -4 -3 4 -8 60 -82 -203 -136 -3 0 0 -3 -259 -485 -209 7 -79 60 11 222 150 105 4 4 0 4 -8 191 0 4 -3 4 -146 101 -4 4 -4 0 -243 -37 -68 97 71 64 0 0 0 4 120 361 143 26 3 0 4 0 135 120 4 4 0 4 11 180 0 8 -8 3 -213 75 -83 188 0 4 0 0 -239 184 0 124 112 75 4 4 0 4 -11 146 0 4 0 4 -109 135 0 0 -4 0 -138 56 -49 83 -4 4 -3 0 -161 11 -255 338 -4 4 -3 0 -139 -19 -150 128 -4 4 -3 0 -236 0 49 143 3 7 -3 4 -128 101 135 147 8 7 -12 4 -131 68 -48 150 0 0zm1104 -575l45 -116 4 -4 4 -4 3 0 4 0 255 -30 71 -150 4 -11 3 -12 8 8 7 7 56 53 60 -143 0 -4 4 -3 4 0 4 0 0 0 127 -27 0 0 4 0 3 0 4 4 4 4 0 0 153 98 4 3 4 4 0 8 0 7 0 0 -19 102 0 7 0 8 -7 0 -8 0 -75 18 128 117 0 0 11 7 11 8 -11 7 -11 8 -532 255 0 0 -4 4 -4 4 -3 -4 -4 -4 -307 -191 -8 -4 -7 -4 4 -7 7 -23 0 0zm64 -109l-45 117 307 191 532 -255 0 0 0 0 -143 -132 -11 -11 15 -4 94 -22 18 -102 -153 -97 -127 26 -68 154 -4 11 -11 -7 -67 -60 -75 154 0 3 -8 0 -254 34zm-1906 -5023l-4 4 -4 -4 -104 -79 -244 0 0 -11 15 -136 0 -3 4 0 138 -173 42 -109 -90 -64 -4 -4 0 -127 -79 -87 -3 -4 0 -3 37 -173 -93 -72 -8 -7 8 -8 138 -154 -52 -650 -161 -251 82 -42 195 -158 3 -3 4 0 113 15 44 -203 0 -4 0 0 57 -86 15 -113 0 -4 3 -4 240 -191 -105 -124 0 -4 0 -195 -210 -297 0 0 0 -4 -29 -150 -64 -87 -4 -3 0 -4 8 -83 -128 64 -146 113 -202 60 -79 135 4 -195 408 -421 225 -410 101 -360 -311 -361 -296 -7 -101 146 -116 19 86 -248 -239 -30 78 -113 -146 -124 -131 49 -209 316 48 184 -224 15 3 60 83 124 -161 -38 -83 79 -187 -34 -22 -82 -266 3 4 155 -315 41 -217 173 -165 3 -123 109 -53 222 101 184 -157 41 -412 -67 -239 -8 -75 136 -12 342 154 146 71 173 -210 0 -179 -338 -131 7 0 15 116 248 3 12 -11 0 -123 22 -27 150 113 245 3 3 -3 4 -26 117 -4 3 -4 4 -270 120 -37 139 180 233 198 53 8 0 0 4 45 251 -15 34 0 0 -72 181 0 3 -3 0 -184 53 56 131 0 4 0 4 -59 173 146 191 3 0 0 4 -37 349 116 162 4 4 0 4 -45 248 172 131 4 0 0 4 30 180 0 4 0 4 -158 214 -11 191 -4 0 0 4 -239 305 0 236 195 113 7 4 -4 7 -33 90 0 4 -4 0 -176 75 0 4 -4 0 -146 19 64 225 0 8 -4 4 -64 78 0 121 468 71 8 0 0 8 138 281 124 15 11 0 0 12 -11 105 0 4 0 3 -187 162 15 131 105 102 153 49 8 3 -4 8 -23 90 0 4 -3 4 -169 127 -7 169 0 4 -4 0 -23 109 146 286 4 4 -4 7 -74 71 0 4 0 0 -64 30 71 214 142 0 139 -15 4 0 3 0 90 57 4 7 0 8 -49 101 105 158 0 4 0 0 26 139 49 150 0 0 0 0 8 109 0 4 -4 4 -120 63 0 94 0 4 -41 90 0 4 -4 0 -127 49 -71 146 205 143 337 45 147 -124 3 0 0 0 79 -19 7 -78 0 -4 4 -4 120 -75 -11 -87 0 -7 7 0 90 -26 30 -121 0 -3 7 -4 446 -38 23 -105 -248 -222 -3 -3 0 -109 3 0 113 -53 3 0 0 0 139 11 30 -435 0 -4 4 0 86 -173 4 -4 3 0 150 -22 30 -124 -157 -244 0 -4 0 -4 142 -263 4 -4 4 0 344 -15 94 -124 11 -11 7 15 128 282 75 -30 -12 -166 0 -3 0 -4 334 -365 22 -146 0 -4 176 -83 4 8 82 177 150 90 34 -120 0 -4 3 -4 87 -83 -34 -101 -79 -23 -7 -3 0 -8 7 -94 0 -4 4 -3 116 -124 -22 -94 -158 -49 -3 -4 -4 -4 -41 -150 -4 -4 4 -3 78 -106 -71 -124 -4 -7 8 -4 191 -120 108 -211 -15 -165 -74 -120 0 -4 0 -4 74 -161 -37 -94 0 0 0 0 -8 -150 0 -8 4 0 135 -60 0 0 4 -4 138 -26 60 -68 -52 -64 -105 72zm11454 -226l-38 -488 -52 -225 -165 -166 15 -240 86 -68 -280 -323 3 -225 120 -128 -30 -128 -236 -67 -239 -429 60 -37 74 101 116 -71 -179 -173 -98 52 -157 -101 -4 4 -78 -192 -165 0 -19 113 -101 -8 -333 -668 19 -211 134 -30 -101 -391 214 166 4 -470 164 -173 251 -4 -142 -349 -68 -748 -161 49 -3 0 -4 -4 -120 -60 -210 598 0 7 -7 -4 -262 -3 -247 75 -8 0 0 -8 -82 -218 -326 19 -60 105 -4 4 -3 0 -225 53 -41 120 0 4 -8 0 -123 15 -38 139 -3 4 -4 0 -142 45 26 142 206 297 123 27 8 0 0 7 86 225 146 -11 4 0 3 0 94 90 4 4 0 0 26 143 135 75 90 -86 -247 -301 56 -195 239 -83 -127 192 30 146 191 132 90 7 -8 135 83 19 -75 395 86 146 30 455 67 297 94 293 -109 116 34 113 -56 79 150 176 26 282 206 233 0 0 247 282 1348 905zm-20302 -710l-4 0 0 -3 -281 -230 -97 57 -4 0 -3 0 -274 -30 0 -4 -183 -94 0 0 0 0 -169 -192 -217 -22 -67 161 157 203 0 4 0 4 8 146 3 4 -7 4 -255 105 0 86 71 61 8 7 -83 105 0 0 -67 79 -94 241 0 3 -3 0 -79 87 -49 131 0 0 -3 4 -87 94 0 4 -7 0 -71 -8 -4 181 82 0 12 0 0 142 176 8 11 0 0 7 7 106 75 18 8 0 0 4 11 53 0 0 11 71 26 38 68 -19 153 -177 0 -3 4 0 172 -19 109 -173 7 -11 8 11 79 86 67 -45 26 -120 4 -7 7 0 188 -12 52 -64 15 -131 0 -4 0 0 82 -98 -59 -120 0 -4 0 0 3 -97 0 -8 4 0 202 -94 236 -229 154 -207 30 -67 -169 -23zm-8219 1244l105 -124 -236 -312 142 -398 -101 -87 -89 64 -345 -236 -45 67 15 282 -131 143 34 191 228 -11 255 320 168 101z"/>
 <path class="fil1 str1" d="M2007 12647l1393 -2743m-1316 2659l1357 -2678 1114 -852 1624 219 824 2459 1744 -730m-8384 -2118l3078 1022 799 -3092 340 -2337 -2666 -146m-24 0l2302 2508 2786 2215 -848 243 -2641 633m3465 1851l0 -2727 1963 852 3441 3627 4967 -876 1866 1923m-1890 -1923l3440 -4845 5137 -5063 -2738 9616 -2374 -4504m2374 4382l2981 2118m-8796 -1728l-1357 -7352 -3659 8252m3659 -8204l-4580 4358 -1332 -3798 -5476 -1387m-340 2531l5816 -1144 -2666 1096 -436 2045 1333 -658 3174 1291 -4507 -633m1333 -658l-897 -1339m-527 1964c23,-45 75,-64 120,-41 45,22 64,75 41,120 -22,45 -75,64 -119,41 -45,-22 -64,-75 -42,-120z"/>
 <g>
  <path class="fil2" d="M4927 3956l-3 -35 -32 -10c-8,-3 -187,-62 -441,-64l-10 0c-252,2 -433,61 -441,64l-32 10 -3 35c0,8 -21,211 -11,430 6,91 32,179 81,265 37,67 90,128 154,187 110,99 222,152 236,158l13 5 5 3 6 -3c0,0 13,-5 18,-8 14,-6 123,-59 236,-158 64,-59 117,-120 154,-187 49,-83 78,-171 81,-264 10,-217 -11,-420 -11,-428l0 0zm-43 428c0,26 -5,50 -8,74l-545 0 0 -125 112 -102 121 107 264 0 -385 -344 -382 344 94 0 0 297 649 0c-128,206 -361,310 -361,310 0,0 -422,-190 -441,-561 -10,-217 11,-423 11,-423 0,0 176,-58 425,-61l11 0c246,3 425,61 425,61 0,0 21,206 10,423zm-353 2064l-3 -35 -32 -11c-8,-2 -187,-61 -441,-64l-10 0c-252,3 -433,62 -441,64l-32 11 -3 35c0,8 -21,211 -11,430 6,91 32,179 81,265 37,66 90,128 154,187 110,99 222,152 236,157l13 6 5 2 6 -2c0,0 13,-6 18,-8 14,-6 123,-59 236,-158 64,-59 117,-120 155,-187 48,-83 77,-171 80,-265 10,-216 -11,-419 -11,-427l0 0zm-43 427c0,27 -5,51 -8,75l-545 0 0 -125 112 -102 121 107 264 0 -385 -345 -382 345 94 0 0 297 649 0c-128,205 -361,310 -361,310 0,0 -422,-190 -441,-562 -10,-216 11,-422 11,-422 0,0 176,-59 425,-61l11 0c246,2 425,61 425,61 0,0 21,206 10,422z"/>
 </g>
 <g>
  <path class="fil3" d="M4438 3903c-246,2 -425,61 -425,61 0,0 -21,206 -11,422 19,372 441,561 441,561 0,0 233,-104 361,-310l-649 0 0 -296 -94 0 382 -345 382 345 -264 0 -120 -107 -110 99 0 125 543 0c5,-24 8,-48 8,-74 10,-217 -11,-423 -11,-423 0,0 -176,-58 -425,-61l-8 3c3,-3 0,0 0,0z"/>
  <path class="fil4" d="M4042 6394c-246,3 -425,62 -425,62 0,0 -21,206 -11,422 19,372 441,561 441,561 0,0 233,-104 361,-310l-649 0 0 -296 -94 0 382 -345 382 345 -264 0 -120 -107 -110 99 0 125 543 0c5,-24 8,-48 8,-75 10,-216 -11,-422 -11,-422 0,0 -176,-59 -425,-61l-8 2c3,-2 0,0 0,0z"/>
 </g>
 <path class="fil2" d="M30232 10198c290,-136 3517,-1714 3672,-4698 81,-1786 -81,-3531 -81,-3531 0,0 -1501,-527 -3571,-527l-41 0c-2069,0 -3571,527 -3571,527 0,0 -162,1745 -81,3531 155,2982 3380,4561 3673,4698zm-10 -490c260,-122 3156,-1538 3295,-4215 73,-1602 -73,-3168 -73,-3168 0,0 -1347,-473 -3204,-473l-37 0c-1857,0 -3204,473 -3204,473 0,0 -145,1566 -73,3168 139,2676 3033,4092 3296,4215zm0 -45c257,-121 3119,-1520 3257,-4167 72,-1583 -72,-3131 -72,-3131 0,0 -1332,-467 -3167,-467l-36 0c-1836,0 -3167,467 -3167,467 0,0 -144,1548 -72,3131 137,2646 2997,4045 3257,4167z"/>
 <path class="fil5" d="M30204 1898l36 0c1835,0 3167,467 3167,467 0,0 144,1548 72,3131 -138,2647 -3000,4046 -3257,4167 -260,-122 -3120,-1521 -3257,-4167 -72,-1583 72,-3131 72,-3131 0,0 1331,-467 3167,-467zm3313 3595c73,-1602 -73,-3168 -73,-3168 0,0 -1347,-473 -3204,-473l-37 0c-1857,0 -3204,473 -3204,473 0,0 -145,1566 -73,3168 139,2676 3033,4092 3296,4215 260,-122 3156,-1538 3295,-4215z"/>
 <path class="fil6" d="M28837 6650l0 -85 24 0c20,-36 30,-87 30,-154l0 -39 158 0 0 193 33 0 -5 85 -27 0 0 -55 -180 0 -6 55 -27 0zm59 -85l120 0 0 -163 -94 0 0 31c0,55 -8,100 -26,132zm232 30l0 -223 33 0 0 176 132 -176 32 0 0 223 -33 0 0 -176 -132 176 -32 0zm260 3c-8,0 -17,-1 -26,-3l4 -29c6,2 12,3 16,3 6,0 11,-1 15,-2 4,-2 8,-6 13,-13 5,-6 9,-16 11,-28 3,-12 5,-30 7,-53 2,-22 3,-50 3,-82l0 -19 157 0 0 223 -33 0 0 -193 -93 0 0 5c0,34 -1,62 -4,86 -3,24 -6,43 -10,56 -3,14 -9,24 -16,31 -7,8 -13,13 -20,15 -6,2 -14,3 -24,3zm371 2c-31,0 -58,-11 -79,-33 -21,-21 -32,-49 -32,-83 0,-33 10,-60 31,-83 20,-22 45,-33 76,-33 31,0 57,11 75,33 19,23 28,51 28,84 0,5 0,9 0,12l-176 0c2,23 10,41 25,54 15,13 32,20 53,20 26,0 50,-10 70,-31l20 18c-24,28 -55,42 -91,42zm-77 -130l143 0c-2,-21 -9,-39 -22,-53 -12,-14 -28,-21 -49,-21 -19,0 -35,7 -49,21 -13,14 -21,32 -23,53zm234 193l0 -291 33 0 0 45c23,-33 51,-49 85,-49 29,0 54,10 75,31 21,21 32,49 32,85 0,34 -11,62 -32,84 -21,21 -46,31 -75,31 -35,0 -63,-15 -85,-47l0 111 -33 0zm112 -93c23,0 41,-8 56,-24 15,-15 23,-36 23,-63 0,-25 -8,-46 -23,-62 -15,-16 -34,-24 -56,-24 -21,0 -40,9 -56,25 -16,16 -24,37 -24,62 0,25 8,45 24,61 16,17 35,25 56,25zm358 -4c-22,22 -50,34 -83,34 -33,0 -60,-12 -82,-34 -22,-23 -33,-50 -33,-82 0,-32 11,-59 33,-82 22,-23 50,-34 83,-34 33,0 60,11 82,34 23,22 34,50 34,82 0,32 -12,59 -34,82zm-82 4c24,0 43,-8 59,-25 15,-16 23,-37 23,-61 0,-24 -8,-45 -24,-62 -16,-17 -36,-25 -59,-25 -24,0 -43,8 -58,25 -16,17 -23,37 -23,62 0,24 8,44 23,61 16,17 36,25 59,25zm175 25l0 -223 108 0c22,0 39,5 53,15 13,10 19,24 19,41 0,24 -12,41 -37,51 33,9 49,27 49,55 0,19 -7,33 -21,44 -15,11 -35,17 -59,17l-112 0zm33 -29l74 0c16,0 29,-3 38,-10 9,-6 13,-15 13,-27 0,-11 -4,-19 -14,-25 -10,-7 -23,-10 -41,-10l-70 0 0 72zm0 -98l69 0c13,0 24,-3 33,-9 8,-7 12,-15 12,-27 0,-9 -4,-17 -12,-23 -7,-5 -18,-8 -32,-8l-70 0 0 67zm-1647 755l0 -222 33 0 0 96 128 0 0 -96 33 0 0 222 -33 0 0 -97 -128 0 0 97 -33 0zm334 5c-23,0 -42,-6 -59,-19 -16,-12 -24,-29 -24,-51 0,-23 9,-41 26,-54 17,-13 40,-19 69,-19 22,0 45,3 67,10l0 -7c0,-20 -5,-35 -17,-45 -11,-10 -27,-16 -48,-16 -22,0 -44,6 -67,16l-10 -27c27,-12 54,-19 80,-19 32,0 55,9 72,25 15,15 23,37 23,65l0 136 -33 0 0 -33c-19,25 -46,38 -79,38zm6 -27c21,0 38,-5 52,-17 15,-11 22,-25 22,-43l0 -20c-22,-7 -44,-10 -65,-10 -20,0 -36,4 -47,13 -12,8 -18,19 -18,33 0,13 6,24 16,32 11,8 24,12 40,12zm358 22l0 -193 -79 0 0 -29 192 0 0 29 -80 0 0 193 -33 0zm257 5c-31,0 -57,-11 -78,-32 -22,-22 -32,-50 -32,-84 0,-32 10,-60 30,-82 21,-23 46,-34 76,-34 32,0 57,11 75,34 19,22 28,50 28,84 0,4 0,8 0,11l-176 0c3,23 11,41 26,54 14,14 32,20 52,20 27,0 50,-10 70,-31l21 19c-25,27 -56,41 -92,41zm-77 -129l143 0c-2,-22 -9,-39 -21,-54 -12,-14 -29,-21 -50,-21 -19,0 -35,7 -48,21 -14,14 -21,32 -24,54zm234 193l0 -291 33 0 0 45c22,-33 51,-50 85,-50 28,0 53,11 74,32 21,21 32,49 32,84 0,35 -11,63 -32,84 -21,21 -46,32 -74,32 -35,0 -63,-16 -85,-47l0 111 -33 0zm112 -94c22,0 41,-8 56,-23 15,-16 22,-37 22,-63 0,-26 -8,-46 -23,-62 -15,-16 -33,-24 -55,-24 -21,0 -40,8 -56,24 -16,17 -24,37 -24,62 0,25 8,46 24,62 16,16 35,24 56,24zm173 94l0 -291 33 0 0 45c22,-33 50,-50 85,-50 28,0 53,11 74,32 21,21 31,49 31,84 0,35 -10,63 -31,84 -21,21 -46,32 -74,32 -35,0 -64,-16 -85,-47l0 111 -33 0zm112 -94c22,0 40,-8 55,-23 15,-16 23,-37 23,-63 0,-26 -8,-46 -23,-62 -15,-16 -34,-24 -55,-24 -22,0 -41,8 -57,24 -16,17 -24,37 -24,62 0,25 8,46 24,62 16,16 35,24 57,24zm172 25l0 -222 33 0 0 176 132 -176 32 0 0 222 -33 0 0 -176 -132 176 -32 0zm324 0l0 -193 -79 0 0 -29 192 0 0 29 -79 0 0 193 -34 0zm345 -29c-23,23 -50,34 -83,34 -33,0 -60,-11 -82,-34 -22,-22 -33,-50 -33,-82 0,-32 11,-59 33,-82 22,-22 50,-34 83,-34 33,0 60,11 82,34 22,23 33,50 33,82 0,32 -11,59 -33,82zm-82 5c24,0 43,-9 58,-25 16,-17 23,-37 23,-62 0,-24 -8,-44 -24,-61 -15,-17 -35,-26 -58,-26 -24,0 -43,9 -58,25 -15,17 -23,38 -23,62 0,24 8,45 24,61 15,17 35,26 58,26zm175 93l0 -291 33 0 0 45c22,-33 50,-50 84,-50 29,0 53,11 75,32 21,21 31,49 31,84 0,35 -10,63 -31,84 -22,21 -46,32 -75,32 -34,0 -63,-16 -84,-47l0 111 -33 0zm111 -94c23,0 41,-8 56,-23 15,-16 22,-37 22,-63 0,-26 -7,-46 -22,-62 -15,-16 -34,-24 -56,-24 -21,0 -40,8 -56,24 -16,17 -24,37 -24,62 0,25 8,46 24,62 16,16 35,24 56,24zm173 25l0 -222 33 0 0 176 132 -176 32 0 0 222 -33 0 0 -176 -132 176 -32 0zm270 0l0 -222 33 0 0 176 132 -176 32 0 0 222 -33 0 0 -176 -132 176 -32 0zm-3006 628l0 -300 112 0c35,0 62,8 82,25 21,18 31,41 31,71 0,31 -11,55 -34,73 -22,17 -50,25 -84,25l-73 0 0 106 -34 0zm34 -137l74 0c25,0 45,-6 60,-18 15,-12 23,-28 23,-49 0,-21 -8,-37 -22,-48 -15,-11 -34,-17 -59,-17l-76 0 0 132zm432 108c-23,23 -50,35 -83,35 -33,0 -61,-12 -83,-34 -22,-23 -32,-50 -32,-82 0,-32 11,-59 33,-82 22,-23 50,-34 83,-34 33,0 60,11 82,34 22,22 33,50 33,82 0,31 -11,59 -33,81zm-82 5c23,0 43,-8 58,-25 16,-17 23,-37 23,-61 0,-24 -8,-45 -24,-62 -16,-17 -35,-25 -58,-25 -24,0 -44,8 -59,25 -15,17 -23,37 -23,62 0,24 8,44 24,61 16,17 35,25 59,25zm275 30c-32,0 -59,-12 -81,-35 -22,-22 -33,-50 -33,-81 0,-32 11,-59 33,-82 22,-23 49,-34 81,-34 34,0 64,13 89,39l-21 22c-21,-21 -43,-32 -68,-32 -23,0 -42,8 -57,25 -15,17 -23,37 -23,62 0,24 8,44 24,61 15,17 35,25 58,25 24,0 46,-11 67,-34l22 21c-26,28 -56,43 -91,43zm246 0c-33,0 -60,-12 -82,-35 -21,-22 -32,-50 -32,-81 0,-32 11,-59 32,-82 22,-23 49,-34 82,-34 34,0 64,13 88,39l-21 22c-20,-21 -43,-32 -68,-32 -22,0 -41,8 -56,25 -16,17 -23,37 -23,62 0,24 7,44 23,61 16,17 35,25 58,25 24,0 46,-11 67,-34l22 21c-26,28 -56,43 -90,43zm145 -6l0 -222 33 0 0 176 132 -176 32 0 0 222 -33 0 0 -175 -132 175 -32 0zm271 0l0 -222 33 0 0 176 132 -176 32 0 0 222 -33 0 0 -175 -132 175 -32 0zm-917 -2075c-163,0 -310,-65 -440,-196l91 -100c117,113 234,169 351,169 88,0 160,-26 215,-77 55,-52 83,-118 83,-199 0,-77 -29,-139 -86,-187 -57,-49 -130,-73 -221,-73 -84,0 -171,24 -259,71l-93 -62 35 -601 710 0 0 129 -588 0 -27 395c84,-37 165,-55 243,-55 124,0 225,34 306,103 80,69 121,161 121,278 0,120 -42,217 -124,292 -82,76 -188,113 -317,113zm1550 -186c-96,124 -222,186 -377,186 -155,0 -280,-61 -376,-184 -96,-123 -143,-274 -143,-454 0,-177 48,-328 145,-452 97,-124 223,-186 378,-186 155,0 280,61 375,184 95,123 143,274 143,454 0,178 -49,328 -145,452zm-646 -91c70,100 161,150 273,150 111,0 201,-49 270,-149 69,-99 103,-220 103,-362 0,-140 -35,-260 -105,-360 -70,-101 -160,-151 -272,-151 -111,0 -202,50 -271,149 -69,99 -104,220 -104,362 0,140 35,260 106,361zm1905 91c-96,124 -221,186 -376,186 -155,0 -281,-61 -376,-184 -96,-123 -144,-274 -144,-454 0,-177 48,-328 145,-452 97,-124 223,-186 378,-186 155,0 280,61 375,184 95,123 143,274 143,454 0,178 -48,328 -145,452zm-646 -91c71,100 162,150 273,150 112,0 202,-49 270,-149 69,-99 103,-220 103,-362 0,-140 -34,-260 -104,-360 -70,-101 -161,-151 -272,-151 -112,0 -202,50 -272,149 -69,99 -104,220 -104,362 0,140 36,260 106,361zm-26886 2171l0 -403 91 0 100 170 100 -170 90 0 0 403 -83 0 0 -263 -107 172 -2 0 -106 -170 0 261 -83 0zm720 -40c-31,32 -68,47 -113,47 -45,0 -83,-15 -112,-46 -30,-31 -45,-69 -45,-115 0,-45 15,-83 45,-114 30,-31 68,-46 113,-46 45,0 82,15 112,46 30,31 45,69 45,114 0,45 -15,83 -45,114zm-112 -28c23,0 41,-9 55,-25 14,-16 21,-36 21,-61 0,-23 -8,-43 -22,-60 -14,-17 -33,-25 -55,-25 -23,0 -41,8 -55,25 -14,16 -21,36 -21,60 0,24 7,44 22,61 14,16 33,25 55,25zm355 75c-44,0 -80,-15 -109,-47 -29,-31 -43,-69 -43,-114 0,-44 14,-82 43,-113 29,-32 66,-47 110,-47 47,0 85,18 116,54l-49 52c-20,-21 -43,-31 -68,-31 -20,0 -37,8 -50,25 -14,16 -21,37 -21,60 0,25 7,45 21,61 13,16 31,25 53,25 23,0 46,-11 67,-33l49 52c-16,18 -33,32 -51,42 -18,9 -41,14 -68,14zm173 -7l0 -309 82 0 0 127 105 -127 95 0 -107 127 121 182 -98 0 -78 -117 -38 43 0 74 -82 0zm332 -309l160 0c30,0 53,7 71,21 17,14 26,33 26,57 0,32 -15,55 -46,69 38,13 57,39 57,78 0,26 -10,47 -29,62 -19,15 -46,22 -80,22l-159 0 0 -309zm82 124l58 0c11,0 20,-3 26,-8 6,-6 9,-14 9,-23 0,-8 -3,-15 -9,-20 -5,-5 -14,-8 -25,-8l-59 0 0 59zm0 117l65 0c25,0 37,-11 37,-31 0,-20 -13,-30 -39,-30l-63 0 0 61zm327 74c-29,0 -52,-8 -71,-25 -20,-17 -29,-41 -29,-71 0,-32 11,-57 32,-73 21,-17 50,-25 85,-25 25,0 49,4 72,12l0 -5c0,-37 -21,-56 -63,-56 -25,0 -52,5 -80,17l-21 -67c36,-17 73,-25 113,-25 44,0 77,11 99,34 21,23 31,56 31,99l0 179 -80 0 0 -33c-22,26 -51,39 -88,39zm25 -61c19,0 35,-5 47,-15 12,-10 18,-23 18,-39l0 -15c-16,-8 -33,-12 -53,-12 -18,0 -32,4 -42,11 -10,8 -15,19 -15,33 0,12 4,21 12,27 9,7 20,10 33,10zm-1155 -2344c-56,0 -102,-19 -139,-57 -37,-38 -56,-84 -56,-140 0,-55 19,-101 56,-139 37,-38 85,-57 142,-57 33,0 61,5 84,16 22,10 43,26 64,46l-50 57c-17,-15 -32,-25 -46,-32 -15,-7 -32,-10 -52,-10 -32,0 -58,11 -79,34 -21,23 -31,52 -31,85 0,34 10,62 31,85 21,23 47,35 79,35 20,0 38,-4 53,-11 14,-7 30,-18 47,-34l53 57c-21,22 -43,39 -67,49 -24,11 -54,16 -89,16zm297 -1c-29,0 -53,-8 -72,-24 -19,-16 -28,-38 -28,-66 0,-31 10,-54 32,-70 21,-15 49,-23 85,-23 24,0 48,4 71,12l0 -5c0,-36 -20,-53 -62,-53 -25,0 -52,5 -81,15l-20 -63c35,-15 73,-23 113,-23 44,0 76,11 98,33 21,21 32,52 32,93l0 169 -80 0 0 -32c-22,25 -52,37 -88,37zm25 -57c19,0 35,-5 47,-14 11,-10 17,-22 17,-37l0 -15c-15,-7 -33,-11 -52,-11 -18,0 -32,4 -42,11 -10,7 -15,17 -15,31 0,10 4,19 12,25 9,7 19,10 33,10zm481 -240l0 292 -83 0 0 -112 -102 0 0 112 -82 0 0 -292 82 0 0 112 102 0 0 -112 83 0zm73 292l0 -292 83 0 0 120 104 -120 95 0 -107 120 121 172 -98 0 -78 -111 -37 40 0 71 -83 0zm560 -292l0 71 -86 0 0 221 -84 0 0 -221 -86 0 0 -71 256 0zm35 163l0 -80 168 0 0 80 -168 0zm240 129l0 -381 318 0 0 381 -84 0 0 -305 -150 0 0 305 -84 0zm538 6c-44,0 -80,-14 -109,-42 -29,-28 -43,-65 -43,-110 0,-42 14,-78 41,-107 27,-29 61,-44 103,-44 46,0 81,15 105,46 25,30 37,67 37,112 0,4 -1,12 -1,22l-203 0c4,18 12,32 24,42 13,10 28,15 47,15 26,0 49,-10 71,-30l47 42c-29,36 -69,54 -119,54zm-71 -175l124 0c-2,-19 -9,-34 -20,-45 -10,-11 -24,-17 -41,-17 -17,0 -31,6 -42,17 -11,11 -18,26 -21,45zm494 -123l0 71 -87 0 0 221 -83 0 0 -221 -87 0 0 -71 257 0zm183 298c-44,0 -81,-14 -109,-42 -29,-28 -43,-65 -43,-110 0,-42 13,-78 40,-107 28,-29 62,-44 104,-44 46,0 81,15 105,46 24,30 36,67 36,112 0,4 0,12 -1,22l-202 0c4,18 12,32 24,42 12,10 28,15 47,15 26,0 49,-10 70,-30l48 42c-30,36 -69,54 -119,54zm-71 -175l124 0c-3,-19 -9,-34 -20,-45 -11,-11 -24,-17 -41,-17 -17,0 -31,6 -42,17 -11,11 -18,26 -21,45zm266 255l0 -378 82 0 0 42c24,-31 54,-47 91,-47 36,0 67,13 93,41 27,27 40,64 40,110 0,47 -13,83 -39,110 -26,27 -57,41 -94,41 -36,0 -66,-15 -91,-44l0 125 -82 0zm102 -174c13,15 30,23 50,23 20,0 37,-8 50,-23 14,-15 21,-34 21,-59 0,-23 -7,-42 -21,-57 -13,-15 -30,-23 -50,-23 -20,0 -37,8 -50,23 -14,15 -21,34 -21,58 0,24 7,43 21,58zm409 23c21,0 38,-7 51,-22 13,-14 20,-32 20,-53 0,-21 -7,-39 -21,-54 -13,-15 -30,-22 -51,-22 -20,0 -37,7 -50,22 -13,15 -20,33 -20,54 0,21 7,39 21,53 13,15 30,22 50,22zm-1 71c-49,0 -87,-15 -113,-45 -26,-30 -39,-73 -39,-129 0,-20 1,-37 2,-53 2,-15 5,-32 10,-49 5,-17 12,-32 20,-44 9,-13 21,-24 36,-34 15,-9 34,-16 55,-20l155 -29 13 65 -159 32c-44,9 -68,32 -71,68 7,-12 20,-23 38,-33 19,-11 41,-16 68,-16 38,0 70,14 97,40 27,27 41,60 41,100 0,41 -14,76 -43,104 -29,29 -66,43 -110,43zm281 82c-26,0 -50,-7 -73,-20l28 -60c12,8 24,12 35,12 13,0 23,-7 29,-19l-114 -293 87 0 66 199 64 -199 86 0 -112 299c-11,30 -24,51 -38,63 -14,12 -34,18 -58,18zm257 -2l0 -378 82 0 0 42c23,-31 54,-47 91,-47 36,0 67,13 93,41 26,27 39,64 39,110 0,47 -13,83 -38,110 -26,27 -58,41 -94,41 -36,0 -67,-15 -91,-44l0 125 -82 0zm101 -174c14,15 31,23 51,23 20,0 36,-8 50,-23 14,-15 21,-34 21,-59 0,-23 -7,-42 -21,-57 -14,-15 -30,-23 -50,-23 -20,0 -37,8 -51,23 -13,15 -20,34 -20,58 0,24 7,43 20,58zm478 -133l-130 0 0 221 -83 0 0 -292 213 0 0 71z"/>
 <path class="fil7" d="M28057 5540l0 -101 327 -247 -327 -247 0 -103 398 306 0 86 -398 306zm2185 -1968c-33,-72 -152,-172 -265,-267 -63,-53 -126,-103 -162,-143 -13,-10 -26,-13 -40,-6 -23,10 -39,16 -49,20 -13,6 -30,13 -47,13 -9,0 -19,6 -26,16 -50,76 -103,70 -136,60 -6,0 -13,-7 -13,-13 -6,-33 30,-106 76,-156 113,-119 172,-149 298,-89 142,66 284,116 284,116 17,6 37,-4 43,-20 0,0 0,0 0,0 7,-20 -3,-40 -23,-47 0,0 -139,-49 -278,-115 -162,-76 -248,-27 -377,106 -46,49 -112,152 -96,224 7,30 30,57 60,67 79,26 152,0 205,-73 20,-3 36,-10 53,-17 7,-3 13,-6 26,-10 40,40 93,86 153,133 102,86 221,185 248,241 10,20 6,43 -10,56 -10,14 -30,17 -43,10 -10,-6 -27,-10 -40,0 -13,7 -20,20 -17,37 0,16 -9,33 -26,39 -17,10 -36,10 -56,0 -10,-10 -23,-13 -37,-6 -13,6 -23,16 -23,30 -3,23 -20,46 -43,56 -13,6 -30,3 -39,-7 -10,-6 -20,-10 -34,-10 -9,4 -19,14 -23,23 0,4 -3,14 -36,14 -30,-4 -60,-14 -86,-30 -27,-17 -179,-136 -314,-252 -20,-16 -53,-52 -80,-82 -26,-27 -49,-53 -59,-63 -13,-13 -37,-10 -47,3 0,0 0,0 -3,4 -13,16 -10,36 3,52 10,10 34,34 57,57 29,33 63,69 86,89 129,112 287,235 321,258 36,23 79,40 125,43 30,3 56,-7 80,-23 26,10 53,10 79,0 33,-13 60,-40 73,-70 30,7 63,0 89,-13 27,-13 46,-36 60,-63 29,0 59,-10 79,-29 40,-57 53,-113 30,-163zm-629 -602l-317 0c-20,0 -37,17 -37,37 0,20 17,36 37,36l317 0c20,0 37,-16 37,-36 0,-20 -17,-37 -37,-37l0 0zm731 526c-10,-16 -29,-19 -46,-10 0,0 0,0 0,0l-103 73c-16,10 -19,33 -9,50 6,10 16,16 29,16 7,0 14,-3 20,-6l103 -73c13,-10 16,-33 6,-50l0 0zm-218 172c-26,-19 -139,-139 -208,-215 -14,-13 -33,-16 -50,-3 0,0 0,0 0,0 -13,13 -13,36 0,53 20,20 179,192 215,222 7,6 13,6 23,6 10,0 20,-6 27,-13 10,-13 10,-36 -7,-50l0 0zm-142 73c-43,-36 -149,-152 -172,-178 -13,-14 -37,-17 -50,-4 0,0 0,0 0,0 -13,13 -16,37 -3,53 0,3 126,142 178,185 7,7 14,7 24,7 10,0 19,-7 26,-13 17,-13 13,-37 -3,-50l0 0zm-139 76c-50,-43 -152,-155 -172,-178 -13,-14 -33,-17 -50,-4 0,0 0,0 0,0 -13,14 -16,37 -3,53 30,33 126,139 179,186 6,6 13,9 23,9 10,0 20,-3 26,-13 13,-20 13,-39 -3,-53l0 0zm-526 -909c-60,-60 -301,-80 -374,-83 -10,0 -20,3 -26,10 -7,6 -10,16 -10,26l0 655c0,20 16,37 36,37l212 0c16,0 30,-10 33,-27 7,-16 126,-400 142,-589 0,-10 -3,-23 -13,-29l0 0zm-189 572l-149 0 0 -579c113,10 235,30 278,53 -20,159 -105,440 -129,526l0 0zm1429 -582c-274,0 -430,72 -436,76 -10,3 -17,13 -20,23 -3,10 -3,20 3,30 43,72 179,473 205,572 4,16 17,26 33,26l212 0c20,0 36,-16 36,-36l0 -655c4,-20 -13,-36 -33,-36l0 0zm-33 655l-149 0c-33,-113 -132,-407 -185,-526 106,-37 219,-57 334,-57l0 583 0 0zm-30163 5188c80,0 146,66 146,146 0,80 -66,146 -146,146 -80,0 -145,-66 -145,-146 0,-80 66,-146 145,-146zm3078 1047c53,0 97,43 97,97 0,54 -44,97 -97,97 -54,0 -97,-43 -97,-97 0,-54 43,-97 97,-97zm-1394 2678c88,0 158,70 158,158 0,87 -70,158 -158,158 -87,0 -157,-71 -157,-158l0 0c0,-88 70,-158 157,-158zm2520 -3555c88,0 158,71 158,159 0,87 -70,158 -158,158 -87,0 -157,-71 -157,-158 0,-88 70,-159 157,-159l0 0zm1612 244c53,0 97,44 97,97 0,54 -44,97 -97,97 -54,0 -97,-43 -97,-97 0,-53 43,-97 97,-97zm787 -244c46,0 85,39 85,85 0,47 -39,86 -85,86 -46,0 -84,-39 -84,-86 0,-46 38,-85 84,-85zm12 2751c54,0 97,44 97,98 0,53 -43,97 -97,97 -53,0 -97,-44 -97,-97 0,-54 44,-98 97,-98zm1769 -779c54,0 97,44 97,98 0,53 -43,97 -97,97 -53,0 -97,-44 -97,-97 0,-54 44,-98 97,-98zm194 -1095c53,0 97,43 97,97 0,54 -44,97 -97,97 -53,0 -97,-43 -97,-97 0,-54 44,-97 97,-97zm2484 -292c87,0 157,70 157,158 0,87 -70,158 -157,158 -88,0 -158,-71 -158,-158 0,-88 70,-158 158,-158l0 0zm908 3919c54,0 97,44 97,97 0,54 -43,98 -97,98 -53,0 -97,-44 -97,-98 0,-53 44,-97 97,-97zm4992 -901c53,0 97,44 97,98 0,53 -44,97 -97,97 -53,0 -97,-44 -97,-97 0,-54 44,-98 97,-98zm1890 1923c80,0 145,66 145,146 0,81 -65,147 -145,147 -80,0 -146,-66 -146,-147 0,-80 66,-146 146,-146zm3937 -2337c88,0 158,71 158,159 0,87 -70,158 -158,158 -87,0 -157,-71 -157,-158l0 0c0,-88 70,-159 157,-159zm2956 2118c61,0 109,49 109,110 0,61 -48,109 -109,109 -60,0 -109,-48 -109,-109 0,-61 49,-110 109,-110l0 0zm-230 -11563c54,0 97,44 97,97 0,54 -43,98 -97,98 -53,0 -97,-44 -97,-98 0,-53 44,-97 97,-97zm-5137 5063c54,0 97,44 97,98 0,53 -43,97 -97,97 -53,0 -97,-44 -97,-97 0,-54 44,-98 97,-98zm-4785 -2580c87,0 157,71 157,158 0,88 -70,158 -157,158 -87,0 -158,-70 -158,-158 0,-87 71,-158 158,-158l0 0zm-5888 657c46,0 85,39 85,85 0,47 -39,86 -85,86 -46,0 -85,-39 -85,-86 0,-46 39,-85 85,-85zm-1793 2386c87,0 157,71 157,158 0,88 -70,158 -157,158 -87,0 -158,-70 -158,-158 0,-87 71,-158 158,-158l0 0zm-921 -1339c87,0 157,71 157,158 0,88 -70,158 -157,158 -87,0 -158,-70 -158,-158l0 0c0,-87 71,-158 158,-158zm-5440 -2629c54,0 97,44 97,97 0,54 -43,98 -97,98 -53,0 -97,-44 -97,-98 0,-53 44,-97 97,-97z"/>
</svg>
