<?xml version="1.0" encoding="UTF-8"?>
<!DOCTYPE svg PUBLIC "-//W3C//DTD SVG 1.1//EN" "http://www.w3.org/Graphics/SVG/1.1/DTD/svg11.dtd">
<!-- Creator: CorelDRAW X7 -->
<svg xmlns="http://www.w3.org/2000/svg" xml:space="preserve" version="1.1" style="shape-rendering:geometricPrecision; text-rendering:geometricPrecision; image-rendering:optimizeQuality; fill-rule:evenodd; clip-rule:evenodd"
viewBox="0 0 17413 21000"
 xmlns:xlink="http://www.w3.org/1999/xlink">
 <g id="Слой_x0020_1">
  <path class="fil0" d="M9153 2170c0,-280 -210,-420 -490,-420 -2870,-70 -5390,1820 -6230,4550 -70,280 70,490 280,560 0,0 0,0 0,0 70,0 70,0 140,0 210,0 420,-140 420,-350 770,-2310 2940,-3920 5390,-3920 280,70 420,-140 490,-420zm-6440 5040c-280,0 -490,140 -490,420 0,70 0,210 0,280 0,280 210,420 490,420 210,0 420,-210 420,-420 0,-70 0,-140 0,-210 0,-280 -140,-490 -420,-490 0,0 0,0 0,0zm11830 1680c-210,-70 -490,70 -560,280 -700,2380 -2870,3990 -5320,3920 -210,0 -420,140 -490,420 0,210 140,420 420,490 0,0 0,0 70,0 2870,70 5390,-1820 6230,-4550 70,-280 -70,-490 -350,-560 0,0 0,0 0,0zm70 -350l0 0c280,0 490,-210 490,-420 0,-70 0,-210 0,-280 0,-280 -210,-420 -490,-420 -210,0 -420,210 -420,420 0,70 0,140 0,210 0,280 140,490 420,490 0,0 0,0 0,0zm2730 9030l-2590 -4340c1400,-1400 2240,-3360 2240,-5390 -70,-4340 -3780,-7840 -8330,-7840 -4550,0 -8260,3500 -8260,7840 0,2030 770,3920 2240,5390l-2590 4340c-71,140 -71,350 0,490 70,140 280,140 490,140l3570 -910 980 3430c0,140 210,280 420,280 140,0 280,-70 420,-210l2800 -4620 2800 4620c70,140 210,210 420,210 0,0 70,0 70,0 210,0 350,-140 350,-350l980 -3430 3570 910c210,70 350,0 490,-140 0,-70 0,-280 -70,-420l0 0zm-11690 1890l-770 -2800c-70,-210 -350,-350 -560,-280l-3010 700 1960 -3220c1330,1050 2940,1680 4620,1890l-2240 3710zm-4340 -11620c70,-3990 3360,-7070 7350,-7000 3990,-70 7280,3010 7350,7000 -70,3990 -3360,7070 -7350,7000 -3990,140 -7280,-3010 -7350,-7000zm11690 8470c-210,-70 -490,70 -560,280l-770 2800 -2240 -3710c1680,-140 3290,-770 4620,-1890l1960 3220 -3010 -700z"/>
  <path class="fil1" d="M6473 10544l0 -1129 2018 -1535c254,-190 432,-358 536,-505 104,-146 157,-300 157,-462 0,-167 -54,-299 -163,-396 -109,-98 -254,-147 -435,-147 -176,0 -343,53 -504,157 -160,105 -350,282 -568,533l-1008 -837c308,-403 627,-699 954,-883 327,-187 739,-279 1239,-279 587,0 1064,160 1429,483 366,322 550,742 550,1256 0,211 -26,401 -77,571 -52,171 -134,332 -248,479 -114,149 -241,285 -381,408 -140,124 -320,264 -541,418l-924 644 2223 0 0 1224 -4257 0z"/>
 </g>
</svg>
