<?xml version="1.0" encoding="UTF-8"?>
<!DOCTYPE svg PUBLIC "-//W3C//DTD SVG 1.1//EN" "http://www.w3.org/Graphics/SVG/1.1/DTD/svg11.dtd">
<!-- Creator: CorelDRAW X7 -->
<svg xmlns="http://www.w3.org/2000/svg" xml:space="preserve" version="1.1" style="shape-rendering:geometricPrecision; text-rendering:geometricPrecision; image-rendering:optimizeQuality; fill-rule:evenodd; clip-rule:evenodd"
viewBox="0 0 22313 21013"
 xmlns:xlink="http://www.w3.org/1999/xlink">
 <g id="Слой_x0020_1">
  <path id="Forma_1_copy" class="fil0" d="M11156 20357c-262,0 -393,-131 -525,-263l-8400 -9056 0 0c-2100,-2362 -2100,-6037 0,-8400l132 -131c1837,-2231 5118,-2494 7218,-525 132,131 394,394 525,525l1050 1050 1050 -1050c1838,-2100 5119,-2363 7219,-525 131,131 394,394 525,525l131 131c2100,2363 2100,6038 0,8400l0 0 -8400 9056c-131,132 -262,263 -525,263zm-7875 -10238l7875 8532 7875 -8532c1575,-1837 1575,-4593 0,-6562l-131 -131c-1312,-1575 -3675,-1838 -5250,-394 -131,131 -262,262 -394,394l-1575 1706c-262,262 -656,262 -1050,0 0,0 0,0 0,0l-1575 -1706c-1312,-1575 -3675,-1838 -5250,-394 -131,0 -262,262 -393,394l-132 131c-1575,1837 -1575,4594 0,6562z"/>
  <path class="fil1" d="M11156 21013c-534,0 -761,-227 -989,-455l-15 -18 -8400 -9056 -10 -10c-1161,-1306 -1742,-2972 -1742,-4636 0,-1664 581,-3330 1742,-4636l25 -28 128 -128c74,-88 145,-168 213,-241 1015,-1082 2353,-1688 3724,-1790 1372,-101 2776,305 3921,1248 100,82 193,163 277,242l15 13 525 525 586 586 586 -586 1 0c1038,-1167 2472,-1823 3940,-1930 1474,-107 2987,339 4173,1377l33 28 525 525 131 131 26 28c1161,1306 1742,2972 1742,4636 0,1664 -581,3330 -1742,4636l-10 10 -8400 9056 -16 18c-227,228 -455,455 -989,455zm-61 -1382l0 -1c35,35 52,71 61,71 9,0 26,-36 61,-71l1 1 8374 -9028 0 -1c939,-1056 1408,-2409 1408,-3764 0,-1346 -463,-2690 -1390,-3743l-124 -124 -525 -525 0 -1c-903,-774 -2057,-1107 -3186,-1024 -1151,83 -2273,599 -3077,1516l-28 34 -1050 1050 -464 464 -464 -464 -1050 -1050 -525 -525 1 -1c-70,-65 -135,-122 -196,-172 -872,-719 -1946,-1028 -2997,-950 -1052,77 -2081,545 -2863,1379 -72,77 -137,151 -194,220l-36 44 -6 5 -124 124c-926,1053 -1389,2397 -1389,3743 0,1355 469,2708 1408,3764l-1 1 8375 9028zm-7332 -9955l7393 8009 7391 -8007c673,-792 1009,-1783 1009,-2791 0,-1004 -332,-2021 -997,-2874l-123 -124 0 0 -38 -46c-19,-22 -52,-59 -98,-110l0 -2c-532,-580 -1246,-918 -1984,-981 -735,-63 -1492,148 -2114,667 -32,26 -62,52 -90,77l2 2 -394 393 0 0 -1557 1686 -18 21c-259,259 -583,389 -940,389 -309,0 -631,-102 -938,-307l-60 -41 -58 -62 -1575 -1706 -20 -26c-19,-22 -52,-59 -98,-110l0 -2c-532,-580 -1246,-918 -1984,-981 -735,-63 -1492,148 -2113,667 -41,33 -78,66 -112,97l-190 174 -13 0c-56,73 -111,145 -168,201l-126 127c-662,789 -994,1773 -994,2773 0,1009 336,2031 1007,2887l0 0zm6911 9418l-7875 -8531 -28 -36c-885,-1106 -1327,-2432 -1327,-3738 0,-1316 446,-2615 1340,-3658l33 -38 132 -131c23,-24 47,-56 72,-89 132,-176 264,-353 477,-440 8,-8 17,-14 25,-21 903,-753 1998,-1060 3057,-969 1055,89 2076,574 2838,1405l2 -2c30,33 69,78 118,137l0 -1 1511 1637c63,36 116,53 156,53 5,0 9,-1 12,-4l1 0 1556 -1686 18 -20 394 -394 23 -18c55,-50 107,-96 158,-138 903,-753 1997,-1060 3057,-969 1054,89 2076,574 2838,1405l1 -2c27,29 60,68 101,116l0 0 131 131 5 5 41 51c885,1106 1328,2432 1328,3738 0,1316 -447,2615 -1340,3658l-16 18 -7875 8531 -482 522 -482 -522z"/>
 </g>
</svg>
