<?xml version="1.0" encoding="UTF-8"?>
<!DOCTYPE svg PUBLIC "-//W3C//DTD SVG 1.1//EN" "http://www.w3.org/Graphics/SVG/1.1/DTD/svg11.dtd">
<!-- Creator: CorelDRAW X7 -->
<svg xmlns="http://www.w3.org/2000/svg" xml:space="preserve" version="1.1" style="shape-rendering:geometricPrecision; text-rendering:geometricPrecision; image-rendering:optimizeQuality; fill-rule:evenodd; clip-rule:evenodd"
viewBox="0 0 24546 21046"
 xmlns:xlink="http://www.w3.org/1999/xlink">
  <path id="Forma_1" class="fil0" d="M18317 17312c-467,0 -934,467 -934,934l0 933 -15516 0 0 -11433 2450 0c466,0 933,-467 933,-934 0,-466 -467,-933 -933,-933l-3384 0c-583,-117 -933,350 -933,933l0 13300c0,467 350,934 933,934l17500 0c467,0 934,-467 934,-934l0 -1866c-117,-584 -467,-934 -1050,-934zm5950 -10033l-6767 -7000c-233,-233 -700,-350 -1050,-233 -350,116 -583,466 -583,933l0 3150c-3034,0 -6067,1167 -8284,3267 -1750,2100 -2916,4666 -2916,7466 0,467 233,817 700,934 116,0 116,0 233,0 350,0 583,-234 817,-467 1750,-3150 6300,-3617 8866,-3617 234,0 584,0 700,0l0 3150c0,350 234,700 584,934 350,116 700,116 1050,-234l6766 -6883c234,-467 234,-1050 -116,-1400zm-6534 5250l0 -1750c0,-467 -350,-817 -816,-933 -584,-117 -1167,-117 -1750,-117 -2800,-117 -5717,583 -8167,2100 467,-1167 1050,-2217 1867,-3033 1750,-1867 4433,-2800 7933,-2800 467,0 933,-467 933,-934l0 -1750 4550 4667 -4550 4550 0 0 0 0z"/>
</svg>
