<?xml version="1.0" encoding="utf-8"?>
<!-- Generator: Adobe Illustrator 22.0.1, SVG Export Plug-In . SVG Version: 6.00 Build 0)  -->
<svg version="1.1" id="Layer_1" xmlns="http://www.w3.org/2000/svg" xmlns:xlink="http://www.w3.org/1999/xlink" x="0px" y="0px"
	 viewBox="0 0 246.5 70.7" style="enable-background:new 0 0 246.5 70.7;" xml:space="preserve">
<style type="text/css">
	.st0{clip-path:url(#SVGID_2_);}
	.st1{clip-path:url(#SVGID_4_);fill:#FFFFFF;}
	.st2{clip-path:url(#SVGID_6_);fill:url(#SVGID_7_);}
</style>
<g>
	<defs>
		<rect id="SVGID_1_" x="16.3" y="13.8" width="230.2" height="43.2"/>
	</defs>
	<clipPath id="SVGID_2_">
		<use xlink:href="#SVGID_1_"  style="overflow:visible;"/>
	</clipPath>
	<path class="st0" d="M76.6,43.3c-5.3,0-8.9-4.4-8.9-9.7c0-5.4,3.7-9.7,8.9-9.7c3.5,0,5.5,1.3,7.9,3.4l4-4.7c-2.9-2.8-6.1-5-11.9-5
		c-9.4,0-16,7.2-16,15.9c0,8.9,6.7,15.9,15.8,15.9c5.9,0,9.4-1.8,12.6-5.2l-4.3-4.6C82.2,41.9,80.1,43.3,76.6,43.3 M91.3,43.6
		c-0.3,0-1.1-0.1-1.4-0.1l-0.4,5.4c0.9,0.2,2.5,0.4,3.4,0.4c5.9,0,8.6-2.5,8.6-18.1h6V49h6.7V25.4H95.1
		C95.1,42.1,93.8,43.6,91.3,43.6 M128,25.2c-4,0-6.5,0.7-9.1,1.9l1.7,5.1c2.2-0.8,4-1.3,6.5-1.3c3.3,0,5,1.5,5,4.3v0.4
		c-1.7-0.6-3.4-1-5.8-1c-5.6,0-9.5,2.4-9.5,7.5c0,4.7,3.6,7.3,8.1,7.3c3.2,0,5.5-1.2,7.1-3V49h6.5V35.3c0-3.2-0.8-5.8-2.5-7.5
		S131.7,25.2,128,25.2 M132.2,40.7c0,2.4-2.1,4.1-5.2,4.1c-2.2,0-3.6-1.1-3.6-2.9c0-2.2,1.8-3.3,4.6-3.3c1.6,0,3.1,0.4,4.3,0.9v1.2
		H132.2z M159.1,36.6c2-0.9,3.7-2.5,3.7-5.3c0-3.7-3.1-5.9-7.9-5.9H142V49h12.9c5.4,0,8.8-2.4,8.8-6.4
		C163.7,39.3,162,37.5,159.1,36.6 M148.7,30.4h4.8c1.9,0,2.7,1,2.7,2.2c0,1.4-0.9,2.4-2.8,2.4h-4.7C148.7,35,148.7,30.4,148.7,30.4z
		 M153.9,43.8h-5.3v-4.7h5.1c2.3,0,3.2,1,3.2,2.3C157,42.8,156,43.8,153.9,43.8 M189,25.4h-19.2v2c0,5.7-0.3,11.6-2.3,15.8H165v11.2
		h5.6l0.5-5.5h14.8v5.5h5.6l0.8-11.2H189V25.4z M182.3,43.3h-8c1.4-3.5,1.7-7.6,1.8-11.6v-0.5h6.3v12.1H182.3z M205.3,25
		c-7.3,0-12.8,5.5-12.8,12.2c0,6.8,5.4,12.3,12.7,12.3S218,44,218,37.2S212.6,25,205.3,25 M205.3,43.8c-3.7,0-6.2-3-6.2-6.5
		c0-3.6,2.3-6.5,6.1-6.5c3.7,0,6.2,3,6.2,6.5S209.1,43.8,205.3,43.8 M239.8,25.4l-6.5,9.9l-6.4-9.9h-6.7V49h6.6V35l6.4,9.5l6.6-9.7
		V49h6.7V25.4H239.8z"/>
</g>
<g>
	<defs>
		<rect id="SVGID_3_" x="16.3" y="13.8" width="230.2" height="43.2"/>
	</defs>
	<clipPath id="SVGID_4_">
		<use xlink:href="#SVGID_3_"  style="overflow:visible;"/>
	</clipPath>
	<path class="st1" d="M53.3,17.9l-0.1-1.3L52,16.2c-0.3-0.1-7-2.3-16.5-2.4h-0.4c-9.4,0.1-16.2,2.3-16.5,2.4l-1.2,0.4l-0.1,1.3
		c0,0.3-0.8,7.9-0.4,16.1c0.2,3.4,1.2,6.7,3,9.9c1.4,2.5,3.4,4.8,5.8,7c4.1,3.7,8.3,5.7,8.8,5.9L35,57l0.2,0.1l0.2-0.1
		c0,0,0.5-0.2,0.7-0.3c0.5-0.2,4.6-2.2,8.8-5.9c2.4-2.2,4.4-4.5,5.8-7c1.8-3.1,2.9-6.4,3-9.9C54.1,25.8,53.3,18.2,53.3,17.9
		 M51.7,33.9c0,1-0.2,1.9-0.3,2.8H31V32l4.2-3.8l4.5,4h9.9L35.2,19.3L20.9,32.2h3.5v11.1h24.3C43.9,51,35.2,54.9,35.2,54.9
		s-15.8-7.1-16.5-21c-0.4-8.1,0.4-15.8,0.4-15.8s6.6-2.2,15.9-2.3h0.4c9.2,0.1,15.9,2.3,15.9,2.3S52.1,25.8,51.7,33.9"/>
</g>
<g>
	<defs>
		<path id="SVGID_5_" d="M35,15.9c-9.2,0.1-15.9,2.3-15.9,2.3s-0.8,7.7-0.4,15.8c0.7,13.9,16.5,21,16.5,21s8.7-3.9,13.5-11.6H24.4
			V32.3h-3.5l14.3-12.9l14.3,12.9h-9.9l-4.5-4L31,32v4.7h20.3c0.2-0.9,0.3-1.8,0.3-2.8c0.4-8.1-0.4-15.8-0.4-15.8s-6.6-2.2-15.9-2.3
			L35,15.9C35.1,15.8,35,15.9,35,15.9z"/>
	</defs>
	<clipPath id="SVGID_6_">
		<use xlink:href="#SVGID_5_"  style="overflow:visible;"/>
	</clipPath>
	
		<linearGradient id="SVGID_7_" gradientUnits="userSpaceOnUse" x1="-565.306" y1="145.5226" x2="-564.306" y2="145.5226" gradientTransform="matrix(31.6604 22.1688 -22.1688 31.6604 21140.1875 7947)">
		<stop  offset="0" style="stop-color:#CF4334"/>
		<stop  offset="0.108" style="stop-color:#CE3B31"/>
		<stop  offset="0.271" style="stop-color:#CC262A"/>
		<stop  offset="0.3" style="stop-color:#CC2229"/>
		<stop  offset="0.738" style="stop-color:#A1191D"/>
		<stop  offset="1" style="stop-color:#861316"/>
	</linearGradient>
	<path class="st2" d="M29.4,0l41,28.7L41,70.7L0,42L29.4,0z"/>
</g>
</svg>
