<?xml version="1.0" encoding="UTF-8"?>
<!DOCTYPE svg PUBLIC "-//W3C//DTD SVG 1.1//EN" "http://www.w3.org/Graphics/SVG/1.1/DTD/svg11.dtd">
<!-- Creator: CorelDRAW X7 -->
<svg xmlns="http://www.w3.org/2000/svg" xml:space="preserve" width="297mm" height="210mm" version="1.1" style="shape-rendering:geometricPrecision; text-rendering:geometricPrecision; image-rendering:optimizeQuality; fill-rule:evenodd; clip-rule:evenodd"
viewBox="0 0 29700 21000"
 xmlns:xlink="http://www.w3.org/1999/xlink">
 <defs>
  <style type="text/css">
   <![CDATA[
    .str0 {stroke:#595959;stroke-width:25;stroke-opacity:0.501961}
    .str1 {stroke:#CA2031;stroke-width:17.64}
    .fil2 {fill:none}
    .fil3 {fill:#D70022}
    .fil1 {fill:white}
    .fil0 {fill:#FAFAFA;fill-opacity:0.501961}
    .fil4 {fill:url(#id0)}
   ]]>
  </style>
  <linearGradient id="id0" gradientUnits="userSpaceOnUse" x1="16905.1" y1="3648.8" x2="20896.2" y2="3648.8">
   <stop offset="0" style="stop-opacity:1; stop-color:#CF4334"/>
   <stop offset="1" style="stop-opacity:1; stop-color:#9F191D"/>
  </linearGradient>
 </defs>
 <g id="Слой_x0020_1">
  <metadata id="CorelCorpID_0Corel-Layer"/>
  <path class="fil0 str0" d="M23738 5798l-27 68 64 41 68 -41 -23 -87 -82 19zm-5914 1875l113 86 52 -79 19 -67 -64 -42 -75 -11 -45 113zm-218 263l34 49 128 -79 -31 -75 -79 -4 -41 67 -11 42zm6741 -2037l-53 98 -267 150 -199 -187 -196 -19 -278 180 -192 237 -68 240 -128 42 -158 -79 -150 15 -79 101 -71 -60 -64 71 -76 -75 109 -112 -263 -19 -150 131 82 286 -154 146 0 -221 -101 0 -106 94 -22 -113 150 -139 -162 11 -481 244 94 113 -136 135 53 98 98 -49 11 139 117 139 -181 45 -56 72 49 120 -147 22 -196 -60 -60 222 -331 -56 0 488 -237 -37 -365 -331 136 -94 -222 -327 -143 -68 -215 72 -240 -94 -34 376 -440 184 -166 -113 26 -86 -447 -8 -121 158 -26 105 -30 -154 -83 -71 -101 101 -136 68 -7 94 64 82 0 4 3 0 27 154 210 297 4 0 0 4 0 195 105 128 8 7 -8 4 -244 195 -15 113 0 4 0 0 -60 86 -42 211 -3 7 -8 0 -120 -15 -192 158 -4 0 0 0 -64 34 154 237 0 0 0 3 53 658 0 4 -4 3 -135 151 90 67 4 4 0 4 -38 176 79 87 4 0 0 4 0 123 94 64 4 4 0 8 -45 120 0 0 -4 0 -139 169 -15 124 229 0 4 0 4 0 97 79 110 -72 3 -3 8 7 60 75 4 4 0 0 79 120 4 8 -8 4 -90 56 0 105 101 8 79 -57 12 -7 3 11 102 192 0 3 0 4 -8 229 132 76 4 3 0 4 -60 244 75 162 165 49 8 3 -4 8 -124 297 -26 364 128 135 135 -105 4 0 4 0 203 -7 75 -132 7 -11 8 7 109 113 147 -169 229 -488 0 -4 4 -4 154 -22 4 0 0 0 297 116 4 4 0 4 64 191 177 -79 7 -3 4 3 109 75 4 4 0 0 199 451 260 481 162 -105 0 -4 0 0 169 -68 7 0 4 4 128 105 72 -63 7 -4 4 4 105 97 94 -97 4 -4 4 0 237 11 4 0 0 0 150 117 290 -109 3 0 8 3 94 79 403 -184 3 0 0 0 117 26 128 -48 -15 -94 -4 -8 8 0 308 -161 -75 -222 -4 -4 4 -4 105 -112 -45 -106 -196 -131 -7 -4 4 -7 105 -199 -196 -136 -7 -7 4 -8 94 -105 0 -443 0 -8 3 0 380 -146 15 -169 0 -12 12 0 225 -15 49 -139 -7 -142 0 -8 7 -4 109 -49 -82 -289 -155 -109 -3 -4 0 -3 101 -354 -139 -368 0 -4 4 -3 75 -102 4 -3 7 0 267 93 173 -37 57 -105 4 -4 3 0 203 -30 38 -132 -338 -698 0 0 0 -4 33 -173 0 0 4 -4 226 -158 -87 -165 0 -7 4 -4 218 -207 4 0 0 0 196 -22 113 -124 18 -218 -124 -113 -4 -4 0 -4 -7 -139 -79 -120 -8 -7 8 -4 98 -90 -106 -124 -7 -8 7 -3 252 -233 4 -4 0 0 113 -45 87 -124 -162 -331 -200 0 0 0 -3 0 -155 -71 -3 0 -4 -4 -79 -210 -4 -8 4 -4 320 -372 0 -184 -418 -312zm3762 79l-45 -533 -151 -83 350 -240 -49 -162 -647 -52 -79 101 -176 15 -19 139 -143 -11 0 -192 162 -52 63 -132 -33 -349 -64 -27 -79 49 -4 -128 -154 60 -102 -116 38 -192 128 113 75 -60 105 120 64 -150 -15 -177 120 -97 207 22 343 -263 -83 -97 169 26 -4 -169 -184 37 -56 -120 -249 -49 98 -120 -128 -94 117 -83 -147 -191 -417 244 -27 199 -113 150 283 113 -155 68 -451 -124 -523 349 -786 425 -211 345 19 102 -143 41 -199 181 139 176 128 -37 192 105 -19 191 -177 19 -117 72 -252 -158 0 319 -256 192 -97 188 425 319 4 4 0 3 0 192 0 4 -4 0 -316 372 79 203 150 67 203 0 8 0 0 4 79 169 135 19 4 0 0 4 87 150 176 -86 4 0 4 0 165 52 125 -113 3 0 4 0 196 -15 143 -150 -27 -146 0 -8 8 -4 143 -45 41 -139 0 -7 8 0 124 -12 41 -116 0 -8 4 0 230 -52 60 -109 3 -4 4 0 343 -19 7 0 0 4 79 218 241 -71 0 0 0 0 259 7 211 -605 4 -7 11 4 124 67 162 -49zm-2720 4757l128 -87 90 -71 125 -30 -42 -252 218 -67 166 -147 150 -4 -113 162 110 90 158 -176 37 -279 143 -52 113 -147 -117 -90 -101 128 -109 -102 -30 -507 -94 -300 30 -218 180 -259 106 -8 48 -147 211 290 147 -23 11 -109 -34 -221 -37 -154 -143 -79 -4 -4 0 -4 -30 -143 -90 -82 -147 11 -8 0 0 -4 -90 -229 -124 -26 -4 -4 -4 0 -203 -297 -143 150 0 4 -3 0 -196 11 -128 117 -4 4 -4 -4 -169 -53 -180 87 -8 4 -4 -8 -86 -154 -117 -15 75 154 0 4 0 7 -90 128 0 4 -4 0 -116 49 -245 225 106 120 3 8 -3 7 -98 90 75 117 4 0 0 4 7 139 124 112 4 4 0 4 -19 225 0 4 -3 4 -117 128 0 3 -4 0 -195 23 -211 195 83 166 3 7 -3 4 -230 161 -34 166 331 691 155 -105 3 0 4 0 350 116 4 0 0 8 37 191 4 4 -4 4 -82 150 64 124 139 -101 0 -4 4 0 176 0 8 0 0 8 90 150zm267 5948l-19 574 102 177 -402 34 -132 289 372 383 12 139 206 -195 354 4 252 -203 154 -305 72 -834 105 -435 -68 -511 -101 -30 -8 0 0 -8 -22 -120 -169 -120 -189 139 113 120 177 15 11 4 -3 7 -42 278 0 8 -7 0 -124 3 18 177 0 4 -3 3 -185 121 0 3 -3 0 -298 19 -75 98 60 116 4 12 -11 0 -151 34zm-165 -617l131 214 -48 158 79 226 139 -30 -57 -109 -3 -4 3 -8 83 -105 4 -4 4 0 297 -18 177 -117 -23 -180 0 -11 11 0 128 -4 38 -259 -173 -15 -4 0 0 -4 -120 -128 -8 -7 8 -8 203 -150 4 -4 3 4 177 124 4 3 0 4 26 120 90 27 42 -579 -64 -184 -282 -579 -94 -112 -83 -406 -56 -135 -23 -23 -211 -86 -75 -90 64 -128 -158 -64 -327 -56 -256 131 -90 387 -106 -139 -124 158 -101 -297 -219 132 -180 -30 11 -173 233 -586 60 -590 68 -286 -56 -233 75 -210 -34 -229 497 -485 158 30 15 -60 -45 -68 67 -45 -82 -150 -170 0 -146 109 -8 4 -4 -8 -71 -139 0 -4 0 -7 83 -151 -34 -184 -339 -112 -158 105 -37 135 0 4 -8 4 -203 30 -60 101 0 4 -4 0 -181 41 0 0 -3 0 -264 -90 -71 90 139 365 0 3 0 4 -98 346 147 105 4 4 0 0 86 304 0 8 -7 0 -109 52 7 139 0 4 0 0 -53 147 -3 7 -8 0 -222 15 -15 169 0 8 -7 0 -380 146 0 440 0 4 0 3 -87 98 192 135 7 4 -3 8 -106 199 196 127 0 0 4 4 45 117 0 3 -4 8 -101 109 75 210 305 -158 7 -3 4 3 101 113 4 4 0 4 -150 327 15 157 0 8 -4 4 -113 64 8 127 252 0 3 0 4 8 117 173 128 -12 207 -188 30 -142 3 -8 8 0 154 0 49 -94 4 -7 4 0 113 19 3 0 4 7 102 312 0 4 -4 3 -68 68 -4 4 0 0 -252 41 64 132 0 7 -3 4 -98 105 -27 143 0 4 0 0 -150 172 64 79 4 4 -4 8 -98 131 0 162 263 131 4 0 0 4 215 297 135 -128 0 -4 4 0 289 4 0 4 4 0 128 101 384 -128 15 -3 -4 15 -41 161zm-1087 267l146 233 158 135 335 -161 45 -139 249 -278 139 -64 34 -143 -373 124 -4 4 -3 -4 -128 -105 -282 -4 -136 132 -180 270zm-2671 -872l334 -172 256 90 309 -49 451 443 561 579 222 -87 135 64 98 -49 188 57 101 -11 177 -271 -214 -297 -271 -135 -4 0 0 -8 0 -169 0 -3 0 0 98 -132 -64 -79 -4 -4 4 -7 151 -173 26 -143 0 -3 4 0 97 -106 -67 -139 -4 -11 11 -4 260 -41 60 -60 -98 -301 -98 -15 -45 94 -3 4 -8 0 -150 0 -34 139 0 0 -4 4 -211 195 0 0 -4 0 -135 11 -7 0 0 -7 -117 -173 -260 0 -7 0 0 -7 -8 -143 0 -8 4 0 113 -67 -15 -154 0 -4 0 0 150 -323 -94 -102 -620 323 15 94 0 8 -8 4 -135 48 0 4 -4 0 -117 -26 -402 184 -4 4 -8 -4 -94 -83 -293 109 -4 0 -4 0 -150 -116 -229 -11 -98 101 -8 4 -7 -4 -102 -98 -71 64 -8 4 -4 -4 -131 -109 -162 68 -162 101 203 136 8 3 -8 12 -60 82 94 90 169 -90 8 -7 4 11 79 139 128 -30 11 0 0 7 19 256 131 71 12 8 -8 7 -75 106 211 311zm4394 -1675l-8 -19 290 158 94 248 139 180 173 274 124 199 143 109 41 128 42 113 177 83 22 176 185 233 15 -203 -27 -150 143 -11 53 -23 132 68 -106 -226 -158 0 -165 -75 -192 -135 -124 -316 -68 -199 147 -86 274 -15 -617 -417 -440 -391 -199 -376 -275 -191 -128 -162 -90 38 -19 94 162 112 90 132 -49 64 -79 -19 -26 113 158 116 158 357 -15 -4 23 23zm-23494 -2168l42 75 -8 180 128 68 0 0 90 60 83 -60 4 0 0 0 128 7 135 -82 12 -102 3 -7 8 0 150 19 79 -23 4 -4 4 8 60 116 132 49 30 -26 7 -147 -82 -64 -4 -3 0 -4 -8 -94 -52 -53 -83 -60 -4 -3 0 -4 8 -147 -162 -127 -4 0 0 -4 -15 -98 -64 -30 -4 -4 0 -4 0 -60 -26 -45 -94 -7 -15 41 -4 4 -4 0 -37 7 -8 0 0 -3 -26 -34 -42 0 -60 56 0 105 0 4 -3 0 -34 53 30 22 4 0 0 8 3 49 0 11 -11 0 -68 -4 -26 45 19 94 0 4 -4 4 -211 214zm-319 -992l-72 86 -34 57 15 71 76 34 -12 113 188 120 4 214 147 278 203 -207 -19 -90 0 -4 0 0 34 -56 4 -4 4 0 63 4 -3 -37 -34 -27 -8 -4 4 -7 41 -56 0 -102 -135 -139 -135 -26 0 0 0 -4 -98 -64 -4 0 0 -4 -23 -78 -48 -8 -49 26 -4 4 -8 -7 -97 -83zm127 -477l-79 34 -41 78 -56 16 -8 97 83 49 -19 184 98 87 45 -27 4 -3 4 3 56 8 8 0 0 7 26 83 90 60 136 30 0 0 3 0 132 139 60 -56 4 0 4 0 49 0 3 0 4 0 23 34 30 -8 15 -34 -60 -82 -4 0 0 -4 -4 -79 -64 -23 -4 0 -3 -3 -19 -42 0 0 0 -3 0 -68 -30 -38 -4 -3 0 -4 0 -143 -214 -278 -268 -11zm305 -654l-135 -11 -98 -94 11 -90 -94 -19 -52 131 -200 169 15 106 106 -4 79 64 26 139 90 -12 102 19 0 72 -128 165 244 11 301 -221 -22 -38 0 -4 0 -4 0 -48 0 -4 0 0 37 -38 0 0 0 0 53 -30 -8 -41 -60 -4 -34 23 -3 3 -4 0 -57 -33 0 0 -3 -4 -34 -64 0 0 0 -4 -4 -56 0 -4 4 -4 30 -52 -143 -11 -4 0 -4 0 -11 -8zm429 -830l-23 37 -161 94 -83 132 -90 180 -12 150 27 87 -64 79 -4 60 4 4 154 7 60 -26 4 0 0 0 124 0 68 -60 0 -4 4 0 90 7 7 0 4 4 38 132 34 -19 0 -4 3 4 68 7 4 0 4 4 30 49 177 -19 105 -67 116 -166 4 -41 -79 -98 -4 0 0 -4 -11 -86 -195 -38 -4 0 0 0 -98 -71 0 0 0 0 -128 -237 0 0 0 -3 -41 -94 -38 -19 -75 19 -4 0 0 0 -15 0zm-448 1488l215 278 0 3 0 4 0 143 30 37 4 4 0 0 0 72 15 33 64 23 101 4 30 -57 0 0 4 0 184 -154 23 -154 -83 -71 0 -4 -4 0 -41 -90 0 -4 0 0 8 -158 -249 -131 -301 222zm655 409l-181 147 -33 60 0 3 -8 0 -94 -3 4 71 60 79 101 8 4 0 4 3 26 53 4 0 0 4 0 56 60 30 4 4 0 4 15 97 162 124 79 -34 19 -48 -12 -79 -22 -49 0 -4 0 -4 34 -60 3 0 0 -4 140 -63 79 -72 3 -90 -18 -60 -72 -56 -4 -4 0 0 -22 -64 -72 -8 -109 49 0 0 -4 0 -75 -7 -4 0 -3 -4 -68 -79zm466 312l0 15 0 4 -3 3 -83 76 0 0 -4 3 -135 60 -30 53 22 45 0 4 0 0 11 83 0 3 0 0 -22 57 0 0 -4 3 -83 38 -7 139 79 56 0 0 0 0 56 57 4 0 0 3 8 94 79 64 124 -22 240 -124 31 -42 0 -199 0 0 0 -3 26 -136 0 -3 0 0 105 -124 -83 -94 -52 30 0 0 0 0 -45 15 -4 0 -4 0 -68 -42 0 0 0 -3 -60 -109 -98 -4zm-556 -812l-4 154 41 87 83 79 4 3 0 4 -23 158 68 83 71 3 110 -48 0 0 3 0 68 7 8 -41 0 -4 0 0 48 -68 4 0 0 0 98 -105 0 -67 0 -4 0 0 60 -60 -11 -121 -72 -45 -3 0 0 -3 -30 -64 -151 7 -34 45 -7 4 -8 -4 -128 -79 -37 -11 -158 90zm590 323l-98 106 -45 64 -7 45 22 64 76 60 0 0 0 3 22 64 0 0 0 4 -4 60 102 8 8 0 0 3 60 109 64 38 37 -11 57 -38 7 -4 4 8 94 101 64 23 56 0 189 -169 0 0 0 0 97 -72 -22 -64 0 0 -38 -101 -192 -327 -116 -4 -42 38 -7 4 -4 -4 -49 -30 0 0 -45 -34 -23 19 0 0 -3 0 -83 22 -4 0 0 0 -49 -22 -30 30 -4 4 0 0 -94 3zm-67 -394l30 -34 41 -64 0 -150 -68 -41 -3 0 0 0 -53 -87 -4 0 0 -4 -11 -86 -98 64 0 0 -4 0 -184 19 -4 0 -4 -4 -33 -49 -61 -11 -41 26 -8 4 -3 -11 -42 -136 -79 -3 -67 64 0 0 -4 0 -124 0 -60 26 -38 60 4 56 30 60 49 27 30 -27 4 0 3 0 72 4 7 0 0 8 8 52 0 8 -4 4 -56 33 -34 30 0 45 26 42 252 131 162 -94 4 0 3 0 38 15 4 0 0 0 124 76 34 -42 4 -4 3 0 155 -7zm-53 -477l15 94 53 82 71 38 4 4 0 3 0 162 0 0 0 4 -45 67 -4 0 -26 34 30 64 71 45 4 0 4 4 11 131 0 4 -4 4 -56 56 0 57 79 -4 34 -30 7 -4 4 0 49 23 75 -19 30 -23 4 -3 4 3 52 38 0 0 42 26 37 -34 4 -3 4 0 120 3 45 -67 31 -90 -27 -27 -4 0 0 0 -52 -67 0 -4 0 0 -45 -135 0 -4 0 0 30 -98 0 0 3 0 98 -116 0 0 4 0 60 -60 15 -68 -79 -94 -188 0 -4 0 -3 0 -207 -135 -4 0 0 -8 4 -79 -27 -11 -18 23 -4 0 -4 0 -177 26 -3 15 0 4 0 0 -117 169zm816 184l-49 45 -97 113 -31 90 42 131 52 68 34 30 4 4 -4 7 -30 94 -4 0 0 0 -45 72 188 315 132 -79 4 0 0 0 165 -7 185 -109 -38 -105 -180 -230 -87 -41 -4 0 0 0 -67 -75 -8 -4 8 -7 48 -68 19 -83 -41 -41 -87 75 -7 4 -8 -4 -82 -90 -4 -4 0 -3 -8 -98zm245 143l11 11 4 4 0 3 -23 91 -4 3 0 0 -45 61 61 67 90 41 0 0 4 0 180 233 0 0 0 4 42 105 56 -11 45 -60 0 -4 4 0 113 -7 3 0 0 0 46 41 67 -38 19 -240 -105 -60 -4 0 -4 -8 -3 -97 -49 -45 -83 26 -4 4 0 -4 -267 -139 -154 19zm267 18l158 83 83 -26 3 0 4 4 57 48 3 4 0 4 4 98 109 60 8 0 -4 7 -19 241 324 0 41 -27 4 0 0 0 109 4 7 0 0 4 31 83 86 37 0 4 4 0 71 75 121 -124 3 0 4 0 290 4 7 -184 0 -4 4 0 57 -64 -64 -64 -155 42 -3 0 -4 -4 -233 -135 0 0 -4 -4 -139 -256 -211 -127 -324 -19 -112 79 0 0 -4 0 -124 7 -38 57 -4 3 0 0 -150 90zm-485 -270l139 -64 -19 -64 0 0 0 -4 41 -236 4 -8 8 0 120 11 150 -150 -18 -173 -151 0 0 8 -15 -11 -162 -147 -97 8 -4 0 -4 -4 -117 -94 -3 -4 0 0 -19 -86 -90 -64 -31 26 -15 79 0 8 -11 0 -214 -19 -4 0 0 -4 -75 -60 -211 -56 0 0 -4 0 -109 -83 0 0 0 0 -60 -60 -56 56 -34 139 0 4 0 0 -64 98 0 3 -4 0 -147 27 34 90 128 233 90 67 200 34 7 0 0 8 15 94 79 97 4 4 0 4 -4 11 173 -22 23 -27 4 -3 7 3 38 19 4 0 0 8 -4 79 199 131 192 -4 4 0 4 4 79 94zm899 22l-117 -112 -4 -4 0 -4 45 -165 -86 -109 -79 4 0 0 -4 -4 -199 -128 -154 151 -4 3 -4 0 -113 -11 -41 225 19 72 3 7 -7 4 -147 68 -15 71 8 113 75 82 90 -75 8 -3 3 3 23 23 177 -19 0 0 4 0 86 45 158 -94 38 -60 3 -4 4 0 128 -7 102 -72zm-222 3513l-4 109 60 143 68 -15 49 -45 101 49 -3 71 -31 64 34 38 102 34 38 139 37 169 -41 109 41 90 113 -72 49 15 38 76 22 127 75 53 87 -56 83 3 158 68 -4 75 34 56 79 15 64 -67 67 67 91 57 -23 135 23 79 86 98 75 26 72 -45 60 19 45 90 181 56 79 -56 79 -113 -139 -304 -12 -8 -3 -3 0 -4 -30 -90 -4 -4 4 -8 75 -56 19 -56 -38 -79 -192 -60 -94 22 -45 113 -4 4 -4 0 -120 -12 -4 0 0 -3 -109 -106 -195 -45 -4 0 -4 -3 -41 -83 -4 -8 4 -3 79 -83 -49 -53 -4 0 0 -7 4 -49 0 -8 7 0 68 -22 7 -120 -101 3 -49 34 -11 8 -4 -15 -15 -143 0 -8 4 0 49 -18 3 -87 -45 -49 -4 -3 0 -4 8 -199 -56 -79 -4 -4 0 -4 0 -266 -53 -117 0 -4 0 -3 26 -106 -71 -78 -4 11 0 0 -37 120 0 4 0 0 -27 52 -4 4 0 0 -210 117 -53 97 0 0 -4 4 -143 45 0 0 -3 0 -72 11 -147 128 -3 0 -4 0 -211 19 -7 7zm-1031 -86l94 86 -11 102 -23 75 53 101 109 -48 53 -109 64 -68 154 26 83 -67 60 -4 41 34 154 -11 113 -31 75 -15 4 -7 4 -64 -8 -56 -75 -109 -4 -4 0 -4 12 -128 -83 -108 0 0 -4 -4 -30 -120 0 0 0 0 -4 -72 -71 -22 0 0 0 0 -211 -113 -4 -4 0 -4 -3 -116 -203 -34 0 0 -4 0 -215 -128 -3 -3 0 -4 0 -72 -31 -52 -105 -11 -7 0 0 -4 -155 -241 -207 106 0 0 0 0 -120 22 -7 147 0 3 -4 4 -34 30 11 117 60 79 94 22 0 0 4 0 166 162 4 3 0 4 0 120 0 4 -4 0 -75 83 -4 79 60 3 68 -26 11 -7 4 15 3 131 42 60 98 19 7 4 0 7 4 222zm850 -605l4 68 30 120 87 105 0 4 0 4 -12 131 75 105 0 4 4 0 8 60 0 0 0 4 -4 60 203 -19 147 -124 4 -3 0 0 75 -12 143 -45 49 -94 3 -3 0 0 211 -117 27 -49 33 -120 15 -56 -105 -151 -45 -37 -45 30 -4 4 0 0 -41 7 -8 0 -4 -4 -82 -120 -27 19 -105 113 -4 0 0 0 -60 37 -4 0 -4 0 -79 -19 -3 0 0 -3 -121 -106 -82 -60 -76 8 -124 15 -49 71 -4 30 42 23 4 0 0 7 -15 83 0 4 -4 4 -53 22zm-290 -263l4 113 203 109 72 26 53 -22 11 -72 -42 -19 -3 -3 0 -4 3 -41 0 0 0 -4 53 -75 4 -4 4 0 131 -19 0 0 79 -7 0 0 4 0 87 63 0 0 0 0 120 106 71 18 57 -33 105 -113 4 0 0 0 26 -19 -79 -98 -3 -7 3 -4 34 -41 -7 -83 -158 -11 -4 0 -4 -4 -90 -128 -113 -3 -8 0 0 -8 -41 -101 -124 -151 -19 23 -22 109 0 4 0 0 -31 41 -3 8 -4 -4 -192 -64 0 195 0 4 -4 4 -37 45 34 71 3 4 -3 4 -16 49 0 0 -3 3 -155 143zm-413 -1059l-57 0 0 0 -4 0 -60 -23 -105 128 -23 131 0 203 0 4 -3 0 -34 49 0 0 -4 0 -23 11 151 241 105 11 8 0 0 4 34 56 0 4 0 3 0 68 210 120 207 38 154 -147 12 -41 -38 -71 0 -4 4 -8 41 -45 0 -199 -71 -7 -8 0 0 -4 -52 -113 -117 -19 -41 34 -8 8 -4 -12 -75 -120 0 0 0 -4 -11 -135 -124 0 -4 0 -4 -7 -56 -154zm301 -245l-98 72 -185 165 53 150 124 0 12 0 0 8 11 143 64 109 34 -30 3 0 4 0 128 22 4 0 4 4 49 113 67 3 0 -3 12 3 195 68 26 -34 23 -113 0 0 0 -3 26 -30 38 -68 4 -49 -53 -30 -4 0 -3 -7 -8 -57 -30 -19 -19 30 -4 4 -3 0 -132 4 -15 38 -4 7 -7 0 -68 -11 -4 0 -4 -8 -67 -131 0 0 0 -4 -23 -192 -150 -154zm617 530l-4 53 0 4 0 0 -38 63 128 154 0 0 0 4 19 42 94 -27 0 0 0 0 128 -15 11 -98 0 -3 4 -4 68 -34 0 -4 0 0 128 -30 15 -109 -34 -187 -249 -79 -139 37 -15 147 0 3 -4 4 -112 79zm-670 -710l38 98 0 0 26 67 154 158 4 4 0 4 19 191 67 128 57 11 15 -37 0 -4 7 0 132 -8 23 -30 3 -7 8 4 45 22 4 4 0 4 7 60 49 26 113 -79 11 -146 0 -8 8 0 143 -41 7 -214 0 -8 8 0 128 -4 71 -56 4 -4 8 4 135 86 113 -154 4 -7 7 7 132 94 90 -41 38 -49 -75 -97 -158 -162 -91 -41 -4 0 0 -4 -30 -83 -97 0 -38 26 -4 0 -4 0 -334 -3 -76 45 -7 4 -4 -4 -45 -42 -102 8 -41 60 -4 4 -4 0 -67 15 -192 113 0 0 -4 0 -165 7 -132 79zm1290 244l-139 -86 -64 52 -4 0 -3 0 -121 8 -7 203 244 79 8 4 0 3 37 199 0 0 0 0 -11 102 64 -26 0 0 4 0 207 -31 0 0 4 0 146 46 0 3 4 4 45 75 75 -71 -7 -162 -30 -79 -102 -112 -256 -45 -3 0 -4 -4 -60 -45 0 -4 0 -4 -27 -109zm489 590l-71 64 -8 8 -7 -8 -49 -83 -139 -45 -203 30 -76 27 0 3 -7 0 -132 34 -60 34 -15 98 0 7 -8 0 -131 19 -91 26 15 38 113 4 4 0 0 3 90 132 162 7 8 4 3 8 8 94 0 3 -4 4 -30 38 75 90 0 0 4 7 87 124 33 -7 53 -34 8 -4 3 4 53 45 0 0 0 0 105 154 4 4 0 4 -7 26 82 94 4 4 0 3 -26 109 49 109 22 0 34 -71 0 0 42 -86 0 -8 7 0 68 4 4 0 0 0 90 56 22 -30 -15 -98 -64 -63 -3 -4 0 -4 15 -101 0 -8 11 0 166 19 135 -42 19 -112 -49 -8 -4 0 0 -3 -34 -38 -3 -8 7 -3 72 -53 3 -22 -64 -8 -7 -4 0 -4 -8 -41 0 -4 0 -3 38 -64 -26 -15 -121 64 0 3 -4 -3 -143 -27 -3 0 -4 -3 -60 -98 0 -4 0 0 -38 -116 0 0 0 -4 -4 -267zm42 327l15 53 60 94 135 26 121 -64 7 -4 4 4 34 26 7 4 -3 8 -38 67 4 30 68 8 7 0 0 11 -7 38 0 3 -4 0 -64 49 22 30 53 8 83 0 86 -79 4 -196 0 -11 11 0 79 8 79 -90 53 -136 0 0 0 0 79 -86 94 -237 -49 -34 0 0 0 0 -52 -64 -72 16 -7 0 -4 -4 -94 -90 -147 -4 -4 52 0 0 -7 72 0 4 -4 0 -105 90 -4 4 -8 -4 -82 -38 -68 -7 -64 244 -4 4 -4 3 -143 19 -67 173zm605 323l-90 83 -4 4 -3 0 -79 0 -19 116 0 4 -8 4 -143 45 0 0 -3 0 -162 -19 -11 86 63 64 0 0 0 4 19 105 0 4 0 4 -30 41 -4 7 -7 -3 -98 -60 -60 -4 -38 82 0 0 -34 79 0 4 -7 0 -26 0 0 259 56 76 4 3 0 4 -8 199 45 53 4 0 0 7 -7 94 0 4 -4 4 -45 15 15 124 37 -27 4 -3 4 0 113 -4 11 0 0 7 -11 139 0 8 -8 0 -67 23 -4 41 52 52 4 8 -4 7 -79 83 38 71 196 46 3 3 0 0 110 106 105 11 45 -109 4 -4 4 0 90 -26 15 -83 11 -83 0 -7 8 0 116 -30 15 -94 0 0 0 -4 98 -165 0 0 4 -4 162 -90 3 -4 4 4 83 41 41 0 27 -105 3 -4 4 -3 83 -23 45 -38 -64 -63 -37 15 -61 33 -3 0 -4 0 -260 -86 0 0 -4 0 -60 -49 0 -4 0 0 -71 -154 0 -3 0 -4 34 -90 0 -4 3 -4 121 -71 4 -4 3 0 68 8 4 0 4 3 52 72 4 0 0 3 4 121 49 37 64 -26 0 -4 3 0 61 8 3 0 0 0 42 30 0 0 0 0 94 90 41 -23 30 -63 -56 -76 0 0 0 -3 -11 -60 0 -4 3 0 57 -113 15 -90 -49 -4 0 -4 -4 0 -169 -71 0 -4 0 0 -72 -56 -3 0 0 -4 -27 -83 -67 19 -8 4 -4 -8 -30 -41 0 -4 -4 0 -11 -75 0 0 -7 -45 -79 -19 -8 -3 0 -4 -7 -102 -181 -7 -8 0 0 -11 0 -132 -79 0zm557 -1552l-120 57 -4 0 -4 0 -346 -132 -113 128 -7 8 -8 -4 -52 -45 -4 -4 0 -4 0 -206 -30 -68 0 -4 4 -4 274 -308 -11 -131 -79 -98 -109 15 -158 105 0 0 -4 0 -139 -7 -19 52 98 91 7 7 -7 8 -121 124 0 0 -60 63 -7 192 0 8 -8 0 -297 -4 -117 116 72 75 0 0 4 4 79 105 7 8 -7 4 -46 56 0 0 -3 0 -98 45 -4 0 -4 -4 -128 -90 -105 151 23 105 56 45 260 45 3 4 0 0 106 116 0 0 0 0 34 83 0 4 0 0 7 169 0 3 0 0 4 286 7 34 61 -158 3 -4 4 0 143 -22 68 -245 4 -7 7 0 75 7 0 0 0 0 83 38 98 -83 7 -67 4 -60 0 -8 12 0 158 8 3 0 4 0 94 90 72 -15 7 0 0 3 60 64 42 34 75 -83 60 -78 -68 -61 -3 -3 0 -4 0 -94 0 -7 7 0 252 -109 -7 -136 -151 -203zm5677 -2727l68 7 15 -45 -49 -49 -53 15 19 72zm218 353l83 30 83 -15 -38 -124 -102 56 -26 53zm192 60l-102 8 -49 176 -161 -150 -42 154 170 188 11 161 -316 -282 -8 -176 132 -162 19 -259 -53 26 -64 177 -98 86 -105 30 -98 147 8 387 -241 379 11 230 249 0 199 240 0 229 -143 173 41 79 113 64 -210 49 -61 -222 158 -274 -67 -207 -241 -34 -135 128 -16 289 -218 226 -203 75 -135 146 -463 -285 0 -135 308 139 162 -64 260 -166 177 -353 -27 -191 297 -710 34 -124 -34 -162 196 -184 41 -263 -154 -199 158 -23 -22 -188 -155 -11 -11 139 30 83 -98 -42 -146 113 -177 229 -136 132 -206 49 -110 101 110 143 -121 210 -162 49 -3 75 143 147 -49 139 22 86 57 79 -185 166 -56 -91 -49 -214 -192 -304 -109 90 64 113 0 7 0 4 -135 237 52 173 0 3 -3 4 -83 128 0 4 -4 0 -135 45 -87 101 -4 4 -3 0 -339 15 -173 143 0 3 -4 0 -113 0 -7 286 0 4 -4 3 -132 185 87 180 327 26 0 0 4 0 154 120 4 4 0 4 4 158 56 49 373 22 3 0 4 0 117 147 0 3 0 4 11 237 64 83 0 3 0 0 -4 158 245 0 3 0 4 0 226 207 308 135 4 0 0 4 113 188 203 124 207 18 166 -124 7 -3 4 3 154 143 154 -4 8 0 4 4 116 173 60 4 4 0 4 4 113 112 233 -297 15 -191 0 -4 0 -4 154 -210 -26 -173 -177 -131 -4 -4 0 -8 46 -248 -121 -161 0 -4 0 -4 38 -345 -147 -192 -4 -4 0 -4 61 -176 -61 -139 -3 -11 11 0 188 -53 83 -203 -42 -240 -199 -49 -4 -4 -4 0 -180 -240 -4 -4 0 -4 38 -146 0 -4 7 -4 271 -120 26 -109 -112 -244 -4 -4 4 -4 26 -161 4 -4 3 -4 121 -19 -113 -236 0 0 0 -4 0 -19zm-4093 5839l139 0 113 191 90 12 4 0 30 -83 0 0 0 -4 162 -150 26 -113 0 -4 0 0 98 -109 4 -3 7 0 121 26 30 -49 19 -90 -30 -90 -106 -38 -4 -4 0 -3 -18 -57 0 -3 3 -4 49 -60 15 -151 0 -3 4 0 173 -169 8 -8 3 8 98 97 8 4 -8 8 -52 75 67 11 4 0 0 4 177 124 135 -19 4 0 0 0 128 71 120 4 166 -113 -294 -221 -3 -4 0 0 -143 -282 0 0 -106 -237 -82 -18 0 0 -4 0 -173 -72 0 0 0 0 -90 -82 -23 67 -4 8 -7 0 -139 -8 -31 38 -3 4 0 0 -87 45 -4 0 -3 0 -68 -15 -41 33 -4 4 -4 0 -87 0 0 0 -3 0 -109 -49 -46 90 -3 4 -4 0 -154 30 -102 173 -4 4 -3 0 -279 -8 -75 158 4 158 4 4 -8 3 -75 19 -27 124 64 147 0 0 0 0 27 97 116 34 4 4 0 0 109 98 0 4 0 3 4 98 162 139 0 4 0 3 11 91 0 0 0 0zm-1313 -169l278 63 158 98 91 -71 139 71 463 90 165 -75 0 -7 -7 -87 -162 -139 0 0 0 -4 -4 -101 -105 -94 -121 -37 -3 0 0 -8 -27 -98 -64 -150 -3 0 0 -4 26 -124 -132 -64 -94 49 -7 4 -4 -8 -83 -101 -169 -56 -192 56 11 56 0 0 0 0 -3 177 0 4 -4 4 -264 195 -7 94 199 120 8 4 -4 7 -79 136zm-1083 480l56 -71 184 -15 15 -135 91 -49 90 7 113 87 71 -64 -86 -135 -38 -139 94 -98 83 -22 128 135 263 19 0 -4 0 0 4 -4 72 -128 -196 -116 -4 -4 0 -7 8 -102 0 -4 3 -3 264 -196 4 -173 -23 -120 -72 -67 -37 26 -4 0 -4 0 -67 -19 0 0 -4 0 -279 -240 -48 11 -15 94 0 4 0 0 -61 109 8 56 60 79 4 4 -4 3 -34 68 0 4 -4 0 -52 30 -4 3 -4 -3 -98 -94 -37 -26 -57 -8 -67 30 -4 4 -4 -4 -56 -45 -4 -4 0 -4 -4 -120 -49 -67 -64 -4 -116 71 -30 87 67 146 57 49 256 83 56 -30 0 0 41 -19 8 -4 4 4 75 79 7 7 -7 4 -57 45 0 0 0 0 -79 26 -30 106 -3 7 -8 0 -49 0 0 0 -4 0 -79 -41 -154 86 -98 162 -11 101 -4 4 -3 4 -117 26 -11 79 0 0 -15 83 195 56 4 4 0 3 41 87 0 4 0 3 -18 60 0 4 -4 0 -72 57 27 78zm1960 -3554l-49 83 -34 79 0 0 -4 4 -158 206 0 0 0 0 -237 233 0 0 0 4 -199 90 -4 86 64 124 0 8 -4 4 -86 97 -12 132 0 4 -3 3 -57 68 0 4 -4 0 -188 7 -26 121 -4 3 0 0 -79 53 -7 4 -8 -4 -75 -87 -102 170 -3 3 -4 0 -173 15 -151 177 27 83 71 52 166 75 52 8 60 -15 4 0 4 4 282 240 60 15 42 -26 7 -4 4 8 79 71 0 4 0 3 11 53 196 -60 0 -4 4 4 176 60 0 0 4 4 75 97 95 -48 3 0 4 0 139 67 72 -19 -8 -150 0 -4 4 0 79 -169 0 -3 7 0 279 7 94 -165 -72 -105 0 -4 0 -4 8 -101 0 0 30 -184 -192 -124 0 0 -4 -4 -30 -83 -3 -4 3 -7 109 -128 -22 -113 0 0 -38 -199 0 -3 0 -4 94 -128 -7 -147 -102 -251 -180 -105 -4 -4 0 -4 -26 -120 -49 -53zm1222 -1071l-109 4 -150 135 -4 0 -4 0 -139 8 -4 0 -4 -4 -45 -71 -222 199 -37 128 0 3 0 0 -237 211 -260 443 57 57 0 0 0 3 30 121 176 105 0 3 4 0 106 256 0 4 0 0 7 154 0 4 -4 0 -90 127 38 196 0 0 22 116 0 4 -4 4 -105 127 26 79 196 120 4 4 0 8 -30 188 0 0 -8 101 68 102 150 -31 49 -90 4 -7 8 4 116 48 83 0 41 -33 4 -4 4 0 68 15 82 -41 34 -42 4 -4 4 0 139 8 26 -75 4 -15 11 11 98 90 169 72 87 18 4 0 3 4 106 241 0 0 143 278 301 225 161 -94 23 -101 0 -4 4 -4 98 -64 3 0 4 0 117 12 105 -327 0 -4 0 0 147 -109 4 -4 3 0 158 45 0 0 0 0 211 139 316 8 4 0 4 0 218 161 267 -150 4 -4 7 4 136 98 158 -19 169 -75 30 -79 -192 -109 -7 -4 0 -7 0 -241 -113 -112 -64 -8 -4 0 -4 -4 -116 -169 -155 4 -3 0 -4 -4 -151 -139 -161 120 -4 4 -4 0 -211 -22 -3 0 0 0 -207 -124 0 -4 0 0 -117 -188 -308 -135 0 0 0 0 -226 -203 -252 0 -8 0 0 -11 4 -162 -64 -83 0 0 0 -3 -11 -237 -109 -143 -373 -19 -3 0 -4 -3 -60 -53 0 -4 0 -3 -8 -155 -150 -116 -328 -26 -3 0 -4 -4 -90 -192 0 -3 0 -4 135 -188 11 -286zm-6403 -2077l-45 34 -26 67 7 233 0 8 -7 0 -169 56 -12 79 0 7 -7 0 -57 4 -15 56 -3 4 0 0 -27 27 60 56 110 79 210 56 4 0 0 4 71 60 207 19 12 -75 0 -4 3 -4 42 -30 4 -4 7 4 94 68 4 3 0 4 22 87 113 90 98 -4 4 -4 0 4 154 135 8 -67 -27 -87 -67 -75 -8 -7 4 -4 68 -102 -12 -112 -60 -121 -4 -3 0 -4 19 -83 -60 -7 -4 0 -4 -8 -11 -52 -105 -4 -8 0 0 -4 -30 -56 -4 -4 4 -4 27 -52 -8 -64 -79 -26 -26 30 0 3 -8 0 -56 -7 0 0 -4 0 -56 -49 -87 11 -8 0 -3 -4 -49 -90 -60 -30 -98 53 -11 4 -4 -12 -27 -82zm1061 1322l200 128 79 -4 3 0 4 4 94 113 0 3 0 8 -45 165 120 113 328 19 0 0 4 0 214 131 0 0 4 4 139 256 226 135 158 -42 3 0 4 4 68 68 109 -113 -98 -90 -4 -4 0 -7 27 -60 4 -8 3 4 143 4 151 -98 0 -105 -102 -53 -7 -4 3 -7 30 -87 -94 -33 -64 30 -11 3 -4 -11 -75 -192 -188 -7 -4 0 -3 -4 -121 -139 -113 -71 0 0 -3 0 -110 -105 0 0 0 0 -319 -365 -4 0 0 -4 26 -184 0 -3 0 0 121 -136 -79 -26 -8 -4 0 -4 0 -124 -98 0 -64 61 -3 3 -4 0 -136 -7 -3 0 0 0 -64 -68 -64 0 -87 30 -147 105 -94 200 -3 7 -8 0 -158 -11 -86 45 -64 98 67 71 0 4 4 0 26 90 0 0 0 4 -7 79 154 0 8 0 0 7 22 184zm-1087 -1773l-98 7 -150 121 -90 120 -170 -8 -105 169 -120 15 -8 136 -181 116 12 173 71 90 -83 105 19 83 121 30 22 120 -37 68 7 0 79 -19 4 0 4 0 41 23 150 -30 57 -91 34 -139 4 -3 0 -4 94 -94 15 -60 3 -4 8 0 53 -7 11 -76 0 -7 7 0 170 -56 -8 -226 0 0 0 -4 30 -71 0 -4 4 0 53 -45 56 -169 -71 -116 -4 0 0 -4 -4 -139zm929 -241l-161 4 -200 75 -11 162 19 71 -61 49 -41 -113 -79 -3 -124 -117 -151 98 -105 11 8 139 71 117 4 3 0 4 -57 173 27 86 94 -49 4 0 3 0 68 31 0 3 4 0 49 90 86 -11 4 0 4 0 56 53 45 4 27 -34 3 -4 8 4 90 30 8 0 0 7 7 75 0 0 -3 4 -27 49 27 45 109 4 3 0 4 7 15 57 60 7 8 0 0 12 -19 90 60 116 0 0 0 4 12 101 82 -41 0 0 4 0 154 11 94 -195 0 -4 4 0 147 -113 0 0 4 0 90 -30 4 0 0 0 131 0 64 -52 -124 -162 -79 -15 -4 -4 -3 -3 -38 -124 -49 4 -7 75 -4 11 -8 -4 -41 -7 -4 -4 -4 0 -30 -53 -37 12 -8 86 0 11 -11 0 -57 -15 -3 0 0 -4 -34 -63 -154 0 -4 0 -4 -4 -60 -90 -147 0 -4 0 -3 -4 -42 -49 -3 -7 3 -4 252 -305 -15 -308zm2163 -612l42 -252 60 83 -26 176 75 158 19 260 105 157 23 162 383 229 237 -41 177 -241 49 -255 -79 -305 8 -443 -49 -161 -121 -196 -22 -150 56 -34 72 102 75 -49 -68 -132 -263 -176 -373 -34 -71 52 -188 109 4 147 -128 207 -249 3 -82 105 180 245 4 3 0 4 -30 143 150 75 4 4 0 0 26 45zm-455 1022l-15 -83 15 -67 -64 -91 60 -105 181 -225 154 -49 87 -154 34 -218 -34 -64 -158 -75 -4 -4 0 -7 30 -147 -177 -237 -210 263 -109 -7 -136 94 -98 -4 -41 98 -45 82 -75 61 41 82 -53 53 -180 -26 -49 169 -38 259 -105 45 -482 -64 -218 8 8 142 116 -26 0 0 4 0 154 23 4 0 4 3 60 87 0 4 0 3 0 106 0 3 -4 4 -52 60 3 120 0 4 0 0 -15 105 0 4 -4 0 -75 60 -22 60 30 64 41 8 4 -83 0 -7 7 0 53 -19 8 0 0 7 33 53 27 7 7 -75 0 -7 8 0 68 -4 7 -4 0 8 38 127 79 15 3 0 4 4 121 158 18 -49 -11 -154 0 0 0 -4 57 -109 0 0 0 0 199 -217 4 -4 7 4 117 26 4 0 3 4 34 67 4 4 0 4 -19 116 0 4 -4 0 -86 86 -147 162 -37 143 97 0 8 0 0 7 0 128 79 26 56 -64 4 -3 4 0 71 0 30 -132 0 0 0 -4 136 -139 -34 -56 0 0 -41 -71 0 -4 0 -4 30 -109 0 -4 4 0 131 -131 11 -71 0 -8 12 0 90 26 56 12 68 -76 0 -3 4 0 11 -4zm2065 992l-180 233 64 97 4 4 -4 8 -41 75 30 124 3 7 -7 4 -117 64 -4 4 -3 -4 -151 -94 -143 4 -7 4 0 -8 -27 -109 -357 -274 -41 60 101 161 0 4 0 4 -30 139 0 4 -4 0 -86 86 41 68 0 4 0 0 8 75 0 7 -12 0 -139 8 -113 146 -3 87 131 56 57 -68 4 -3 0 0 127 -42 8 -3 4 7 79 158 3 7 -7 4 -293 233 -4 132 0 3 -4 0 -105 79 -4 4 -4 0 -128 -53 -94 76 -274 304 26 64 4 0 0 4 0 202 41 34 117 -128 3 -3 8 3 346 132 120 -53 68 -169 0 -7 8 0 229 22 4 0 4 4 169 192 188 97 260 27 105 -57 4 -3 3 3 283 233 173 23 316 -534 0 -3 0 0 237 -211 34 -128 0 -3 3 0 234 -207 7 -8 8 8 45 75 131 -7 155 -136 0 0 3 0 237 -3 173 -143 0 0 4 0 339 -15 86 -105 4 0 0 -4 135 -41 79 -124 -52 -170 0 -3 0 -4 64 -109 -68 -15 -41 64 0 4 -8 0 -79 0 -101 97 -4 4 -8 -4 -124 -26 -94 109 0 4 -4 0 -282 22 -4 0 -3 -4 -1215 -867 -117 37 0 0 -4 0 -527 -56zm-1854 -1334l38 41 48 -33 -15 -61 -37 -30 -30 42 -4 41zm3649 139l64 -49 0 -101 -75 -19 11 169zm1012 1469l-94 -169 -245 -267 -184 0 -26 109 -4 162 -136 79 -71 -15 -49 71 -94 -71 109 -98 0 -109 -350 -4 -173 -128 -263 23 -94 -128 158 -15 83 -161 -211 -49 -98 120 -49 -90 -541 -132 -68 68 -79 -71 -286 165 -147 -143 45 -128 -45 -127 177 -57 162 113 79 -128 -4 -233 -218 -233 -64 230 -294 191 -22 147 -143 128 56 293 155 233 143 15 3 3 0 4 79 109 523 56 121 -37 3 0 4 4 1219 867 271 -22 98 -113 3 -4 4 4 124 26 102 -93 4 -4 3 0 79 0 42 -64 4 -4 7 0 75 15 64 -109 -67 -116 -4 -8 7 -7 117 -98zm-429 -507l-109 11 -87 -143 23 -131 135 -34 42 147 -4 150zm-207 -526l45 -436 34 -169 143 -154 173 -56 68 -98 -38 -120 124 79 117 -12 26 -86 76 7 7 -86 90 34 19 -87 68 75 53 -67 15 -105 97 71 64 -60 132 30 109 -128 839 -15 199 -109 23 -150 -83 -101 -203 48 -34 76 -346 -27 -147 -128 -131 76 -132 -57 -169 109 -136 0 -71 57 -90 -98 -46 199 -105 8 -11 78 -256 83 -94 -41 -56 67 75 76 -106 97 -165 -67 -23 124 -120 -4 -8 97 -165 87 -102 -38 -116 87 -4 127 105 109 8 166 -102 105 79 177 91 11 7 79 102 22 71 38zm-2618 98l-147 131 -71 -128 97 -18 -120 -230 -188 27 -184 -60 -234 33 -127 316 -91 -53 -135 -308 22 -240 -218 22 -60 207 94 113 -86 120 -143 -79 -27 -165 -4 0 -71 79 -4 3 -4 0 -60 -15 0 0 -82 -18 -12 60 0 3 0 4 -135 132 -27 101 42 71 34 61 3 3 -3 8 -139 143 -31 135 0 7 -7 0 -75 0 -57 64 0 0 -128 143 -22 177 320 360 109 102 112 71 0 4 4 0 117 135 192 8 3 0 4 3 75 192 57 -26 4 0 3 0 110 37 11 4 -4 8 -34 90 102 49 4 3 0 4 0 105 105 -15 7 0 0 4 87 102 4 3 0 4 7 120 87 -67 3 -4 4 4 128 52 98 -75 4 -128 0 -3 3 -4 294 -233 -72 -143 -120 38 -56 71 -4 8 -8 -4 -146 -60 -4 -4 0 -8 4 -93 0 -4 3 -4 117 -150 0 -4 4 0 139 -8 -8 -60 -41 -71 -4 -4 8 -7 86 -87 30 -135 -101 -165 -4 -8 4 -4 49 -71 4 -7 7 3 372 286 4 4 0 0 23 101 139 -4 0 0 4 0 146 94 106 -60 -30 -120 0 -4 3 -4 38 -71 -64 -102 -4 -3 4 -4 184 -240 -71 -106 -143 -18 -4 0 -3 -4 -155 -237 -3 0 0 0 -53 -285zm-6734 -1176l331 717 207 -109 19 -394 -98 -154 -45 180 -102 -64 -79 -233 -98 64 -135 -7zm1166 5271l0 49 -154 -4 -60 86 -75 12 -95 165 -158 60 -112 -169 -267 -34 -121 128 263 158 -79 52 -135 -82 -79 64 45 90 98 0 4 0 4 3 116 143 4 8 -4 4 -86 165 112 139 4 4 -4 3 -26 53 -4 113 64 79 61 -68 7 -8 4 4 101 38 38 -60 4 -8 7 4 83 34 4 0 0 7 0 124 98 45 7 4 0 4 0 120 49 83 120 -15 38 -68 4 -7 4 0 191 0 121 -128 -8 -64 -109 -15 -7 0 0 -8 -8 -94 -98 -139 -3 -3 0 -4 52 -195 -64 -98 -7 -8 11 -3 143 -83 4 -4 7 4 49 53 102 -8 56 -113 -19 -195 0 -8 4 -3 151 -98 -23 -241 -120 -3 -87 60 -4 4 -7 -4 -94 -64 -117 -60zm1027 1450l166 -52 22 -128 143 -79 154 -38 53 -18 -4 -207 -94 -19 -3 -4 0 0 -46 -67 -3 0 0 -4 -4 -124 -60 26 0 0 -4 0 -68 -3 -11 0 0 -12 7 -90 0 0 0 -4 76 -82 0 -113 -162 -158 -94 -19 -4 0 0 -3 -68 -87 0 0 0 -4 -11 -120 -135 -49 0 0 -4 -3 -56 -113 -72 22 -4 0 0 0 -143 -18 -15 97 0 4 -3 4 -136 79 26 248 4 3 -7 4 -151 102 19 191 0 0 0 4 -60 124 -4 4 -4 0 -109 7 -4 0 -3 -3 -49 -49 -132 75 64 94 4 0 -4 7 -53 192 98 135 241 26 26 -67 0 -8 8 0 83 8 7 0 0 7 26 124 94 12 83 -53 0 0 4 0 293 60 4 0 0 4 79 135zm-715 1124l155 56 410 -11 -34 -162 105 -19 75 -443 -67 -94 -102 -23 15 -82 128 -120 -117 -158 57 -27 71 -33 -71 -128 -286 -60 -75 49 52 135 0 4 0 0 -52 255 64 120 3 4 0 4 -67 195 26 120 4 12 -15 0 -121 -15 -64 30 -7 4 -4 -8 -41 -64 -42 45 64 151 4 7 -4 4 -86 71 0 0 -4 0 -75 42 101 139zm-323 60l150 3 147 -67 -94 -135 -7 -8 7 -4 87 -45 79 -67 -64 -151 0 -4 3 -3 49 -60 8 -12 7 12 45 71 61 -26 0 -4 3 4 110 11 -23 -113 0 0 0 -4 68 -191 -68 -120 0 -4 0 -4 53 -255 -53 -136 -94 -15 -8 0 0 -3 -26 -124 -68 -8 -26 71 -4 4 -4 0 -244 -26 7 79 110 11 7 0 0 8 8 75 0 4 -4 3 -124 136 0 3 -4 0 -196 0 -37 72 0 3 -8 0 -128 15 -7 0 0 -3 -57 -90 0 -4 0 0 0 -117 -97 -45 -8 -4 0 -7 0 -120 -68 -30 -37 60 -4 7 -8 -3 -101 -38 -60 68 67 82 72 -15 4 0 3 4 45 68 95 26 3 0 0 4 42 109 94 165 3 0 0 4 -26 161 98 181 4 0 0 3 34 143 0 0 0 0 -8 147 154 154 0 3 4 0 34 91zm-948 511l-53 52 8 147 139 195 -11 207 -23 97 120 154 61 -26 34 -56 75 37 79 23 90 -56 0 -260 64 -368 237 -225 19 -237 -23 -101 113 -87 -34 -90 -150 -150 -53 45 -4 0 -3 0 -158 -4 -91 68 34 60 4 7 -8 4 -79 49 98 139 106 22 7 0 0 4 34 132 4 7 -8 4 -83 34 0 0 -3 0 -83 -8 -105 207 -8 11 -8 -7 -82 -72 -49 57 0 3 -8 0 -199 -18zm-45 -184l34 93 15 72 195 19 49 -61 8 -3 7 3 79 68 102 -199 4 -8 7 0 87 8 71 -30 -30 -117 -105 -18 -4 0 0 -4 -143 -199 -109 -8 -53 23 60 225 4 8 -7 0 -271 128zm-64 -94l0 41 52 37 268 -124 -57 -214 -49 23 -45 143 0 3 -4 4 -67 53 0 0 -4 4 -94 30zm-207 -309l7 170 196 90 0 30 90 -30 68 -53 45 -146 0 -4 4 0 109 -49 -83 -71 -34 56 -3 7 -8 -3 -222 -53 -165 53 -4 3zm-147 -338l106 113 3 158 30 49 4 0 0 0 169 -57 4 0 4 0 218 53 68 -120 -30 -98 -102 0 -4 0 -3 -4 -203 -180 -143 -8 -121 94zm-252 -469l121 199 0 124 120 131 124 -94 4 -3 4 0 139 7 -8 -146 0 -4 4 -4 75 -52 -105 -200 -38 72 -3 7 -4 -3 -132 -12 -4 0 -3 -4 -72 -97 -222 79zm-229 -1289l11 173 -53 64 27 75 79 60 -4 124 45 195 -15 181 -34 300 38 53 79 -34 52 86 234 -82 7 -4 4 4 71 97 121 12 86 -173 0 -4 4 0 90 -37 -34 -53 -3 -4 3 -4 53 -93 -56 -49 -8 -8 8 -7 67 -68 8 -56 0 -4 4 -4 75 -34 8 -3 3 7 49 86 64 -52 8 -113 0 0 0 0 26 -49 -113 -139 -4 -3 4 -4 87 -166 -109 -135 -98 0 -8 0 -4 -4 -60 -116 -180 -162 -27 237 -97 -49 -189 12 -67 90 -139 -229 -113 86 0 0zm184 1078l-8 -116 0 0 0 -8 0 -7 8 0 8 0 120 -11 0 -72 0 0 0 -4 0 -3 4 -4 3 -4 0 0 136 -101 -87 -53 0 0 0 0 0 0 0 0 0 0 0 0 -109 -128 0 0 -4 -3 -3 -4 0 -4 0 -4 15 -101 0 0 0 -11 0 -12 11 4 11 4 94 34 0 0 4 0 4 0 0 3 0 4 0 0 75 120 105 0 0 0 16 0 7 0 0 8 0 7 8 109 75 64 4 4 3 4 0 4 0 3 -7 151 0 3 0 4 0 4 0 4 -109 142 -15 19 -15 19 -4 -23 -4 -22 -15 -124 -169 188 -4 3 -4 4 -7 -4 -8 -3 -128 -60 -3 -4 -4 -4 0 -4 -4 -15 0 0zm899 -315l-68 56 -7 8 -8 -12 -49 -86 -64 26 -7 57 0 3 0 4 -64 60 56 49 4 4 -4 7 -52 98 41 56 4 8 -11 4 -98 41 -42 79 117 222 4 7 -4 4 -79 52 8 147 199 180 105 0 8 0 0 8 34 109 0 3 0 4 -34 57 98 78 112 8 4 0 4 4 30 45 72 -45 -31 -60 -3 -8 7 -4 94 -75 4 0 4 0 158 4 56 -41 8 -143 -34 -143 -102 -184 0 0 0 -4 27 -161 -94 -162 0 0 0 0 -42 -105 -90 -26 -4 0 0 -4 -45 -60 -68 11 -7 0 -4 -4 -143 -176zm-888 199l8 116 131 60 185 -202 11 -16 4 19 19 143 109 -143 7 -150 -79 -64 -3 -4 0 -3 -8 -113 0 0 -109 0 -8 0 -3 -4 -79 -124 -94 -34 0 0 -15 102 0 0 0 0 109 131 0 0 0 0 97 60 12 8 -8 7 -147 109 0 0 0 79 0 8 -7 0 -132 15zm15334 3588l417 165 384 90 75 305 283 146 195 -3 279 -170 218 68 225 -11 61 101 128 4 41 -154 4 -8 3 0 125 -63 -136 -147 -4 -7 8 -8 128 -105 -49 -147 -4 -11 11 0 249 0 154 -128 0 -3 4 0 139 18 252 -334 4 -4 3 0 162 -11 49 -83 4 0 4 -4 139 -56 105 -131 11 -139 -112 -76 -4 0 0 -7 0 -132 0 -7 4 0 244 -188 83 -188 0 -4 4 -3 214 -75 -15 -170 -128 -116 -147 -26 -3 0 -4 -4 -120 -365 -76 -71 -7 -4 4 -7 75 -105 -8 -106 -90 102 -4 4 -4 -4 -75 -11 -45 165 0 7 -4 0 -406 109 -8 4 -3 -7 -68 -91 -90 0 -4 0 0 -3 -90 -45 -45 112 -4 4 -4 0 -192 64 -4 4 -3 -4 -98 -34 -27 113 0 7 -7 0 -196 23 19 98 121 101 3 4 -3 7 -102 121 -19 180 64 154 11 -30 42 -248 0 -4 0 0 64 -116 3 -4 8 0 83 11 7 0 0 8 15 94 4 0 -4 3 -37 222 15 222 34 116 0 4 0 4 -46 112 0 4 -3 0 -68 64 -23 41 23 76 4 3 -4 4 -30 75 0 4 -4 4 -75 15 -4 86 0 0 -4 4 -94 154 0 4 -3 0 -143 45 -94 128 -4 3 -4 0 -109 -11 -26 165 0 0 -4 4 -79 90 0 0 -4 0 -256 117 -34 112 -3 8 -4 0 -166 56 -7 4 -4 -11 -22 -94 -177 -34 -4 0 -4 -7 -15 -128 -120 -154 -158 0 -4 0 -4 -4 -335 -267 -3 0 0 0 -106 -143 -165 121 -4 0 -4 0 -94 0 4 19 0 7 -4 4 -49 49 19 75 0 4 -4 3 -71 83 64 124zm-2378 706l632 -236 226 -15 41 60 339 75 26 150 124 64 362 38 143 22 71 68 113 -42 105 -86 72 -180 -121 -147 12 -229 79 -23 7 -101 102 -8 30 -109 -68 -127 -4 -8 4 -4 75 -82 -18 -75 -4 -4 4 -4 52 -52 -11 -53 -151 11 0 0 -3 -4 -369 -255 -23 101 -3 4 -4 4 -452 37 -30 121 0 3 -3 4 -91 23 12 82 0 4 -4 4 -124 79 -4 79 0 7 -8 0 -82 19 -147 124 -4 4 -4 0 -346 -45 -3 0 0 -4 -215 -147 -98 -7 -64 165 0 4 -7 4 -245 15 15 169 147 259 4 8 -8 7 -101 71 22 158zm-1361 -499l18 169 158 90 4 165 158 34 64 79 177 -94 34 124 113 165 176 19 53 -116 237 -12 158 -116 -26 -173 0 -4 3 -4 102 -67 -143 -256 0 0 0 -3 -15 -166 -128 98 -7 4 -4 -8 -117 -146 -4 -4 0 -4 42 -176 -64 -76 -196 -7 0 4 -7 0 -124 26 -4 0 -4 -4 -101 -79 -8 83 0 4 0 3 -98 147 -4 4 -3 0 -181 -15 -143 49 -56 78 90 46 4 0 0 3 26 105 4 12 -11 0 -173 19 0 0zm1060 -414l109 -37 79 -42 136 -135 -30 -86 0 -4 0 -4 22 -98 -33 -127 0 -4 3 -4 91 -112 45 -139 -132 -46 -4 0 0 -3 -26 -83 0 -4 4 -4 105 -135 -56 -135 0 -4 0 -4 26 -105 0 -4 4 -3 139 -64 68 -68 -147 -282 0 -3 0 -4 22 -98 -158 68 -3 0 -4 0 -203 -90 -233 34 -87 105 -4 3 -3 0 -241 0 -4 643 87 -11 7 0 0 7 15 128 120 128 0 0 0 0 42 112 113 79 7 8 -7 7 -87 102 68 75 4 4 0 3 -34 132 0 4 -4 4 -86 56 -8 154 199 7 4 0 4 4 71 75 0 0zm-2302 -1044l237 1138 128 -19 87 -127 86 34 23 131 270 147 211 -79 113 48 79 170 158 -19 -23 -94 -94 -45 -11 -8 8 -7 67 -90 0 -4 4 0 147 -49 4 0 0 0 176 15 94 -143 8 -94 0 -19 15 12 113 86 113 -19 7 -169 0 -3 4 0 87 -57 30 -124 -72 -79 -4 -7 4 -4 87 -101 -109 -76 0 0 -4 -3 -38 -113 -124 -132 0 -3 0 0 -19 -124 -83 11 -112 101 0 0 -4 0 -211 -18 -64 49 -7 3 -4 -3 -68 -53 -180 180 -8 4 -7 -4 -143 -139 0 -4 0 0 -27 -105 -116 -158 -486 166 -3 4 -4 -4 -102 -42 -45 31 -7 3 -4 -3 -79 -46 -98 57zm-372 -481l255 4 -105 109 215 353 101 -60 4 -4 7 4 76 45 45 -30 4 -4 7 4 102 41 489 -165 3 -4 4 7 124 162 0 4 4 0 23 105 135 131 181 -180 7 -4 8 4 64 53 60 -49 4 0 3 0 211 19 105 -94 8 -650 -87 0 -120 97 -7 8 -4 -8 -53 -67 0 -4 0 0 15 -248 -353 -11 -8 0 0 -4 -64 -116 -184 3 -8 0 0 -7 -37 -128 -113 -150 -621 -293 0 199 0 4 -4 3 -116 68 33 131 4 12 -11 0 -154 -12 -117 49 -68 124 15 353 0 4 0 0 -82 192zm-956 -823l72 19 3 128 -41 48 26 91 -97 112 22 83 211 49 7 113 106 3 79 19 75 90 -113 94 0 79 113 -38 101 57 87 -19 75 -64 211 -41 83 -196 -15 -356 0 0 0 -4 71 -128 4 -4 0 0 124 -52 4 0 0 0 143 11 -34 -128 -4 -4 8 -3 116 -72 0 -496 -83 -86 -7 -8 7 -7 91 -109 -8 -68 -169 117 0 0 -4 0 -128 -4 -4 0 0 -4 -124 -67 -135 18 -4 0 -4 0 -176 -127 -79 -15 -15 -4 7 -11 56 -79 -82 -87 -166 162 -15 146 0 4 -4 4 -49 56 16 49 101 38 4 0 4 3 33 98 0 4 0 4 -18 90 0 0 0 4 -38 56 -4 4 -3 0 -125 -27 -94 102 -22 116 0 4 -4 0 -162 154 -30 79zm3427 -1296l-131 -94 -268 150 -3 4 -4 -4 -226 -161 -316 -8 -4 0 0 0 -210 -139 -151 -45 -139 105 -105 335 0 7 -8 0 -124 -15 -94 60 -19 102 0 3 -3 4 -170 94 12 83 0 3 -4 4 -87 105 83 87 0 0 0 4 0 285 628 301 4 0 0 0 117 154 3 0 0 4 34 124 181 -4 7 0 0 4 64 120 358 7 11 0 0 12 -15 251 41 57 117 -98 0 0 4 0 97 0 12 0 0 0 233 0 87 -105 3 0 4 0 237 -34 4 0 4 0 199 90 165 -71 8 -166 0 -7 4 0 169 -132 23 -79 -147 -45 -4 0 0 -3 -109 -106 0 -3 0 -4 -19 -139 0 -4 4 -4 188 -161 8 -94 -125 -15 -3 -4 -4 -4 -139 -281 -470 -76 -8 0 0 -7 0 -132 0 -3 0 -4 64 -75 -68 -233zm610 2310l-57 27 -22 97 56 139 4 4 -4 4 -105 135 22 75 136 49 7 0 0 12 -52 146 0 4 0 0 -87 113 30 124 0 3 0 4 -22 94 30 90 3 4 -3 4 -139 139 -4 3 0 0 -83 42 0 0 0 0 -113 37 -37 173 105 139 135 -101 12 -12 0 8 240 -15 64 -169 4 -4 8 0 101 8 72 -151 0 -3 3 0 128 -49 38 -87 0 -97 0 -4 7 -4 117 -64 -7 -97 -49 -147 0 -4 0 0 -27 -135 -105 -165 -4 -4 4 -4 45 -101 -79 -49 -139 15 0 0 0 0 -147 0 -7 0 -4 -8 -75 -218zm-222 -7277l82 109 57 -27 -15 -154 -60 -30 -64 102zm4206 3817l-61 68 -3 4 -4 0 -143 30 -128 56 7 143 38 94 0 3 0 4 -71 162 71 116 0 4 0 4 15 173 0 3 0 4 -113 218 0 4 -3 0 -189 116 72 120 4 4 -4 4 -79 109 41 139 158 53 4 0 0 3 23 105 0 4 -4 4 -117 124 -7 86 75 19 4 0 0 4 37 113 0 3 -3 4 -87 87 -38 131 -3 11 -12 -7 -165 -98 -4 0 0 -4 -79 -169 -150 68 -23 143 0 3 -4 4 -335 365 16 169 0 7 -8 4 -90 38 -8 3 -4 -7 -128 -278 -86 116 -4 4 -4 0 -346 15 -135 252 154 240 4 4 0 4 -30 135 0 8 -8 0 -150 22 -87 165 -30 448 0 11 -11 0 -147 -15 -105 49 0 86 252 225 376 263 151 -11 7 0 0 8 8 26 97 4 173 -124 8 -4 4 8 109 150 331 263 162 0 3 0 4 4 124 161 0 4 0 4 15 124 173 33 8 0 0 4 23 90 150 -48 30 -106 -158 0 -7 0 -4 -3 -34 -76 -4 -7 8 -4 75 -45 0 0 0 0 102 -15 206 -143 76 -112 0 0 0 0 154 -139 34 -102 0 0 0 0 90 -154 0 0 109 -169 94 -259 0 0 72 -207 -76 -173 0 -4 0 -3 19 -188 0 -4 0 -4 98 -116 -117 -98 -3 -4 0 -3 -19 -109 0 -12 11 0 200 -26 22 -116 4 -12 11 4 106 38 184 -60 49 -121 4 -7 7 4 94 48 94 0 4 0 4 4 67 90 395 -105 46 -169 3 -7 8 0 79 11 98 -113 15 -15 3 23 12 120 241 37 142 -97 8 -184 -150 -106 -4 -3 0 -4 -12 -233 0 -4 4 -3 83 -64 4 0 4 0 206 -8 -191 -436 -106 -71 -180 83 -8 3 -4 -11 -67 -199 -290 -117 -147 23 -225 485 0 0 0 0 -151 176 -7 8 -8 -8 -109 -109 -72 124 -3 4 -4 0 -184 0 -143 109 -8 4 -4 -8 -135 -143 -4 -3 0 -4 26 -372 0 0 0 0 125 -286 -158 -48 -4 0 0 -4 -75 -169 0 -4 0 -4 56 -236 -128 -72 -4 -4 0 -3 8 -233 -94 -184 -75 52 -4 4 -4 0 -109 -8 -8 0 0 -7 0 -117 0 -3 4 -4 87 -53 -75 -120 0 0zm-892 4516l-19 -90 0 -7 8 -4 86 -26 -37 -132 0 -8 7 -3 105 -38 8 -4 4 8 82 161 204 -120 7 -4 4 8 71 98 0 0 0 0 61 56 79 -30 0 0 0 0 109 0 3 0 4 4 53 86 4 4 -4 4 -211 266 -4 8 -7 -4 -128 -90 -158 15 -4 0 -4 0 -94 -56 0 0 -109 -79 -113 -11 -7 0 0 -12 0 0zm4 -82l15 75 105 7 4 0 4 0 0 4 3 0 0 0 109 79 91 56 154 -15 4 0 0 0 4 4 3 0 121 86 203 -255 -49 -79 -102 0 -79 30 -3 4 -4 0 -4 -4 -4 -4 -60 -56 0 0 -4 0 0 0 0 0 0 0 -67 -94 -196 117 -8 7 -7 4 -4 -8 -7 -11 -76 -154 -90 34 38 124 0 7 4 8 -8 4 -11 3 -79 27zm1459 1266l83 4 83 157 643 60 433 -259 139 -4 45 -142 211 -196 293 -15 87 83 124 -113 519 83 75 -203 177 -124 -75 -180 79 -493 132 -131 -91 -237 -188 -19 132 -244 233 -161 -211 -316 -3 -4 3 -3 72 -102 -128 -71 -4 -4 0 -4 -19 -248 -124 30 -7 0 -4 -7 -79 -139 -166 94 -7 3 -4 -3 -101 -102 -4 -4 4 -7 60 -83 -203 -135 -4 0 0 -4 -260 -484 -210 7 -79 60 11 222 150 105 4 4 0 4 -7 191 0 4 -4 4 -147 101 -4 4 -3 0 -245 -38 -68 98 72 64 0 0 0 4 120 360 143 27 4 0 4 0 135 120 4 4 0 3 11 181 0 7 -7 4 -215 75 -83 188 0 4 0 0 -240 184 0 124 112 75 4 4 0 4 -11 146 0 4 0 4 -109 135 0 0 -4 0 -139 56 -49 83 -4 4 -4 0 -161 11 -256 338 -4 4 -4 0 -139 -19 -150 128 -4 4 -4 0 -237 0 49 142 4 8 -4 4 -128 101 136 147 7 7 -11 4 -132 67 -49 151 0 0zm1110 -575l45 -117 4 -3 4 -4 4 0 3 0 256 -30 72 -150 3 -12 4 -11 8 8 7 7 57 53 60 -143 0 -4 4 -4 3 0 4 0 0 0 128 -26 0 0 4 0 4 0 3 4 4 4 0 0 154 97 4 4 4 4 0 7 0 8 0 0 -19 101 0 8 0 7 -8 0 -7 0 -75 19 128 117 0 0 11 7 11 8 -11 7 -11 8 -535 255 0 0 -3 4 -4 4 -4 -4 -4 -4 -308 -191 -8 -4 -7 -4 4 -8 7 -22 0 0zm64 -109l-45 116 308 192 535 -255 0 0 0 0 -143 -132 -12 -11 15 -4 94 -23 19 -101 -154 -98 -128 27 -68 154 -3 11 -12 -8 -67 -60 -76 154 0 4 -7 0 -256 34zm-1915 -5023l-4 3 -3 -3 -106 -79 -244 0 0 -12 15 -135 0 -4 4 0 139 -172 41 -109 -90 -64 -4 -4 0 -128 -79 -86 -4 -4 0 -4 38 -172 -94 -72 -8 -7 8 -8 139 -154 -52 -650 -162 -252 83 -41 195 -158 4 -4 4 0 113 15 45 -202 0 -4 0 0 56 -87 15 -112 0 -4 4 -4 241 -191 -106 -124 0 -4 0 -196 -210 -296 0 0 0 -4 -30 -150 -64 -87 -4 -4 0 -3 7 -83 -128 64 -146 113 -203 60 -79 135 3 -195 410 -421 226 -410 102 -360 -313 -361 -297 -8 -101 147 -117 19 87 -248 -241 -30 79 -113 -147 -124 -132 49 -210 315 49 184 -226 16 4 60 83 124 -162 -38 -83 79 -188 -34 -23 -83 -267 4 4 154 -316 42 -218 172 -166 4 -124 109 -53 222 102 184 -158 41 -414 -67 -241 -8 -75 135 -11 342 154 147 72 173 -211 0 -181 -339 -131 8 0 15 116 248 4 11 -11 0 -124 23 -27 150 113 244 4 4 -4 4 -26 116 -4 4 -4 4 -270 120 -38 139 180 233 200 53 7 0 0 3 46 252 -16 34 0 0 -71 180 0 4 -4 0 -184 53 56 131 0 4 0 4 -60 172 147 192 4 0 0 4 -38 349 117 162 3 4 0 3 -45 248 173 132 4 0 0 4 30 180 0 4 0 3 -158 215 -11 191 -4 0 0 4 -241 304 0 237 196 113 7 3 -3 8 -34 90 0 4 -4 0 -177 75 0 4 -3 0 -147 19 64 225 0 8 -4 3 -64 79 0 120 470 72 8 0 0 7 139 282 124 15 11 0 0 11 -11 106 0 3 0 4 -188 162 15 131 105 102 155 48 7 4 -4 8 -22 90 0 4 -4 3 -169 128 -8 169 0 4 -3 0 -23 109 147 285 3 4 -3 8 -76 71 0 4 0 0 -64 30 72 214 143 0 139 -15 4 0 4 0 90 56 4 8 0 7 -49 102 105 158 0 3 0 0 26 139 49 151 0 0 0 0 8 109 0 4 -4 3 -120 64 0 94 0 4 -42 90 0 4 -3 0 -128 49 -72 146 207 143 339 45 146 -124 4 0 0 0 79 -19 8 -79 0 -3 3 -4 121 -75 -11 -87 0 -7 7 0 90 -27 30 -120 0 -4 8 -3 448 -38 22 -105 -248 -222 -4 -4 0 -108 4 0 113 -53 4 0 0 0 139 11 30 -436 0 -3 4 0 86 -173 4 -4 4 0 150 -23 30 -124 -158 -244 0 -3 0 -4 143 -263 4 -4 4 0 346 -15 94 -124 11 -11 8 15 128 282 75 -31 -12 -165 0 -4 0 -3 335 -365 23 -146 0 -4 177 -83 3 8 83 176 151 91 34 -121 0 -3 3 -4 87 -83 -34 -101 -79 -23 -8 -4 0 -7 8 -94 0 -4 4 -4 116 -124 -22 -94 -158 -48 -4 -4 -4 -4 -41 -150 -4 -4 4 -4 79 -105 -72 -124 -3 -7 7 -4 192 -120 109 -211 -15 -165 -75 -120 0 -4 0 -4 75 -161 -38 -94 0 0 0 0 -7 -151 0 -7 4 0 135 -60 0 0 4 -4 139 -26 60 -68 -52 -64 -106 72zm11508 -226l-38 -488 -52 -226 -166 -165 15 -240 87 -68 -282 -323 3 -226 121 -127 -30 -128 -237 -68 -241 -428 60 -38 75 102 117 -72 -181 -172 -97 52 -158 -101 -4 4 -79 -192 -166 0 -19 113 -101 -8 -335 -669 19 -210 135 -30 -101 -391 214 165 4 -469 165 -173 252 -4 -142 -349 -68 -748 -162 49 -4 0 -3 -4 -121 -60 -211 597 0 8 -7 -4 -263 -4 -249 76 -7 0 0 -8 -83 -218 -327 19 -60 105 -4 4 -4 0 -226 53 -41 120 0 3 -8 0 -124 16 -37 139 -4 3 -4 0 -143 45 27 143 206 297 125 26 7 0 0 8 87 225 146 -11 4 0 4 0 94 90 4 4 0 0 26 143 135 75 91 -87 -249 -300 57 -196 241 -82 -128 191 30 147 192 131 90 8 -8 135 83 19 -75 394 86 147 31 455 67 296 94 294 -109 116 34 113 -56 79 150 176 26 282 207 233 0 0 249 282 1354 905zm-20397 -710l-4 0 0 -4 -282 -229 -98 56 -4 0 -3 0 -275 -30 0 -3 -184 -94 0 0 0 0 -170 -192 -218 -22 -68 161 158 203 0 4 0 4 8 146 4 4 -8 4 -256 105 0 86 72 60 7 8 -82 105 0 0 -68 79 -94 240 0 4 -4 0 -79 87 -49 131 0 0 -4 4 -86 94 0 4 -8 0 -71 -8 -4 180 83 0 11 0 0 143 177 8 11 0 0 7 8 105 75 19 8 0 0 4 11 52 0 0 11 72 27 37 67 -18 154 -177 0 -4 4 0 173 -18 109 -173 8 -12 7 12 79 86 68 -45 26 -120 4 -8 8 0 188 -11 53 -64 15 -131 0 -4 0 0 82 -98 -60 -120 0 -4 0 0 4 -97 0 -8 4 0 203 -94 237 -229 154 -207 30 -67 -169 -23zm-8258 1244l106 -124 -237 -312 143 -398 -102 -87 -90 64 -346 -237 -45 68 15 282 -132 143 34 191 229 -11 256 319 169 102z"/>
  <circle class="fil1" cx="4533" cy="7650" r="90"/>
  <circle class="fil1" cx="4176" cy="9735" r="90"/>
  <path class="fil2 str1" d="M2016 15367l1400 -2742m-1322 2659l1363 -2678 1120 -852 1631 219 828 2459 1752 -731m-8423 -2118l3092 1023 803 -3092 341 -2337 -2678 -146m-24 0l2313 2507 2799 2216 -852 243 -2653 633m3481 1850l0 -2726 1972 852 3457 3627 4990 -876 1875 1923m-1899 -1923l3457 -4845 5161 -5063 -2751 9616 -2386 -4504m2386 4382l2994 2118m-8837 -1729l-1363 -7352 -3676 8253m3676 -8204l-4601 4358 -1339 -3798 -5502 -1388m-341 2532l5843 -1144 -2678 1095 -438 2045 1339 -657 3189 1290 -4528 -633m1339 -657l-901 -1339m-529 1964c22,-45 75,-64 120,-42 45,23 64,76 41,121 -22,45 -75,63 -120,41 -45,-23 -64,-75 -41,-120z"/>
  <path class="fil3" d="M365 11462c81,0 146,65 146,146 0,80 -65,146 -146,146 -80,0 -146,-66 -146,-146 0,-81 66,-146 146,-146zm3092 1046c53,0 97,44 97,98 0,53 -44,97 -97,97 -54,0 -97,-44 -97,-97 0,-54 43,-98 97,-98zm-1400 2678c88,0 158,71 158,159 0,87 -70,158 -158,158 -88,0 -158,-71 -158,-158l0 0c0,-88 70,-159 158,-159zm2532 -3554c88,0 158,71 158,158 0,88 -70,158 -158,158 -88,0 -158,-70 -158,-158 0,-87 70,-158 158,-158l0 0zm1619 243c53,0 97,44 97,98 0,53 -44,97 -97,97 -54,0 -98,-44 -98,-97 0,-54 44,-98 98,-98zm791 -243c46,0 85,39 85,85 0,46 -39,85 -85,85 -46,0 -85,-39 -85,-85 0,-46 39,-85 85,-85zm12 2751c54,0 98,44 98,97 0,54 -44,98 -98,98 -53,0 -97,-44 -97,-98 0,-53 44,-97 97,-97zm1777 -779c54,0 98,44 98,97 0,54 -44,98 -98,98 -53,0 -97,-44 -97,-98 0,-53 44,-97 97,-97zm195 -1096c54,0 97,44 97,98 0,53 -43,97 -97,97 -54,0 -97,-44 -97,-97 0,-54 43,-98 97,-98zm2495 -292c88,0 159,71 159,159 0,87 -71,158 -159,158 -87,0 -158,-71 -158,-158 0,-88 71,-159 158,-159l0 0zm913 3920c54,0 98,44 98,97 0,54 -44,97 -98,97 -53,0 -97,-43 -97,-97 0,-53 44,-97 97,-97zm5015 -901c54,0 98,44 98,97 0,54 -44,98 -98,98 -53,0 -97,-44 -97,-98 0,-53 44,-97 97,-97zm1899 1923c80,0 146,66 146,146 0,81 -66,146 -146,146 -80,0 -146,-65 -146,-146 0,-80 66,-146 146,-146zm3956 -2337c88,0 158,71 158,158 0,88 -70,159 -158,159 -88,0 -158,-71 -158,-159l0 0c0,-87 70,-158 158,-158zm2970 2118c61,0 109,49 109,110 0,60 -48,109 -109,109 -61,0 -110,-49 -110,-109 0,-61 49,-110 110,-110l0 0zm-231 -11563c53,0 97,43 97,97 0,53 -44,97 -97,97 -54,0 -98,-44 -98,-97 0,-54 44,-97 98,-97zm-5161 5063c53,0 97,44 97,98 0,53 -44,97 -97,97 -54,0 -98,-44 -98,-97 0,-54 44,-98 98,-98zm-4808 -2580c87,0 158,70 158,158 0,88 -71,158 -158,158 -88,0 -159,-70 -159,-158 0,-88 71,-158 159,-158l0 0zm-5916 657c46,0 85,39 85,85 0,46 -39,85 -85,85 -46,0 -85,-39 -85,-85 0,-46 39,-85 85,-85zm-1801 2386c87,0 158,70 158,158 0,88 -71,158 -158,158 -88,0 -159,-70 -159,-158 0,-88 71,-158 159,-158l0 0zm-926 -1339c88,0 159,70 159,158 0,88 -71,158 -159,158 -87,0 -158,-70 -158,-158l0 0c0,-88 71,-158 158,-158zm-5465 -2629c54,0 98,43 98,97 0,54 -44,97 -98,97 -53,0 -97,-43 -97,-97 0,-54 44,-97 97,-97z"/>
  <g id="_362681683136">
   <g>
    <path class="fil1" d="M21087 1540l-12 -156 -144 -49c-36,-12 -844,-277 -1988,-289l-48 0c-1133,12 -1952,277 -1988,289l-145 49 -12 156c0,36 -96,952 -48,1940 24,410 144,807 361,1193 169,301 410,578 699,843 494,446 1000,687 1060,711l61 24 24 12 24 -12c0,0 60,-24 84,-36 60,-24 554,-265 1060,-711 290,-265 531,-542 699,-843 217,-374 350,-771 362,-1193 48,-976 -49,-1892 -49,-1928l0 0zm-192 1928c0,121 -24,229 -36,337l-2458 0 0 -566 506 -458 542 482 1193 0 -1735 -1554 -1723 1554 421 0 0 1338 2928 0c-578,927 -1626,1397 -1626,1397 0,0 -1904,-855 -1988,-2530 -49,-976 48,-1904 48,-1904 0,0 795,-265 1916,-277l48 0c1108,12 1916,277 1916,277 0,0 96,928 48,1904z"/>
   </g>
   <path class="fil4" d="M18883 1299c-1109,12 -1916,277 -1916,277 0,0 -97,928 -48,1904 84,1675 1988,2530 1988,2530 0,0 1048,-470 1626,-1397l-2928 0 0 -1338 -421 0 1723 -1554 1723 1554 -1193 0 -542 -482 -494 446 0 566 2446 0c24,-108 36,-216 36,-337 48,-976 -49,-1904 -49,-1904 0,0 -795,-265 -1915,-277l-36 12c12,-12 0,0 0,0z"/>
  </g>
 </g>
</svg>
