<?xml version="1.0" encoding="utf-8"?>
<!-- Generator: Adobe Illustrator 22.0.1, SVG Export Plug-In . SVG Version: 6.00 Build 0)  -->
<svg version="1.1" id="Layer_1" xmlns="http://www.w3.org/2000/svg" xmlns:xlink="http://www.w3.org/1999/xlink" x="0px" y="0px"
	 viewBox="0 0 126 153" style="enable-background:new 0 0 126 153;" xml:space="preserve">
<style type="text/css">
	.st0{fill:#151B23;}
	.st1{font-family:'GothamPro';}
	.st2{font-size:12.9948px;}
	.st3{font-size:53.2876px;}
	.st4{fill:#D70022;}
	.st5{font-size:39.6356px;}
</style>
<text transform="matrix(1 0 0 1 23.4922 113.96)" class="st0 st1 st2">дилеров </text>
<text transform="matrix(1 0 0 1 83.6699 132.9575)" class="st0 st1 st2">на территории </text>
<text transform="matrix(1 0 0 1 186.1455 151.9551)" class="st0 st1 st2">России</text>
<text id="_500" transform="matrix(0.9992 0 0 1 21.4932 88.5781)" class="st0 st1 st3">500</text>
<text id="_" transform="matrix(0.6475 0 0 1 -1.29 85.4795)" class="st4 st1 st5">&gt;</text>
<path id="Shape_1_copy" class="st4" d="M67.3,22.6c-1-2.2-4.6-5.2-8-8.1c-1.9-1.6-3.8-3.1-4.9-4.3C54,9.9,53.6,9.8,53.2,10
	c-0.7,0.3-1.2,0.5-1.5,0.6c-0.4,0.2-0.9,0.4-1.4,0.4c-0.3,0-0.6,0.2-0.8,0.5c-1.5,2.3-3.1,2.1-4.1,1.8c-0.2,0-0.4-0.2-0.4-0.4
	c-0.2-1,0.9-3.2,2.3-4.7c3.4-3.6,5.2-4.5,9-2.7c4.3,2,8.6,3.5,8.6,3.5c0.5,0.2,1.1-0.1,1.3-0.6c0,0,0,0,0,0c0.2-0.6-0.1-1.2-0.7-1.4
	c0,0-4.2-1.5-8.4-3.5c-4.9-2.3-7.5-0.8-11.4,3.2c-1.4,1.5-3.4,4.6-2.9,6.8c0.2,0.9,0.9,1.7,1.8,2c2.4,0.8,4.6,0,6.2-2.2
	c0.6-0.1,1.1-0.3,1.6-0.5c0.2-0.1,0.4-0.2,0.8-0.3c1.2,1.2,2.8,2.6,4.6,4c3.1,2.6,6.7,5.6,7.5,7.3c0.3,0.6,0.2,1.3-0.3,1.7
	c-0.3,0.4-0.9,0.5-1.3,0.3c-0.3-0.2-0.8-0.3-1.2,0c-0.4,0.2-0.6,0.6-0.5,1.1c0,0.5-0.3,1-0.8,1.2c-0.5,0.3-1.1,0.3-1.7,0
	c-0.3-0.3-0.7-0.4-1.1-0.2c-0.4,0.2-0.7,0.5-0.7,0.9c-0.1,0.7-0.6,1.4-1.3,1.7c-0.4,0.2-0.9,0.1-1.2-0.2c-0.3-0.2-0.6-0.3-1-0.3
	c-0.3,0.1-0.6,0.4-0.7,0.7c0,0.1-0.1,0.4-1.1,0.4c-0.9-0.1-1.8-0.4-2.6-0.9c-0.8-0.5-5.4-4.1-9.5-7.6c-0.6-0.5-1.6-1.6-2.4-2.5
	c-0.8-0.8-1.5-1.6-1.8-1.9c-0.4-0.4-1.1-0.3-1.4,0.1c0,0,0,0-0.1,0.1c-0.4,0.5-0.3,1.1,0.1,1.6c0.3,0.3,1,1,1.7,1.7
	c0.9,1,1.9,2.1,2.6,2.7c3.9,3.4,8.7,7.1,9.7,7.8c1.1,0.7,2.4,1.2,3.8,1.3c0.9,0.1,1.7-0.2,2.4-0.7c0.8,0.3,1.6,0.3,2.4,0
	c1-0.4,1.8-1.2,2.2-2.1c0.9,0.2,1.9,0,2.7-0.4c0.8-0.4,1.4-1.1,1.8-1.9c0.9,0,1.8-0.3,2.4-0.9C67.6,25.8,68,24.1,67.3,22.6z
	 M48.3,4.4h-9.6c-0.6,0-1.1,0.5-1.1,1.1c0,0.6,0.5,1.1,1.1,1.1h9.6c0.6,0,1.1-0.5,1.1-1.1C49.4,4.9,48.9,4.4,48.3,4.4L48.3,4.4z
	 M70.4,20.3c-0.3-0.5-0.9-0.6-1.4-0.3c0,0,0,0,0,0l-3.1,2.2c-0.5,0.3-0.6,1-0.3,1.5c0.2,0.3,0.5,0.5,0.9,0.5c0.2,0,0.4-0.1,0.6-0.2
	l3.1-2.2C70.6,21.5,70.7,20.8,70.4,20.3L70.4,20.3z M63.8,25.5c-0.8-0.6-4.2-4.2-6.3-6.5c-0.4-0.4-1-0.5-1.5-0.1c0,0,0,0,0,0
	c-0.4,0.4-0.4,1.1,0,1.6c0.6,0.6,5.4,5.8,6.5,6.7c0.2,0.2,0.4,0.2,0.7,0.2c0.3,0,0.6-0.2,0.8-0.4C64.3,26.6,64.3,25.9,63.8,25.5
	L63.8,25.5z M59.5,27.7c-1.3-1.1-4.5-4.6-5.2-5.4c-0.4-0.4-1.1-0.5-1.5-0.1c0,0,0,0,0,0c-0.4,0.4-0.5,1.1-0.1,1.6
	c0,0.1,3.8,4.3,5.4,5.6c0.2,0.2,0.4,0.2,0.7,0.2c0.3,0,0.6-0.2,0.8-0.4C60.1,28.8,60,28.1,59.5,27.7L59.5,27.7z M55.3,30
	c-1.5-1.3-4.6-4.7-5.2-5.4c-0.4-0.4-1-0.5-1.5-0.1c0,0,0,0,0,0c-0.4,0.4-0.5,1.1-0.1,1.6c0.9,1,3.8,4.2,5.4,5.6
	c0.2,0.2,0.4,0.3,0.7,0.3c0.3,0,0.6-0.1,0.8-0.4C55.8,31,55.8,30.4,55.3,30L55.3,30z M39.4,2.5C37.6,0.7,30.3,0.1,28.1,0
	c-0.3,0-0.6,0.1-0.8,0.3C27.1,0.5,27,0.8,27,1.1v19.8c0,0.6,0.5,1.1,1.1,1.1h6.4c0.5,0,0.9-0.3,1-0.8c0.2-0.5,3.8-12.1,4.3-17.8
	C39.8,3.1,39.7,2.7,39.4,2.5L39.4,2.5z M33.7,19.8h-4.5V2.3c3.4,0.3,7.1,0.9,8.4,1.6C37,8.7,34.4,17.2,33.7,19.8L33.7,19.8z
	 M76.9,2.2c-8.3,0-13,2.2-13.2,2.3c-0.3,0.1-0.5,0.4-0.6,0.7c-0.1,0.3-0.1,0.6,0.1,0.9c1.3,2.2,5.4,14.3,6.2,17.3
	c0.1,0.5,0.5,0.8,1,0.8h6.4c0.6,0,1.1-0.5,1.1-1.1V3.3C78,2.7,77.5,2.2,76.9,2.2L76.9,2.2z M75.9,22h-4.5c-1-3.4-4-12.3-5.6-15.9
	C69,5,72.4,4.4,75.9,4.4V22L75.9,22z"/>
</svg>
