<svg
 xmlns="http://www.w3.org/2000/svg"
 xmlns:xlink="http://www.w3.org/1999/xlink"
 width="17px" height="16px">
<path fill-rule="evenodd"  opacity="0.8" fill="rgb(215, 0, 34)"
 d="M16.408,15.999 L0.606,15.999 C0.288,15.999 0.014,15.736 0.014,15.431 C0.014,15.127 0.274,14.864 0.606,14.864 L16.394,14.864 C16.726,14.864 17.000,15.127 17.000,15.431 C17.000,15.736 16.740,15.999 16.408,15.999 ZM3.810,12.940 C3.694,13.050 3.550,13.106 3.391,13.106 L0.591,13.120 C0.433,13.120 0.288,13.065 0.173,12.954 C0.057,12.843 -0.000,12.691 -0.000,12.539 L0.014,9.840 C0.014,9.688 0.086,9.549 0.187,9.438 L7.923,2.033 L9.856,0.165 C10.102,-0.057 10.477,-0.057 10.708,0.165 L13.479,2.850 C13.709,3.085 13.709,3.445 13.479,3.667 L3.810,12.940 ZM1.212,10.089 L1.198,11.958 L3.160,11.944 L10.289,5.120 L8.341,3.251 L1.212,10.089 ZM10.289,1.383 L9.192,2.435 L11.141,4.303 L12.237,3.251 L10.289,1.383 Z"/>
</svg>
