<svg id="Isolation_Mode" xmlns="http://www.w3.org/2000/svg" viewBox="0 0 54.7 47.6"><style>.st0{fill:#d80022}</style><path class="st0" d="M31.3 24.5l.3.1h.6l.3-.1c.4-.2 9.6-4.4 10-12.9.2-4.5-.2-8.8-.2-9l-.1-1-.9-.3c-.2 0-4-1.3-9.3-1.3h-.2c-5.3 0-9.1 1.3-9.2 1.3l-.9.3-.1 1c0 .2-.5 4.4-.2 9 .3 8.5 9.5 12.7 9.9 12.9zM24.4 3.9c1.3-.3 4-.9 7.4-.9h.2c3.3 0 6 .6 7.4.9.1 1.5.3 4.5.1 7.5-.3 5.6-5.8 9-7.6 10-1.9-1-7.4-4.4-7.6-10-.2-3 0-6 .1-7.5z"/><path class="st0" d="M47.2 35.3l7.4-19.9c.3-.8-.1-1.6-.9-1.9-.8-.3-1.6.1-1.9.9l-7 18.9H18.9l-3.9-22v-.2l-.1-.2c-1-3.3-1.8-6.1-6.8-6.1H1.5C.7 4.8 0 5.5 0 6.3s.7 1.5 1.5 1.5h6.6c2.8 0 3 .7 3.9 3.9L16.2 35c.1.7.7 1.2 1.5 1.2h4.4c-2.5.6-4.4 2.9-4.4 5.6 0 3.2 2.6 5.8 5.8 5.8 3.2 0 5.8-2.6 5.8-5.8 0-2.7-1.9-5-4.4-5.6h15.8c-2.5.6-4.4 2.9-4.4 5.6 0 3.2 2.6 5.8 5.8 5.8 3.2 0 5.8-2.6 5.8-5.8 0-2.7-1.9-5-4.4-5.6h2.7c.3 0 .8-.4 1-.9zm-21.1 6.5c0 1.5-1.2 2.8-2.8 2.8-1.5 0-2.8-1.2-2.8-2.8s1.2-2.8 2.8-2.8c1.6.1 2.8 1.3 2.8 2.8zm18.5 0c0 1.5-1.2 2.8-2.8 2.8-1.5 0-2.8-1.2-2.8-2.8s1.2-2.8 2.8-2.8c1.6.1 2.8 1.3 2.8 2.8z"/></svg>