<svg version="1.1" id="Layer_1" xmlns="http://www.w3.org/2000/svg" xmlns:xlink="http://www.w3.org/1999/xlink" x="0px" y="0px"
	 width="33.996px" height="27.68px" viewBox="0 0 33.996 27.68" enable-background="new 0 0 33.996 27.68" xml:space="preserve">
<path fill="none" stroke-width="2.7213" stroke-miterlimit="10" d="M17.173,23.744
	c0,1.423-1.154,2.576-2.577,2.576c-1.422,0-2.577-1.153-2.577-2.576s1.154-2.577,2.577-2.577
	C16.019,21.167,17.173,22.321,17.173,23.744z M28.339,23.744c0,1.423-1.154,2.576-2.575,2.576c-1.423,0-2.577-1.153-2.577-2.576
	s1.154-2.577,2.577-2.577C27.185,21.167,28.339,22.321,28.339,23.744z"/>
<path fill="none" stroke-width="2.7213" stroke-linecap="round" stroke-linejoin="round" stroke-miterlimit="10" d="
	M1.361,1.361h4.006c2.401,0,2.667,1.095,3.284,3.175l2.471,14.004h0.091h16.964l4.458-12.025"/>
<line fill="none" stroke-width="2.7213" stroke-linecap="round" stroke-linejoin="round" stroke-miterlimit="10" x1="9.127" y1="6.321" x2="32.536" y2="6.321"/>
<line fill="none" stroke-width="1.8142" stroke-linecap="round" stroke-linejoin="round" stroke-miterlimit="10" x1="14.746" y1="10.503" x2="25.606" y2="10.503"/>
<line fill="none" stroke-width="1.8142" stroke-linecap="round" stroke-linejoin="round" stroke-miterlimit="10" x1="14.746" y1="14.031" x2="25.606" y2="14.031"/>
</svg>
