<svg xmlns="http://www.w3.org/2000/svg" width="17" height="21" viewBox="0 0 17 21"><path d="M4.17 8.987H.827a.861.861 0 0 0-.834.887v10.25a.861.861 0 0 0 .834.885H4.17a.861.861 0 0 0 .83-.886V9.874a.861.861 0 0 0-.83-.887zm-1.175 10H2v-7.979h.995v7.979zM10.175.012H6.833A.839.839 0 0 0 6 .857v19.307a.839.839 0 0 0 .834.843h3.342a.84.84 0 0 0 .835-.843V.857a.84.84 0 0 0-.836-.845zM9 19.006h-.993V2.013H9v16.993zm7.161-14.993h-3.342a.843.843 0 0 0-.835.851v15.294a.842.842 0 0 0 .835.849h3.342a.843.843 0 0 0 .839-.849V4.864a.843.843 0 0 0-.839-.851zm-1.152 14.981H14v-13h1.01v13z"/></svg>