<svg id="arr" xmlns="http://www.w3.org/2000/svg" width="10" height="12.06" viewBox="0 0 10 12.06"><defs><style>.cls-1{fill-rule:evenodd;opacity:.4}</style></defs><path id="Forma_1_copy_36" data-name="Forma 1 copy 36" class="cls-1" d="M627.181 3033.39l3.753-5.17a.5.5 0 0 1 .864 0 1.077 1.077 0 0 1 0 1.19l-3.321 4.57 3.321 4.58a1.077 1.077 0 0 1 0 1.19.5.5 0 0 1-.864 0l-3.753-5.17a1.042 1.042 0 0 1-.179-.6 1.011 1.011 0 0 1 .179-.59z" transform="translate(-622 -3027.97)"/><path id="Forma_1_copy_37" data-name="Forma 1 copy 37" class="cls-1" d="M622.181 3033.39l3.753-5.17a.5.5 0 0 1 .864 0 1.077 1.077 0 0 1 0 1.19l-3.321 4.57 3.321 4.58a1.077 1.077 0 0 1 0 1.19.5.5 0 0 1-.864 0l-3.753-5.17a1.042 1.042 0 0 1-.179-.6 1.011 1.011 0 0 1 .179-.59z" transform="translate(-622 -3027.97)"/></svg>