<svg id="arr" xmlns="http://www.w3.org/2000/svg" width="9.97" height="12" viewBox="0 0 9.97 12"><defs><style>.cls-1{fill-rule:evenodd}</style></defs><path id="Forma_1_copy_38" data-name="Forma 1 copy 38" class="cls-1" d="M1143.82 3033.39l-3.75-5.14a.506.506 0 0 0-.87 0 1.057 1.057 0 0 0 0 1.18l3.32 4.55-3.32 4.55a1.073 1.073 0 0 0 0 1.19.506.506 0 0 0 .87 0l3.75-5.14a1.036 1.036 0 0 0 .18-.6 1 1 0 0 0-.18-.59z" transform="translate(-1139.03 -3028)"/><path id="Forma_1_copy_38-2" data-name="Forma 1 copy 38" class="cls-1" d="M1148.82 3033.39l-3.75-5.14a.506.506 0 0 0-.87 0 1.057 1.057 0 0 0 0 1.18l3.32 4.55-3.32 4.55a1.073 1.073 0 0 0 0 1.19.506.506 0 0 0 .87 0l3.75-5.14a1.036 1.036 0 0 0 .18-.6 1 1 0 0 0-.18-.59z" transform="translate(-1139.03 -3028)"/></svg>