<svg xmlns="http://www.w3.org/2000/svg" width="20.03" height="12" viewBox="0 0 20.03 12"><defs><style>.cls-1{fill-rule:evenodd;opacity:.6}</style></defs><path id="Forma_1" data-name="Forma 1" class="cls-1" d="M1158.66 907.1c-.22-.257-.45-.5-.66-.716a17.293 17.293 0 0 0-4.14-3.115 11.137 11.137 0 0 0-3.16-1.123 9.437 9.437 0 0 0-1.69-.143 9.167 9.167 0 0 0-1.71.143 11.2 11.2 0 0 0-3.16 1.123 16.953 16.953 0 0 0-4.14 3.115c-.25.252-.47.483-.67.716a1.369 1.369 0 0 0 0 1.783 15.535 15.535 0 0 0 2.13 2.026 13.759 13.759 0 0 0 5.57 2.9 9.948 9.948 0 0 0 3.94 0 13.632 13.632 0 0 0 5.58-2.9 14.737 14.737 0 0 0 2.11-2.026 1.335 1.335 0 0 0 0-1.783zm-.91.991a13.087 13.087 0 0 1-1.96 1.872 12.265 12.265 0 0 1-5.07 2.642 8.28 8.28 0 0 1-1.71.177h-.03a7.94 7.94 0 0 1-1.68-.177 12.4 12.4 0 0 1-5.1-2.642 12.927 12.927 0 0 1-1.93-1.872q-.12-.082 0-.2a3.081 3.081 0 0 1 .28-.331c.14-.145.24-.253.29-.319a15.356 15.356 0 0 1 3.85-2.862 10.307 10.307 0 0 1 2.82-1.024 8.761 8.761 0 0 1 1.5-.132 8.5 8.5 0 0 1 1.49.132 10.176 10.176 0 0 1 2.82 1.024 14.872 14.872 0 0 1 3.83 2.862q.42.431.6.65a.149.149 0 0 1 0 .197zm-8.74-3.963a3.675 3.675 0 0 0-2.71 1.134 3.9 3.9 0 0 0 0 5.471 3.679 3.679 0 0 0 2.71 1.123 3.63 3.63 0 0 0 2.69-1.123 3.926 3.926 0 0 0 0-5.471 3.626 3.626 0 0 0-2.69-1.137zm1.84 5.746a2.58 2.58 0 0 1-3.69-.011 2.622 2.622 0 0 1 0-3.732 2.5 2.5 0 0 1 1.85-.781 2.471 2.471 0 0 1 1.84.781 2.684 2.684 0 0 1 0 3.74z" transform="translate(-1139 -902)"/></svg>