<svg id="row" xmlns="http://www.w3.org/2000/svg" width="16" height="12" viewBox="0 0 16 12"><defs><style>.cls-1{fill:#fff;fill-rule:evenodd}</style></defs><path id="Rounded_Rectangle_1_copy_3" data-name="Rounded Rectangle 1 copy 3" class="cls-1" d="M278.143 165h13.714a1.009 1.009 0 1 1 0 2h-13.714a1.009 1.009 0 1 1 0-2z" transform="translate(-277 -160)"/><path id="Rounded_Rectangle_1_copy_5" data-name="Rounded Rectangle 1 copy 5" class="cls-1" d="M278.143 160h13.714a1.009 1.009 0 1 1 0 2h-13.714a1.009 1.009 0 1 1 0-2z" transform="translate(-277 -160)"/><path id="Rounded_Rectangle_1_copy_4" data-name="Rounded Rectangle 1 copy 4" class="cls-1" d="M278.143 170h13.714a1.009 1.009 0 1 1 0 2h-13.714a1.009 1.009 0 1 1 0-2z" transform="translate(-277 -160)"/></svg>