<svg xmlns="http://www.w3.org/2000/svg" width="22" height="20" viewBox="0 0 22 20"><defs><style>.cls-1{fill:#0b0b0b;fill-rule:evenodd;opacity:.25}</style></defs><path class="cls-1" d="M11.01 20a.758.758 0 0 1-.55-.233l-8.8-9.219v-.009a6.372 6.372 0 0 1 0-8.579l.13-.144a5.5 5.5 0 0 1 8.17 0l1.05 1.122 1.04-1.122a5.5 5.5 0 0 1 8.17 0l.14.144a6.4 6.4 0 0 1 0 8.579c-.01 0-.01.006-.01.009l-8.8 9.219a.752.752 0 0 1-.54.233zM4.03 10l7 8 7-8c2.15-1.872 2.68-5.119 1.02-6.906l-.13-.14a3.643 3.643 0 0 0-2.91-1.042 3.79 3.79 0 0 0-2.91 1.042l-1.55 1.677a.757.757 0 0 1-.54.234.74.74 0 0 1-.54-.234L8.91 2.954A3.574 3.574 0 0 0 6.03 2a3.716 3.716 0 0 0-2.94.954l-.13.14C1.3 4.881 1.75 7.966 4.03 10z"/></svg>