<svg xmlns="http://www.w3.org/2000/svg" width="20" height="18.75" viewBox="0 0 16 15"><defs><style>.cls-1{fill:#d70022;fill-rule:evenodd}</style></defs><path id="Forma_1_copy_36" data-name="Forma 1 copy 36" class="cls-1" d="M8 15a.543.543 0 0 1-.4-.173l-6.392-6.92v-.006A4.788 4.788 0 0 1 0 4.683a4.788 4.788 0 0 1 1.2-3.217l.1-.108A3.971 3.971 0 0 1 4.271 0a3.971 3.971 0 0 1 2.97 1.358L8 2.2l.758-.842a3.921 3.921 0 0 1 5.941 0l.1.107A4.788 4.788 0 0 1 16 4.683 4.788 4.788 0 0 1 14.8 7.9v.006l-6.4 6.917A.543.543 0 0 1 8 15z"/></svg>