<svg
 xmlns="http://www.w3.org/2000/svg"
 xmlns:xlink="http://www.w3.org/1999/xlink"
 width="18px" height="13px">
<path fill-rule="evenodd"  opacity="0.702" fill="rgb(215, 0, 34)"
 d="M3.000,1.000 L3.000,-0.000 L18.000,-0.000 L18.000,1.000 L3.000,1.000 Z"/>
<path fill-rule="evenodd"  opacity="0.702" fill="rgb(215, 0, 34)"
 d="M3.000,5.000 L3.000,4.000 L18.000,4.000 L18.000,5.000 L3.000,5.000 Z"/>
<path fill-rule="evenodd"  opacity="0.702" fill="rgb(215, 0, 34)"
 d="M3.000,9.000 L3.000,8.000 L18.000,8.000 L18.000,9.000 L3.000,9.000 Z"/>
<path fill-rule="evenodd"  opacity="0.702" fill="rgb(215, 0, 34)"
 d="M3.000,13.000 L3.000,12.000 L18.000,12.000 L18.000,13.000 L3.000,13.000 Z"/>
<path fill-rule="evenodd"  opacity="0.702" fill="rgb(215, 0, 34)"
 d="M-0.000,1.000 L-0.000,-0.000 L1.000,-0.000 L1.000,1.000 L-0.000,1.000 Z"/>
<path fill-rule="evenodd"  opacity="0.702" fill="rgb(215, 0, 34)"
 d="M-0.000,5.000 L-0.000,4.000 L1.000,4.000 L1.000,5.000 L-0.000,5.000 Z"/>
<path fill-rule="evenodd"  opacity="0.702" fill="rgb(215, 0, 34)"
 d="M-0.000,9.000 L-0.000,8.000 L1.000,8.000 L1.000,9.000 L-0.000,9.000 Z"/>
<path fill-rule="evenodd"  opacity="0.702" fill="rgb(215, 0, 34)"
 d="M-0.000,13.000 L-0.000,12.000 L1.000,12.000 L1.000,13.000 L-0.000,13.000 Z"/>
</svg>
