<svg xmlns="http://www.w3.org/2000/svg" width="16" height="17" viewBox="0 0 16 17"><defs><style>.cls-1{fill:#151b23;fill-rule:evenodd;opacity:.75}</style></defs><path id="Forma_1" data-name="Forma 1" class="cls-1" d="M772.015 899a4.989 4.989 0 0 0-4.985 4.983 4.939 4.939 0 0 0 .716 2.559l-6.583 6.578a.587.587 0 0 0 .83.829l.051-.051 1.932 1.93a.586.586 0 0 0 .829-.829l-1.931-1.93.637-.637 1.345 1.344a.586.586 0 0 0 .829-.829l-1.345-1.347.637-.636 1.931 1.93a.587.587 0 1 0 .83-.829l-1.932-1.93 2.662-2.66a4.982 4.982 0 1 0 3.547-8.475zm0 8.793a3.811 3.811 0 1 1 3.813-3.81 3.815 3.815 0 0 1-3.813 3.81z" transform="translate(-761 -899)"/></svg>