<svg version="1.1" id="Layer_1" xmlns="http://www.w3.org/2000/svg" xmlns:xlink="http://www.w3.org/1999/xlink" x="0px" y="0px" width="19.94px" height="19.939px" viewBox="0 0 19.94 19.939" enable-background="new 0 0 19.94 19.939" xml:space="preserve"><path d="M19.94,15.748c0,0.255-0.048,0.585-0.143,0.999c-0.094,0.411-0.193,0.733-0.297,0.969c-0.197,0.471-0.773,0.972-1.728,1.502c-0.887,0.483-1.765,0.722-2.635,0.722c-0.254,0-0.506-0.015-0.751-0.05c-0.244-0.032-0.516-0.089-0.813-0.176c-0.299-0.085-0.521-0.154-0.666-0.208c-0.146-0.05-0.407-0.149-0.785-0.288c-0.378-0.141-0.609-0.228-0.695-0.255c-0.924-0.327-1.75-0.722-2.477-1.175c-1.201-0.744-2.446-1.768-3.739-3.059c-1.294-1.296-2.315-2.538-3.061-3.74c-0.454-0.729-0.845-1.551-1.175-2.478C0.948,8.427,0.862,8.194,0.723,7.817C0.581,7.44,0.482,7.178,0.431,7.029C0.38,6.888,0.311,6.662,0.226,6.367C0.141,6.07,0.083,5.794,0.051,5.552C0.015,5.306,0,5.056,0,4.801c0-0.868,0.24-1.748,0.723-2.635c0.528-0.954,1.028-1.532,1.5-1.728c0.235-0.104,0.56-0.203,0.969-0.297C3.604,0.047,3.936,0,4.192,0c0.131,0,0.23,0.012,0.296,0.042C4.66,0.099,4.91,0.458,5.241,1.115c0.102,0.184,0.245,0.437,0.424,0.769c0.18,0.327,0.344,0.629,0.495,0.899c0.152,0.265,0.3,0.521,0.441,0.756c0.028,0.037,0.109,0.154,0.247,0.352S7.086,4.26,7.151,4.397C7.217,4.533,7.25,4.669,7.25,4.801c0,0.188-0.135,0.426-0.404,0.707C6.578,5.79,6.285,6.052,5.968,6.285C5.653,6.523,5.36,6.771,5.091,7.039C4.822,7.302,4.687,7.522,4.687,7.688c0,0.084,0.024,0.193,0.071,0.317c0.048,0.129,0.087,0.226,0.12,0.292c0.035,0.064,0.099,0.181,0.197,0.339c0.102,0.164,0.155,0.25,0.166,0.273c0.717,1.291,1.538,2.399,2.463,3.323c0.925,0.927,2.034,1.75,3.327,2.464c0.019,0.01,0.109,0.064,0.27,0.163c0.159,0.1,0.273,0.167,0.341,0.201c0.065,0.032,0.162,0.074,0.291,0.119c0.125,0.047,0.231,0.074,0.317,0.074c0.17,0,0.387-0.137,0.653-0.406c0.264-0.271,0.514-0.563,0.748-0.88c0.238-0.314,0.497-0.607,0.778-0.878c0.285-0.265,0.521-0.401,0.709-0.401c0.134,0,0.267,0.032,0.402,0.1c0.138,0.064,0.308,0.166,0.506,0.302c0.198,0.142,0.314,0.219,0.354,0.251c0.235,0.141,0.489,0.285,0.758,0.44c0.27,0.146,0.569,0.315,0.898,0.494c0.33,0.178,0.586,0.319,0.764,0.421	c0.663,0.335,1.021,0.582,1.077,0.756C19.927,15.516,19.94,15.614,19.94,15.748"/></svg>
