<svg xmlns="http://www.w3.org/2000/svg" width="12" height="16" viewBox="0 0 12 16"><defs><style>.cls-1{fill:#848484;fill-rule:evenodd}</style></defs><path id="Pointer" class="cls-1" d="M256.052 13.992c3.409 0 4.935 2.563 4.935 5.1 0 2.237-1.592 5.206-4.734 8.827a.679.679 0 0 1-.065.053.6.6 0 0 1-.067-.053l-.261-.3c-2.05-2.353-4.86-5.579-4.86-8.525a5.143 5.143 0 0 1 5.049-5.1m0-1a6.158 6.158 0 0 0-6.047 6.1c0 3.464 3.214 7.007 5.376 9.5a1.217 1.217 0 0 0 .788.4h.038a1.209 1.209 0 0 0 .786-.4c2.029-2.336 4.992-6.187 4.992-9.5a5.758 5.758 0 0 0-5.933-6.1zM255.99 17a2.011 2.011 0 0 1 .023 4.022 2.04 2.04 0 0 1-2.02-2.022 2 2 0 0 1 2-2m.023-.978a3 3 0 1 0 3 3 3 3 0 0 0-3-3z" transform="translate(-250 -13)"/></svg>