<svg id="Слой_2" xmlns="http://www.w3.org/2000/svg" viewBox="0 0 20 16.9"><style>.st0{fill:#fff}.st1{fill:#8b8b8b}</style><path class="st0" d="M.5 2.4h19v11H.5z"/><path class="st1" d="M19 2.9v10H1v-10h18m1-1H0v12h20v-12z"/><path class="st0" d="M4.5 9.4h11v7h-11z"/><path class="st1" d="M15 9.9v6H5v-6h10m1-1H4v8h12v-8z"/><path class="st0" d="M4.6.5h11v3h-11z"/><path class="st1" d="M15.1 1v2h-10V1h10m1-1h-12v4h12V0z"/><path class="st0" d="M15.3 5.4h2.4v1h-2.4z"/><path class="st1" d="M17.7 5.4h-2.4v1h2.4v-1zm-4.3 6.2h-7v1h7v-1zm0 2h-7v1h7v-1z"/></svg>