<svg width="65" height="77" viewBox="0 0 65 77" fill="none" xmlns="http://www.w3.org/2000/svg">
<path d="M64.9696 12.8966C64.9458 11.8776 64.2032 10.9986 63.166 10.8593C58.3312 10.2065 53.5629 9.07071 48.8886 7.38757C44.2364 5.71247 39.089 3.3741 33.5371 0.294346C32.8322 -0.0969137 32.1691 -0.0993154 31.4649 0.294346C25.9515 3.37253 20.8409 5.706 16.152 7.38757C11.4762 9.06434 6.71024 10.2073 1.91393 10.8593C0.876577 11.0002 0.148723 11.8776 0.0332727 12.8966C-0.426827 32.2525 3.88549 48.0898 12.9286 60.4007C17.855 67.1067 24.0202 72.5498 31.4649 76.7001C32.0405 77.1155 32.9428 77.0841 33.6141 76.7001C41.0025 72.4805 47.1594 67.0769 52.0745 60.4007C61.1296 48.0978 65.4068 32.2532 64.9696 12.8966ZM48.62 58.0236C44.3477 63.8256 38.9874 68.6635 32.5014 72.5497C26.0153 68.6634 20.6296 63.8434 16.3828 58.0236C8.15597 46.7503 4.14008 32.3281 4.29313 14.7456C8.82159 14.0284 13.3124 12.8209 17.8025 11.1983C22.2925 9.57631 27.205 7.34977 32.5014 4.52042C37.7979 7.34977 42.6718 9.57631 47.1619 11.1983C51.6519 12.821 56.1803 14.0284 60.7096 14.7456C60.8628 32.4416 56.8214 46.884 48.62 58.0236Z"/>
<path d="M40.5197 26.622L30.6794 36.8726L26.4803 32.4981C25.6841 31.669 24.3931 31.669 23.5972 32.4981C22.8009 33.3279 22.8009 34.6725 23.5972 35.5019L29.2378 41.3781C29.6358 41.7927 30.1577 42 30.6794 42C31.2011 42 31.723 41.7927 32.121 41.3781L43.4026 29.6257C44.1991 28.7963 44.1991 27.4514 43.4029 26.6222C42.6069 25.7928 41.316 25.7925 40.5197 26.622Z"/>
</svg>
