<svg xmlns="http://www.w3.org/2000/svg" width="13" height="13" viewBox="0 0 13 13"><defs><style>.cls-1{fill:#151b23;fill-rule:evenodd;opacity:.8}</style></defs><path id="Forma_1" data-name="Forma 1" class="cls-1" d="M1385.77 22.015a4.27 4.27 0 0 0 2.06-3.684 4.33 4.33 0 1 0-8.66 0 4.284 4.284 0 0 0 2.05 3.684A6.7 6.7 0 0 0 1377 27h1.08a5.556 5.556 0 0 1 10.84 0h1.08a6.515 6.515 0 0 0-4.23-4.985zm-5.52-3.684a3.25 3.25 0 1 1 3.25 3.25 3.258 3.258 0 0 1-3.25-3.25z" transform="translate(-1377 -14)"/></svg>