<svg xmlns="http://www.w3.org/2000/svg" width="27" height="21" viewBox="0 0 27 21"><defs><style>.cls-1{fill:#0b0b0b;fill-rule:evenodd;opacity:.25}</style></defs><path id="Forma_1" data-name="Forma 1" class="cls-1" d="M1566 149c0-1.375-.83-3.614-2-4.063v-3.192c0-.722-.27-.745-1-.745h-3l.01-2.555a1.415 1.415 0 0 0-1.43-1.445h-17.35a2.272 2.272 0 0 0-2.2 1.89 2.063 2.063 0 0 0-.03.446 1.207 1.207 0 0 0 .03.344v1.133a.5.5 0 0 0-.03.207v14.644a2.3 2.3 0 0 0 2.26 2.336h21.48a1.032 1.032 0 0 0 1.26-1v-4c1.13-.446 2-2.625 2-4zm-24.07-10.008h15.88c.19 0 .19.066.19.162V141h-16.07a.35.35 0 0 1-.18-.033.058.058 0 0 1-.06-.033c-.04 0-.07-.033-.1-.033s-.03-.033-.06-.033-.06-.033-.09-.033a.119.119 0 0 1-.06-.066l-.06-.065a.45.45 0 0 0-.07-.066.068.068 0 0 1-.03-.066c-.03-.033-.03-.066-.06-.1l-.03-.033a.525.525 0 0 1-.06-.129.312.312 0 0 1-.03-.162c0-.065-.04-.095-.04-.161a.246.246 0 0 1 .04-.162v-.033a.912.912 0 0 1 .89-.8zM1541 143h21c-.01-.333 0-.037 0 0v2h-2a3.735 3.735 0 0 0-4 4v1c0 1.754 2.08 3.032 3.78 3.032L1562 153v3h-1a9.526 9.526 0 0 0 1 0h-21c-.57 0 .22.242 0 0v-13c.03 0-.03-.037 0 0m22 8l.27-.25c-.13.035-.17.25-.27.25h-3a2.126 2.126 0 0 1-2-2 2.008 2.008 0 0 1 2-2h2.94a1.064 1.064 0 0 1 .33.036c.86.171.73 1.035.73 1.961s-.13 1.831-1 2.003zm-3-3a1 1 0 1 1-1 1 1 1 0 0 1 1-1z" transform="translate(-1539 -137)"/></svg>