<?xml version="1.0" encoding="UTF-8"?>
<!DOCTYPE svg PUBLIC "-//W3C//DTD SVG 1.1//EN" "http://www.w3.org/Graphics/SVG/1.1/DTD/svg11.dtd">
<!-- Creator: CorelDRAW X7 -->
<svg xmlns="http://www.w3.org/2000/svg" xml:space="preserve" width="297mm" height="210mm" version="1.1" style="shape-rendering:geometricPrecision; text-rendering:geometricPrecision; image-rendering:optimizeQuality; fill-rule:evenodd; clip-rule:evenodd"
viewBox="0 0 29700 21000"
 xmlns:xlink="http://www.w3.org/1999/xlink">
 <defs>
  <style type="text/css">
   <![CDATA[
    .fil0 {fill:#d70022}
   ]]>
  </style>
 </defs>
 <g id="Слой_x0020_1">
  <metadata id="CorelCorpID_0Corel-Layer"/>
  <path class="fil0" d="M24531 4379c-758,-901 -2157,-1268 -4830,-1268l-9702 0c-2734,0 -4158,391 -4913,1350 -736,936 -736,2314 -736,4221l0 3636c0,3695 874,5571 5649,5571l9702 0c2318,0 3602,-324 4433,-1119 852,-816 1216,-2147 1216,-4452l0 -3636c0,-2011 -57,-3398 -819,-4303l0 0zm-6699 6623l-4406 2303c-97,50 -204,77 -314,77 -374,0 -677,-303 -677,-677 0,-1 0,-1 0,-1l0 -4590c0,-374 303,-678 678,-678 108,0 215,27 312,77l4406 2287c224,117 365,349 365,602 0,252 -140,483 -364,600l0 0z"/>
 </g>
</svg>
