<?xml version="1.0" encoding="utf-8"?>
<!-- Generator: Adobe Illustrator 22.0.1, SVG Export Plug-In . SVG Version: 6.00 Build 0)  -->
<svg version="1.1" id="Capa_1" xmlns="http://www.w3.org/2000/svg" xmlns:xlink="http://www.w3.org/1999/xlink" x="0px" y="0px"
	 viewBox="0 0 363.3 315.7" style="enable-background:new 0 0 363.3 315.7;" xml:space="preserve">
<style type="text/css">
	.st0{display:none;}
	.st1{display:inline;}
	.st2{fill:#000002;}
</style>
<g>
	<g>
		<path d="M1446.7-8.6c-6.1-3.6-13.3-4.6-21.4-2.5c-14.8,4.1-28,10.7-39.3,20.9c-10.7,9.7-21.9,20.4-35.7,34.2
			c-6.6,6.6-12.7,13.3-18.9,19.9c-4.1,4.1-8.2,8.7-11.7,12.7c-4.1,4.6-8.7,6.6-14.3,6.1c-3.1-0.5-6.6-1-10.2-2
			c-27.5-7.6-56.6-14.3-84.1-20.4c-28-6.6-56.6-12.7-84.1-20.4c-5.1-1.5-10.7-2.5-16.8-3.6c-9.2-1.5-16.3,0-21.9,5.6
			c-8.2,7.6-10.7,12.7-15.3,21.9c-5.1,10.2,0,16.8,5.1,21.9c3.6,3.6,17.3,17.3,34.7,34.2c29.1,28.5,70.9,69.8,82.6,81.6l-10.7,13.3
			c-13.3,15.8-24.5,30.1-31.6,38.2l-38.7-19.9c-6.6-3.6-15.3-2.5-20.4,3.1l-17.8,16.3c-1,1-1.5,2-1.5,3.6c0,1.5,0.5,2.5,1.5,3.6
			l41.3,41.3l-4.1,4.6c-7.1,8.7-8.2,21.4-2,30.1c4.1,6.1,10.2,10.2,17.3,11.2c7.1,1,14.3-1,19.4-5.6l5.1-4.6l36.7,36.7
			c1,1,2,1.5,3.6,1.5c1.5,0,2.5-0.5,3.6-1.5l16.8-16.8c5.6-5.6,6.6-13.8,3.1-20.4l-17.3-33.6c14.3-13.3,32.1-28.5,51-43.8
			c5.6,6.1,18.4,19.9,40.3,44.4c28,31.1,63.2,69.8,67.8,74.9c4.6,5.1,9.2,9.7,16.3,9.7c2.5,0,5.1-0.5,8.2-1.5c0.5,0,1-0.5,1.5-0.5
			c0.5-0.5,1-0.5,1.5-1c9.2-5.6,19.4-13.8,21.9-27.5c1.5-7.6,1-15.3-1-25l-33.6-146.8c-2.5-12.2-5.6-24-8.2-36.2
			c-2-6.6-0.5-11.7,4.6-15.8l0.5-0.5l15.8-16.3c12.7-13.3,26-26.5,38.7-39.8c10.2-10.7,17.8-20.9,22.9-31.1
			c4.1-8.2,8.7-17.3,10.2-27.5C1460,7.2,1455.4-3.5,1446.7-8.6z M1448.8,16.3c-1.5,9.2-5.6,17.3-9.7,25
			c-4.6,9.7-11.2,18.4-20.9,28.5c-12.7,13.3-26,26.5-38.7,39.8l-15.8,16.3c-8.7,6.1-11.2,14.8-8.7,25.5c3.1,11.7,5.6,24,8.2,35.7
			l33.6,147.3c2,8.7,2,14.8,1,20.9c-2,9.7-10.2,16.3-18.4,20.9c-5.6,2.5-7.6,1.5-13.3-4.6c-4.1-5.6-38.2-42.8-67.8-75.4
			c-20.4-22.4-41.3-45.4-42.8-47.4c-1-1-2-2-3.6-2h-0.5c-1,0-2.5,0.5-3.1,1l-1,1c-20.9,17.3-41.3,34.7-57.1,48.9
			c-1.5,1.5-2,4.1-1,6.1l19.4,37.2c1.5,3.1,1,6.6-1.5,8.7l-13.3,13.3l-36.2-36.2c-2-2-4.6-2-6.6-0.5l-8.7,7.1
			c-3.1,2.5-7.6,4.1-11.7,3.1c-4.1-0.5-7.6-3.1-10.2-6.6c-3.6-5.1-3.1-12.7,1.5-17.8l6.6-8.2c1.5-2,1.5-5.1-0.5-6.6l-40.8-40.8
			l13.3-13.3c2.5-2.5,5.6-3.1,8.7-1.5l42.3,21.9c2,1,4.6,0.5,6.1-1c6.6-7.6,19.4-23.4,34.2-41.3l13.8-16.8c1.5-2,1.5-4.6,0-6.6
			c-2-2.5-38.7-38.7-86.2-85.1c-16.8-16.8-31.1-30.6-34.7-34.2c-4.6-4.6-4.6-6.6-3.1-10.2c4.6-9.2,6.6-12.7,13.3-18.9
			c3.6-3.1,7.6-4.1,13.3-3.1c6.1,1,11.2,2,15.8,3.6c27.5,7.6,56.6,14.3,84.6,20.4s56.6,12.7,84.1,20.4c4.1,1,8.2,2,11.7,2
			c8.7,0.5,16.8-2.5,22.9-9.2c4.1-4.1,8.2-8.7,12.2-12.7c6.1-6.6,12.2-13.3,18.4-19.9c13.8-13.8,24.5-24.5,35.2-33.6
			c9.7-8.7,21.4-14.8,35.2-18.4c5.1-1.5,9.7-1,13.8,1.5C1447.2,3.6,1449.8,9.7,1448.8,16.3z"/>
	</g>
</g>
<g>
	<g>
		<path d="M1165.8,84.1c0,0-0.5-0.5-1-0.5l-10.7-1.5l-4.6-9.7c-0.5-1-2-1-2.5,0l-4.6,9.7l-10.7,1.5c-0.5,0-1,0.5-1,1s0,1,0.5,1.5
			l7.6,7.6l-2,10.7c0,0.5,0,1,0.5,1.5s1,0.5,1.5,0l9.7-5.1l9.7,5.1h0.5c0.5,0,0.5,0,1,0c0.5-0.5,0.5-1,0.5-1.5l-2.5-11.2l7.6-7.6
			C1165.8,85.2,1165.8,84.7,1165.8,84.1z"/>
	</g>
</g>
<g>
	<g>
		<path d="M1372.8,302.8c0-0.5-0.5-1-1-1l-10.7-1.5l-4.6-9.2c-0.5-1-2-1-2.5,0l-4.6,9.7l-10.7,1.5c-0.5,0-1,0.5-1,1s0,1,0.5,1.5
			l7.6,7.6l-2,10.2c0,0.5,0,1,0.5,1.5c0.5,0.5,1,0.5,1.5,0l9.7-5.1l9.7,5.1h0.5c0.5,0,0.5,0,1,0c0-0.5,0-1,0-1.5l-2-10.7l7.6-7.6
			C1372.8,303.9,1372.8,303.4,1372.8,302.8z"/>
	</g>
</g>
<g class="st0">
	<g class="st1">
		<path d="M872.9,152.1c-1.7-6.5-5.8-12-12.7-16.1c-12.7-7.2-26-11.6-40.4-12.3c-13.7-0.7-28.4-1-46.9-1c-8.9,0-17.4,0.3-26,0.7
			c-5.5,0-11.3,0.3-16.4,0.7c-5.8,0.3-10.3-1.4-13.7-5.5c-1.7-2.4-3.8-5.1-5.5-8.2c-13.3-23.6-6.4,8.5-20.8-14.1
			C676.3,73,661.3,49.7,648,26.1c-2.4-4.4-5.5-8.9-8.9-13.7c-5.1-7.2-10.9-10.9-18.5-10.9c-10.6-0.3-15.7,1.4-25,4.4
			c-10.3,3.4-11.3,11.3-11.3,18.1c0,4.8,0,23.3,0.3,46.2c0.3,38.7-21.3,38.4-21.3,54.1l-16.1,1.7c-19.5,1.7-36.6,3.8-46.9,4.4
			l-12.7-39.3c-2.1-6.8-8.6-12-15.7-11.6l-22.9-1c-1.4,0-2.4,0.3-3.4,1.4c-1,1-1.4,2.1-1.4,3.4v55.4l-5.8,0.3
			c-10.6,1-19.8,8.9-21.5,18.8c-1.4,6.8,0,13.7,4.1,19.2s10.3,8.9,16.8,9.2l6.5,0.3v49.3c0,1.4,0.3,2.4,1.4,3.4c1,1,2.1,1.4,3.4,1.4
			h22.6c7.5,0,13.7-4.8,15.7-11.6l10.9-34.2c18.5,0.7,40.7,2.4,63.6,4.8c-0.3,7.9-1,25.7-2.7,56.8c-2.1,39.7-4.4,89.3-4.8,95.8
			c-0.3,6.5-0.3,12.7,4.4,17.4c1.7,1.7,3.8,3.1,6.5,4.4c0.3,0.3,1,0.3,1.4,0.7c0.7,0,1,0.3,1.7,0.3c9.9,2.4,22.2,3.8,33.2-3.8
			c6.2-4.1,10.9-9.6,16.1-17.4l75.9-121.1c6.5-9.9,12.3-19.8,18.8-29.8c3.1-5.8,7.5-8.2,13.7-7.5h0.7l21.5-0.3
			c17.4-0.3,35.2-0.3,52.7-0.7c14-0.3,26-2.1,36.3-5.5c8.2-2.7,17.4-5.8,25.3-11.6C871.2,171.6,875.3,161.3,872.9,152.1z
			 M857.5,170.2c-7.2,5.1-15.4,7.9-23.3,10.3c-9.6,3.4-19.8,4.8-33.2,5.1c-17.4,0.3-35.2,0.3-52.7,0.7l-21.5,0.3
			c-9.9-1.7-17.4,2.4-22.9,11.3c-5.8,9.9-12.3,19.8-18.5,29.4l-76.3,121.4c-4.4,7.2-8.6,11.3-13.3,14.7c-7.9,5.1-17.8,4.1-26.3,1.7
			c-5.5-2.1-6.2-4.1-5.8-12c1-6.5,3.1-54.4,5.1-96.1c1.4-28.7,2.7-58.1,3.1-60.5c0-1.4,0-2.7-1-3.8l-0.3-0.3
			c-0.7-0.7-2.1-1.4-2.7-1.4h-1.4c-25.7-2.4-51-4.4-71.1-5.5c-2.1,0-4.1,1.4-4.8,3.4l-12,38c-1,3.1-3.8,5.1-6.8,4.8h-17.8v-48.6
			c0-2.7-1.7-4.4-4.1-4.8l-10.6-1c-3.8-0.3-7.9-2.4-9.9-5.8c-2.4-3.1-3.1-7.2-2.4-11.3c1-5.8,6.5-10.6,13-10.9l9.9-1
			c2.4-0.3,4.4-2.4,4.1-4.8V88.8h17.8c3.4,0,5.8,1.7,6.8,4.8l13.7,43.1c0.7,2.1,2.7,3.4,4.8,3.4c9.6-0.7,28.7-2.7,50.6-4.8l20.5-2.1
			c2.4-0.3,4.1-2.1,4.4-4.4c0.3-3.1,22,4,21.3-58.9c0-22.6-0.3-41.4-0.3-46.2c0-6.2,1.4-7.5,4.8-8.9c9.2-3.1,13-4.1,21.5-3.8
			c4.4,0.3,7.9,2.4,10.9,6.8c3.4,4.8,6.2,8.9,8.2,13c13.3,23.6,28.4,47.5,43.1,70.5c14.7,22.9,7.4-9.5,20.8,14.1
			c2.1,3.4,4.1,6.8,6.5,9.2c5.5,6.2,13,9.6,21.5,9.2c5.5,0,11.3-0.3,16.8-0.3c8.6-0.3,17.1-0.7,25.7-1c18.5,0,32.8,0,46.2,1
			c12.3,0.7,24.3,4.4,35.9,11.3c4.4,2.4,7.2,5.8,8.2,10.3C865,160.6,862.7,166.4,857.5,170.2z"/>
	</g>
</g>
<g>
	<path class="st2" d="M122.8,315.7H78.3l55-121.5H52.9l-21.2,43.9L0,240.3l23.4-81.1L0.2,78.7h32.2l21.7,46l79-0.6L78.3,0h44.4
		l89,122.7l124.9,0.7l2.1,0.4c1,0.4,24.6,9.9,24.6,35.4c0,25.5-21.9,34.2-22.9,34.5l-1.1,0.4H211.5L122.8,315.7z M98,302.7h18.2
		l88.7-121.5h131.9c3.2-1.6,13.5-7.8,13.5-22c0-14.3-12.5-21.2-16.2-22.8l-128.9-0.7L116.2,13H98l54.6,123.9l-107,0.8L24,91.7h-6.5
		l19.5,67.5L17.6,226l5.6-0.4l21.5-44.5H153L98,302.7z"/>
</g>
</svg>
