<?xml version="1.0" encoding="utf-8"?>
<!-- Generator: Adobe Illustrator 22.0.1, SVG Export Plug-In . SVG Version: 6.00 Build 0)  -->
<svg version="1.1" id="Layer_1" xmlns="http://www.w3.org/2000/svg" xmlns:xlink="http://www.w3.org/1999/xlink" x="0px" y="0px"
	 viewBox="0 0 427.2 462.4" style="enable-background:new 0 0 427.2 462.4;" xml:space="preserve">
<style type="text/css">
	.st0{fill:#0D0F0F;}
</style>
<g>
	<path class="st0" d="M324.3,332.4h40c11,0,20-9,20-20v-13.3c0-11-9-20-20-20h-40c-11,0-20,9-20,20v13.3
		C304.3,323.5,313.3,332.4,324.3,332.4z M317.7,299.1c0-3.7,3-6.7,6.7-6.7h40c3.7,0,6.7,3,6.7,6.7v13.3c0,3.7-3,6.7-6.7,6.7h-40
		c-3.7,0-6.7-3-6.7-6.7V299.1z"/>
	<path class="st0" d="M64.3,332.4h40c11,0,20-9,20-20v-13.3c0-11-9-20-20-20h-40c-11,0-20,9-20,20v13.3
		C44.3,323.5,53.3,332.4,64.3,332.4z M57.7,299.1c0-3.7,3-6.7,6.7-6.7h40c3.7,0,6.7,3,6.7,6.7v13.3c0,3.7-3,6.7-6.7,6.7h-40
		c-3.7,0-6.7-3-6.7-6.7C57.7,312.5,57.7,299.1,57.7,299.1z"/>
	<path class="st0" d="M158.3,332.4h109c11,0,20-9,20-20v-51.3c0-11-9-20-20-20h-109c-11,0-20,9-20,20v51.3
		C138.3,323.5,147.3,332.4,158.3,332.4z M151.7,261.1c0-3.7,3-6.7,6.7-6.7h109c3.7,0,6.7,3,6.7,6.7v51.3c0,3.7-3,6.7-6.7,6.7h-109
		c-3.7,0-6.7-3-6.7-6.7V261.1z"/>
	<path class="st0" d="M398.3,251.2V222H385v23.6c-10.3-3.1-21.1-4.1-26.5-4.4c-0.5-11.9-7.2-56.4-13-100.6
		c-6.3-48.7-55.6-55.9-92.7-55.9h-79.4c-37.1,0-86.4,7.3-92.7,55.9c-5.8,44.1-12.5,88.6-13,100.6c-5.3,0.3-15.8,1.3-25.9,4.2V222
		H28.3v28.9c-2.5,1.4-4.7,3.1-6.6,4.9c-8.2,8.2-12.4,19.4-12.3,33.1c0.2,43.9,0,73.3,0,73.9l0.1,79.7c0,11,9,20,20,20h50
		c11,0,20-9,20-20V418h226.9v24.5c0,11,9,20,20,20h50c11,0,20-9,20-20V418c0,0,0.1-85.2,0.2-129.1c0.1-13.7-4.1-24.9-12.3-33.1
		C402.5,254.1,400.5,252.6,398.3,251.2z M173.3,98.7h79.4c32.5,0,73.9,5.7,78.9,43.7c2.5,19.1,4.7,37.6,6.7,54
		c-9.9,1.3-71.6,9.2-125.6,8.9c-52.6-0.3-112.4-7.3-124.8-8.8c1.9-16.4,4.2-35,6.7-54.1C99.4,104.4,140.7,98.7,173.3,98.7z
		 M31.7,265.6c9.8-9.8,49.6-10,49.6-10s1.8-18.3,4.9-45.2c12.9,1.6,73.2,8.6,126.3,8.9c1.2,0,2.3,0,3.5,0c53.5,0,113.1-7.6,123.8-9
		c3.1,27,4.9,45.3,4.9,45.3s39.8,0.2,49.6,10c5.5,5.5,8.3,13.3,8.2,23.2c-0.1,35.2-0.1,49.5,0,66.9H252.4h-78.9H23.5
		c0-17.4,0.1-31.8,0-66.9C23.4,279,26.2,271.2,31.7,265.6z M86.2,442.5c0,3.7-3,6.7-6.7,6.7h-50c-3.7,0-6.7-3-6.7-6.7V418h63.3
		V442.5z M403,442.5c0,3.7-3,6.7-6.7,6.7h-50c-3.7,0-6.7-3-6.7-6.7V418H403V442.5z M403,402.8H23v-33h150.5h78.9H403L403,402.8
		L403,402.8z"/>
	<path class="st0" d="M406,119.8h-14.1c-11.7,0-21.2,9.9-21.2,22v44c0,12.1,9.5,22,21.2,22H406c11.7,0,21.2-9.9,21.2-22v-44
		C427.2,129.7,417.7,119.8,406,119.8z M413.1,185.8c0,4-3.2,7.3-7.1,7.3h-14.1c-3.9,0-7.1-3.3-7.1-7.3v-44c0-4,3.2-7.3,7.1-7.3H406
		c3.9,0,7.1,3.3,7.1,7.3V185.8z"/>
	<path class="st0" d="M35.3,207.8c11.7,0,21.2-9.9,21.2-22v-44c0-12.1-9.5-22-21.2-22H21.2c-11.7,0-21.2,9.9-21.2,22v44
		c0,12.1,9.5,22,21.2,22L35.3,207.8L35.3,207.8z M14.1,185.8v-44c0-4,3.2-7.3,7.1-7.3h14.1c3.9,0,7.1,3.3,7.1,7.3v44
		c0,4-3.2,7.3-7.1,7.3H21.2C17.3,193.2,14.1,189.9,14.1,185.8z"/>
	<path class="st0" d="M41.7,20c0-3.7,3-6.7,6.7-6.7h330c3.7,0,6.7,3,6.7,6.7v89.6h13.3V20c0-11-9-20-20-20h-330c-11,0-20,9-20,20
		v89.6h13.3V20z"/>
</g>
</svg>
