<?xml version="1.0" encoding="utf-8"?>
<!-- Generator: Adobe Illustrator 22.0.1, SVG Export Plug-In . SVG Version: 6.00 Build 0)  -->
<svg version="1.1" id="Layer_1" xmlns="http://www.w3.org/2000/svg" xmlns:xlink="http://www.w3.org/1999/xlink" x="0px" y="0px"
	 viewBox="0 0 310.5 429.9" style="enable-background:new 0 0 310.5 429.9;" xml:space="preserve">
<style type="text/css">
	.st0{fill:#0D0F0F;}
	.st1{display:none;fill:#0D0F0F;}
</style>
<g>
	<path class="st0" d="M-714.1,142.6h40c11,0,20-9,20-20v-13.3c0-11-9-20-20-20h-40c-11,0-20,9-20,20v13.3
		C-734.1,133.6-725.2,142.6-714.1,142.6z M-720.8,109.3c0-3.7,3-6.7,6.7-6.7h40c3.7,0,6.7,3,6.7,6.7v13.3c0,3.7-3,6.7-6.7,6.7h-40
		c-3.7,0-6.7-3-6.7-6.7V109.3z"/>
	<path class="st0" d="M-974.1,142.6h40c11,0,20-9,20-20v-13.3c0-11-9-20-20-20h-40c-11,0-20,9-20,20v13.3
		C-994.1,133.6-985.2,142.6-974.1,142.6z M-980.8,109.3c0-3.7,3-6.7,6.7-6.7h40c3.7,0,6.7,3,6.7,6.7v13.3c0,3.7-3,6.7-6.7,6.7h-40
		c-3.7,0-6.7-3-6.7-6.7V109.3z"/>
	<path class="st0" d="M-880.1,142.6h109c11,0,20-9,20-20V71.3c0-11-9-20-20-20h-109c-11,0-20,9-20,20v51.3
		C-900.1,133.6-891.2,142.6-880.1,142.6z M-886.8,71.3c0-3.7,3-6.7,6.7-6.7h109c3.7,0,6.7,3,6.7,6.7v51.3c0,3.7-3,6.7-6.7,6.7h-109
		c-3.7,0-6.7-3-6.7-6.7V71.3z"/>
	<path class="st0" d="M-640.2,61.4V32.1h-13.3v23.6c-10.3-3.1-21.1-4.1-26.5-4.4c-0.5-11.9-7.2-56.4-13-100.6
		c-6.3-48.7-55.6-55.9-92.7-55.9h-79.4c-37.1,0-86.4,7.3-92.7,55.9c-5.8,44.1-12.5,88.6-13,100.6c-5.3,0.3-15.8,1.3-25.9,4.2V32.1
		h-13.3V61c-2.5,1.4-4.7,3.1-6.6,4.9c-8.2,8.2-12.4,19.4-12.3,33.1c0.2,43.9,0,73.3,0,73.9l0.1,79.7c0,11,9,20,20,20h50
		c11,0,20-9,20-20v-24.5h226.9v24.5c0,11,9,20,20,20h50c11,0,20-9,20-20v-24.5c0,0,0.1-85.2,0.2-129.1c0.1-13.7-4.1-24.9-12.3-33.1
		C-635.9,64.2-638,62.7-640.2,61.4z M-865.2-91.2h79.4c32.5,0,73.9,5.7,78.9,43.7c2.5,19.1,4.7,37.6,6.7,54
		c-9.9,1.3-71.6,9.2-125.6,8.9c-52.6-0.3-112.4-7.3-124.8-8.8c1.9-16.4,4.2-35,6.7-54.1C-939.1-85.5-897.7-91.2-865.2-91.2z
		 M-1006.8,75.8c9.8-9.8,49.6-10,49.6-10s1.8-18.3,4.9-45.2c12.9,1.6,73.2,8.6,126.3,8.9c1.2,0,2.3,0,3.5,0
		c53.5,0,113.1-7.6,123.8-9c3.1,27,4.9,45.3,4.9,45.3s39.8,0.2,49.6,10c5.5,5.5,8.3,13.3,8.2,23.2c-0.1,35.2-0.1,49.5,0,66.9H-786
		h-78.9H-1015c0-17.4,0.1-31.8,0-66.9C-1015,89.1-1012.3,81.3-1006.8,75.8z M-952.3,252.6c0,3.7-3,6.7-6.7,6.7h-50
		c-3.7,0-6.7-3-6.7-6.7v-24.5h63.3V252.6z M-635.5,252.6c0,3.7-3,6.7-6.7,6.7h-50c-3.7,0-6.7-3-6.7-6.7v-24.5h63.3V252.6z
		 M-635.4,212.9h-380v-33h150.5h78.9h150.6V212.9z"/>
	<path class="st0" d="M-632.5-70h-14.1c-11.7,0-21.2,9.9-21.2,22v44c0,12.1,9.5,22,21.2,22h14.1c11.7,0,21.2-9.9,21.2-22v-44
		C-611.2-60.2-620.8-70-632.5-70z M-625.4-4c0,4-3.2,7.3-7.1,7.3h-14.1c-3.9,0-7.1-3.3-7.1-7.3v-44c0-4,3.2-7.3,7.1-7.3h14.1
		c3.9,0,7.1,3.3,7.1,7.3V-4z"/>
	<path class="st0" d="M-1003.1,18c11.7,0,21.2-9.9,21.2-22v-44c0-12.1-9.5-22-21.2-22h-14.1c-11.7,0-21.2,9.9-21.2,22v44
		c0,12.1,9.5,22,21.2,22C-1017.3,18-1003.1,18-1003.1,18z M-1024.3-4v-44c0-4,3.2-7.3,7.1-7.3h14.1c3.9,0,7.1,3.3,7.1,7.3v44
		c0,4-3.2,7.3-7.1,7.3h-14.1C-1021.2,3.3-1024.3,0-1024.3-4z"/>
	<path class="st0" d="M-996.8-169.9c0-3.7,3-6.7,6.7-6.7h330c3.7,0,6.7,3,6.7,6.7v89.6h13.3v-89.6c0-11-9-20-20-20h-330
		c-11,0-20,9-20,20v89.6h13.3V-169.9z"/>
</g>
<path class="st1" d="M-95.3,435c11.7,0,21.2-9.9,21.2-22V22c0-12.1-9.5-22-21.2-22h-313.9c-11.7,0-21.2,9.9-21.2,22v391
	c0,12.1,9.5,22,21.2,22H-95.3z M-416.3,413V22c0-4,3.2-7.3,7.1-7.3h313.9c3.9,0,7.1,3.3,7.1,7.3v391c0,4-3.2,7.3-7.1,7.3h-313.9
	C-413.2,420.3-416.3,417-416.3,413z"/>
<g>
	<path class="st0" d="M66.9,232.4h175.9c13.1,0,23.8-11.1,23.8-24.7v-69.4c0-13.6-10.7-24.7-23.8-24.7h-20.2v-11.3
		c0-13.6-10.7-24.7-23.8-24.7h-88.9C96.7,77.5,86,88.6,86,102.2v11.3H66.9c-13.1,0-23.8,11.1-23.8,24.7v69.4
		C43,221.3,53.7,232.4,66.9,232.4z M101.9,102.2c0-4.5,3.6-8.2,7.9-8.2h88.9c4.4,0,7.9,3.7,7.9,8.2v11.3H101.9V102.2z M58.9,138.2
		c0-4.5,3.6-8.2,7.9-8.2h175.9c4.4,0,7.9,3.7,7.9,8.2v69.4c0,4.5-3.6,8.2-7.9,8.2H66.9c-4.4,0-7.9-3.7-7.9-8.2L58.9,138.2
		L58.9,138.2z"/>
	<path class="st0" d="M232.5,276.3c-18.7,0-33.7,15-33.7,33.7c0,18.7,15,33.7,33.7,33.7s33.7-15,33.7-33.7S251.2,276.3,232.5,276.3z
		 M232.5,329.4c-10.5,0-18.7-8.2-18.7-18.7c0-10.5,8.2-18.7,18.7-18.7s18.7,8.2,18.7,18.7C251.2,321.1,243,329.4,232.5,329.4z"/>
	<path class="st0" d="M77.5,343.6c18.7,0,33.7-15,33.7-33.7c0-18.7-15-33.7-33.7-33.7s-33.7,15-33.7,33.7
		C43.9,328.6,58.8,343.6,77.5,343.6z M77.5,292c10.5,0,18.7,8.2,18.7,18.7c0,10.4-8.2,18.7-18.7,18.7s-18.7-8.2-18.7-18.7
		C58.8,300.2,67,292,77.5,292z"/>
	<path class="st0" d="M293,429.9h17.5L275.9,383c14.7-5.8,24.9-20.1,25.6-36.4V79.7c0-29.8-24.6-54.4-54.3-54.4h-15
		C229.9,10.9,217.6,0,202.5,0S175.2,10.9,173,25.2h-35.9l0,0C134.9,10.9,122.6,0,107.5,0S80.2,10.9,78,25.2l0,0H62.7
		C33,25.2,8.3,49.9,8.3,79.7v266.9c0,16.7,11,31.3,26.1,36.8L0,429.9h17.5l32.6-44.2h210.2L293,429.9z M186,29.1
		c0-0.2,0.1-0.5,0.1-0.7c0-0.2,0.1-0.5,0.1-0.7c0.1-0.3,0.1-0.6,0.2-0.9c0-0.1,0.1-0.3,0.1-0.4c0.1-0.4,0.2-0.7,0.3-1.1
		c2.2-6.6,8.3-11.2,15.7-11.2s13.6,4.6,15.7,11.2c0.1,0.4,0.2,0.7,0.3,1.1c0,0.1,0.1,0.2,0.1,0.4c0.1,0.3,0.1,0.6,0.2,0.9
		c0,0.2,0.1,0.5,0.1,0.7c0,0.2,0.1,0.5,0.1,0.7c0,0.5,0.1,1,0.1,1.5c0,0.6,0,1.1-0.1,1.7c0,0.3-0.1,0.6-0.1,0.9
		c0,0.3-0.1,0.5-0.1,0.8c-0.1,0.4-0.2,0.8-0.3,1.1c0,0.1-0.1,0.3-0.1,0.4c-0.1,0.4-0.3,0.9-0.5,1.3c0,0.1,0,0.1-0.1,0.2
		c-0.2,0.5-0.4,0.9-0.6,1.4c0,0,0,0,0,0c-0.7,1.4-1.7,2.7-2.7,3.8c-3,3.1-7.2,5-12,5c-4.8,0-9-1.9-12-5c-1.1-1.1-2-2.4-2.7-3.8
		c0,0,0,0,0-0.1c-0.2-0.4-0.4-0.9-0.6-1.4c0-0.1,0-0.1-0.1-0.2c-0.2-0.4-0.3-0.9-0.5-1.3c0-0.1-0.1-0.3-0.1-0.4
		c-0.1-0.4-0.2-0.8-0.3-1.1c-0.1-0.3-0.1-0.5-0.1-0.8c0-0.3-0.1-0.6-0.1-0.8c-0.1-0.6-0.1-1.1-0.1-1.7C185.9,30.1,186,29.6,186,29.1
		z M107.5,14c9.3,0,16.6,7.3,16.6,16.6c0,9.3-7.3,16.6-16.6,16.6s-16.6-7.3-16.6-16.6C90.9,21.3,98.2,14,107.5,14z M25.3,345.7v-267
		c0-20.4,16.1-36.5,36.5-36.5h18.5c4.7,10.4,15.1,17.6,27.3,17.6s22.6-7.2,27.3-17.6h40.4c4.7,10.4,15.1,17.6,27.3,17.6
		s22.6-7.2,27.3-17.6h18.1c20.4,0,36.5,17,36.5,37.4l0.1,266.1c-0.1,11.8-10.3,22.1-22.1,22.1h-215
		C35.4,367.8,25.3,357.6,25.3,345.7z"/>
</g>
</svg>
