<?xml version="1.0" encoding="utf-8"?>
<!-- Generator: Adobe Illustrator 22.0.1, SVG Export Plug-In . SVG Version: 6.00 Build 0)  -->
<svg version="1.1" id="Layer_1" xmlns="http://www.w3.org/2000/svg" xmlns:xlink="http://www.w3.org/1999/xlink" x="0px" y="0px"
	 viewBox="0 0 48 49" style="enable-background:new 0 0 48 49;" xml:space="preserve">
<style type="text/css">
	.st0{fill:#D70022;}
</style>
<path id="морским" class="st0" d="M12.3,14.4h23.5v2.1H12.3V14.4z M33.6,17.6h2.1v2.1h-2.1V17.6z M12.3,17.6h2.1v2.1h-2.1
	V17.6z M22.9,7.5h2.1v2.1h-2.1V7.5z M26.1,7.5h2.1v2.1h-2.1V7.5z M19.7,7.5h2.1v2.1h-2.1V7.5z M16.5,7.5h2.1v2.1h-2.1V7.5z
	 M29.3,7.5h2.1v2.1h-2.1V7.5z M43.5,45.9c-1,0.6-2.2,1-3.4,0.9L46.4,28c0.2-0.5-0.1-1.1-0.6-1.3L40,24.1V13.8c0-1.8-1.4-3.2-3.2-3.2
	h-1.6V5.3c0-0.6-0.5-1.1-1.1-1.1h-9.1V0h-2.1v4.3h-9.1c-0.6,0-1.1,0.5-1.1,1.1v5.3h-1.6c-1.8,0-3.2,1.4-3.2,3.2v10.3l-5.8,2.6
	c-0.5,0.2-0.7,0.8-0.6,1.3l6.3,18.8c-1.2,0-2.4-0.3-3.4-0.9c-1.4-0.8-2.9-1.2-4.5-1.2v2.1c1.2,0,2.4,0.3,3.5,0.9
	C4.9,48.6,6.4,49,8,49c0.5,0,1,0,1.6-0.1c1-0.2,2-0.5,2.9-1.1c2.2-1.3,4.8-1.3,7,0c2.8,1.6,6.2,1.6,9,0c2.2-1.3,4.8-1.3,7,0
	c0.9,0.5,1.9,0.9,2.9,1.1C39,49,39.5,49,40,49c1.6,0,3.1-0.4,4.5-1.2c1.1-0.6,2.3-1,3.5-0.9v-2.1C46.4,44.7,44.9,45.1,43.5,45.9
	L43.5,45.9z M44,28.3l-0.8,2.3l-18.2-8.3v-2.5L44,28.3z M14.9,6.4h18.1v4.3H14.9V6.4z M10.1,13.9c0-0.6,0.5-1.1,1.1-1.1h25.6
	c0.6,0,1.1,0.5,1.1,1.1v9.3l-13.4-6c-0.3-0.1-0.6-0.1-0.9,0l-13.4,6L10.1,13.9L10.1,13.9L10.1,13.9z M4,28.3l18.9-8.5v2.5L4.8,30.6
	L4,28.3z M37.9,46.6c-0.5-0.2-1-0.4-1.4-0.6c-2.8-1.6-6.2-1.6-9,0c-2.2,1.3-4.8,1.3-7,0c-2.8-1.6-6.2-1.6-9,0
	c-0.5,0.3-0.9,0.5-1.4,0.6l-4.7-14l17.5-8v12.7h2.1V24.6l17.5,8L37.9,46.6z"/>
</svg>
