<?xml version="1.0" encoding="utf-8"?>
<!-- Generator: Adobe Illustrator 22.0.1, SVG Export Plug-In . SVG Version: 6.00 Build 0)  -->
<svg version="1.1" id="Layer_1" xmlns="http://www.w3.org/2000/svg" xmlns:xlink="http://www.w3.org/1999/xlink" x="0px" y="0px"
	 viewBox="0 0 49 51" style="enable-background:new 0 0 49 51;" xml:space="preserve">
<g>
	<path d="M4.2,0C1.9,0,0,1.9,0,4.3s1.9,4.3,4.2,4.3s4.2-1.9,4.2-4.3C8.5,1.9,6.6,0,4.2,0z M4.2,6.6c-1.3,0-2.4-1.1-2.4-2.4
		s1.1-2.4,2.4-2.4s2.4,1.1,2.4,2.4C6.6,5.6,5.5,6.6,4.2,6.6z"/>
	<path d="M44.8,25.5c2.3,0,4.2-1.9,4.2-4.3S47.1,17,44.8,17s-4.2,1.9-4.2,4.3S42.4,25.5,44.8,25.5z M44.8,18.9
		c1.3,0,2.4,1.1,2.4,2.4s-1.1,2.4-2.4,2.4s-2.4-1.1-2.4-2.4S43.5,18.9,44.8,18.9z"/>
	<path d="M44.8,42.5c-2.2,0-4,1.7-4.2,3.9c-0.2-0.1-0.3-0.1-0.5-0.1c-0.8,0-1.4,0.6-1.4,1.4s0.6,1.4,1.4,1.4c0.4,0,0.7-0.2,1-0.4
		c0.7,1.4,2.1,2.3,3.7,2.3c2.3,0,4.2-1.9,4.2-4.3S47.1,42.5,44.8,42.5z M44.8,49.1c-1.3,0-2.4-1.1-2.4-2.4s1.1-2.4,2.4-2.4
		s2.4,1.1,2.4,2.4C47.1,48.1,46.1,49.1,44.8,49.1z"/>
	<circle cx="11.8" cy="4.3" r="1.4"/>
	<circle cx="16.5" cy="4.3" r="1.4"/>
	<circle cx="21.2" cy="4.3" r="1.4"/>
	<circle cx="25.9" cy="4.3" r="1.4"/>
	<circle cx="30.6" cy="4.3" r="1.4"/>
	<circle cx="35.3" cy="4.3" r="1.4"/>
	<circle cx="40" cy="4.3" r="1.4"/>
	<circle cx="44.8" cy="4.3" r="1.4"/>
	<circle cx="44.8" cy="9" r="1.4"/>
	<circle cx="44.8" cy="13.7" r="1.4"/>
	<circle cx="7.1" cy="33.5" r="1.4"/>
	<circle cx="11.8" cy="33.5" r="1.4"/>
	<circle cx="16.5" cy="33.5" r="1.4"/>
	<circle cx="21.2" cy="33.5" r="1.4"/>
	<circle cx="25.9" cy="33.5" r="1.4"/>
	<circle cx="30.6" cy="33.5" r="1.4"/>
	<circle cx="35.3" cy="33.5" r="1.4"/>
	<circle cx="40" cy="33.5" r="1.4"/>
	<circle cx="44.8" cy="33.5" r="1.4"/>
	<circle cx="44.8" cy="28.8" r="1.4"/>
	<circle cx="7.1" cy="47.7" r="1.4"/>
	<circle cx="11.8" cy="47.7" r="1.4"/>
	<circle cx="16.5" cy="47.7" r="1.4"/>
	<circle cx="21.2" cy="47.7" r="1.4"/>
	<circle cx="25.9" cy="47.7" r="1.4"/>
	<circle cx="30.6" cy="47.7" r="1.4"/>
	<circle cx="35.3" cy="47.7" r="1.4"/>
	<circle cx="2.4" cy="33.5" r="1.4"/>
	<circle cx="2.4" cy="38.3" r="1.4"/>
	<circle cx="2.4" cy="43" r="1.4"/>
	<circle cx="2.4" cy="47.7" r="1.4"/>
	<circle cx="23.5" cy="17.5" r="2.5"/>
	<path d="M23.5,10c-4.1,0-7.5,3.4-7.5,7.5c0,3.8,6,13.9,6.6,15l0.9,1.4l0.9-1.4c0.7-1.1,6.6-11.2,6.6-15C31,13.4,27.6,10,23.5,10z
		 M23.5,30C21.4,26.4,18,19.9,18,17.5c0-3,2.5-5.5,5.5-5.5s5.5,2.5,5.5,5.5C29,19.9,25.6,26.4,23.5,30z"/>
</g>
</svg>
