<svg id="Isolation_Mode" xmlns="http://www.w3.org/2000/svg" viewBox="0 0 49.8 36.9"><style>.st0{fill:none;stroke:#d80022;stroke-width:2;stroke-miterlimit:10}</style><path class="st0" d="M0 16.9h9M0 13h12M0 9h15M0 5h17.9m0 25.9h12v-28c0-1-.9-1.9-1.9-1.9H0m1 18.9v9c0 1.1.9 2 2 2h5m40.8-11h-10c-1 0-2-1-2-2V8m8 22.9h2c1 0 2-1 2-2v-9.6c0-1.7-1.4-3.7-1.4-3.7l-4.1-5.5c-.8-1-2.1-2.1-3.4-2.1h-8c-1 0-2 1-2 2v20.9h5m9.9 0c0 2.8-2.2 5-5 5s-5-2.2-5-5 2.2-5 5-5 5 2.2 5 5zm-26.9 0c0 2.8-2.2 5-5 5s-5-2.2-5-5 2.2-5 5-5 5 2.2 5 5z"/></svg>