<svg id="Isolation_Mode" xmlns="http://www.w3.org/2000/svg" viewBox="0 0 38 50.9"><style>.st0{fill:none;stroke:#d80022;stroke-width:2;stroke-linecap:round;stroke-miterlimit:10}</style><path class="st0" d="M4.7 24.5c.2 1.8.5 3.1 1 5.1-.5.4-1.4 1.4-1.2 3.4.4 3.6 1.9 4.5 2.9 4.6.4 3.4 6.3 12.3 11.3 12.3 6.3 0 11.5-9 11.9-12.3.9-.1 2.4-1 2.9-4.6.2-1.9-.7-3-1.3-3.4.4-1.3.9-2.8 1.3-5.1M22.3 14V3c0-1.1-.9-2-1.9-2h-2.8c-1 0-1.9.9-1.9 2v11m0-9.8C7.5 4.2 4.3 12.3 4.3 18c0 1.5-3.3-.6-3.3 5.8 0 0 6.5 1.6 18 1.6s18-1.6 18-1.6c0-6.5-3.3-4.3-3.3-5.8 0-5.7-3.3-13.9-11.4-13.9"/></svg>