<svg id="Isolation_Mode" xmlns="http://www.w3.org/2000/svg" viewBox="0 0 28.5 51.1"><style>.st0{fill:none;stroke:#d80022;stroke-width:2}</style><path class="st0" d="M14.3 6.7c1.3 0 2.3 1 2.3 2.3 0 1.3-1 2.3-2.3 2.3-1.3 0-2.3-1-2.3-2.3 0-1.3 1-2.3 2.3-2.3zM1.1 49.3S0 36.4 5.7 38.1c2.3.7 3.6 4.5 4.4 6.1.6 1.2 1 1.4 1.4-.2.4-1.6 2.1-4.2 3.3-4.5 1.2-.3 3 1.6 4 2.4 1 .8 1.3.9 1.9-.4.7-1.2 1.2-2.3 2.5-2.2 4.4.4 4.2 10 4.2 10M.8 29.5h26.7M.8 33.9h26.7m-7 16.2H1V26.9s0-1.2 1.5-1.5c1.8-.4 2.3-.5 3.5-1.2 1-.5 2-1.2 2.7-1.9 1.5-1.5.7-3.3 0-4.6C7.3 14.9 5.4 5.3 11.1 2c.7-.4 1.4-.7 2.3-.9.5-.1 1.2-.1 1.7 0 .9.1 1.7.5 2.3.9 5.7 3.4 3.8 12.9 2.4 15.7-.7 1.4-1.5 3.1 0 4.6.7.7 1.7 1.4 2.7 1.9 1.3.7 1.7.7 3.5 1.2 1.5.4 1.5 1.5 1.5 1.5V50H8"/></svg>