<svg id="Isolation_Mode" xmlns="http://www.w3.org/2000/svg" viewBox="0 0 37.8 46.3"><style>.st0{fill:none;stroke:#d80022;stroke-width:2;stroke-linecap:round;stroke-linejoin:round;stroke-miterlimit:10}</style><path class="st0" d="M18.4 28.9c2 1.7 3.3 4.3 3.3 7.1 0 5.1-4.1 9.2-9.2 9.2S3.3 41.1 3.3 36c0-2.6 1.1-4.9 2.8-6.6m-.2.1C3.4 25.4 1 18 1 17.4c0-2 5-9.1 6.2-10.1 1.2-1 14.2-4.9 16.1-6.2 3 0 11.2 2.1 13.5 6.3-4.1 2.8-4.3 11.2-8.1 15.3-3.9 4.2-8.6 4.7-10.3 5.9-1.7 1.3-4.9 4.8-8.1 4.8-1.9 0-4-1.6-4.1-3.5-.4-5.2 8.8-8.6 8.8-8.6s3.7-5.2 5-6.1c0 0-5.2 1.3-7.4-.7 0 0-1.8 3.6-4.9 4.3 0 0 1 1.2 1.2 3.5 0 0 .8 1 1 1.6"/></svg>