<svg
 xmlns="http://www.w3.org/2000/svg"
 xmlns:xlink="http://www.w3.org/1999/xlink"
 width="0.319in" height="0.319in">
<path fill-rule="evenodd"  opacity="0.78" fill="rgb(215, 0, 34)"
 d="M20.121,6.227 L18.989,7.351 L16.997,6.691 L16.398,7.291 C17.905,8.960 18.832,11.164 18.832,13.586 C18.832,18.780 14.611,23.000 9.416,23.000 C4.221,23.000 -0.000,18.780 -0.000,13.586 C-0.000,8.393 4.221,4.174 9.416,4.174 C11.837,4.174 14.039,5.098 15.708,6.602 L16.307,6.004 L15.646,4.009 L16.770,2.877 L19.649,-0.001 L20.489,2.510 L23.000,3.349 L20.121,6.227 ZM15.708,7.980 L14.462,9.226 C15.480,10.401 16.118,11.914 16.118,13.586 C16.118,17.281 13.112,20.287 9.416,20.287 C5.720,20.287 2.714,17.281 2.714,13.586 C2.714,9.892 5.720,6.887 9.416,6.887 C11.087,6.887 12.598,7.523 13.773,8.537 L15.019,7.292 C13.526,5.963 11.567,5.148 9.416,5.148 C4.760,5.148 0.974,8.933 0.974,13.586 C0.974,18.241 4.760,22.025 9.416,22.025 C14.071,22.025 17.857,18.241 17.857,13.586 C17.857,11.433 17.040,9.473 15.708,7.980 ZM9.416,17.566 C7.219,17.566 5.435,15.782 5.435,13.586 C5.435,11.391 7.219,9.607 9.416,9.607 C10.337,9.607 11.175,9.933 11.849,10.459 L13.083,9.227 C12.086,8.387 10.817,7.861 9.416,7.861 C6.260,7.861 3.688,10.431 3.688,13.586 C3.688,16.741 6.260,19.312 9.416,19.312 C12.572,19.312 15.143,16.741 15.143,13.586 C15.143,12.183 14.615,10.912 13.772,9.915 L12.539,11.148 C13.068,11.824 13.397,12.663 13.397,13.586 C13.397,15.782 11.612,17.566 9.416,17.566 ZM11.160,11.149 C10.667,10.795 10.067,10.582 9.416,10.582 C7.759,10.582 6.410,11.930 6.410,13.586 C6.410,15.243 7.759,16.592 9.416,16.592 C11.073,16.592 12.422,15.243 12.422,13.586 C12.422,12.933 12.206,12.331 11.850,11.837 L9.762,13.924 L9.073,13.235 L11.160,11.149 ZM19.731,3.274 L19.237,1.798 L17.467,3.567 L16.763,4.271 L17.250,5.755 L18.727,6.242 L19.439,5.538 L21.208,3.769 L19.731,3.274 Z"/>
</svg>
