<svg xmlns="http://www.w3.org/2000/svg"
 xmlns:xlink="http://www.w3.org/1999/xlink"
 width="0.25in" height="0.319in">
<path fill-rule="evenodd"  opacity="0.78" fill="rgb(215, 0, 34)"
 d="M1.875,23.000 L1.875,21.083 L-0.000,21.083 L-0.000,-0.000 L16.125,-0.000 L16.125,5.591 L18.000,7.508 L18.000,23.000 L1.875,23.000 ZM15.375,0.766 L0.750,0.766 L0.750,20.316 L1.875,20.316 L1.875,1.916 L12.530,1.916 L15.375,4.824 L15.375,0.766 ZM16.125,6.675 L12.750,3.225 L12.750,7.283 L16.720,7.283 L16.125,6.675 ZM17.250,8.050 L12.000,8.050 L12.000,2.683 L2.625,2.683 L2.625,21.083 L2.625,22.233 L17.250,22.233 L17.250,8.050 ZM10.000,6.999 L5.000,6.999 L5.000,6.000 L10.000,6.000 L10.000,6.999 ZM10.000,10.000 L5.000,10.000 L5.000,9.000 L10.000,9.000 L10.000,10.000 ZM15.000,13.000 L5.000,13.000 L5.000,12.000 L15.000,12.000 L15.000,13.000 ZM15.000,16.000 L5.000,16.000 L5.000,15.000 L15.000,15.000 L15.000,16.000 ZM15.000,19.000 L5.000,19.000 L5.000,18.000 L15.000,18.000 L15.000,19.000 Z"/>
</svg>
