<svg version="1.1" xmlns="http://www.w3.org/2000/svg" xmlns:xlink="http://www.w3.org/1999/xlink" preserveAspectRatio="xMinYMax" viewBox="230.0042388364655 214.83838383838378 183.3246111754322 212.48484848484844" width="179.32" height="208.48">
  <defs>
    <path d="M407.19 229.25C403.6 228.04 401.61 227.37 401.21 227.23C399.84 226.75 367.27 216.08 321.86 215.84C321.62 215.84 320.97 215.84 320.73 215.84C320.48 215.84 319.84 215.84 319.6 215.84C274.18 216.08 241.62 226.75 240.24 227.23C239.84 227.37 237.85 228.04 234.26 229.25C233.87 232.99 233.66 235.06 233.62 235.47C233.45 237.01 229.66 273.78 231.52 312.97C232.32 329.45 237.17 345.45 245.98 360.48C252.93 372.36 262.38 383.68 274.02 394.1C293.98 411.96 314.1 421.49 316.36 422.46C317.33 422.95 319.76 423.92 319.84 424C319.89 424.02 320.13 424.13 320.57 424.32C321 424.13 321.24 424.02 321.29 424C321.37 423.92 323.72 422.95 324.77 422.46C326.95 421.41 346.99 411.96 366.95 394.18C378.67 383.76 388.12 372.44 395.15 360.57C404.04 345.54 408.89 329.54 409.7 312.97C411.8 273.78 408 237.01 407.84 235.47C407.75 234.65 407.54 232.57 407.19 229.25Z" id="e8Wi6fXpz">
    </path>
    <path d="M398.14 236.93C398.14 236.93 366.14 226.26 321.7 226.02C321.54 226.02 320.89 226.02 320.73 226.02C320.57 226.02 319.92 226.02 319.76 226.02C275.31 226.26 243.31 236.93 243.31 236.93C243.31 236.93 239.43 274.02 241.29 312.89C244.53 379.88 320.73 414.06 320.73 414.06C320.74 414.06 320.8 414.06 320.81 414.06C320.81 414.06 362.75 395.23 385.7 358.14C380.02 358.14 351.63 358.14 300.53 358.14L268.69 358.14L268.69 326.3L268.69 304.81L251.64 304.81L320.81 242.51L320.81 242.51L320.81 242.51L389.98 304.81L342.38 304.81L320.81 285.41L300.53 303.68L300.53 326.38C359.34 326.38 392.01 326.38 398.55 326.38C399.43 322.02 400 317.58 400.24 312.97C402.1 274.02 398.14 236.93 398.14 236.93" id="a4xDTwv8Yn">
    </path>
    <linearGradient id="gradientbhRlui8hQ" gradientUnits="userSpaceOnUse" x1="239.31" y1="242.74" x2="391.93" y2="349.6">
      <stop style="stop-color: #e63323;stop-opacity: 1" offset="0%"></stop>
      <stop style="stop-color: #e5281e;stop-opacity: 1" offset="13.86%"></stop>
      <stop style="stop-color: #e30613;stop-opacity: 1" offset="30%"></stop>
      <stop style="stop-color: #9c1006;stop-opacity: 1" offset="100%"></stop>
    </linearGradient>
  </defs>
  <g>
    <g>
      <use xlink:href="#e8Wi6fXpz" opacity="1" fill="#ffffff" fill-opacity="1"></use>
      <g>
        <use xlink:href="#e8Wi6fXpz" opacity="1" fill-opacity="0" stroke="#000000" stroke-width="1" stroke-opacity="0"></use>
      </g>
    </g>
    <g>
      <use xlink:href="#a4xDTwv8Yn" opacity="1" fill="url(#gradientbhRlui8hQ)"></use>
      <g>
        <use xlink:href="#a4xDTwv8Yn" opacity="1" fill-opacity="0" stroke="#000000" stroke-width="1" stroke-opacity="0"></use>
      </g>
    </g>
  </g>
</svg>
