<svg xmlns="http://www.w3.org/2000/svg" width="26" height="20.03" viewBox="0 0 26 20.03">
  <metadata><?xpacket begin="﻿" id="W5M0MpCehiHzreSzNTczkc9d"?>
<x:xmpmeta xmlns:x="adobe:ns:meta/" x:xmptk="Adobe XMP Core 5.6-c138 79.159824, 2016/09/14-01:09:01        ">
   <rdf:RDF xmlns:rdf="http://www.w3.org/1999/02/22-rdf-syntax-ns#">
      <rdf:Description rdf:about=""/>
   </rdf:RDF>
</x:xmpmeta>
                                                                                                    
                                                                                                    
                                                                                                    
                                                                                                    
                                                                                                    
                                                                                                    
                                                                                                    
                                                                                                    
                                                                                                    
                                                                                                    
                                                                                                    
                                                                                                    
                                                                                                    
                                                                                                    
                                                                                                    
                                                                                                    
                                                                                                    
                                                                                                    
                                                                                                    
                                                                                                    
                           
<?xpacket end="w"?></metadata>
<defs>
    <style>
      .cls-1 {
        fill: #d70022;
        fill-rule: evenodd;
      }
    </style>
  </defs>
  <path class="cls-1" d="M1233.03,1101.28l-2.71-1.67a0.54,0.54,0,0,0-.74.19,0.571,0.571,0,0,0,.18.77l2.71,1.67a0.555,0.555,0,0,0,.28.07,0.521,0.521,0,0,0,.46-0.27A0.561,0.561,0,0,0,1233.03,1101.28Zm3.25-1.11-2.71-1.67a0.532,0.532,0,0,0-.74.19,0.559,0.559,0,0,0,.18.76l2.71,1.67a0.479,0.479,0,0,0,.28.08,0.521,0.521,0,0,0,.46-0.27A0.561,0.561,0,0,0,1236.28,1100.17Zm3.25-1.11-2.71-1.67a0.524,0.524,0,0,0-.74.19,0.561,0.561,0,0,0,.18.76l2.71,1.67a0.566,0.566,0,0,0,.28.08,0.542,0.542,0,0,0,.46-0.27A0.559,0.559,0,0,0,1239.53,1099.06Zm3.25-1.12-2.71-1.66a0.529,0.529,0,0,0-.74.18,0.571,0.571,0,0,0,.18.77l2.71,1.67a0.566,0.566,0,0,0,.28.08,0.542,0.542,0,0,0,.46-0.27A0.571,0.571,0,0,0,1242.78,1097.94Zm6.21,0.98a0.833,0.833,0,0,0-.04-0.15,0.3,0.3,0,0,0-.04-0.08,0.481,0.481,0,0,0-.09-0.11c-0.02-.02-0.03-0.04-0.04-0.05a0.037,0.037,0,0,0-.03-0.01c-0.01-.01-0.01-0.02-0.02-0.03l-7.59-4.45a0.535,0.535,0,0,0-.43-0.04l-17.33,5.56a0.251,0.251,0,0,0-.07.04,0.06,0.06,0,0,0-.04.01,0.085,0.085,0,0,0-.03.03,0.536,0.536,0,0,0-.15.15,0.053,0.053,0,0,1-.02.03,0.542,0.542,0,0,0-.06.25c0,0.01-.01.01-0.01,0.02v8.9a0.55,0.55,0,0,0,.27.48l7.59,4.45a0.5,0.5,0,0,0,.26.08,0.508,0.508,0,0,0,.17-0.03l17.33-5.56a0.562,0.562,0,0,0,.38-0.53v-8.9C1249,1098.96,1248.99,1098.94,1248.99,1098.92Zm-18.41,13.56-6.5-3.81v-7.62l6.5,3.81v7.62Zm0.61-8.54-6.3-3.7,15.92-5.11,6.3,3.7Zm16.73,3.53-16.25,5.21v-7.73l16.25-5.22v7.74Z" transform="translate(-1223 -1093.97)"/>
</svg>
