<svg xmlns="http://www.w3.org/2000/svg" width="40" height="44" viewBox="0 0 40 44">
  <metadata><?xpacket begin="﻿" id="W5M0MpCehiHzreSzNTczkc9d"?>
<x:xmpmeta xmlns:x="adobe:ns:meta/" x:xmptk="Adobe XMP Core 5.6-c138 79.159824, 2016/09/14-01:09:01        ">
   <rdf:RDF xmlns:rdf="http://www.w3.org/1999/02/22-rdf-syntax-ns#">
      <rdf:Description rdf:about=""/>
   </rdf:RDF>
</x:xmpmeta>
                                                                                                    
                                                                                                    
                                                                                                    
                                                                                                    
                                                                                                    
                                                                                                    
                                                                                                    
                                                                                                    
                                                                                                    
                                                                                                    
                                                                                                    
                                                                                                    
                                                                                                    
                                                                                                    
                                                                                                    
                                                                                                    
                                                                                                    
                                                                                                    
                                                                                                    
                                                                                                    
                           
<?xpacket end="w"?></metadata>
<defs>
    <style>
      .cls-1 {
        fill: #fff;
        stroke: #d70022;
        stroke-linejoin: round;
        stroke-width: 2px;
        fill-rule: evenodd;
      }
    </style>
  </defs>
  <path id="Forma_1" data-name="Forma 1" class="cls-1" d="M281.318,6316.2a7.279,7.279,0,0,0-7.2-6.41,7.185,7.185,0,0,0-4.643,1.72,6.447,6.447,0,0,0-11.427,2.58,6.5,6.5,0,0,0,.45,12.98,6.239,6.239,0,0,0,2.164-.4,6.447,6.447,0,0,0,8.818,1.62,6.451,6.451,0,0,0,10.375-1.89,5.289,5.289,0,0,0,.981.1A5.161,5.161,0,0,0,281.318,6316.2Zm-22.658,18.72s-2,3.25-2,4.36a2,2,0,1,0,3.992,0C260.656,6338.17,258.66,6334.92,258.66,6334.92Zm7.862,9.08a2,2,0,1,0,3.992,0c0-1.1-2-4.36-2-4.36S266.522,6342.9,266.522,6344Zm13.028-9.08s-2,3.25-2,4.36a2,2,0,1,0,3.991,0C281.545,6338.17,279.55,6334.92,279.55,6334.92Z" transform="translate(-249 -6305)"/>
</svg>
