<svg xmlns="http://www.w3.org/2000/svg" width="25" height="25" viewBox="0 0 25 25">
  <metadata><?xpacket begin="﻿" id="W5M0MpCehiHzreSzNTczkc9d"?>
<x:xmpmeta xmlns:x="adobe:ns:meta/" x:xmptk="Adobe XMP Core 5.6-c138 79.159824, 2016/09/14-01:09:01        ">
   <rdf:RDF xmlns:rdf="http://www.w3.org/1999/02/22-rdf-syntax-ns#">
      <rdf:Description rdf:about=""/>
   </rdf:RDF>
</x:xmpmeta>
                                                                                                    
                                                                                                    
                                                                                                    
                                                                                                    
                                                                                                    
                                                                                                    
                                                                                                    
                                                                                                    
                                                                                                    
                                                                                                    
                                                                                                    
                                                                                                    
                                                                                                    
                                                                                                    
                                                                                                    
                                                                                                    
                                                                                                    
                                                                                                    
                                                                                                    
                                                                                                    
                           
<?xpacket end="w"?></metadata>
<defs>
    <style>
      .cls-1 {
        fill: #d70022;
        fill-rule: evenodd;
      }
    </style>
  </defs>
  <path id="Forma_1" data-name="Forma 1" class="cls-1" d="M1442.59,1096.99h-6.17a0.472,0.472,0,0,0-.43.5,0.481,0.481,0,0,0,.43.51h6.17a0.481,0.481,0,0,0,.43-0.51A0.472,0.472,0,0,0,1442.59,1096.99Zm-8.69-5.99H1421v25h25v-25h-12.1Zm-11.9,1h11v11h-11v-11Zm0,23v-11h11v11h-11Zm23,0h-11v-11h11v11Zm-11-12v-11l11.21-.21L1445,1103h-11Zm2.42,8.02h6.17a0.512,0.512,0,0,0,0-1.01h-6.17A0.512,0.512,0,0,0,1436.42,1111.02Zm0-3.02h6.17a0.506,0.506,0,0,0,0-1h-6.17A0.506,0.506,0,0,0,1436.42,1108Zm-5.61-1.85a0.585,0.585,0,0,0-.83,0l-2.49,2.51-2.5-2.51a0.573,0.573,0,0,0-.82,0,0.585,0.585,0,0,0,0,.83l2.5,2.5-2.5,2.51a0.583,0.583,0,1,0,.82.83l2.5-2.51,2.49,2.51a0.591,0.591,0,0,0,.83,0,0.6,0.6,0,0,0,0-.83l-2.5-2.51,2.5-2.5A0.6,0.6,0,0,0,1430.81,1106.15Zm-0.25-9.16h-6.14a0.472,0.472,0,0,0-.43.5,0.481,0.481,0,0,0,.43.51h6.14a0.481,0.481,0,0,0,.43-0.51A0.472,0.472,0,0,0,1430.56,1096.99Zm-2.56,3.57v-6.14a0.481,0.481,0,0,0-.51-0.43,0.472,0.472,0,0,0-.5.43v6.14a0.464,0.464,0,0,0,.5.42A0.474,0.474,0,0,0,1428,1100.56Z" transform="translate(-1421 -1091)"/>
</svg>
