<svg
 xmlns="http://www.w3.org/2000/svg"
 xmlns:xlink="http://www.w3.org/1999/xlink"
 width="48px" height="25px">
<path fill-rule="evenodd"  fill="rgb(215, 0, 34)"
 d="M47.120,7.221 C46.836,7.565 40.092,15.684 33.910,17.043 C33.127,17.214 32.371,17.329 31.651,17.386 C31.670,17.648 31.681,17.918 31.681,18.197 L31.681,18.747 C31.681,22.662 29.725,25.000 26.449,25.000 C23.172,25.000 21.216,22.662 21.216,18.747 L21.216,18.197 C21.216,16.818 21.460,15.636 21.917,14.683 C21.539,14.812 21.146,14.894 20.742,14.929 C20.892,15.398 20.966,15.891 20.966,16.383 L20.966,17.033 L19.073,17.033 L19.073,16.842 C19.073,16.188 18.951,15.282 18.384,14.624 C17.817,14.432 17.246,14.157 16.671,13.797 C16.525,13.782 16.372,13.774 16.208,13.774 C13.541,13.774 12.981,16.178 12.981,18.197 L12.981,18.747 C12.981,20.765 13.541,23.171 16.208,23.171 C18.794,23.171 19.073,21.185 19.073,20.331 L19.073,20.140 L20.966,20.140 L20.966,20.699 C20.966,22.839 19.488,25.000 16.186,25.000 C12.937,25.000 10.998,22.662 10.998,18.747 L10.998,18.197 C10.998,14.963 12.322,12.807 14.613,12.154 C11.367,8.806 10.007,1.681 9.949,1.368 L9.693,-0.000 L11.063,0.084 C11.389,0.104 19.082,0.614 22.610,3.769 C23.300,4.386 23.854,5.002 24.293,5.609 C25.654,3.955 27.818,2.791 30.733,2.151 C31.500,1.982 32.355,1.897 33.275,1.897 C39.213,1.897 46.457,5.399 46.763,5.548 L48.000,6.152 L47.120,7.221 ZM21.197,5.396 C19.174,3.586 14.948,2.715 12.371,2.390 C12.936,4.643 14.254,8.971 16.415,10.904 C17.789,12.133 19.128,12.782 20.286,12.782 L20.286,12.782 C20.792,12.782 21.266,12.660 21.702,12.418 L16.122,5.520 L22.780,10.840 C22.656,9.745 22.765,8.699 23.097,7.731 C22.712,6.967 22.078,6.183 21.197,5.396 ZM24.234,14.648 C23.419,15.530 23.199,16.939 23.199,18.197 L23.199,18.747 C23.199,20.765 23.763,23.171 26.449,23.171 C29.135,23.171 29.698,20.765 29.698,18.747 L29.698,18.747 L29.698,18.197 C29.698,17.933 29.688,17.662 29.666,17.391 C27.302,17.194 25.438,16.240 24.234,14.648 ZM33.275,4.065 C32.507,4.065 31.804,4.134 31.185,4.270 C28.686,4.819 26.827,5.814 25.811,7.149 C25.006,8.205 24.714,9.455 24.940,10.869 L37.957,8.324 L25.582,12.790 C26.489,14.414 28.195,15.262 30.604,15.262 C31.474,15.262 32.434,15.148 33.458,14.923 C37.686,13.994 42.518,9.120 44.527,6.915 C42.224,5.933 37.311,4.065 33.275,4.065 ZM10.465,19.329 L1.990,19.329 C2.108,21.939 3.244,23.262 5.368,23.262 C7.582,23.262 8.573,21.952 8.573,20.653 L8.573,20.462 L10.465,20.462 L10.465,20.745 C10.465,22.859 8.714,24.999 5.368,24.999 C2.007,24.999 -0.000,22.654 -0.000,18.725 L-0.000,18.219 C-0.000,14.290 1.964,11.945 5.255,11.945 C8.517,11.945 10.465,14.290 10.465,18.219 L10.465,19.329 ZM5.232,13.681 C2.724,13.681 2.075,15.775 1.990,17.615 L8.473,17.615 C8.372,15.774 7.712,13.681 5.232,13.681 Z"/>
</svg>
