<?xml version="1.0" encoding="UTF-8"?>
<!DOCTYPE svg PUBLIC "-//W3C//DTD SVG 1.1//EN" "http://www.w3.org/Graphics/SVG/1.1/DTD/svg11.dtd">
<!-- Creator: CorelDRAW X7 -->
<svg xmlns="http://www.w3.org/2000/svg" xml:space="preserve" width="120.316mm" height="92.393mm" version="1.1" style="shape-rendering:geometricPrecision; text-rendering:geometricPrecision; image-rendering:optimizeQuality; fill-rule:evenodd; clip-rule:evenodd"
viewBox="0 0 12032 9239"
 xmlns:xlink="http://www.w3.org/1999/xlink">
 <defs>
  <style type="text/css">
   <![CDATA[
    .fil0 {fill:#BCBCBC;fill-rule:nonzero}
   ]]>
  </style>
 </defs>
 <g id="Слой_x0020_1">
  <metadata id="CorelCorpID_0Corel-Layer"/>
  <path class="fil0" d="M7794 9093c-195,195 -511,195 -707,0 -195,-195 -195,-512 0,-707l3267 -3267 -9854 0c-276,0 -500,-224 -500,-500 0,-276 224,-500 500,-500l9853 0 -3266 -3266c-195,-195 -195,-511 0,-707 196,-195 512,-195 707,0l4071 4071c53,53 94,116 122,184 14,34 25,69 32,106 18,80 17,165 -5,245 -7,27 -16,55 -27,82 -29,72 -70,137 -122,189l-4071 4070z"/>
 </g>
</svg>
