<?xml version="1.0" encoding="UTF-8"?>
<!DOCTYPE svg PUBLIC "-//W3C//DTD SVG 1.1//EN" "http://www.w3.org/Graphics/SVG/1.1/DTD/svg11.dtd">
<!-- Creator: CorelDRAW X7 -->
<svg xmlns="http://www.w3.org/2000/svg" xml:space="preserve" version="1.1" style="shape-rendering:geometricPrecision; text-rendering:geometricPrecision; image-rendering:optimizeQuality; fill-rule:evenodd; clip-rule:evenodd"
viewBox="0 0 4283 6531"
 xmlns:xlink="http://www.w3.org/1999/xlink">
 <defs>
  <style type="text/css">
   <![CDATA[
    .fil0 {fill:#C4161C;fill-rule:nonzero}
   ]]>
  </style>
 </defs>
 <g id="Слой_x0020_1">
  <metadata id="CorelCorpID_0Corel-Layer"/>
  <path class="fil0" d="M2292 4617c0,83 -68,150 -150,150 -83,0 -150,-67 -150,-150l0 -1704 -570 -570c-59,-59 -59,-154 0,-212 58,-59 153,-59 212,0l508 508 507 -508c59,-59 154,-59 212,0 59,58 59,153 0,212l-569 570 0 1704zm976 1148c-22,88 -63,171 -124,233 -64,64 -147,104 -249,104l-169 0c-32,102 -91,193 -167,265 -110,102 -257,164 -417,164 -161,0 -308,-62 -418,-164 -76,-72 -135,-163 -167,-265l-169 0c-104,0 -196,-42 -264,-110l0 0c-68,-68 -120,-181 -115,-278 2,-477 3,-953 5,-1430 -2,-70 -44,-162 -102,-258 -100,-166 -244,-327 -321,-407 -186,-196 -336,-427 -438,-682 -99,-247 -153,-515 -153,-795 0,-592 240,-1127 627,-1515 388,-387 923,-627 1515,-627 591,0 1126,240 1514,627 387,388 627,923 627,1515 0,280 -54,548 -153,795 -102,255 -252,486 -438,682 -26,27 -62,60 -102,96 -130,119 -311,285 -316,482l1 908 0 617c0,15 -2,29 -7,43zm-336 21c19,-19 33,-49 43,-83l0 -448 -1666 0 -1 460c1,25 11,48 28,65 -7,6 42,22 52,22l1507 0c15,0 27,-7 37,-16zm-537 316l-507 0c12,16 25,32 40,46 56,51 131,83 214,83 82,0 157,-32 213,-83 15,-14 28,-30 40,-46zm-1085 -1147l1665 0 0 -761c6,-326 243,-543 414,-699 32,-30 61,-56 86,-83 160,-168 290,-367 377,-587 85,-210 131,-441 131,-683 0,-509 -206,-969 -539,-1303 -333,-333 -794,-539 -1302,-539 -509,0 -969,206 -1303,539 -333,334 -539,794 -539,1303 0,242 46,473 131,683 88,220 217,419 377,587 86,91 246,271 361,460 81,134 141,276 144,406l-3 677z"/>
 </g>
</svg>
