<svg xmlns="http://www.w3.org/2000/svg" width="23" height="23" viewBox="0 0 23 23">
  <metadata><?xpacket begin="﻿" id="W5M0MpCehiHzreSzNTczkc9d"?>
<x:xmpmeta xmlns:x="adobe:ns:meta/" x:xmptk="Adobe XMP Core 5.6-c142 79.160924, 2017/07/13-01:06:39        ">
   <rdf:RDF xmlns:rdf="http://www.w3.org/1999/02/22-rdf-syntax-ns#">
      <rdf:Description rdf:about=""/>
   </rdf:RDF>
</x:xmpmeta>
                                                                                                    
                                                                                                    
                                                                                                    
                                                                                                    
                                                                                                    
                                                                                                    
                                                                                                    
                                                                                                    
                                                                                                    
                                                                                                    
                                                                                                    
                                                                                                    
                                                                                                    
                                                                                                    
                                                                                                    
                                                                                                    
                                                                                                    
                                                                                                    
                                                                                                    
                                                                                                    
                           
<?xpacket end="w"?></metadata>
<defs>
    <style>
      .cls-1 {
        fill: #d70022;
        fill-rule: evenodd;
      }
    </style>
  </defs>
  <path id="Forma_1_copy" data-name="Forma 1 copy" class="cls-1" d="M860.539,1289.77h-2.708v-2.71a0.542,0.542,0,1,0-1.083,0v2.71H854.04a0.539,0.539,0,0,0-.541.54,0.548,0.548,0,0,0,.541.55h2.708v2.71a0.542,0.542,0,0,0,1.083,0v-2.71h2.708a0.548,0.548,0,0,0,.541-0.55A0.539,0.539,0,0,0,860.539,1289.77Zm9.142,11.38-4.4-4.36a10.244,10.244,0,1,0-1.532,1.54l4.4,4.35A1.082,1.082,0,0,0,869.681,1301.15Zm-12.391-2.7a8.14,8.14,0,1,1,8.123-8.14A8.14,8.14,0,0,1,857.29,1298.45Z" transform="translate(-847 -1280)"/>
</svg>
