<?xml version="1.0" encoding="UTF-8"?>
<!DOCTYPE svg PUBLIC "-//W3C//DTD SVG 1.1//EN" "http://www.w3.org/Graphics/SVG/1.1/DTD/svg11.dtd">
<!-- Creator: CorelDRAW X7 -->
<svg xmlns="http://www.w3.org/2000/svg" xml:space="preserve" width="82.316mm" height="97.096mm" version="1.1" style="shape-rendering:geometricPrecision; text-rendering:geometricPrecision; image-rendering:optimizeQuality; fill-rule:evenodd; clip-rule:evenodd"
viewBox="0 0 8232 9710"
 xmlns:xlink="http://www.w3.org/1999/xlink">
 <defs>
  <style type="text/css">
   <![CDATA[
    .fil0 {fill:#D70022}
    .fil1 {fill:white}
   ]]>
  </style>
 </defs>
 <g id="Слой_x0020_1">
  <metadata id="CorelCorpID_0Corel-Layer"/>
  <path class="fil0" d="M8117 584c0,0 -1664,-539 -3956,-584l0 0 -45 0 0 0 0 0 -45 0 0 0c-2293,0 -3956,584 -3956,584 0,0 -180,1933 -90,3911 180,3371 3911,5170 4091,5215l0 0 0 0c0,0 0,0 0,0 0,0 0,0 0,0l0 0 0 0c180,-90 3911,-1843 4090,-5215 90,-1978 -89,-3911 -89,-3911z"/>
  <polygon id="Forma_1_copy_18" class="fil1" points="4015,4815 3157,3934 2727,4384 3835,5525 3835,5525 4025,5722 5788,3676 5350,3218 " data-name="Forma 1 copy 18"/>
 </g>
</svg>
