<svg xmlns="http://www.w3.org/2000/svg" width="36" height="37" viewBox="0 0 36 37">
  <metadata><?xpacket begin="﻿" id="W5M0MpCehiHzreSzNTczkc9d"?>
<x:xmpmeta xmlns:x="adobe:ns:meta/" x:xmptk="Adobe XMP Core 5.6-c142 79.160924, 2017/07/13-01:06:39        ">
   <rdf:RDF xmlns:rdf="http://www.w3.org/1999/02/22-rdf-syntax-ns#">
      <rdf:Description rdf:about=""/>
   </rdf:RDF>
</x:xmpmeta>
                                                                                                    
                                                                                                    
                                                                                                    
                                                                                                    
                                                                                                    
                                                                                                    
                                                                                                    
                                                                                                    
                                                                                                    
                                                                                                    
                                                                                                    
                                                                                                    
                                                                                                    
                                                                                                    
                                                                                                    
                                                                                                    
                                                                                                    
                                                                                                    
                                                                                                    
                                                                                                    
                           
<?xpacket end="w"?></metadata>
<defs>
    <style>
      .cls-1 {
        fill: #d70022;
        fill-rule: evenodd;
      }
    </style>
  </defs>
  <path class="cls-1" d="M309.716,589.075v-2.168a14.691,14.691,0,0,0-9.015-13.531v-0.655a0.723,0.723,0,0,0-.724-0.721h-9.956a0.722,0.722,0,0,0-.723.721v0.656a14.674,14.674,0,0,0-9.013,13.53v2.168A4.325,4.325,0,0,0,277,593.263v4.464a4.326,4.326,0,0,0,4.326,4.314h0.63a1.962,1.962,0,0,0,3.66-.978V589.926a1.96,1.96,0,0,0-1.962-1.957,1.972,1.972,0,0,0-1.7.979h-0.225v-2.041a13.23,13.23,0,0,1,7.809-12.061,2.1,2.1,0,0,0,1.85,1.112h7.218a2.1,2.1,0,0,0,1.85-1.113,13.244,13.244,0,0,1,7.81,12.062v2.041h-0.225a1.963,1.963,0,0,0-3.086-.4,1.942,1.942,0,0,0-.574,1.383v11.137a1.954,1.954,0,0,0,.938,1.666,6.567,6.567,0,0,1-4.862,2.945,2.54,2.54,0,0,0-.644-1.068,2.567,2.567,0,0,0-1.827-.756H296.67a2.581,2.581,0,0,0-2.582,2.575A2.581,2.581,0,0,0,296.67,609h1.319a2.585,2.585,0,0,0,2.486-1.879,8.015,8.015,0,0,0,6.4-4.173,1.983,1.983,0,0,0,1.174-.907h0.629A4.326,4.326,0,0,0,313,597.727v-4.464A4.325,4.325,0,0,0,309.716,589.075Zm-26.578.851h0a0.539,0.539,0,0,1,.011-0.107,0.516,0.516,0,0,1,.869-0.256,0.511,0.511,0,0,1,.151.363v11.137a0.516,0.516,0,0,1-1.02.107,0.547,0.547,0,0,1-.011-0.107V589.926h0ZM281.691,600.6h-0.365a2.879,2.879,0,0,1-2.879-2.871v-4.464a2.879,2.879,0,0,1,2.879-2.872h0.365V600.6Zm17.563-26.726a0.644,0.644,0,0,1-.645.643h-7.218a0.646,0.646,0,0,1-.646-0.643v-0.429h8.509v0.429Zm-2.63,33.683a1.13,1.13,0,0,1,0-2.259v2.259h0Zm1.447,0V605.3a1.133,1.133,0,0,1,1.053,1.128A1.133,1.133,0,0,1,298.071,607.553Zm8.792-6.49h0a0.565,0.565,0,0,1-.011.108,0.516,0.516,0,0,1-1.021-.108V589.926a0.506,0.506,0,0,1,.15-0.362,0.517,0.517,0,0,1,.871.255,0.547,0.547,0,0,1,.011.107v11.137h0Zm4.69-3.336a2.879,2.879,0,0,1-2.879,2.871H308.31V590.391h0.364a2.879,2.879,0,0,1,2.879,2.872v4.464Z" transform="translate(-277 -572)"/>
</svg>
