<?xml version="1.0" encoding="UTF-8"?>
<!DOCTYPE svg PUBLIC "-//W3C//DTD SVG 1.1//EN" "http://www.w3.org/Graphics/SVG/1.1/DTD/svg11.dtd">
<!-- Creator: CorelDRAW 2017 -->
<svg xmlns="http://www.w3.org/2000/svg" xml:space="preserve" width="37.83mm" height="31.539mm" version="1.1" style="shape-rendering:geometricPrecision; text-rendering:geometricPrecision; image-rendering:optimizeQuality; fill-rule:evenodd; clip-rule:evenodd"
viewBox="0 0 3783 3153.9"
 xmlns:xlink="http://www.w3.org/1999/xlink">
 <defs>
  <style type="text/css">
   <![CDATA[
    .fil0 {fill:#D80021;fill-rule:nonzero}
   ]]>
  </style>
 </defs>
 <g id="Слой_x0020_1">
  <metadata id="CorelCorpID_0Corel-Layer"/>
  <path class="fil0" d="M594.83 1654.46c31.96,-22.06 75.78,-14.04 97.84,17.92 22.06,31.96 14.04,75.78 -17.92,97.84l-564.45 388.04c-31.96,22.06 -75.78,14.04 -97.84,-17.92 -22.06,-31.96 -14.04,-75.78 17.92,-97.84l564.45 -388.04zm2773.87 -1437.04l-3055.68 664.54 967.39 744.03 2088.29 -1408.57zm-3233.62 558.96c1184.75,-257.65 2382.31,-502.4 3562.59,-774.77 27.32,-5.89 56.73,4.91 73.31,29.49 17.31,25.67 15.47,58.66 -2.27,82.03l-2050.43 3010.1c-9.11,13.24 -22.71,23.5 -39.41,28.11 -37.44,10.34 -76.2,-11.62 -86.54,-49.06l-376.25 -1348.3 -1105.43 -850.2c-14.6,-9.81 -25.59,-25.06 -29.59,-43.62 -8.21,-38.05 15.97,-75.57 54.02,-83.78zm1223.98 966.56l328.12 1175.83 1760.65 -2584.69 -2088.77 1408.86zm-445.91 87.08c32.41,-21.61 76.23,-12.85 97.84,19.56 21.61,32.41 12.85,76.23 -19.56,97.84l-423.34 282.22c-32.41,21.61 -76.23,12.85 -97.84,-19.56 -21.61,-32.41 -12.85,-76.23 19.56,-97.84l423.34 -282.22zm76.64 320.53c30.74,-23.74 74.92,-18.06 98.66,12.68 23.74,30.74 18.06,74.92 -12.68,98.66l-821.33 635c-30.74,23.74 -74.92,18.06 -98.66,-12.68 -23.74,-30.74 -18.06,-74.92 12.68,-98.66l821.33 -635z"/>
 </g>
</svg>
