<?xml version="1.0" encoding="UTF-8"?>
<!DOCTYPE svg PUBLIC "-//W3C//DTD SVG 1.1//EN" "http://www.w3.org/Graphics/SVG/1.1/DTD/svg11.dtd">
<!-- Creator: CorelDRAW 2017 -->
<svg xmlns="http://www.w3.org/2000/svg" xml:space="preserve" width="16.084mm" height="17.363mm" version="1.1" style="shape-rendering:geometricPrecision; text-rendering:geometricPrecision; image-rendering:optimizeQuality; fill-rule:evenodd; clip-rule:evenodd"
viewBox="0 0 1608.4 1736.3"
 xmlns:xlink="http://www.w3.org/1999/xlink">
 <defs>
  <style type="text/css">
   <![CDATA[
    .fil0 {fill:#d70022;fill-rule:nonzero}
   ]]>
  </style>
 </defs>
 <g id="Слой_x0020_1">
  <metadata id="CorelCorpID_0Corel-Layer"/>
  <path class="fil0" d="M804.21 1494.91l699.52 0 0 -115.81 -1399.04 0 0 115.81 699.52 0zm486.71 65l0 93.89c0,9.87 7.74,17.5 17.5,17.5l177.81 0c9.57,0 17.5,-7.93 17.5,-17.5l0 -93.89 -212.81 0zm-65 0l-843.42 0 0 93.89c0,22.71 -9.29,43.35 -24.22,58.28 -14.93,14.93 -35.57,24.22 -58.28,24.22l-177.81 0c-22.71,0 -43.35,-9.29 -58.28,-24.22 -14.92,-15.06 -24.22,-35.68 -24.22,-58.28l0 -577.3c0,-47.32 19.4,-90.42 50.66,-121.72l6.46 -6.14 -0.08 -111.53 64.74 0 0.05 74.56c16.04,-4.99 33.07,-7.67 50.67,-7.67l65.63 0 0 -318.41c0,-74.96 30.66,-143.1 80.03,-192.47 49.37,-49.37 117.51,-80.03 192.47,-80.03l507.78 0c74.96,0 143.1,30.66 192.47,80.03 49.37,49.37 80.03,117.51 80.03,192.47l0 318.41 65.63 0c17.61,0 34.63,2.67 50.67,7.64l0.05 -74.53 64.74 0 -0.08 111.42 6.46 6.13c31.23,31.37 50.66,74.49 50.66,121.84l0 577.3c0,22.71 -9.29,43.35 -24.22,58.28 -14.93,14.93 -35.57,24.22 -58.28,24.22l-177.81 0c-22.71,0 -43.35,-9.29 -58.28,-24.22 -14.92,-15.06 -24.22,-35.68 -24.22,-58.28l0 -93.89zm221.03 -1154.95l-0.42 -302.46c-0.01,-10.24 -4.27,-19.65 -11.13,-26.54 -6.85,-6.73 -16.22,-10.96 -26.5,-10.96l-1209.38 0c-10.28,0 -19.65,4.23 -26.44,11.02 -6.91,6.82 -11.18,16.24 -11.19,26.48l-0.42 302.46 -64.74 0 0.42 -302.46c0.04,-28.23 11.53,-53.83 29.99,-72.3l0 -0.12c18.55,-18.55 44.18,-30.08 72.38,-30.08l1209.38 0c28.2,0 53.83,11.53 72.38,30.08l0 0.12c18.46,18.47 29.95,44.07 29.99,72.3l0.42 302.46 -64.74 0zm-388.85 -26.87l-507.78 0c-57.04,0 -108.92,23.36 -146.53,60.97 -37.61,37.61 -60.97,89.49 -60.97,146.53l0 158.99c153.72,18.09 307.53,27.14 461.39,27.14 153.86,0 307.67,-9.05 461.39,-27.14l0 -158.99c0,-57.04 -23.36,-108.92 -60.97,-146.53 -37.61,-37.61 -89.49,-60.97 -146.53,-60.97zm207.5 558.41l0 -126.53c-153.85,17.82 -307.66,26.75 -461.39,26.75 -153.73,0 -307.54,-8.93 -461.39,-26.75l0 159.03 -130.63 0c-29.62,0 -56.49,12.06 -75.9,31.48l-0.12 0.12c-19.42,19.41 -31.48,46.28 -31.48,75.9l0 237.6 1399.04 0 0 -237.6c0,-29.62 -12.06,-56.49 -31.48,-75.9l-0.12 0c-19.49,-19.49 -46.37,-31.6 -75.9,-31.6l-130.63 0 0 -32.5zm270.33 -430.52l-56.72 0c-2.06,0 -3.93,0.8 -5.28,2.09l-0.12 0.12c-1.29,1.35 -2.09,3.22 -2.09,5.28l0 224.29c0,2.04 0.86,3.92 2.21,5.27 1.36,1.36 3.24,2.22 5.28,2.22l56.72 0c2.1,0 3.99,-0.82 5.27,-2.1l0.12 -0.12c1.28,-1.28 2.1,-3.17 2.1,-5.27l0 -224.29c0,-2.04 -0.86,-3.92 -2.22,-5.28 -1.35,-1.35 -3.23,-2.21 -5.27,-2.21zm-56.72 -65l56.72 0c19.96,0 38.1,8.16 51.21,21.27 13.12,13.12 21.28,31.26 21.28,51.22l0 224.29c0,19.82 -8.15,37.92 -21.28,51.09l-0.12 0.12c-13.17,13.13 -31.27,21.28 -51.09,21.28l-56.72 0c-19.96,0 -38.1,-8.16 -51.22,-21.28 -13.11,-13.11 -21.27,-31.25 -21.27,-51.21l0 -224.29c0,-19.87 8.16,-37.97 21.27,-51.1l0.12 -0.12c13.13,-13.11 31.23,-21.27 51.1,-21.27zm-675 749.65l183.72 0c4.78,0 9.16,-1.98 12.34,-5.16 3.18,-3.18 5.16,-7.56 5.16,-12.34l0 -186.63c0,-4.78 -1.98,-9.16 -5.16,-12.34l0 -0.12c-3.1,-3.1 -7.48,-5.04 -12.34,-5.04l-367.44 0c-4.86,0 -9.24,1.94 -12.34,5.04l-0.12 0.12c-3.1,3.1 -5.04,7.48 -5.04,12.34l0 186.63c0,4.86 1.94,9.24 5.04,12.34l0.12 0c3.18,3.18 7.56,5.16 12.34,5.16l183.72 0zm183.72 65l-367.44 0c-22.71,0 -43.35,-9.29 -58.28,-24.22 -14.92,-15.06 -24.22,-35.68 -24.22,-58.28l0 -186.63c0,-22.57 9.28,-43.18 24.22,-58.16l0.12 -0.12c14.98,-14.94 35.59,-24.22 58.16,-24.22l367.44 0c22.6,0 43.22,9.3 58.22,24.28 14.99,14.87 24.28,35.51 24.28,58.22l0 186.63c0,22.71 -9.29,43.35 -24.22,58.28 -14.93,14.93 -35.57,24.22 -58.28,24.22zm367.19 -145.52l-131.67 0c-2.04,0 -3.92,0.86 -5.28,2.22 -1.36,1.36 -2.22,3.24 -2.22,5.28l0 65.52c0,2.04 0.86,3.92 2.22,5.28 1.36,1.36 3.24,2.22 5.28,2.22l131.67 0c2.04,0 3.92,-0.86 5.28,-2.22 1.36,-1.36 2.22,-3.24 2.22,-5.28l0 -65.52c0,-2.04 -0.86,-3.92 -2.22,-5.28 -1.36,-1.36 -3.24,-2.22 -5.28,-2.22zm-131.67 -65l131.67 0c19.96,0 38.1,8.16 51.22,21.28 13.12,13.12 21.28,31.26 21.28,51.22l0 65.52c0,19.96 -8.16,38.1 -21.28,51.22 -13.12,13.12 -31.26,21.28 -51.22,21.28l-131.67 0c-19.96,0 -38.1,-8.16 -51.22,-21.28 -13.12,-13.12 -21.28,-31.26 -21.28,-51.22l0 -65.52c0,-19.96 8.16,-38.1 21.28,-51.22 13.12,-13.12 31.26,-21.28 51.22,-21.28zm-905.95 514.8l-212.81 0 0 93.89c0,9.42 8.31,17.5 17.5,17.5l177.81 0c9.57,0 17.5,-7.93 17.5,-17.5l0 -93.89zm-245.01 -1118.93l56.72 0c19.96,0 38.1,8.16 51.21,21.27 13.12,13.12 21.28,31.26 21.28,51.22l0 224.29c0,19.82 -8.15,37.92 -21.28,51.09l-0.12 0.12c-13.17,13.13 -31.27,21.28 -51.09,21.28l-56.72 0c-19.96,0 -38.1,-8.16 -51.22,-21.28 -13.11,-13.11 -21.27,-31.25 -21.27,-51.21l0 -224.29c0,-19.87 8.16,-37.97 21.27,-51.1l0.12 -0.12c13.13,-13.11 31.23,-21.27 51.1,-21.27zm56.72 65l-56.72 0c-2.06,0 -3.93,0.8 -5.28,2.09l-0.12 0.12c-1.29,1.35 -2.09,3.22 -2.09,5.28l0 224.29c0,2.04 0.86,3.92 2.21,5.27 1.36,1.36 3.24,2.22 5.28,2.22l56.72 0c2.1,0 3.99,-0.82 5.27,-2.1l0.12 -0.12c1.28,-1.28 2.1,-3.17 2.1,-5.27l0 -224.29c0,-2.04 -0.86,-3.92 -2.22,-5.28 -1.35,-1.35 -3.23,-2.21 -5.27,-2.21zm124.09 539.13l131.67 0c19.96,0 38.1,8.16 51.22,21.28 13.12,13.12 21.28,31.26 21.28,51.22l0 65.52c0,19.96 -8.16,38.1 -21.28,51.22 -13.12,13.12 -31.26,21.28 -51.22,21.28l-131.67 0c-19.96,0 -38.1,-8.16 -51.22,-21.28 -13.12,-13.12 -21.28,-31.26 -21.28,-51.22l0 -65.52c0,-19.96 8.16,-38.1 21.28,-51.22 13.12,-13.12 31.26,-21.28 51.22,-21.28zm131.67 65l-131.67 0c-2.04,0 -3.92,0.86 -5.28,2.22 -1.36,1.36 -2.22,3.24 -2.22,5.28l0 65.52c0,2.04 0.86,3.92 2.22,5.28 1.36,1.36 3.24,2.22 5.28,2.22l131.67 0c2.04,0 3.92,-0.86 5.28,-2.22 1.36,-1.36 2.22,-3.24 2.22,-5.28l0 -65.52c0,-2.04 -0.86,-3.92 -2.22,-5.28 -1.36,-1.36 -3.24,-2.22 -5.28,-2.22z"/>
 </g>
</svg>
