<?xml version="1.0" encoding="UTF-8"?>
<!DOCTYPE svg PUBLIC "-//W3C//DTD SVG 1.1//EN" "http://www.w3.org/Graphics/SVG/1.1/DTD/svg11.dtd">
<!-- Creator: CorelDRAW 2017 -->
<svg xmlns="http://www.w3.org/2000/svg" xml:space="preserve" width="12.795mm" height="17.683mm" version="1.1" style="shape-rendering:geometricPrecision; text-rendering:geometricPrecision; image-rendering:optimizeQuality; fill-rule:evenodd; clip-rule:evenodd"
viewBox="0 0 1279.5 1768.3"
 xmlns:xlink="http://www.w3.org/1999/xlink">
 <defs>
  <style type="text/css">
   <![CDATA[
    .fil0 {fill:#d70022;fill-rule:nonzero}
   ]]>
  </style>
 </defs>
 <g id="Слой_x0020_1">
  <metadata id="CorelCorpID_0Corel-Layer"/>
  <path class="fil0" d="M439.42 -0.04c33.78,0 64.47,13.78 86.77,36.01l0.12 0.12c20.9,20.96 34.33,49.34 35.86,80.72l154.5 0c1.54,-31.41 14.98,-59.83 35.92,-80.78 22.18,-22.3 52.91,-36.07 86.83,-36.07 33.78,0 64.47,13.78 86.77,36.01l0.12 0.12c20.91,20.94 34.32,49.34 35.86,80.72l30.14 0c66.55,0 127.15,27.28 171.16,71.22l0.12 0.12c43.94,44.01 71.22,104.61 71.22,171.16l0 999.94c0,66.58 -27.3,127.21 -71.28,171.22 -14.43,14.55 -30.74,27.23 -48.49,37.72 33.07,23.16 61.54,46.08 85.42,68.79 36.41,34.61 62.78,69.18 79.06,103.64l-58.64 27.68c-12.84,-27.19 -34.56,-55.33 -65.1,-84.36 -30.08,-28.6 -68.23,-57.69 -114.4,-87.21 -15.86,3.29 -32.27,5.02 -49.07,5.02l-713.3 0c-14.58,0 -28.88,-1.3 -42.77,-3.8 -45.32,29.1 -82.83,57.78 -112.5,85.99 -30.54,29.03 -52.26,57.17 -65.1,84.36l-58.64 -27.68c16.28,-34.47 42.65,-69.03 79.06,-103.64 22.99,-21.85 50.23,-43.92 81.72,-66.19 -19.49,-10.97 -37.34,-24.55 -53.05,-40.26 -43.93,-43.93 -71.22,-104.57 -71.22,-171.28l0 -999.94c0,-66.71 27.29,-127.35 71.22,-171.28 44.07,-43.92 104.7,-71.22 171.28,-71.22l37.66 0c1.54,-31.41 14.99,-59.82 35.92,-80.78 22.18,-22.3 52.91,-36.07 86.83,-36.07zm40.95 81.83c-10.38,-10.39 -24.87,-16.83 -40.95,-16.83 -16,0 -30.49,6.49 -40.95,16.95l-0.12 0c-10.39,10.38 -16.83,24.87 -16.83,40.95 0,16 6.49,30.49 16.95,40.95 10.46,10.46 24.95,16.95 40.95,16.95 16.08,0 30.57,-6.44 40.95,-16.83l0 -0.12c10.46,-10.46 16.95,-24.95 16.95,-40.95 0,-16.08 -6.44,-30.57 -16.83,-40.95l-0.12 -0.12zm66.9 100.02c-5.65,10.3 -12.72,19.7 -20.96,27.94 -22.36,22.21 -53.08,36.01 -86.89,36.01 -33.92,0 -64.65,-13.77 -86.89,-36.01 -8.24,-8.24 -15.31,-17.64 -20.96,-27.94l-52.56 0c-48.87,0 -93.25,19.94 -125.34,52.04l0 0.12c-32.17,32.17 -52.16,76.56 -52.16,125.34l0 999.94c0,48.78 19.99,93.17 52.16,125.34 32.17,32.17 76.56,52.16 125.34,52.16l713.3 0c48.78,0 93.17,-19.99 125.34,-52.16l0.12 0c32.1,-32.09 52.04,-76.47 52.04,-125.34l0 -999.94c0,-48.87 -19.93,-93.24 -52.04,-125.34l-0.12 -0.12c-32.1,-32.11 -76.47,-52.04 -125.34,-52.04l-45.04 0c-5.65,10.3 -12.72,19.7 -20.96,27.94 -22.36,22.21 -53.08,36.01 -86.89,36.01 -33.92,0 -64.65,-13.77 -86.89,-36.01 -8.24,-8.24 -15.31,-17.64 -20.96,-27.94l-184.3 0zm-292.74 292.19l108.3 0 0 -83.02c0,-17.12 7.05,-32.73 18.34,-44.04l0 -0.12c11.32,-11.32 26.96,-18.34 44.16,-18.34l438.3 0c17.2,0 32.84,7.02 44.16,18.34 11.32,11.32 18.34,26.96 18.34,44.16l0 83.02 99.48 0c19.96,0 38.1,8.16 51.22,21.28 13.12,13.12 21.28,31.26 21.28,51.22l0 338.93c0,19.96 -8.16,38.1 -21.28,51.22 -13.12,13.12 -31.26,21.28 -51.22,21.28l-771.08 0c-19.96,0 -38.1,-8.16 -51.22,-21.28 -13.12,-13.12 -21.28,-31.26 -21.28,-51.22l0 -338.93c0,-19.96 8.16,-38.1 21.28,-51.22 13.12,-13.12 31.26,-21.28 51.22,-21.28zm173.3 0l433.3 0 0 -80.52 -433.3 0 0 80.52zm597.78 65l-771.08 0c-2.04,0 -3.92,0.86 -5.28,2.22 -1.36,1.36 -2.22,3.24 -2.22,5.28l0 338.93c0,2.04 0.86,3.92 2.22,5.28 1.36,1.36 3.24,2.22 5.28,2.22l771.08 0c2.04,0 3.92,-0.86 5.28,-2.22 1.36,-1.36 2.22,-3.24 2.22,-5.28l0 -338.93c0,-2.04 -0.86,-3.92 -2.22,-5.28 -1.36,-1.36 -3.24,-2.22 -5.28,-2.22zm-705.25 596.47c40.62,0 77.41,16.48 104.04,43.11 26.63,26.63 43.11,63.42 43.11,104.04 0,40.62 -16.48,77.41 -43.11,104.04 -26.63,26.63 -63.42,43.11 -104.04,43.11 -40.62,0 -77.41,-16.48 -104.04,-43.11 -26.63,-26.63 -43.11,-63.42 -43.11,-104.04 0,-40.62 16.48,-77.41 43.11,-104.04 26.63,-26.63 63.42,-43.11 104.04,-43.11zm58.1 89.05c-14.85,-14.85 -35.4,-24.05 -58.1,-24.05 -22.7,0 -43.25,9.2 -58.1,24.05 -14.85,14.85 -24.05,35.4 -24.05,58.1 0,22.7 9.2,43.25 24.05,58.1 14.85,14.85 35.4,24.05 58.1,24.05 22.7,0 43.25,-9.2 58.1,-24.05 14.85,-14.85 24.05,-35.4 24.05,-58.1 0,-22.7 -9.2,-43.25 -24.05,-58.1zm501.91 -1142.73c-10.38,-10.39 -24.87,-16.83 -40.95,-16.83 -16,0 -30.49,6.49 -40.95,16.95l-0.12 0c-10.39,10.38 -16.83,24.87 -16.83,40.95 0,16 6.49,30.49 16.95,40.95 10.46,10.46 24.95,16.95 40.95,16.95 16.08,0 30.57,-6.44 40.95,-16.83l0 -0.12c10.46,-10.46 16.95,-24.95 16.95,-40.95 0,-16.08 -6.44,-30.57 -16.83,-40.95l-0.12 -0.12zm79.99 1053.68c40.62,0 77.41,16.48 104.04,43.11 26.63,26.63 43.11,63.42 43.11,104.04 0,40.62 -16.48,77.41 -43.11,104.04 -26.63,26.63 -63.42,43.11 -104.04,43.11 -40.62,0 -77.41,-16.48 -104.04,-43.11 -26.63,-26.63 -43.11,-63.42 -43.11,-104.04 0,-40.62 16.48,-77.41 43.11,-104.04 26.63,-26.63 63.42,-43.11 104.04,-43.11zm58.1 89.05c-14.85,-14.85 -35.4,-24.05 -58.1,-24.05 -22.7,0 -43.25,9.2 -58.1,24.05 -14.85,14.85 -24.05,35.4 -24.05,58.1 0,22.7 9.2,43.25 24.05,58.1 14.85,14.85 35.4,24.05 58.1,24.05 22.7,0 43.25,-9.2 58.1,-24.05 14.85,-14.85 24.05,-35.4 24.05,-58.1 0,-22.7 -9.2,-43.25 -24.05,-58.1z"/>
 </g>
</svg>
