<?xml version="1.0" encoding="UTF-8"?>
<!DOCTYPE svg PUBLIC "-//W3C//DTD SVG 1.1//EN" "http://www.w3.org/Graphics/SVG/1.1/DTD/svg11.dtd">
<!-- Creator: CorelDRAW 2017 -->
<svg xmlns="http://www.w3.org/2000/svg" xml:space="preserve" width="42.017mm" height="32.712mm" version="1.1" style="shape-rendering:geometricPrecision; text-rendering:geometricPrecision; image-rendering:optimizeQuality; fill-rule:evenodd; clip-rule:evenodd"
viewBox="0 0 4201.7 3271.2"
 xmlns:xlink="http://www.w3.org/1999/xlink">
 <defs>
  <style type="text/css">
   <![CDATA[
    .fil0 {fill:#D60021;fill-rule:nonzero}
   ]]>
  </style>
 </defs>
 <g id="Слой_x0020_1">
  <metadata id="CorelCorpID_0Corel-Layer"/>
  <g id="_1514046010576">
   <path class="fil0" d="M845.94 803.2l0 -478.82c0,-38.96 31.6,-70.56 70.56,-70.56 38.96,0 70.56,31.6 70.56,70.56l0 478.83c37.75,23.57 62.94,65.55 62.94,113.34 0,73.74 -59.72,133.5 -133.5,133.5 -10.37,0 -20.62,-1.21 -30.29,-3.44l-173.63 173.62c-27.54,27.54 -72.22,27.54 -99.76,0 -27.54,-27.54 -27.54,-72.22 0,-99.76l173.62 -173.61c-2.24,-9.7 -3.45,-19.91 -3.45,-30.31 0,-47.8 25.2,-89.78 62.95,-113.35zm987.08 113.35c0,253.09 -102.59,482.23 -268.44,648.08 -165.85,165.85 -394.99,268.44 -648.08,268.44 -232.43,0 -444.65,-86.53 -606.21,-229.12l0 1004.94c0,23.59 12.46,47.83 31.37,66.69 19.05,19 43.5,31.52 67.26,31.52l188.24 0c15.47,-108.05 65.93,-204.82 139.54,-278.43 89.31,-89.31 212.71,-144.56 348.99,-144.56 136.3,0 259.7,55.24 349,144.54 73.61,73.61 124.08,170.39 139.54,278.45l793.42 0c23.74,0 45.24,-9.59 60.74,-25.04 15.35,-15.31 24.88,-36.61 24.88,-60.18l0 -2051.65c0,-25.08 -9.86,-48.53 -25.95,-65.45 -14.67,-15.43 -34.68,-25.24 -56.82,-25.24l-648.18 0c70.6,129.9 110.7,278.78 110.7,437.01zm-368.2 548.32c140.29,-140.29 227.08,-334.16 227.08,-548.32 0,-214.15 -86.79,-408.02 -227.08,-548.32 -140.29,-140.29 -334.16,-227.08 -548.32,-227.08 -214.16,0 -408.03,86.79 -548.32,227.08 -140.29,140.3 -227.08,334.17 -227.08,548.32 0,214.16 86.79,408.03 227.08,548.32 140.29,140.29 334.16,227.08 548.32,227.08 214.16,0 408.03,-86.79 548.32,-227.08zm-1295.65 -17.61c-106.54,-149.76 -169.19,-332.92 -169.19,-530.71 0,-253.08 102.59,-482.22 268.44,-648.08 165.85,-165.85 394.99,-268.44 648.08,-268.44 253.09,0 482.23,102.59 648.08,268.44 22.21,22.21 43.27,45.56 63.12,69.95l742.8 0c62.68,0 118.49,26.94 158.8,69.34 40.37,42.46 65.09,100.66 65.09,162.47l0 215.12c30.66,-15.19 64.31,-23.94 98.63,-23.94l676.77 0c64.57,0 125.58,22.67 180.82,57.03 65.14,40.54 122.14,97.61 166.27,150.8l-0.14 0.12 115.21 153.55c2.97,3.27 5.64,6.84 7.96,10.62l227.87 303.96 1.11 1.66c0.37,0.53 132.82,185.96 132.82,355.93l0 813.39c0,62.48 -29.01,122.74 -73.01,166.74 -44,44 -104.25,73.01 -166.73,73.01l-188.25 0c-15.47,108.06 -65.92,204.84 -139.53,278.45 -89.3,89.3 -212.69,144.54 -348.99,144.54 -136.28,0 -259.68,-55.24 -348.99,-144.56 -73.61,-73.61 -124.07,-170.38 -139.54,-278.43l-103.65 0 0 -0.28 -0.28 0c-60.42,-0.44 -118.82,-27.65 -162.21,-69.09l-2.92 2.97c-41.09,40.98 -97.72,66.4 -159.96,66.4l-793.42 0c-15.47,108.06 -65.92,204.84 -139.54,278.45 -89.3,89.3 -212.7,144.54 -349,144.54 -136.28,0 -259.68,-55.25 -348.99,-144.56 -73.61,-73.61 -124.07,-170.38 -139.54,-278.43l-188.24 0c-62.27,0 -122.44,-28.95 -166.48,-72.88 -44.16,-44.05 -73.27,-104.21 -73.27,-166.45l0 -1161.63zm3365.26 1579.65c63.75,-63.75 103.18,-151.89 103.18,-249.25 0,-97.36 -39.43,-185.5 -103.18,-249.25 -63.74,-63.74 -151.86,-103.18 -249.23,-103.18 -97.35,0 -185.48,39.45 -249.23,103.2 -63.75,63.75 -103.2,151.88 -103.2,249.23 0,97.36 39.45,185.48 103.2,249.23 63.75,63.76 151.88,103.2 249.23,103.2 97.38,0 185.49,-39.44 249.23,-103.18zm-737.76 -319.81c15.47,-108.05 65.93,-204.82 139.54,-278.43 89.31,-89.31 212.71,-144.56 348.99,-144.56 136.3,0 259.69,55.24 348.99,144.54 73.61,73.61 124.06,170.39 139.53,278.45l188.25 0c23.55,0 47.9,-12.58 66.97,-31.65 19.07,-19.07 31.65,-43.43 31.65,-66.98l0 -690.79 -859.99 0c-61.76,0 -122.09,-29.43 -166.21,-73.55l-4.11 -4.49c-41.85,-43.82 -69.45,-102.17 -69.45,-161.71l0 -338.4c0,-65.55 28.32,-124.39 71.17,-167.24l4.45 -4.08c44.33,-42.32 103.94,-68.42 164.15,-68.42l438.35 0 -30.57 -40.78 -0.08 0.07c-36.18,-43.61 -81.93,-89.79 -132.11,-121.02 -34.41,-21.4 -70.71,-35.53 -106.4,-35.53l-676.77 0c-23.55,0 -47.91,12.58 -66.98,31.65 -19.07,19.07 -31.65,43.43 -31.65,66.98l0 1607.31c0,23.25 12.59,47.4 31.61,66.42 19.35,19.35 43.79,32.22 67.02,32.48l0 -0.27 103.65 0zm-1461.74 319.81c63.76,-63.75 103.19,-151.89 103.19,-249.25 0,-97.36 -39.44,-185.5 -103.19,-249.25 -63.74,-63.74 -151.86,-103.18 -249.24,-103.18 -97.35,0 -185.48,39.45 -249.23,103.2 -63.75,63.75 -103.2,151.88 -103.2,249.23 0,97.35 39.45,185.48 103.2,249.23 63.75,63.75 151.88,103.2 249.23,103.2 97.38,0 185.5,-39.44 249.24,-103.18zm2724.92 -1250.35c-8.75,-113.88 -93.62,-239.16 -104.47,-254.76l-210.64 -280.89 -544.14 0c-23.35,0 -47.32,10.75 -66.11,28.25l-2.73 2.89c-17.94,17.94 -29.81,41.78 -29.81,67.48l0 338.4c0,21.86 11.53,44.88 29.1,63.53l3.1 2.91c19.31,19.31 43.62,32.19 66.45,32.19l859.25 0z"/>
  </g>
 </g>
</svg>
