<?xml version="1.0" encoding="UTF-8"?>
<!DOCTYPE svg PUBLIC "-//W3C//DTD SVG 1.1//EN" "http://www.w3.org/Graphics/SVG/1.1/DTD/svg11.dtd">
<!-- Creator: CorelDRAW 2017 -->
<svg xmlns="http://www.w3.org/2000/svg" xml:space="preserve" width="46.326mm" height="37.296mm" version="1.1" style="shape-rendering:geometricPrecision; text-rendering:geometricPrecision; image-rendering:optimizeQuality; fill-rule:evenodd; clip-rule:evenodd"
viewBox="0 0 4632.6 3729.6"
 xmlns:xlink="http://www.w3.org/1999/xlink">
 <defs>
  <style type="text/css">
   <![CDATA[
    .str0 {stroke:#D60021;stroke-width:141.11;stroke-linecap:round;stroke-linejoin:round;stroke-miterlimit:10}
    .fil2 {fill:none;fill-rule:nonzero}
    .fil1 {fill:#D60021;fill-rule:nonzero}
    .fil0 {fill:white;fill-rule:nonzero}
   ]]>
  </style>
 </defs>
 <g id="Слой_x0020_1">
  <metadata id="CorelCorpID_0Corel-Layer"/>
  <g id="_1515492864368">
   <path class="fil0" d="M2041.89 2383.34c-11.99,-132.46 -7.41,-224.93 -7.41,-346 60.05,-31.54 167.54,-232.24 185.69,-401.77 47.2,-3.86 121.51,-49.89 143.32,-231.65 11.75,-97.56 -34.9,-152.46 -63.32,-169.76 76.72,-230.89 236.26,-945.12 -294.87,-1018.99 -54.71,-95.99 -194.68,-144.57 -376.55,-144.57 -727.71,13.37 -815.49,549.56 -656.05,1163.56 -28.28,17.3 -75.03,72.2 -63.32,169.76 21.88,181.76 96.15,227.79 143.35,231.65 18.12,169.53 129.92,370.23 190.03,401.77 0,121.07 4.52,213.54 -7.44,346 -144,387.17 -1115.66,278.41 -1160.55,1025.1l3123.33 0c-44.76,-746.69 -1012.24,-637.93 -1156.21,-1025.1z"/>
   <path class="fil1" d="M1312.48 2274.71l323.95 178.4 328.21 -180.7c-1.81,-54.78 -1.36,-105.11 -0.89,-158.41 0.08,-9.37 0.17,-18.15 0.17,-76.66l0 -42.47 37.76 -19.82c19.2,-10.08 52.65,-62.34 84.89,-132.1 30.59,-66.18 56.03,-144.08 63.6,-214.82l6.22 -58.07 58.27 -4.77c9.68,-0.79 23.98,-8.84 39.4,-33.76 16.93,-27.38 31.57,-70.33 39.43,-135.88 3.41,-28.38 0.25,-50.39 -5.92,-66.94 -7.25,-19.45 -17.21,-30.3 -24.06,-34.47l-47.68 -29.01 17.64 -53.12c21.58,-64.95 50.12,-170.51 66.68,-289.64 17.6,-126.53 21.37,-266.69 -12.46,-384.02 -30.95,-107.37 -95.15,-196.43 -213.38,-235.71 -23.38,-7.76 -49.54,-13.8 -78.66,-17.84l-34.29 -4.76 -17.24 -30.24c-18.45,-32.37 -53.48,-57.86 -101.06,-76.12 -56.5,-21.69 -129.7,-32.62 -214.31,-32.62l0 -0.26c-91.64,1.75 -172.15,12.27 -242.43,30.51 -153.48,39.85 -257.12,117.29 -321.14,221.16 -65.8,106.75 -92.19,243.74 -89.35,398.58 2.41,131.59 26.09,275.77 64.94,425.37l13.12 50.49 -44.53 27.23c-6.8,4.16 -16.75,15.03 -24.03,34.55 -6.18,16.57 -9.34,38.54 -5.95,66.86 7.89,65.55 22.53,108.5 39.48,135.89 15.41,24.91 29.71,32.96 39.38,33.75l58.29 4.77 6.2 58.07c7.46,69.8 33.25,146.67 64.29,212.28 33.59,71.04 68.61,124.33 88.26,134.64l38.04 19.95 0 42.34c0,56.86 0.08,67.24 0.16,76.21 0.46,54.21 0.9,105.33 -1,161.16zm203.96 273.14l-222.32 -122.43c-31.94,73.56 -86.44,130.05 -155.44,177.34l168.45 201.86 209.31 -256.77zm465.84 -124.34l-225.83 124.33 209.32 256.79 169.87 -203.53c-68.16,-47.36 -121.93,-103.95 -153.36,-177.59zm-345.83 199.75l-328.18 402.59 -294.24 -352.59c-66.41,31.9 -139.37,60.59 -214.65,90.2 -275.61,108.4 -586.85,230.84 -645.78,574.42l2965.7 0c-58.72,-343.59 -368.77,-466.05 -643.38,-574.46 -75.84,-29.94 -149.3,-58.96 -216.07,-91.3l-295.22 353.73 -328.18 -402.59zm891.29 8.98c331.32,130.8 708.17,279.67 740.23,766.34 0.45,3.23 0.69,6.51 0.69,9.86 0,38.96 -31.6,70.56 -70.56,70.56l-3198.1 0 4.49 -74.69c29.53,-491.18 409.67,-640.69 743.63,-772.03 192.09,-75.54 366.68,-144.23 418.09,-265.39 8.06,-94.93 7.42,-169.87 6.71,-252.24l-0.41 -44.11c-37.55,-36.89 -79.03,-98.61 -112.81,-170.05 -30.26,-63.97 -56.43,-137.95 -69.97,-210.27 -31.18,-14.72 -63.38,-41.02 -90.49,-84.82 -26.84,-43.37 -49.3,-105.48 -59.86,-193.21 -6.29,-52.5 0.9,-96.77 14.21,-132.46 10.52,-28.22 25.26,-51.28 40.67,-69.18 -35.27,-145.06 -56.58,-285.95 -58.99,-417.2 -3.31,-180.52 29.28,-343.21 110.29,-474.64 82.78,-134.31 213.84,-233.68 405.48,-283.44 80.88,-20.99 172.78,-33.05 276.61,-34.95l1.1 -0.28c100.49,0 190.74,14.25 264.47,42.56 65.05,24.97 117.44,61.01 153.51,108.1 25.02,4.82 48.91,11.08 71.68,18.64 169.94,56.47 261.23,181.06 304.32,330.53 40.24,139.54 36.67,299.58 16.88,441.9 -14.53,104.46 -38.03,200.4 -59.07,270.95 14.72,17.56 28.68,39.87 38.77,66.93 13.31,35.7 20.5,79.99 14.18,132.54 -10.52,87.71 -32.98,149.82 -59.81,193.2 -27.09,43.78 -59.26,70.08 -90.42,84.8 -13.4,72.88 -39.1,147.47 -68.81,211.74 -32.77,70.89 -72.87,132.01 -109.72,168.64l-0.42 44.53c-0.72,82.19 -1.38,157.03 6.69,251.79 51.34,121.07 225.34,189.79 416.74,265.35z"/>
   <path class="fil0" d="M4490.83 2237.49l-762.47 762.43 -290.24 77.89 77.85 -290.25 762.47 -762.44 212.39 212.37zm-624.94 -175.61l0 0 -233.99 -107.98 -465.09 232.54 -465.09 -232.54 0 1472.73 465.09 232.54 465.09 -232.54 503.85 232.54 426.29 -232.54 0 -901.86 -696.15 -462.89z"/>
   <polyline class="fil2 str0" points="4490.83,2237.49 3728.36,2999.92 3438.12,3077.81 3515.97,2787.56 4278.44,2025.12 "/>
   <path class="fil1" d="M3895.38 1997.94c35.31,16.28 50.73,58.12 34.45,93.43 -16.28,35.31 -58.12,50.73 -93.43,34.45l-203.46 -93.89 -434.71 217.35c-20.55,10.28 -43.74,9.53 -62.84,0l-363.11 -181.55 0 1315.63 394.53 197.26 433.67 -216.83c19.84,-9.92 42.14,-9.56 60.84,-0.95l0.07 -0.15 471.85 217.77 358.24 -195.42 0 -860.27c0,-38.96 31.6,-70.56 70.56,-70.56 38.96,0 70.56,31.6 70.56,70.56l0 901.86 -0.25 0c-0.03,24.9 -13.3,49 -36.69,61.74l-422.78 230.63c-19.42,12.03 -44.32,14.39 -66.62,4.11l-473.32 -218.45 -434.71 217.35c-19.1,9.53 -42.29,10.28 -62.84,0l-459.15 -229.57c-26.37,-10.22 -45.08,-35.83 -45.08,-65.81l0 -1472.73 0.29 0c-0.01,-10.58 2.38,-21.32 7.43,-31.42 17.35,-34.7 59.56,-48.77 94.26,-31.42l433.67 216.83 429.52 -214.75c19.19,-11.21 43.35,-13.19 65.06,-3.18l233.99 107.98z"/>
   <path class="fil1" d="M4528.76 2299.09c-0.2,0.18 37.38,-37.39 37.38,-37.39 86.13,-86.15 86.13,-225.81 0.07,-311.92 -86.26,-86.18 -225.86,-86.11 -311.98,0 0,0 -37.59,37.64 -37.38,37.39l311.91 311.92z"/>
   <polygon class="fil1" points="3523.04,2780.5 3735.46,2992.86 3456.48,3059.45 "/>
  </g>
 </g>
</svg>
