<?xml version="1.0" encoding="UTF-8"?>
<!DOCTYPE svg PUBLIC "-//W3C//DTD SVG 1.1//EN" "http://www.w3.org/Graphics/SVG/1.1/DTD/svg11.dtd">
<!-- Creator: CorelDRAW 2017 -->
<svg xmlns="http://www.w3.org/2000/svg" xml:space="preserve" width="19.905mm" height="17.297mm" version="1.1" style="shape-rendering:geometricPrecision; text-rendering:geometricPrecision; image-rendering:optimizeQuality; fill-rule:evenodd; clip-rule:evenodd"
viewBox="0 0 1990.5 1729.7"
 xmlns:xlink="http://www.w3.org/1999/xlink">
 <defs>
  <style type="text/css">
   <![CDATA[
    .fil0 {fill:#d70022;fill-rule:nonzero}
   ]]>
  </style>
 </defs>
 <g id="Слой_x0020_1">
  <metadata id="CorelCorpID_0Corel-Layer"/>
  <path class="fil0" d="M1171.04 674.69l628.18 0c52.62,0 100.44,21.52 135.08,56.16 34.64,34.64 56.16,82.47 56.16,135.09 0,52.62 -21.52,100.45 -56.16,135.09 -34.64,34.64 -82.46,56.16 -135.08,56.16l-629.89 0 -527.46 672.51 -204.46 0 248.09 -674.61 -426.17 1.89 -146.8 234.53 -112.53 9.17 81.71 -434.74 -81.71 -434.73 112.53 9.17 146.67 234.31 426.33 0 -248.12 -674.69 204.46 0 529.17 674.69zm628.18 65l-659.49 0 -529.16 -674.69 -80.12 0 248.11 674.69 -554.98 0 -142.39 -227.49 66.48 353.74 -66.48 353.74 142.26 -227.28 555.14 -2.46 -248.14 674.76 80.12 0 527.45 -672.51 661.2 0c34.69,0 66.26,-14.22 89.14,-37.1 22.88,-22.88 37.1,-54.45 37.1,-89.15 0,-34.7 -14.22,-66.27 -37.1,-89.15 -22.88,-22.88 -54.45,-37.1 -89.14,-37.1z"/>
 </g>
</svg>
