<?xml version="1.0" encoding="UTF-8"?>
<!DOCTYPE svg PUBLIC "-//W3C//DTD SVG 1.1//EN" "http://www.w3.org/Graphics/SVG/1.1/DTD/svg11.dtd">
<!-- Creator: CorelDRAW 2017 -->
<svg xmlns="http://www.w3.org/2000/svg" xml:space="preserve" width="35.697mm" height="35.702mm" version="1.1" style="shape-rendering:geometricPrecision; text-rendering:geometricPrecision; image-rendering:optimizeQuality; fill-rule:evenodd; clip-rule:evenodd"
viewBox="0 0 3569.7 3570.2"
 xmlns:xlink="http://www.w3.org/1999/xlink">
 <defs>
  <style type="text/css">
   <![CDATA[
    .fil0 {fill:#D60021;fill-rule:nonzero}
   ]]>
  </style>
 </defs>
 <g id="Слой_x0020_1">
  <metadata id="CorelCorpID_0Corel-Layer"/>
  <path class="fil0" d="M1712.52 3213.9c0,98.35 -39.9,187.44 -104.38,251.92 -64.48,64.48 -153.57,104.38 -251.92,104.38 -98.38,0 -187.48,-39.9 -251.96,-104.37 -64.5,-64.48 -104.4,-153.57 -104.4,-251.93 0,-98.38 39.9,-187.47 104.39,-251.95 64.49,-64.48 153.59,-104.38 251.97,-104.38 98.37,0 187.44,39.9 251.92,104.39 64.48,64.48 104.38,153.57 104.38,251.94zm-204.14 152.16c38.93,-38.93 63.02,-92.74 63.02,-152.16 0,-59.44 -24.09,-113.25 -63.02,-152.18 -38.92,-38.93 -92.73,-63.03 -152.16,-63.03 -59.45,0 -113.28,24.1 -152.21,63.02 -38.93,38.92 -63.03,92.75 -63.03,152.19 0,59.42 24.1,113.24 63.04,152.17 38.92,38.92 92.75,63.01 152.2,63.01 59.42,0 113.23,-24.09 152.16,-63.02zm-1375.55 -2977.82c-17.65,34.55 -59.98,48.24 -94.53,30.59 -34.55,-17.65 -48.24,-59.98 -30.59,-94.53 0.47,-0.92 162.3,-324.34 634.1,-324.34 31.47,0 58.14,20.62 67.23,49.08l1196.46 3034.59 1533.87 -600.19c36.22,-14.15 77.07,3.74 91.22,39.96 14.15,36.22 -3.74,77.07 -39.96,91.22l-1599.25 625.77c-36.22,14.15 -77.07,-3.74 -91.22,-39.96l-1205.71 -3058.04c-348.29,19.08 -461.28,245.18 -461.62,245.85zm3275.31 1766.53l-370.7 -931.15 -1329.66 529.37 370.72 931.14 1329.64 -529.36zm-266.18 -1048.59l422.78 1061.97c14.3,36.07 -3.34,76.93 -39.41,91.23l-1460.21 581.35c-36.07,14.3 -76.93,-3.34 -91.23,-39.41l-420.03 -1054.96c-1.11,-2.14 -2.11,-4.34 -3.02,-6.62l-422.82 -1061.97c-14.3,-36.07 3.34,-76.93 39.41,-91.23l1460.24 -581.36c36.07,-14.3 76.93,3.34 91.23,39.41l419.83 1054.59c1.19,2.24 2.27,4.58 3.23,7zm-1486.6 516.13l1329.62 -529.36 -370.7 -931.17 -1329.66 529.37 370.74 931.16zm557.28 236.97c-36.07,14.3 -76.93,-3.34 -91.23,-39.41 -14.3,-36.07 3.34,-76.93 39.41,-91.23l531 -211.39c36.07,-14.3 76.93,3.34 91.23,39.41 14.3,36.07 -3.34,76.93 -39.41,91.23l-531 211.39zm-423.09 -1061.57c-36.07,14.3 -76.93,-3.34 -91.23,-39.41 -14.3,-36.07 3.34,-76.93 39.41,-91.23l531.03 -211.41c36.07,-14.3 76.93,3.34 91.23,39.41 14.3,36.07 -3.34,76.93 -39.41,91.23l-531.03 211.41z"/>
 </g>
</svg>
