<?xml version="1.0" encoding="UTF-8"?>
<!DOCTYPE svg PUBLIC "-//W3C//DTD SVG 1.1//EN" "http://www.w3.org/Graphics/SVG/1.1/DTD/svg11.dtd">
<!-- Creator: CorelDRAW 2017 -->
<svg xmlns="http://www.w3.org/2000/svg" xml:space="preserve" width="16.184mm" height="17.285mm" version="1.1" style="shape-rendering:geometricPrecision; text-rendering:geometricPrecision; image-rendering:optimizeQuality; fill-rule:evenodd; clip-rule:evenodd"
viewBox="0 0 1618.4 1728.5"
 xmlns:xlink="http://www.w3.org/1999/xlink">
 <defs>
  <style type="text/css">
   <![CDATA[
    .fil0 {fill:#d70022;fill-rule:nonzero}
   ]]>
  </style>
 </defs>
 <g id="Слой_x0020_1">
  <metadata id="CorelCorpID_0Corel-Layer"/>
  <path class="fil0" d="M786.01 1281.05l0 -432.49 -633.95 283.35 176.39 509.98c19.94,-4.79 40.98,-12.89 63.68,-25.32 163.4,-89.52 244.27,-42.97 324,2.96 65.01,37.43 129.11,74.34 262.35,-5.98 115.22,-69.47 186.23,-38.83 264.82,-4.94 21.44,9.25 43.57,18.79 67.87,25.78l173.79 -502.48 -633.95 -283.35 0 432.49 -65 0zm0 -503.45l0 -105.42 -686.79 306.96 31.58 91.31 655.21 -292.85zm0 -176.38l0 -37.38 -357.78 0 0 -65 357.78 0 0 -51.87 -426.67 0c-10.06,0 -19.47,3.92 -26.58,11.03 -6.73,6.72 -10.91,16.1 -10.91,26.46l0 324.21 464.16 -207.45zm65 -154.25l0 51.87 357.78 0 0 65 -357.78 0 0 37.38 464.16 207.45 0 -324.21c0,-10.36 -4.18,-19.74 -10.91,-26.46 -7.11,-7.11 -16.51,-11.03 -26.58,-11.03l-426.67 0zm0 225.21l0 105.42 655.21 292.85 31.58 -91.31 -686.79 -306.96zm0 -672.22l0 139.48 321.89 0 26.48 24.21 0 218.32 78.3 0c28.07,0 53.68,11.54 72.28,30.09 19.25,19.25 30.21,45.13 30.21,72.4l0 353.26 238.19 106.47 -242.34 700.67c53.07,1.66 117.6,-13.23 202.82,-62.42l32.24 56.1c-197.73,114.15 -301.01,69.6 -393.42,29.73 -62.53,-26.97 -119.04,-51.34 -205.66,0.88 -165.8,99.95 -246.38,53.54 -328.11,6.48 -64.03,-36.88 -128.98,-74.28 -260.54,-2.2 -118.87,65.12 -197.05,38.43 -286.45,7.88 -41.48,-14.18 -85.72,-29.3 -136.9,-34.17l6.1 -64.48c59.26,5.64 106.93,21.94 151.62,37.21 35.41,12.1 68.72,23.47 103.88,26.72l-242.95 -702.4 238.2 -106.47 0 -353.26c0,-28.07 11.53,-53.67 30.09,-72.28 19.25,-19.25 45.13,-30.21 72.4,-30.21l78.3 0 0 -210.6 28.57 -31.93 319.8 0 0 -139.48 65 0zm-32.5 204.48l-315.87 0 0 177.53 631.74 0 0 -177.53 -315.87 0zm206.42 50.12l58.5 0 0 68.5 -68.5 0 0 -68.5 10 0zm-120 0l58.5 0 0 68.5 -68.5 0 0 -68.5 10 0zm258.91 364.98l58.5 0 0 68.5 -68.5 0 0 -68.5 10 0zm-368.91 -364.98l58.5 0 0 68.5 -68.5 0 0 -68.5 10 0zm-110 0l58.5 0 0 68.5 -68.5 0 0 -68.5 10 0zm-120 0l58.5 0 0 68.5 -68.5 0 0 -68.5 10 0zm-141.09 364.98l58.5 0 0 68.5 -68.5 0 0 -68.5 10 0z"/>
 </g>
</svg>
