<svg xmlns="http://www.w3.org/2000/svg" width="49" height="51" viewBox="0 0 49 51">
  <metadata><?xpacket begin="﻿" id="W5M0MpCehiHzreSzNTczkc9d"?>
<x:xmpmeta xmlns:x="adobe:ns:meta/" x:xmptk="Adobe XMP Core 5.6-c142 79.160924, 2017/07/13-01:06:39        ">
   <rdf:RDF xmlns:rdf="http://www.w3.org/1999/02/22-rdf-syntax-ns#">
      <rdf:Description rdf:about=""/>
   </rdf:RDF>
</x:xmpmeta>
                                                                                                    
                                                                                                    
                                                                                                    
                                                                                                    
                                                                                                    
                                                                                                    
                                                                                                    
                                                                                                    
                                                                                                    
                                                                                                    
                                                                                                    
                                                                                                    
                                                                                                    
                                                                                                    
                                                                                                    
                                                                                                    
                                                                                                    
                                                                                                    
                                                                                                    
                                                                                                    
                           
<?xpacket end="w"?></metadata>
<defs>
    <style>
      .cls-1, .cls-3 {
        fill: #d70022;
      }

      .cls-2 {
        fill: #fff;
      }

      .cls-3, .cls-4 {
        fill-rule: evenodd;
      }

      .cls-4 {
        fill: none;
        stroke: #d70022;
        stroke-width: 2px;
      }
    </style>
  </defs>
  <circle class="cls-1" cx="4.235" cy="4.25" r="4.235"/>
  <circle id="Ellipse_4_copy" data-name="Ellipse 4 copy" class="cls-2" cx="4.235" cy="4.25" r="2.355"/>
  <path id="Ellipse_4_copy_2" data-name="Ellipse 4 copy 2" class="cls-3" d="M1549.76,544a4.25,4.25,0,1,1-4.24,4.25A4.246,4.246,0,0,1,1549.76,544Z" transform="translate(-1505 -527)"/>
  <circle id="Ellipse_4_copy_2-2" data-name="Ellipse 4 copy 2" class="cls-2" cx="44.77" cy="21.25" r="2.36"/>
  <circle id="Ellipse_4_copy_3" data-name="Ellipse 4 copy 3" class="cls-1" cx="44.765" cy="46.75" r="4.235"/>
  <circle id="Ellipse_4_copy_3-2" data-name="Ellipse 4 copy 3" class="cls-2" cx="44.77" cy="46.75" r="2.36"/>
  <path id="Ellipse_5_copy_10" data-name="Ellipse 5 copy 10" class="cls-3" d="M1516.78,529.833a1.417,1.417,0,1,1-1.41,1.417A1.412,1.412,0,0,1,1516.78,529.833Zm4.71,0a1.417,1.417,0,1,1-1.41,1.417A1.412,1.412,0,0,1,1521.49,529.833Zm4.71,0a1.417,1.417,0,1,1-1.41,1.417A1.421,1.421,0,0,1,1526.2,529.833Zm4.71,0a1.417,1.417,0,1,1-1.41,1.417A1.421,1.421,0,0,1,1530.91,529.833Zm4.72,0a1.417,1.417,0,1,1-1.42,1.417A1.412,1.412,0,0,1,1535.63,529.833Zm4.71,0a1.417,1.417,0,1,1-1.42,1.417A1.412,1.412,0,0,1,1540.34,529.833Zm4.71,0a1.417,1.417,0,1,1-1.42,1.417A1.412,1.412,0,0,1,1545.05,529.833Zm4.71,0a1.417,1.417,0,1,1-1.41,1.417A1.412,1.412,0,0,1,1549.76,529.833Zm0,4.723a1.417,1.417,0,1,1-1.41,1.416A1.412,1.412,0,0,1,1549.76,534.556Zm0,4.722a1.417,1.417,0,1,1-1.41,1.416A1.412,1.412,0,0,1,1549.76,539.278Z" transform="translate(-1505 -527)"/>
  <path id="Ellipse_5_copy_5" data-name="Ellipse 5 copy 5" class="cls-3" d="M1512.07,559.111a1.417,1.417,0,1,1-1.42,1.417A1.412,1.412,0,0,1,1512.07,559.111Zm4.71,0a1.417,1.417,0,1,1-1.41,1.417A1.412,1.412,0,0,1,1516.78,559.111Zm4.71,0a1.417,1.417,0,1,1-1.41,1.417A1.412,1.412,0,0,1,1521.49,559.111Zm4.71,0a1.417,1.417,0,1,1-1.41,1.417A1.421,1.421,0,0,1,1526.2,559.111Zm4.71,0a1.417,1.417,0,1,1-1.41,1.417A1.421,1.421,0,0,1,1530.91,559.111Zm4.72,0a1.417,1.417,0,1,1-1.42,1.417A1.412,1.412,0,0,1,1535.63,559.111Zm4.71,0a1.417,1.417,0,1,1-1.42,1.417A1.412,1.412,0,0,1,1540.34,559.111Zm4.71,0a1.417,1.417,0,1,1-1.42,1.417A1.412,1.412,0,0,1,1545.05,559.111Zm4.71,0a1.417,1.417,0,1,1-1.41,1.417A1.412,1.412,0,0,1,1549.76,559.111Z" transform="translate(-1505 -527)"/>
  <circle id="Ellipse_5_copy_8" data-name="Ellipse 5 copy 8" class="cls-1" cx="44.765" cy="28.797" r="1.425"/>
  <path id="Ellipse_5_copy_7" data-name="Ellipse 5 copy 7" class="cls-3" d="M1512.07,573.278a1.417,1.417,0,1,1-1.42,1.416A1.412,1.412,0,0,1,1512.07,573.278Zm4.71,0a1.417,1.417,0,1,1-1.41,1.416A1.412,1.412,0,0,1,1516.78,573.278Zm4.71,0a1.417,1.417,0,1,1-1.41,1.416A1.412,1.412,0,0,1,1521.49,573.278Zm4.71,0a1.417,1.417,0,1,1-1.41,1.416A1.421,1.421,0,0,1,1526.2,573.278Zm4.71,0a1.417,1.417,0,1,1-1.41,1.416A1.421,1.421,0,0,1,1530.91,573.278Zm4.72,0a1.417,1.417,0,1,1-1.42,1.416A1.412,1.412,0,0,1,1535.63,573.278Zm4.71,0a1.417,1.417,0,1,1-1.42,1.416A1.412,1.412,0,0,1,1540.34,573.278Z" transform="translate(-1505 -527)"/>
  <circle id="Ellipse_5_copy_11" data-name="Ellipse 5 copy 11" class="cls-1" cx="40.05" cy="47.703" r="1.42"/>
  <path id="Ellipse_5_copy_6" data-name="Ellipse 5 copy 6" class="cls-3" d="M1507.36,559.111a1.417,1.417,0,1,1-1.42,1.417A1.412,1.412,0,0,1,1507.36,559.111Z" transform="translate(-1505 -527)"/>
  <path id="Ellipse_5_copy_9" data-name="Ellipse 5 copy 9" class="cls-3" d="M1507.36,563.833a1.417,1.417,0,1,1-1.42,1.417A1.413,1.413,0,0,1,1507.36,563.833Zm0,4.722a1.417,1.417,0,1,1-1.42,1.417A1.413,1.413,0,0,1,1507.36,568.555Zm0,4.723a1.417,1.417,0,1,1-1.42,1.416A1.412,1.412,0,0,1,1507.36,573.278Z" transform="translate(-1505 -527)"/>
  <path class="cls-4" d="M1535,546.515a6.5,6.5,0,1,0-13,0c0,3.6,6.5,14.489,6.5,14.489S1535,550.116,1535,546.515Z" transform="translate(-1505 -527)"/>
  <circle class="cls-1" cx="23.5" cy="19.5" r="2.5"/>
</svg>
