<?xml version="1.0" encoding="UTF-8"?>
<!DOCTYPE svg PUBLIC "-//W3C//DTD SVG 1.1//EN" "http://www.w3.org/Graphics/SVG/1.1/DTD/svg11.dtd">
<!-- Creator: CorelDRAW 2017 -->
<svg xmlns="http://www.w3.org/2000/svg" xml:space="preserve" width="17.213mm" height="18.0508mm" version="1.1" style="shape-rendering:geometricPrecision; text-rendering:geometricPrecision; image-rendering:optimizeQuality; fill-rule:evenodd; clip-rule:evenodd"
viewBox="0 0 1721.3 1805.08"
 xmlns:xlink="http://www.w3.org/1999/xlink">
 <defs>
  <style type="text/css">
   <![CDATA[
    .fil0 {fill:#d70022;fill-rule:nonzero}
   ]]>
  </style>
 </defs>
 <g id="Слой_x0020_1">
  <metadata id="CorelCorpID_0Corel-Layer"/>
  <path class="fil0" d="M461.62 97.93l0.54 100 -99.99 0.53 -0.54 -100 99.99 -0.53zm862.64 1532.98l0 100 -100 0 0 -100 100 0zm-200 0l0 100 -100 0 0 -100 100 0zm-200 0l0 100 -100 0 0 -100 100 0zm-200 0l0 100 -100 0 0 -100 100 0zm-200 0l0 100 -100 0 0 -100 100 0zm-200 0l0 100 -100 0 0 -100 100 0zm-200 51.45l0 48.55 -98.55 0 0 -101.45 100 0 0 51.45 -1.45 1.45zm1.45 -152.9l-100 0 0 -100 100 0 0 100zm0 -200l-100 0 0 -100 100 0 0 100zm11.97 -88.03l0 -100 100 0 0 100 -100 0zm200 0l0 -100 100 0 0 100 -100 0zm200 0l0 -100 100 0 0 100 -100 0zm200 0l0 -100 100 0 0 100 -100 0zm200 0l0 -100 100 0 0 100 -100 0zm200 0l0 -100 100 0 0 100 -100 0zm200 0l0 -100 100 0 0 100 -100 0zm200 0l0 -37.34 -12.66 -12.66 0 -62.66 100 0 0 112.66 -87.34 0zm87.34 -212.66l-100 0 0 -100 100 0 0 100zm0 -600l-100 0 0 -100 100 0 0 100zm0 -200l-100 0 0 -86.86 100.93 0 -0.93 86.86zm-163.41 -136.24l0.54 100 -100 0.54 -0.54 -100 100 -0.54zm-200 1.08l0.54 100 -100 0.54 -0.54 -100 100 -0.54zm-200 1.08l0.54 100 -100 0.54 -0.54 -100 100 -0.54zm-200 1.08l0.54 100 -100 0.54 -0.54 -100 100 -0.54zm-200 1.08l0.54 100 -100 0.54 -0.54 -100 100 -0.54zm159.35 510.19c21.94,0 41.81,8.9 56.18,23.27 14.37,14.37 23.27,34.24 23.27,56.18 0,21.94 -8.9,41.81 -23.27,56.18 -14.37,14.37 -34.24,23.27 -56.18,23.27 -21.94,0 -41.81,-8.9 -56.18,-23.27 -14.37,-14.37 -23.27,-34.24 -23.27,-56.18 0,-21.94 8.9,-41.81 23.27,-56.18 14.37,-14.37 34.24,-23.27 56.18,-23.27zm2.2 -149.28c61.99,0 118.17,25.76 158.87,67.38 40.43,41.37 65.45,98.42 65.45,161.35 0,59.53 -23.31,128.77 -60.32,205 -35.48,73.11 -84.01,153.52 -136.46,238.24l-26.68 1.21 -27.9 -0.45c-60.37,-91.61 -109.09,-172.37 -142.88,-244.34 -35.11,-74.77 -54.4,-140.6 -54.4,-199.66 0,-62.93 25.02,-119.98 65.45,-161.35 40.7,-41.62 96.88,-67.38 158.87,-67.38zm112.41 112.56c-28.72,-29.37 -68.47,-47.56 -112.41,-47.56 -43.94,0 -83.69,18.19 -112.41,47.56 -28.97,29.65 -46.91,70.72 -46.91,116.17 0,49.28 17.04,106.21 48.04,172.24 27.05,57.61 64.56,121.79 110.52,193.47 40.86,-66.86 78.01,-130.43 106.38,-188.89 32.95,-67.87 53.7,-128.01 53.7,-176.82 0,-45.45 -17.94,-86.52 -46.91,-116.17zm637.26 937.82c40.99,0 78.12,16.63 104.97,43.48 26.85,26.96 43.48,64.05 43.48,104.99 0,40.94 -16.63,78.03 -43.48,104.89 -26.85,26.95 -63.98,43.58 -104.97,43.58 -40.99,0 -78.12,-16.63 -104.97,-43.48 -26.85,-26.96 -43.48,-64.05 -43.48,-104.99 0,-40.94 16.63,-78.03 43.48,-104.89 26.85,-26.95 63.98,-43.58 104.97,-43.58zm69.66 78.79c-17.86,-17.76 -42.48,-28.79 -69.66,-28.79 -27.18,0 -51.8,11.03 -69.61,28.84 -17.83,17.77 -28.84,42.41 -28.84,69.63 0,27.22 11.01,51.86 28.79,69.68 17.86,17.76 42.48,28.79 69.66,28.79 27.18,0 51.8,-11.03 69.61,-28.84 17.83,-17.77 28.84,-42.41 28.84,-69.63 0,-27.22 -11.01,-51.86 -28.79,-69.68zm-69.7 -982.8c40.99,0 78.12,16.63 104.97,43.48 26.85,26.96 43.48,64.05 43.48,104.99 0,40.94 -16.63,78.03 -43.48,104.89 -26.85,26.95 -63.98,43.58 -104.97,43.58 -40.99,0 -78.12,-16.63 -104.97,-43.48 -26.85,-26.96 -43.48,-64.05 -43.48,-104.99 0,-40.94 16.63,-78.03 43.48,-104.89 26.85,-26.95 63.98,-43.58 104.97,-43.58zm69.66 78.79c-17.86,-17.76 -42.48,-28.79 -69.66,-28.79 -27.18,0 -51.8,11.03 -69.61,28.84 -17.83,17.77 -28.84,42.41 -28.84,69.63 0,27.22 11.01,51.86 28.79,69.68 17.86,17.76 42.48,28.79 69.66,28.79 27.18,0 51.8,-11.03 69.61,-28.84 17.83,-17.77 28.84,-42.41 28.84,-69.63 0,-27.22 -11.01,-51.86 -28.79,-69.68zm-1494 -682.93c40.99,0 78.12,16.63 104.97,43.48 26.85,26.96 43.48,64.05 43.48,104.99 0,40.94 -16.63,78.03 -43.48,104.89 -26.85,26.95 -63.98,43.58 -104.97,43.58 -40.99,0 -78.12,-16.63 -104.97,-43.48 -26.85,-26.96 -43.48,-64.05 -43.48,-104.99 0,-40.94 16.63,-78.03 43.48,-104.89 26.85,-26.95 63.98,-43.58 104.97,-43.58zm69.66 78.79c-17.86,-17.76 -42.48,-28.79 -69.66,-28.79 -27.18,0 -51.8,11.03 -69.61,28.84 -17.83,17.77 -28.84,42.41 -28.84,69.63 0,27.22 11.01,51.86 28.79,69.68 17.86,17.76 42.48,28.79 69.66,28.79 27.18,0 51.8,-11.03 69.61,-28.84 17.83,-17.77 28.84,-42.41 28.84,-69.63 0,-27.22 -11.01,-51.86 -28.79,-69.68z"/>
 </g>
</svg>
