<?xml version="1.0" encoding="UTF-8"?>
<!DOCTYPE svg PUBLIC "-//W3C//DTD SVG 1.1//EN" "http://www.w3.org/Graphics/SVG/1.1/DTD/svg11.dtd">
<!-- Creator: CorelDRAW X7 -->
<svg xmlns="http://www.w3.org/2000/svg" xml:space="preserve" version="1.1" style="shape-rendering:geometricPrecision; text-rendering:geometricPrecision; image-rendering:optimizeQuality; fill-rule:evenodd; clip-rule:evenodd"
viewBox="0 0 19401 21005"
 xmlns:xlink="http://www.w3.org/1999/xlink">
  <path class="fil0" d="M14728 15096l1817 0c499,0 908,-409 908,-908l0 -604c0,-500 -409,-909 -908,-909l-1817 0c-499,0 -908,409 -908,909l0 604c0,504 409,908 908,908zm-300 -1512c0,-168 137,-305 305,-305l1816 0c168,0 305,137 305,305l0 604c0,168 -137,304 -305,304l-1816 0c-168,0 -305,-136 -305,-304l0 -604zm-11508 1512l1817 0c499,0 908,-409 908,-908l0 -604c0,-500 -409,-909 -908,-909l-1817 0c-499,0 -908,409 -908,909l0 604c0,504 409,908 908,908zm-300 -1512c0,-168 137,-305 305,-305l1816 0c168,0 305,137 305,305l0 604c0,168 -137,304 -305,304l-1816 0c-168,0 -305,-136 -305,-304 0,4 0,-604 0,-604zm4569 1512l4951 0c499,0 908,-409 908,-908l0 -2330c0,-500 -409,-908 -908,-908l-4951 0c-499,0 -908,408 -908,908l0 2330c0,504 409,908 908,908zm-299 -3238c0,-168 136,-304 304,-304l4950 0c168,0 304,136 304,304l0 2330c0,168 -136,304 -304,304l-4950 0c-168,0 -304,-136 -304,-304l0 -2330zm11199 -450l0 -1326 -604 0 0 1072c-468,-141 -958,-186 -1204,-200 -22,-540 -327,-2561 -590,-4569 -286,-2211 -2525,-2538 -4210,-2538l-3606 0c-1685,0 -3924,331 -4210,2538 -263,2003 -568,4024 -590,4569 -241,14 -718,59 -1177,191l0 -1063 -613 0 0 1313c-113,63 -213,140 -299,222 -373,373 -564,881 -559,1503 9,1994 0,3329 0,3357l4 3619c0,500 409,908 909,908l2271 1c499,0 908,-409 908,-909l0 -1112 10305 0 0 1112c0,500 408,908 908,908l2271 1c499,0 908,-409 908,-909l0 -1112c0,0 4,-3870 9,-5864 5,-622 -186,-1130 -559,-1503 -81,-77 -172,-145 -272,-209zm-10219 -6926l3606 0c1476,0 3357,259 3584,1985 113,868 213,1708 304,2453 -450,59 -3252,417 -5704,404 -2389,-14 -5105,-332 -5668,-400 86,-745 191,-1589 304,-2457 218,-1726 2094,-1985 3574,-1985zm-6430 7580c445,-445 2252,-454 2252,-454 0,0 82,-831 223,-2053 586,73 3324,391 5736,405 54,0 104,0 159,0 2429,0 5136,-346 5622,-409 141,1226 223,2057 223,2057 0,0 1807,9 2252,454 250,250 377,604 373,1054 -5,1598 -5,2248 0,3038l-6817 0 -3583 0 -6813 0c0,-790 5,-1444 0,-3038 -4,-445 123,-799 373,-1054zm2475 8034c0,168 -136,304 -304,304l-2271 0c-168,0 -305,-136 -305,-304l0 -1112 2875 0 0 1112 5 0zm14387 0c0,168 -136,304 -304,304l-2271 0c-168,0 -304,-136 -304,-304l0 -1112 2879 0 0 1112zm0 -1803l-17257 0 0 -1498 6835 0 3583 0 6839 0 0 1498 0 0zm137 -12852l-641 0c-531,0 -963,449 -963,999l0 1998c0,550 432,999 963,999l641 0c531,0 962,-449 962,-999l0 -1998c0,-550 -431,-999 -962,-999zm322 2997c0,182 -145,332 -322,332l-641 0c-177,0 -322,-150 -322,-332l0 -1998c0,-182 145,-332 322,-332l641 0c177,0 322,150 322,332l0 1998zm-17158 999c532,0 963,-449 963,-999l0 -1998c0,-550 -431,-999 -963,-999l-640 0c-532,0 -963,449 -963,999l0 1998c0,550 431,999 963,999l640 0 0 0zm-963 -999l0 -1998c0,-182 146,-332 323,-332l640 0c177,0 323,150 323,332l0 1998c0,182 -146,332 -323,332l-640 0c-177,4 -323,-146 -323,-332zm1254 -7530c0,-168 136,-304 304,-304l14987 0c168,0 304,136 304,304l0 4069 604 0 0 -4069c0,-499 -408,-908 -908,-908l-14987 0c-499,0 -908,409 -908,908l0 4069 604 0 0 -4069z"/>
</svg>
