<?xml version="1.0" encoding="utf-8"?>
<!-- Generator: Adobe Illustrator 22.0.1, SVG Export Plug-In . SVG Version: 6.00 Build 0)  -->
<svg version="1.1" id="Layer_1" xmlns="http://www.w3.org/2000/svg" xmlns:xlink="http://www.w3.org/1999/xlink" x="0px" y="0px"
	 viewBox="0 0 16 16" style="enable-background:new 0 0 16 16;" xml:space="preserve">
<style type="text/css">
	.st0{opacity:0.7;fill:#BCBCBC;enable-background:new    ;}
</style>
<path id="Forma_1_copy_3" class="st0" d="M0,12l0,3.3c0,0.2,0.1,0.4,0.2,0.5C0.3,15.9,0.5,16,0.7,16l0,0L4,16c0.2,0,0.4-0.1,0.5-0.2
	L15.8,4.5c0.3-0.3,0.3-0.7,0-1l-3.2-3.3c-0.3-0.3-0.7-0.3-1,0L9.3,2.5l0,0l-9.1,9C0.1,11.6,0,11.8,0,12z M12.1,1.7L14.3,4l-1.3,1.3
	L10.8,3L12.1,1.7z M1.4,12.3L9.8,4l2.3,2.3l-8.4,8.3l-2.3,0L1.4,12.3z"/>
</svg>
