<?xml version="1.0" encoding="UTF-8"?>
<!DOCTYPE svg PUBLIC "-//W3C//DTD SVG 1.1//EN" "http://www.w3.org/Graphics/SVG/1.1/DTD/svg11.dtd">
<!-- Creator: CorelDRAW X7 -->
<svg xmlns="http://www.w3.org/2000/svg" xml:space="preserve" version="1.1" style="shape-rendering:geometricPrecision; text-rendering:geometricPrecision; image-rendering:optimizeQuality; fill-rule:evenodd; clip-rule:evenodd"
viewBox="0 0 24231 21031"
 xmlns:xlink="http://www.w3.org/1999/xlink">
  <path id="Wallet_copy_3" class="fil0" d="M24231 5523c0,-1130 -808,-2100 -1777,-2261l-16962 -3231 -161 0c-969,-162 -1777,323 -2100,1131 0,161 0,323 0,484l0 3231 -1616 0c-1292,0 -1615,1292 -1615,2423l0 11631c0,1131 969,2100 2262,2100l19707 0c1293,0 2262,-969 2262,-2100m-19062 -17446l16639 3231c-162,161 -485,161 -808,161l-16154 0 0 -3231c0,-323 0,-161 323,-161zm17446 17931c0,323 485,0 0,0l-21000 0c-484,0 -161,-162 -161,-485l161 -10823c0,-323 -484,-1615 0,-1615l19385 0c646,161 1292,-162 1777,-647l-162 13570zm-17769 -8077c969,0 1616,646 1616,1615 0,969 -647,1615 -1616,1615 -969,0 -1615,-646 -1615,-1615 0,-808 646,-1615 1615,-1615 0,0 0,0 0,0l0 0z"/>
</svg>
