<?xml version="1.0" encoding="UTF-8"?>
<!DOCTYPE svg PUBLIC "-//W3C//DTD SVG 1.1//EN" "http://www.w3.org/Graphics/SVG/1.1/DTD/svg11.dtd">
<!-- Creator: CorelDRAW X7 -->
<svg xmlns="http://www.w3.org/2000/svg" xml:space="preserve" version="1.1" style="shape-rendering:geometricPrecision; text-rendering:geometricPrecision; image-rendering:optimizeQuality; fill-rule:evenodd; clip-rule:evenodd"
viewBox="0 0 21000 21029"
 xmlns:xlink="http://www.w3.org/1999/xlink">
  <path id="Shape_1_copy_3" class="fil0" d="M21000 9773l-1008 0 0 -4620c0,-1092 -924,-2016 -2016,-2016l-1344 0 -1428 -2520c-336,-588 -1092,-756 -1680,-504l-5460 3024 -6048 0c-1092,0 -2016,924 -2016,2016l0 13860c0,1092 924,2016 2016,2016l15876 0c1092,0 2016,-924 2016,-2016l0 -4032 1092 0 0 -5208 0 0 0 0zm-3024 -5796c588,0 1176,420 1176,1092l-1512 0 -588 -1092 924 0zm-4116 -3108c168,-84 420,0 588,168l2268 4032 -10332 0 7476 -4200zm5292 18144c0,672 -588,1176 -1260,1176 0,0 0,0 0,0l-15876 0c-672,0 -1176,-504 -1176,-1176l0 -13860c0,-672 588,-1176 1176,-1176l4620 0 -1932 1092 -2436 0c-168,0 -336,168 -336,336 0,252 168,420 420,420l16884 0 0 3948 -3024 0c-1344,0 -2520,1092 -2520,2520l0 168c0,1344 1092,2520 2520,2520l3024 0 -84 4032 0 0 0 0zm1008 -4872l-4032 0c-924,0 -1680,-756 -1680,-1680 0,0 0,0 0,0l0 -168c0,-924 756,-1680 1680,-1680 0,0 0,0 0,0l4032 0 0 3528 0 0zm-2688 -1764c0,504 -420,924 -924,924 -504,0 -924,-420 -924,-924 0,-504 420,-924 924,-924 0,0 0,0 0,0 504,84 924,504 924,924 0,0 0,0 0,0l0 0z"/>
</svg>
