<?xml version="1.0" encoding="UTF-8"?>
<!DOCTYPE svg PUBLIC "-//W3C//DTD SVG 1.1//EN" "http://www.w3.org/Graphics/SVG/1.1/DTD/svg11.dtd">
<!-- Creator: CorelDRAW X7 -->
<svg xmlns="http://www.w3.org/2000/svg" xml:space="preserve" version="1.1" style="shape-rendering:geometricPrecision; text-rendering:geometricPrecision; image-rendering:optimizeQuality; fill-rule:evenodd; clip-rule:evenodd"
viewBox="0 0 29649 19462"
 xmlns:xlink="http://www.w3.org/1999/xlink">
  <path class="fil0" d="M23469 13161c-583,-1281 -2679,-3028 -4659,-4717 -1106,-932 -2213,-1805 -2854,-2504 -232,-175 -465,-233 -698,-116 -408,174 -699,291 -874,349 -233,116 -524,233 -815,233 -175,0 -350,116 -466,291 -874,1340 -1805,1223 -2388,1048 -116,0 -233,-116 -233,-233 -116,-582 524,-1863 1340,-2737 2038,-2096 3028,-2620 5241,-1572 2504,1165 4950,2038 5008,2038 291,117 641,-58 757,-349 0,0 0,0 0,0 117,-350 -58,-699 -407,-815 0,0 -2446,-874 -4892,-2039 -2854,-1339 -4368,-466 -6639,1864 -874,873 -1980,2620 -1689,3960 117,524 524,990 1048,1165 1398,465 2679,0 3611,-1282 349,-58 641,-174 932,-291 116,-58 233,-116 407,-175 699,699 1689,1515 2679,2330 1806,1514 3902,3261 4368,4251 175,349 116,699 -175,990 -175,233 -524,291 -757,175 -175,-117 -466,-175 -640,0 -233,116 -350,349 -292,640 0,292 -174,583 -466,699 -291,175 -640,175 -990,0 -174,-175 -407,-233 -640,-116 -233,116 -350,291 -408,524 -58,407 -349,815 -757,990 -233,116 -524,58 -699,-117 -174,-116 -349,-174 -582,-174 -175,58 -349,233 -408,407 0,59 -58,233 -640,233 -524,-58 -1048,-233 -1514,-524 -408,-291 -3145,-2388 -5533,-4426 -349,-291 -873,-932 -1397,-1456 -466,-466 -874,-931 -1049,-1106 -233,-233 -640,-175 -873,58 0,0 0,0 0,0 -233,291 -175,641 58,932 175,175 582,582 990,990 524,582 1107,1223 1514,1572 2330,1980 5067,4135 5649,4543 641,407 1398,698 2213,757 524,58 990,-117 1398,-408 466,175 931,175 1397,0 583,-233 1049,-699 1281,-1223 525,117 1107,0 1573,-233 466,-233 815,-640 1048,-1106 524,0 1048,-175 1398,-524 699,-932 931,-1922 524,-2796zm-11065 -10599l-5590 0c-350,0 -641,292 -641,641 0,349 291,641 641,641l0 0 5590 0c350,0 641,-292 641,-641 0,-349 -291,-641 -641,-641zm12870 9260c-175,-291 -524,-350 -815,-175 0,0 0,0 0,0l-1805 1281c-292,233 -350,583 -175,874 116,175 291,291 524,291 116,0 233,-58 349,-116l1806 -1282c233,-174 291,-582 116,-873l0 0zm-3843 3028c-466,-349 -2446,-2446 -3669,-3785 -233,-233 -583,-291 -874,-58 0,0 0,0 0,0 -233,232 -233,640 0,931 291,350 3145,3378 3786,3902 116,117 232,117 407,117 175,0 350,-117 466,-233 175,-233 117,-641 -116,-874l0 0zm-2505 1281c-757,-640 -2620,-2679 -3028,-3144 -233,-233 -582,-292 -873,-59 0,0 0,0 0,0 -233,233 -291,641 -59,932 0,0 2272,2504 3145,3261 117,117 233,117 408,117 175,0 349,-117 466,-233 291,-233 233,-641 -59,-874l0 0zm-2445 1340c-874,-757 -2679,-2737 -3029,-3145 -233,-233 -582,-291 -873,-58 0,0 0,0 0,0 -233,233 -291,640 -58,931 524,583 2213,2446 3144,3262 117,116 233,174 408,174 175,0 349,-58 466,-233 233,-349 233,-698 -58,-931l0 0zm-9260 -16015c-1048,-1048 -5299,-1398 -6580,-1456 -175,0 -350,58 -466,175 -117,116 -175,291 -175,466l0 11530c0,350 291,641 641,641l3727 0c291,0 524,-175 582,-466 116,-291 2213,-7047 2504,-10366 0,-175 -58,-408 -233,-524zm-3319 10075l-2679 0 0 -10192c1980,175 4135,525 4892,932 -291,2796 -1747,7746 -2213,9260zm25157 -10250c-4833,0 -7570,1281 -7687,1340 -174,58 -291,233 -349,407 -58,175 0,350 58,524 757,1282 3145,8328 3611,10075 58,291 291,466 582,466l3727 0c350,0 641,-291 641,-641l0 -11530c58,-350 -233,-641 -583,-641 0,0 0,0 0,0l0 0zm-582 11531l-2621 0c-582,-1980 -2329,-7163 -3261,-9260 1864,-640 3844,-990 5882,-990l0 10250z"/>
</svg>
