<?xml version="1.0" encoding="UTF-8"?>
<!DOCTYPE svg PUBLIC "-//W3C//DTD SVG 1.1//EN" "http://www.w3.org/Graphics/SVG/1.1/DTD/svg11.dtd">
<!-- Creator: CorelDRAW X7 -->
<svg xmlns="http://www.w3.org/2000/svg" xml:space="preserve" version="1.1" style="shape-rendering:geometricPrecision; text-rendering:geometricPrecision; image-rendering:optimizeQuality; fill-rule:evenodd; clip-rule:evenodd"
viewBox="0 0 29739 17820"
 xmlns:xlink="http://www.w3.org/1999/xlink">
  <path class="fil0" d="M25509 2322c-432,-432 -972,-702 -1566,-702l-1458 0c-594,0 -1188,270 -1566,702 -432,432 -594,1026 -594,1674l54 1026 162 2322c54,918 594,1782 1350,2214 810,432 1782,432 2592,0 810,-432 1296,-1296 1350,-2214l162 -2700 54 -648c54,-648 -162,-1242 -540,-1674zm-3996 1566c0,-270 54,-540 270,-756 162,-216 432,-324 702,-324l1026 0 -216 540c-432,540 -1080,864 -1782,918l0 -378zm3186 3348c-54,486 -324,972 -756,1242 -432,270 -972,270 -1404,0 -432,-270 -756,-702 -756,-1242l-162 -1728c810,-108 1512,-378 2160,-864 108,54 162,108 270,162 270,108 486,216 756,270l-108 2160zm-108 -3510c-54,0 -54,-54 -108,-54l162 -486c162,162 216,432 216,648 -54,-54 -162,-54 -270,-108l0 0zm5130 11286l-216 -1350c-270,-1674 -1566,-2970 -3186,-3294 -270,-54 -486,-54 -756,-54l-702 0c-162,0 -324,54 -432,162l-1188 1242 -1188 -1242c-108,-108 -270,-162 -432,-162l-702 0c-810,0 -1566,216 -2214,702 -216,0 -432,-54 -648,-54l-1296 0c-162,0 -324,54 -432,162l-1404 1458 -1458 -1458c-108,-108 -270,-162 -432,-162l-1242 0c-216,0 -432,0 -594,54 -648,-432 -1404,-702 -2214,-702l-702 0c-162,0 -324,54 -432,162l-1188 1242 -1188 -1242c-108,-108 -270,-162 -432,-162l-864 0c-270,0 -486,0 -756,54 -1620,324 -2916,1620 -3186,3294l-216 1350c-54,162 0,378 108,486 108,162 270,216 432,216l5940 0 -270 1404c-54,162 0,378 108,486 108,162 270,216 432,216l15984 0c162,0 324,-54 432,-216 108,-162 162,-324 108,-486l-270 -1404 5940 0c162,0 324,-54 432,-216 324,-108 378,-324 324,-486zm-17010 -2862l1728 1728c216,216 594,216 810,0 0,0 0,0 0,0l1674 -1728 540 0 -2646 2700 -2646 -2700 540 0 0 0zm-5886 2376l-5508 0 108 -648c216,-1188 1080,-2106 2268,-2322 162,-54 324,-54 540,-54l486 0 1458 1512c216,216 594,216 810,0 0,0 0,0 0,0l1458 -1512 486 0c162,0 270,0 432,54 -1242,648 -2106,1674 -2538,2970zm756 2106l216 -1080c270,-1566 1404,-2808 2916,-3240l3780 3888c216,216 594,216 810,0 0,0 0,0 0,0l3780 -3888c1512,432 2646,1674 2916,3240l216 1080 -14634 0 0 0zm15336 -2106c-432,-1296 -1296,-2322 -2484,-2970 162,0 270,-54 432,-54l486 0 1458 1512c216,216 594,216 810,0 0,0 0,0 0,0l1458 -1512 486 0c162,0 378,0 540,54 1134,216 2052,1134 2268,2322l108 648 -5562 0 0 0zm-14094 -12204c-378,-432 -972,-702 -1566,-702l-1458 0c-594,0 -1134,270 -1566,702 -378,432 -594,1026 -540,1674l54 1026 162 2322c54,918 594,1782 1350,2214 810,432 1782,432 2592,0 810,-432 1296,-1296 1350,-2214l162 -2700 54 -648c54,-648 -162,-1242 -594,-1674l0 0zm-3942 1566c0,-270 54,-540 270,-756 162,-216 432,-324 702,-324l1026 0 -216 540c-432,540 -1080,864 -1782,918l0 -378zm3132 3348c-54,486 -324,972 -756,1242 -432,270 -972,270 -1404,0 -432,-270 -756,-702 -756,-1242l-108 -1782c810,-108 1512,-378 2160,-864 108,54 162,108 270,162 270,108 486,216 756,270l-162 2214zm-108 -3510c-54,0 -54,-54 -108,-54l162 -486c162,162 216,432 216,648 -54,-54 -162,-54 -270,-108l0 0zm9882 -2862c-486,-540 -1188,-864 -1944,-864l-1944 0c-756,0 -1458,324 -1944,864 -486,540 -756,1296 -702,2052l108 1350 216 3132c54,1188 702,2214 1728,2808 1026,594 2268,594 3240,0 1026,-594 1674,-1620 1728,-2808l216 -3618 0 0 54 -918c0,-702 -216,-1458 -756,-1998l0 0zm-5346 2700l-54 -756c-54,-432 108,-864 378,-1134 270,-324 702,-486 1080,-486l1674 0 -378 1026c-54,162 -702,1080 -2700,1350l0 0zm4590 3780c-54,756 -486,1458 -1134,1836 -648,378 -1458,378 -2106,0 -648,-378 -1080,-1080 -1134,-1836l-162 -2538c1134,-108 2214,-540 3078,-1242 162,108 270,216 486,324 378,162 756,324 1188,432l-216 3024zm324 -4482l0 162c-270,-54 -486,-162 -702,-270 -108,-54 -216,-108 -270,-162l378 -1080c54,54 162,108 216,162 270,324 378,756 378,1188l0 0zm-6858 12096l-1512 0c-324,0 -594,270 -594,648 0,324 270,594 594,594l1512 0c324,0 594,-270 594,-648 0,-324 -270,-594 -594,-594zm1782 0l-108 0c-324,0 -594,270 -594,648 0,324 270,594 594,594l108 0c324,0 594,-270 594,-648 0,-324 -270,-594 -594,-594z"/>
</svg>
