<?xml version="1.0" encoding="UTF-8"?>
<!DOCTYPE svg PUBLIC "-//W3C//DTD SVG 1.1//EN" "http://www.w3.org/Graphics/SVG/1.1/DTD/svg11.dtd">
<!-- Creator: CorelDRAW X7 -->
<svg xmlns="http://www.w3.org/2000/svg" xml:space="preserve" version="1.1" style="shape-rendering:geometricPrecision; text-rendering:geometricPrecision; image-rendering:optimizeQuality; fill-rule:evenodd; clip-rule:evenodd"
viewBox="0 0 23692 21000"
 xmlns:xlink="http://www.w3.org/1999/xlink">
  <path id="Forma_1" class="fil0" d="M18846 16423c-215,-161 -484,-108 -646,108 -162,215 -323,377 -485,592 -161,162 -269,269 -430,431 -216,161 -216,431 -54,646 0,0 0,0 0,0 161,215 431,215 646,54 161,-162 377,-323 538,-485 216,-215 377,-431 539,-700 161,-215 108,-538 -108,-646 0,0 0,0 0,0zm-2046 2046c-108,-215 -377,-323 -592,-215l0 0c-216,108 -323,377 -216,592 0,0 0,0 0,0 54,162 216,269 431,269 54,0 108,0 162,-53l53 0c162,-108 270,-377 162,-593 0,0 0,0 0,0l0 0zm5492 -18469l-20892 0c-754,0 -1400,592 -1400,1346l0 12816c0,753 646,1346 1400,1346l9746 0c323,1400 1077,2746 2154,3715 1185,1131 2585,1777 3069,1777 485,0 1885,-592 3069,-1777 1077,-1023 1831,-2315 2154,-3715l700 0c754,0 1400,-593 1400,-1346l0 -12816c0,-754 -646,-1346 -1400,-1346zm-1400 13677c0,1831 -754,3608 -2046,4900 -700,1346 -2369,1938 -3715,1238 -539,-269 -969,-700 -1239,-1238 -1346,-1292 -2100,-3069 -2046,-4900l0 -2262c1562,-430 3123,-1077 4523,-1884 1454,807 2962,1454 4523,1884l0 2262 0 0zm1885 485c0,269 -215,430 -431,430l-538 0c54,-323 54,-646 54,-969l0 -2585c0,-215 -162,-376 -324,-430 -1723,-485 -3338,-1131 -4900,-2046 -161,-108 -323,-108 -484,0 -1508,915 -3177,1561 -4900,2046 -216,54 -323,215 -323,430l0 2585c0,323 0,646 54,969l-9585 0c-269,0 -431,-215 -431,-430l0 -7754 21862 0 -54 7754 0 0zm0 -8670l-21862 0 0 -1830 21862 0 0 1830zm0 -2746l-21862 0 0 -1400c0,-269 216,-431 431,-431l20946 0c270,0 431,216 431,431l0 1400 54 0zm-17231 6839c-538,215 -1077,215 -1615,0 -1131,0 -2046,915 -2046,2046 0,1131 915,2046 2046,2046 538,-215 1077,-215 1615,0 1131,0 2046,-915 2046,-2046 0,-1131 -915,-2046 -2046,-2046zm-1615 3177c-646,0 -1131,-539 -1131,-1131 0,-646 538,-1131 1131,-1131 646,0 1131,538 1131,1131 0,646 -485,1131 -1131,1131l0 0zm1723 0c484,-700 484,-1562 0,-2262 646,0 1184,485 1184,1131 0,646 -538,1184 -1184,1131 0,53 0,53 0,0l0 0zm-969 -5224l-2370 0c-269,0 -484,216 -484,431 0,269 215,485 484,485l0 0 2370 0c269,0 430,-216 430,-431 54,-269 -161,-485 -430,-485l0 0zm1400 0l0 0c-270,0 -485,216 -485,431 0,269 215,485 485,485l0 0 0 0c269,0 430,-216 430,-431 0,-269 -215,-485 -430,-485l0 0zm12815 5062c-162,-162 -485,-162 -646,0l-2477 2423 -1292 -1292c-162,-162 -485,-162 -647,0 -161,161 -161,484 0,646 0,0 0,0 0,0l1616 1615c161,162 484,162 646,0l2800 -2746c215,-161 215,-484 0,-646 0,0 0,0 0,0z"/>
</svg>
