<?xml version="1.0" encoding="UTF-8"?>
<!DOCTYPE svg PUBLIC "-//W3C//DTD SVG 1.1//EN" "http://www.w3.org/Graphics/SVG/1.1/DTD/svg11.dtd">
<!-- Creator: CorelDRAW X7 -->
<svg xmlns="http://www.w3.org/2000/svg" xml:space="preserve" version="1.1" style="shape-rendering:geometricPrecision; text-rendering:geometricPrecision; image-rendering:optimizeQuality; fill-rule:evenodd; clip-rule:evenodd"
viewBox="0 0 15168 21000"
 xmlns:xlink="http://www.w3.org/1999/xlink">
  <path class="fil0" d="M3268 11352l8592 0c640,0 1163,-542 1163,-1206l0 -3390c0,-665 -523,-1207 -1163,-1207l-986 0 0 -552c0,-664 -523,-1206 -1163,-1206l-4343 0c-644,-5 -1167,537 -1167,1201l0 552 -933 0c-640,0 -1163,543 -1163,1207l0 3390c-4,669 518,1211 1163,1211zm1710 -6360c0,-219 176,-400 386,-400l4342 0c215,0 386,181 386,400l0 552 -5114 0 0 -552zm-2101 1759c0,-220 176,-401 386,-401l8593 0c214,0 385,181 385,401l0 3390c0,220 -175,401 -385,401l-8588 0c-215,0 -386,-181 -386,-401l-5 -3390 0 0zm8480 6746c-913,0 -1646,733 -1646,1646 0,914 733,1646 1646,1646 914,0 1647,-732 1647,-1646 0,-913 -733,-1646 -1647,-1646zm0 2594c-513,0 -913,-401 -913,-914 0,-513 400,-913 913,-913 513,0 914,400 914,913 0,508 -401,914 -914,914zm-7571 693c913,0 1646,-732 1646,-1646 0,-913 -733,-1646 -1646,-1646 -914,0 -1646,733 -1646,1646 4,914 732,1646 1646,1646zm0 -2520c513,0 913,400 913,913 0,508 -400,914 -913,914 -513,0 -914,-401 -914,-914 0,-513 401,-913 914,-913zm10527 6736l854 0 -1690 -2291c718,-283 1217,-982 1251,-1778l0 -13038c0,-1455 -1202,-2657 -2653,-2657l-732 0c-113,-704 -714,-1236 -1451,-1236 -738,0 -1334,532 -1441,1231l-1754 0 0 0c-107,-699 -708,-1231 -1446,-1231 -737,0 -1333,532 -1441,1231l0 0 -747 0c-1451,0 -2658,1207 -2658,2662l0 13038c0,816 538,1529 1275,1798l-1680 2271 855 0 1592 -2159 10268 0 1598 2159zm-5227 -19579c0,-9 5,-24 5,-34 0,-9 5,-24 5,-34 4,-15 4,-29 9,-44 0,-5 5,-14 5,-19 5,-20 10,-35 15,-54 107,-323 405,-547 767,-547 361,0 664,224 767,547 5,19 10,34 14,54 0,4 5,9 5,19 5,15 5,29 10,44 0,10 5,25 5,34 0,10 5,25 5,34 0,25 5,49 5,74 0,29 0,53 -5,83 0,14 -5,29 -5,44 0,14 -5,24 -5,39 -5,19 -10,39 -15,54 0,4 -4,14 -4,19 -5,20 -15,44 -25,64 0,4 0,4 -5,9 -10,25 -19,44 -29,69 0,0 0,0 0,0 -34,68 -83,132 -132,185 -147,152 -352,245 -586,245 -235,0 -440,-93 -586,-245 -54,-53 -98,-117 -132,-185 0,0 0,0 0,-5 -10,-20 -20,-44 -30,-68 0,-5 0,-5 -4,-10 -10,-20 -15,-44 -25,-64 0,-5 -5,-14 -5,-19 -5,-20 -9,-39 -14,-54 -5,-15 -5,-24 -5,-39 0,-15 -5,-29 -5,-39 -5,-30 -5,-54 -5,-83 0,-25 5,-49 5,-74zm-3835 -737c455,0 811,356 811,811 0,454 -356,811 -811,811 -454,0 -811,-357 -811,-811 0,-455 357,-811 811,-811zm-4015 16203l0 -13043c0,-996 786,-1783 1783,-1783l904 0c229,508 737,860 1333,860 596,0 1104,-352 1334,-860l1973 0c230,508 738,860 1334,860 596,0 1104,-352 1333,-860l884 0c997,0 1783,831 1783,1827l5 12999c-5,576 -503,1080 -1079,1080l-10503 0c-591,0 -1084,-499 -1084,-1080z"/>
</svg>
