<?xml version="1.0" encoding="UTF-8"?>
<!DOCTYPE svg PUBLIC "-//W3C//DTD SVG 1.1//EN" "http://www.w3.org/Graphics/SVG/1.1/DTD/svg11.dtd">
<!-- Creator: CorelDRAW X7 -->
<svg xmlns="http://www.w3.org/2000/svg" xml:space="preserve" version="1.1" style="shape-rendering:geometricPrecision; text-rendering:geometricPrecision; image-rendering:optimizeQuality; fill-rule:evenodd; clip-rule:evenodd"
viewBox="0 0 19524 21000"
 xmlns:xlink="http://www.w3.org/1999/xlink">
  <path id="Forma_1_copy_2" class="fil0" d="M7976 2950c-150,-150 -400,-100 -550,50 0,0 0,0 0,0 -500,600 -800,1300 -1000,2050 -50,200 100,450 300,500 50,0 50,0 100,0 200,0 350,-150 400,-300 150,-650 400,-1250 800,-1750 150,-150 150,-400 -50,-550 0,0 0,0 0,0zm1100 -750c-100,-200 -350,-250 -550,-150 0,0 0,0 0,0l0 0c-200,100 -250,350 -150,550 50,150 200,200 350,200 50,0 150,0 200,-50l0 0c200,-100 250,-350 150,-550l0 0zm-6650 6350c-200,-100 -450,0 -550,200 0,0 0,0 0,0 -250,650 -400,1300 -350,2000 0,200 200,400 400,400l0 0c200,0 400,-200 400,-400 0,0 0,0 0,0 -50,-550 50,-1100 300,-1600 100,-250 0,-500 -200,-600l0 0zm800 -950c-150,-150 -400,-150 -550,0 0,0 0,0 0,0l0 0c-150,150 -150,400 0,600 150,150 400,150 550,0 0,0 0,0 0,0l0 0c200,-150 200,-400 0,-600 0,0 0,0 0,0l0 0zm15750 50c-550,-1150 -1550,-2000 -2800,-2350 -200,-50 -400,-100 -600,-100 -350,-2950 -2600,-5200 -5350,-5200 -2650,0 -4850,2150 -5300,4950 -450,0 -900,50 -1350,150 -1300,350 -2400,1300 -3000,2500 -1150,2500 -550,5450 1550,7200 850,750 1950,1150 3100,1200 -100,250 -150,450 -150,700 -50,500 300,1000 800,1100 150,50 250,50 400,50 100,0 200,0 300,-50 50,250 50,600 100,900 50,400 100,850 150,1300 50,200 200,350 400,350 0,0 50,0 50,0 200,-50 400,-250 350,-450 -50,-450 -100,-850 -150,-1250 -50,-400 -50,-750 -100,-1050 250,-50 450,-200 600,-350 300,-300 400,-800 200,-1200 -100,-300 -300,-550 -550,-700 550,-350 1050,-800 1450,-1350 50,0 50,50 100,50 200,150 450,200 700,200 0,0 50,0 50,0 -50,300 -100,650 -150,1050 -300,1650 -650,3950 200,5500 50,150 200,200 350,200 250,0 400,-200 400,-400 0,-50 0,-150 -50,-200 -700,-1250 -400,-3400 -100,-4950 100,-450 150,-850 150,-1150 0,0 50,0 50,0l0 0c250,0 500,-100 700,-200 0,0 0,0 0,0 300,300 600,600 1000,800 -200,150 -400,400 -500,650 -200,400 -100,850 200,1150 150,150 300,250 500,350 -250,950 -300,1950 -100,2900 50,200 250,350 500,300 0,0 0,0 0,0 200,-50 350,-300 300,-500 -150,-800 -150,-1650 100,-2450 100,50 200,50 300,50l0 0c100,0 250,0 350,-50 450,-150 800,-600 750,-1050 0,-200 -50,-450 -150,-650 1050,-50 2050,-400 2850,-1100 1900,-1750 2500,-4550 1400,-6850l0 0zm-11600 9100c-50,100 -150,150 -250,150 -50,0 -50,0 -100,-50 0,0 0,0 0,0 0,0 0,0 -50,0l0 0c0,0 0,0 0,0l0 0c0,0 0,0 -50,0l0 0c0,0 0,0 -50,0l0 0 -50 0 0 0c-50,0 -50,0 -100,0l0 0c0,0 -50,0 -50,0l0 0c0,0 0,0 0,0 0,0 0,0 -50,0 0,0 0,0 0,0 0,0 0,0 0,0 0,0 0,0 0,0 0,0 0,0 0,0 0,0 0,0 0,0l0 0c0,0 0,0 0,0 0,0 0,0 0,0 0,0 0,0 0,0 0,0 0,0 0,0 0,0 0,0 0,0 0,0 0,0 0,0l0 0c0,0 0,0 0,0l0 0c0,0 0,0 0,0 -50,50 -100,100 -150,100 -50,0 -100,0 -150,-50 -150,-50 -250,-200 -200,-350 0,-400 200,-700 550,-850 50,0 100,0 150,0 350,0 650,250 850,550 -200,250 -250,400 -300,500l0 0zm1600 -4800l-50 50 -50 50 0 0c-50,100 -150,200 -200,300 0,0 0,0 0,0 0,0 0,50 0,50 -50,100 -50,150 -100,250 -50,100 -50,250 -50,400 0,0 0,0 0,50 0,0 0,0 0,50 0,0 0,50 0,50l0 0c0,0 0,50 0,50 -500,900 -1350,1550 -2300,1800 -300,100 -650,150 -950,150 -1950,0 -3700,-1500 -4250,-3650 -350,-1200 -200,-2450 350,-3600 500,-1000 1400,-1800 2450,-2100 300,-100 650,-150 950,-150 50,0 50,0 100,0l0 50c0,50 0,50 0,100l0 300c0,0 0,50 0,50l0 100c0,50 0,50 0,100 0,0 0,50 0,50 0,50 0,50 0,100 0,0 0,50 0,50 0,50 0,50 0,100l0 50 0 100 0 0c50,250 100,550 150,800 0,0 0,0 0,0 0,50 0,50 50,100 0,0 0,0 0,50 0,50 0,50 50,100l0 50c0,0 0,50 0,50l50 100c0,0 0,50 0,50 200,700 550,1300 1000,1900 550,700 1250,1300 2100,1650 0,0 0,0 50,0l150 50 100 50c50,0 50,0 100,50 50,50 100,50 100,50 50,0 50,0 100,50 0,0 50,0 100,0 0,0 0,0 0,0 0,0 0,0 0,0l0 0zm2150 1300l0 0c-50,50 -50,100 -100,100 -100,50 -200,100 -300,100 -50,0 -100,-50 -150,-100 0,0 0,0 0,0 0,0 0,0 -50,0 0,0 0,0 0,0 0,0 0,0 0,0 0,0 0,0 0,0 0,0 0,0 -50,0 -50,0 0,0 0,0l-50 0c0,0 0,0 0,0 -50,0 -100,-50 -150,-50l0 0c0,0 -50,0 -50,0l0 0 0 0 0 0c0,0 0,0 0,0 0,0 0,0 0,0l0 0c0,0 0,0 -50,0l0 0c0,0 0,0 -50,0 0,0 0,0 0,0 0,0 0,0 -50,0 0,0 0,0 0,0 0,0 0,0 -50,0 0,0 0,0 0,0 0,0 0,0 0,0 0,0 0,0 0,0 -50,50 -100,100 -150,100 -100,0 -200,-50 -300,-100 -50,-50 -100,-100 -150,-150l0 0c0,-50 0,-150 0,-200l0 0c0,0 0,0 0,-50 0,-50 0,0 0,-50 0,-50 0,0 0,-50 0,-50 0,0 0,0 50,-200 200,-400 350,-550 0,0 0,0 50,0 150,-100 300,-200 500,-200 100,0 200,0 250,50 0,0 0,0 0,0 200,100 350,250 450,450l0 0 50 50c0,0 0,0 0,0 0,0 0,50 0,50 0,0 0,0 0,0 0,0 0,50 50,50l0 0c0,0 0,50 0,50l0 0 0 50c0,0 0,0 0,0l0 0c0,0 0,0 0,0 0,0 0,0 0,50 50,200 50,300 0,400l0 0zm-250 -2000l0 0 -100 0 0 0c-50,0 -50,0 -100,0 -150,0 -250,0 -400,0 -200,0 -450,0 -650,-50l-50 0c0,0 -50,0 -50,0 0,0 -50,0 -50,0 0,0 -50,0 -50,0l-50 0c0,0 -50,0 -50,0l-50 0 -50 0 -50 0 -50 0 -50 0 -50 0 -100 -50c0,0 0,0 -50,0 -50,0 -50,0 -100,-50l0 0c-50,0 -50,0 -100,-50l0 0 -150 -150 0 0c-1650,-850 -2700,-2500 -2800,-4350l0 0c0,-50 0,-50 0,-100 0,0 0,0 0,-50l0 -100c0,0 0,-50 0,-50l0 -50c0,-50 0,-100 0,-150 0,-50 0,-100 0,-150l0 0c0,-50 0,-100 0,-150l0 0c0,-50 0,-100 0,-150l0 0 0 -150c250,-2600 2200,-4650 4550,-4650 2400,0 4350,2100 4550,4800l0 0c0,100 0,150 0,250l0 0c0,50 0,50 0,100l0 100c0,2650 -1700,4850 -3950,5200l0 0zm3000 5200c-50,0 -100,0 -150,0 -50,0 -100,0 -150,-100l0 0c0,0 0,-50 0,-50 0,0 0,0 0,0l0 0c0,0 0,0 0,-50 0,0 0,0 0,0 0,0 0,0 0,0 0,0 0,0 0,0 0,0 0,0 0,0 0,0 0,0 0,0 0,0 0,0 -50,0 -50,0 0,0 0,0 0,0 0,0 -50,0l0 0c0,0 0,0 0,0 0,0 0,0 0,0 0,0 0,0 0,0 0,0 0,0 0,0l0 0 0 0c0,0 -50,0 -50,0l0 0c0,0 -50,0 -50,0l0 0c0,0 -50,0 -50,0l0 0c0,0 -50,0 -50,0 0,0 0,0 0,0 0,0 -50,0 -50,0 0,0 0,0 0,0 0,0 -50,0 -50,50 0,0 0,0 0,0 0,0 -50,50 -100,50 -100,0 -150,-50 -200,-150 -50,-50 -100,-150 -50,-250 150,-300 400,-500 750,-500 50,0 100,0 100,0 300,150 500,450 500,800 -150,0 -200,150 -300,200l0 0zm4650 -5100c-550,2000 -2150,3350 -3950,3350 -300,0 -600,-50 -900,-100 -700,-200 -1350,-600 -1800,-1150 50,-100 50,-250 50,-350 0,0 0,0 0,-50 0,0 0,-50 0,-50 0,0 0,-50 0,-50 0,0 0,-50 0,-50l0 -50c0,0 0,-50 0,-50 0,0 0,0 0,0l0 -50 0 0 0 0 -50 -100c0,0 0,0 0,0 0,0 0,-50 0,-50l0 -50c0,0 0,0 0,0 -100,-150 -200,-350 -300,-500 0,0 50,0 50,0l100 0c1000,-300 1900,-950 2600,-1750 650,-800 1050,-1750 1300,-2700 0,0 0,0 0,-50 0,-50 0,-50 0,-100 0,0 0,-50 0,-50l0 -100c0,0 0,-50 0,-50 0,0 0,-50 0,-50 0,-50 0,-50 0,-100 0,0 0,-50 0,-50 0,0 0,-50 0,-100 0,-50 0,-50 0,-50 0,0 0,-50 0,-100 0,0 0,-50 0,-50 0,-50 0,-50 0,-100l0 -50c0,-50 0,-50 0,-100 0,0 0,-50 0,-50l0 -150c0,-50 0,-50 0,-100l0 -200c100,0 200,50 300,50 1000,300 1850,1000 2300,1950 500,1050 650,2250 300,3350l0 0z"/>
</svg>
