<?xml version="1.0" encoding="UTF-8"?>
<!DOCTYPE svg PUBLIC "-//W3C//DTD SVG 1.1//EN" "http://www.w3.org/Graphics/SVG/1.1/DTD/svg11.dtd">
<!-- Creator: CorelDRAW X7 -->
<svg xmlns="http://www.w3.org/2000/svg" xml:space="preserve" version="1.1" style="shape-rendering:geometricPrecision; text-rendering:geometricPrecision; image-rendering:optimizeQuality; fill-rule:evenodd; clip-rule:evenodd"
viewBox="0 0 23730 21053"
 xmlns:xlink="http://www.w3.org/1999/xlink">
  <path id="Forma_1_copy_3" class="fil0" d="M22523 14385l-1995 -892c-158,-53 -263,-210 -210,-368l0 -525c682,-577 1102,-1417 1102,-2310l0 -787c210,-105 368,-368 368,-630l0 -53c0,-1627 -1313,-2940 -2940,-2940l-735 0c-1628,0 -2940,1313 -2940,2940l0 683c0,210 105,420 262,577 53,0 53,53 105,53l0 157c0,893 420,1733 1103,2310l0 525c0,158 -105,315 -210,368l-1995 892c-683,315 -1103,945 -1103,1680l0 4568c0,210 158,367 368,367 210,0 367,-157 367,-367l0 -4568c0,-52 0,-105 0,-105l945 945c158,158 210,315 210,525l0 3255c0,210 158,368 368,368 210,0 367,-158 367,-368l0 -3255c0,-367 -157,-735 -420,-1050l-1102 -1102c105,-105 210,-210 367,-263l1995 -892 1470 1470 0 5040c0,210 158,367 368,367 210,0 367,-157 367,-367l0 -5040 1470 -1470 1995 892c158,53 263,158 368,263l-1313 1102c-262,263 -420,630 -420,1050l0 3255c0,210 158,368 368,368 210,0 367,-158 367,-368l0 -3255c0,-210 105,-420 210,-525l945 -945c0,53 0,105 0,105l0 4568c0,210 158,367 368,367 210,0 367,-157 367,-367l0 -4568c-105,-735 -525,-1365 -1207,-1680zm-4043 630l-1260 -1260c105,-157 158,-367 158,-577l0 -158c367,158 735,210 1155,210 367,0 787,-52 1155,-210l0 158c0,210 52,367 157,577l-1365 1260zm0 -2467c-1260,0 -2257,-998 -2257,-2258l0 -157c210,-105 420,-210 630,-420 157,-158 157,-368 0,-473 -105,-157 -368,-157 -473,0 -157,158 -315,263 -525,315 0,0 0,0 0,0 0,0 0,0 0,-52l0 -683c0,-1260 998,-2257 2258,-2257l735 0c1260,0 2257,997 2257,2257l0 105c0,0 0,0 0,0 -2047,420 -3097,-367 -3465,-735 -157,-157 -367,-157 -472,0 0,0 0,0 0,0 -105,158 -105,368 0,473 1102,1050 2625,1102 3622,997l0 630c-52,1260 -1102,2258 -2310,2258l0 0zm-7770 -4043l-735 0c-1207,0 -2205,998 -2205,2205l0 735c0,210 158,368 315,368 0,0 0,0 0,0l53 0 0 420c0,630 262,1207 735,1627l0 473c0,157 -105,262 -210,367l-1943 945c-472,263 -787,735 -787,1313l0 3727c0,210 157,368 367,368 210,0 368,-158 368,-368l0 -3727c0,-53 0,-105 52,-210l525 525c158,157 210,315 210,525l0 2887c0,210 158,368 368,368 210,0 367,-158 367,-368l0 -2887c0,-368 -157,-735 -420,-1050l-577 -578 1890 -945c52,-52 105,-52 157,-105l840 840 0 4673c0,210 158,367 368,367 210,0 367,-157 367,-367l0 -4673 840 -840c53,53 105,53 158,105l315 158c52,0 105,52 157,52 210,0 368,-157 368,-367 0,-105 -53,-263 -210,-315l-315 -158c-158,-52 -210,-210 -210,-367l0 -473c472,-420 735,-997 735,-1627l0 -368 52 0c210,0 368,-157 368,-367l0 -735c-158,-1208 -1155,-2153 -2363,-2153l0 0zm-367 6878l-788 -788c0,-105 53,-157 53,-262l0 -53c262,105 525,158 735,158 262,0 525,-53 787,-158l0 53c0,105 0,210 53,262l-840 788zm1470 -3203c0,840 -683,1523 -1523,1523 -840,0 -1522,-683 -1522,-1523l0 -577c315,-105 577,-263 840,-473 682,368 1417,578 2205,630l0 420 0 0zm367 -1102c-840,-53 -1680,-263 -2415,-683 -52,-52 -105,-52 -210,-52 -105,0 -157,52 -262,105 -263,262 -578,472 -893,577l0 -315 0 0c0,-840 683,-1522 1523,-1522l735 0c840,0 1522,682 1522,1522l0 368 0 0zm-7035 2940l0 -735c0,-998 -787,-1838 -1837,-1838 -1050,0 -1838,788 -1838,1838l0 735c0,577 263,1102 735,1470l0 525c0,0 0,0 0,0l-1627 787c-368,210 -578,578 -578,998l0 2887c0,158 158,315 368,315 210,0 367,-157 367,-367l0 -2888c0,-157 105,-262 210,-367l1103 -525 892 997 0 2835c0,210 158,368 368,368 210,0 367,-158 367,-368l0 0 0 -2835 945 -945 53 0c52,0 105,53 157,53 210,0 368,-158 368,-368 0,-105 -53,-262 -210,-315l-525 -262c0,0 0,0 0,0l0 -525c367,-368 682,-893 682,-1470l0 0zm-1837 -1890c630,0 1155,525 1155,1155 0,0 0,0 0,0l0 0c-735,-53 -1523,-158 -2258,-263 105,-525 578,-892 1103,-892l0 0zm0 5092l-683 -682c158,-158 263,-315 263,-578l0 -210c105,53 262,53 420,53 157,0 262,0 420,-53l0 210c0,210 105,420 262,578l-682 682zm0 -2100c-630,0 -1155,-525 -1155,-1155l0 -315c735,158 1522,263 2257,263l0 52c0,683 -472,1155 -1102,1155l0 0zm-1470 3360c-210,0 -368,158 -368,368 0,0 0,0 0,0l0 1837c0,210 158,368 368,368 210,0 367,-158 367,-368l0 -1837c-52,-210 -210,-368 -367,-368l0 0zm21735 -17902c-53,-105 -158,-210 -263,-210l-2940 -368c-210,0 -367,105 -367,315 0,210 105,368 315,368l1680 210 -21735 8872c-158,53 -263,263 -210,473 52,105 157,210 315,210 52,0 105,0 157,0l21683 -8873 -1050 1313c-105,157 -105,367 52,472 0,0 0,0 0,0 53,53 158,53 210,53 105,0 210,-53 263,-158l1837 -2362c105,-53 105,-158 53,-315l0 0z"/>
</svg>
