<?xml version="1.0" encoding="UTF-8"?>
<!DOCTYPE svg PUBLIC "-//W3C//DTD SVG 1.1//EN" "http://www.w3.org/Graphics/SVG/1.1/DTD/svg11.dtd">
<!-- Creator: CorelDRAW X7 -->
<svg xmlns="http://www.w3.org/2000/svg" xml:space="preserve" version="1.1" style="shape-rendering:geometricPrecision; text-rendering:geometricPrecision; image-rendering:optimizeQuality; fill-rule:evenodd; clip-rule:evenodd"
viewBox="0 0 29077 21000"
 xmlns:xlink="http://www.w3.org/1999/xlink">
  <path id="Forma_1_copy" class="fil0" d="M10985 11469l-10339 8885c323,484 969,646 1454,646l24877 0c485,0 969,-162 1454,-485l-10339 -8884 -3554 3069 -3553 -3231zm15992 -11469l-24877 0c-485,0 -1131,162 -1454,485l13892 12115 13893 -11954c-323,-484 -969,-646 -1454,-646l0 0zm-26977 19223l10015 -8561 -10015 -8885 0 17446 0 0zm29077 0l0 -17446 -10015 8885 10015 8561z"/>
</svg>
