<?xml version="1.0" encoding="UTF-8"?>
<!DOCTYPE svg PUBLIC "-//W3C//DTD SVG 1.1//EN" "http://www.w3.org/Graphics/SVG/1.1/DTD/svg11.dtd">
<!-- Creator: CorelDRAW X7 -->
<svg xmlns="http://www.w3.org/2000/svg" xml:space="preserve" version="1.1" style="shape-rendering:geometricPrecision; text-rendering:geometricPrecision; image-rendering:optimizeQuality; fill-rule:evenodd; clip-rule:evenodd"
viewBox="0 0 26364 21000"
 xmlns:xlink="http://www.w3.org/1999/xlink">
 <g id="Слой_x0020_1">
  <path class="fil0" d="M24695 0l-17339 0c-915,0 -1669,754 -1669,1669l0 5062c-485,107 -861,323 -1238,646 -431,431 -647,1077 -593,1669l54 1077 162 2531c54,969 592,1831 1454,2261 861,485 1884,485 2746,0 215,-107 430,-269 646,-484l15777 0c915,0 1669,-754 1669,-1669l0 -11093c0,-915 -754,-1669 -1669,-1669zm-19762 9531l-54 -539c0,-323 108,-646 323,-915 216,-269 539,-377 916,-377l1346 0 -269 754c-446,668 -1522,978 -2262,1077zm3769 3015c-53,592 -376,1131 -915,1400 -538,269 -1185,269 -1723,0 -538,-269 -862,-808 -915,-1400l-108 -1992c915,-54 1831,-431 2531,-969 107,107 215,161 377,215 323,162 646,269 969,323l-216 2423zm216 -3446c-162,-54 -377,-108 -539,-215 -53,-54 -161,-54 -215,-108l323 -808c54,54 108,54 108,108 215,269 323,592 323,915l0 108zm16369 3662c0,323 -269,646 -646,592l-15077 0c108,-269 162,-485 162,-754l0 -54 13515 0c269,0 538,-215 538,-484 0,-270 -215,-539 -484,-539 0,0 0,0 -54,0l-592 0 0 -8454c0,-269 -216,-538 -539,-538 0,0 0,0 0,0l-2531 0c-269,0 -538,215 -538,538 0,0 0,0 0,0l0 8508 -646 0 0 -3715c0,-270 -216,-539 -539,-539 0,0 0,0 0,0l-2530 0c-270,0 -539,215 -539,539 0,0 0,0 0,0l0 3715 -592 0 0 -6462c0,-269 -216,-538 -539,-538 0,0 0,0 0,0l-2530 0c-270,0 -539,215 -539,538 0,0 0,0 0,0l0 6462 -861 0 107 -1777 54 -700c54,-592 -161,-1131 -538,-1562l0 -5169c0,-269 -216,-538 -539,-538 -323,0 -538,215 -538,538l0 0 0 4416c-216,-54 -431,-108 -700,-108l-1023 0 0 -5008c0,-323 269,-646 646,-592l17338 0c323,0 646,269 646,592l108 11093 0 0 0 0zm-13569 -1185l0 -5977 1508 0 0 5977 -1508 0 0 0zm4200 0l0 -3177 1508 0 0 3177 -1508 0zm4254 0l0 -8023 1507 0 0 7969 -1507 54 0 0zm-6408 7377c-323,-1723 -1723,-3123 -3446,-3446 -269,-54 -539,-54 -808,-54l-808 0c-161,0 -269,54 -376,161l-1454 1400 -1400 -1400c-108,-107 -216,-161 -377,-161l-808 0c-269,0 -538,0 -808,54 -1723,323 -3123,1669 -3446,3446 -107,484 54,1023 377,1400 323,431 808,646 1346,646l10285 0c538,0 1023,-215 1346,-646 377,-377 485,-916 377,-1400l0 0zm-1185 754c-161,161 -323,269 -538,269l-10285 0c-215,0 -430,-108 -538,-269 -162,-162 -216,-377 -162,-593 270,-1346 1293,-2369 2639,-2584 215,-54 431,-54 592,-54l592 0 1670 1615c215,216 538,216 753,0l1670 -1615 592 0c215,0 431,0 592,54 1346,269 2370,1292 2639,2584l0 0c0,216 -54,431 -216,593l0 0zm11739 -18200c-269,0 -539,215 -539,538 0,0 0,0 0,0l0 1939c0,269 216,538 539,538 323,0 538,-215 538,-538l0 -1939c0,-323 -269,-538 -538,-538l0 0zm0 3607c-269,0 -539,216 -539,539 0,0 0,0 0,0l0 269c0,269 216,539 539,539 323,0 538,-216 538,-539l0 -269c0,-323 -269,-539 -538,-539l0 0z"/>
 </g>
</svg>
