<?xml version="1.0" encoding="UTF-8"?>
<!DOCTYPE svg PUBLIC "-//W3C//DTD SVG 1.1//EN" "http://www.w3.org/Graphics/SVG/1.1/DTD/svg11.dtd">
<!-- Creator: CorelDRAW X7 -->
<svg xmlns="http://www.w3.org/2000/svg" xml:space="preserve" version="1.1" style="shape-rendering:geometricPrecision; text-rendering:geometricPrecision; image-rendering:optimizeQuality; fill-rule:evenodd; clip-rule:evenodd"
viewBox="0 0 21000 20987"
 xmlns:xlink="http://www.w3.org/1999/xlink">
 <g id="Слой_x0020_1">
  <path id="Forma_1" class="fil0" d="M18541 9104l-16082 0 0 -717 16082 0 0 717zm-16082 1383l16082 0 0 -666 -16082 0 0 666zm0 717l0 9425c0,205 -154,358 -359,358l-1741 0c-205,0 -359,-153 -359,-358l0 -14700c0,-103 51,-256 154,-308l10141 -5583c103,-51 256,-51 359,0l10192 5942c103,51 154,205 154,307l0 14342c0,205 -154,358 -359,358l-1741 0c-205,0 -359,-153 -359,-358l0 -9425 -16082 0zm16748 9066l0 -12241c0,-205 -153,-359 -358,-359 -5583,0 -11166,0 -16749,0 -205,0 -359,154 -359,359 0,4080 0,8161 0,12241l-1024 0 0 -14136 9783 -5379 9783 5737 0 13778 -1076 0zm-1690 717c205,0 359,-153 359,-358l0 -8400c-52,-205 -205,-359 -359,-359l-4200 0c-205,0 -358,154 -358,359l0 3841 -3842 0c-205,0 -358,154 -358,359l0 4200c0,205 153,358 358,358l8400 0zm-3176 -4200l0 1025c0,204 154,358 359,358 461,0 922,0 1383,0 205,0 358,-154 358,-358l0 -1025 718 0 0 3483 -3483 0 0 -3483 665 0zm718 0l717 0 0 666 -717 0 0 -666zm-3483 0l0 666 -717 0 0 -666 717 0zm665 0l718 0 0 3483 -3483 0 0 -3483 665 0 0 1025c0,204 154,358 359,358 461,0 922,0 1383,0 205,0 358,-154 358,-358l0 -1025zm2100 -4200l0 1025c0,204 154,358 359,358 461,0 922,0 1383,0 205,0 358,-154 358,-358l0 -1025 717 0 0 3483 1 0 -3483 0 0 -3483 665 0zm718 0l717 0 0 666 -717 0 0 -666zm-2818 -7683l-3482 0c-205,0 -359,154 -359,359l0 1383c0,205 154,358 359,358l3482 0c205,0 359,-153 359,-358l0 -1383c0,-205 -154,-359 -359,-359l0 0zm-358 1383l-2817 0 0 -717 2817 0 0 717z"/>
 </g>
</svg>
