<?xml version="1.0" encoding="UTF-8"?>
<!DOCTYPE svg PUBLIC "-//W3C//DTD SVG 1.1//EN" "http://www.w3.org/Graphics/SVG/1.1/DTD/svg11.dtd">
<!-- Creator: CorelDRAW X7 -->
<svg xmlns="http://www.w3.org/2000/svg" xml:space="preserve" version="1.1" style="shape-rendering:geometricPrecision; text-rendering:geometricPrecision; image-rendering:optimizeQuality; fill-rule:evenodd; clip-rule:evenodd"
viewBox="0 0 22185 21000"
 xmlns:xlink="http://www.w3.org/1999/xlink">
 <g id="Слой_x0020_1">
  <path class="fil0" d="M21377 15508l-700 0 0 -7054c0,-377 -323,-700 -700,-700 -1274,0 -2549,0 -3823,0l0 -7054c0,-377 -323,-700 -700,-700l-8939 0c-377,0 -700,323 -700,700l0 7054 -3769 0c-377,0 -700,323 -700,700 0,2351 0,4702 0,7054l-646 0c-377,0 -700,323 -700,700 0,1364 0,2728 0,4092 0,377 323,700 700,700 897,0 1795,0 2692,0 377,0 700,-323 700,-700l0 -700 4954 0 0 700c0,377 323,700 700,700l2692 0c377,0 700,-323 700,-700l0 -700 4954 0 0 700c0,377 323,700 700,700l2693 0c377,0 700,-323 700,-700 0,-1364 0,-2728 0,-4092 -102,-357 -415,-700 -808,-700zm-1992 -6354l0 6408 -7647 0 0 -6408 7647 0zm-12170 -7808l7647 0 0 6408 -7647 0 0 -6408zm-4523 7808l7646 0 0 6408 -7646 0 0 -6408zm18039 10500l-1346 0 0 -700c0,-377 -323,-700 -700,-700 -2100,0 -4200,0 -6300,0 -377,0 -700,323 -700,700l0 700 -1347 0 0 -700c0,-377 -323,-700 -700,-700l-6246 0c-377,0 -700,323 -700,700 0,233 0,467 0,700l-1346 0 0 -2746 19385 0 0 2746z"/>
 </g>
</svg>
