<?xml version="1.0" encoding="UTF-8"?>
<!DOCTYPE svg PUBLIC "-//W3C//DTD SVG 1.1//EN" "http://www.w3.org/Graphics/SVG/1.1/DTD/svg11.dtd">
<!-- Creator: CorelDRAW X7 -->
<svg xmlns="http://www.w3.org/2000/svg" xml:space="preserve" version="1.1" style="shape-rendering:geometricPrecision; text-rendering:geometricPrecision; image-rendering:optimizeQuality; fill-rule:evenodd; clip-rule:evenodd"
viewBox="0 0 24166 21000"
 xmlns:xlink="http://www.w3.org/1999/xlink">
  <path class="fil0" d="M8169 21000l-2961 0 3659 -8082 -5348 0 -1410 2920 -2109 146 1557 -5394 -1544 -5355 2142 0 1444 3060 5255 -40 -3646 -8255 2954 0 5920 8162 8308 46 140 27c66,27 1636,659 1636,2355 0,1696 -1456,2275 -1523,2295l-73 26 -8501 0 -5900 8089zm-1650 -865l1210 0 5901 -8082 8774 0c212,-106 898,-519 898,-1463 0,-951 -832,-1410 -1078,-1517l-8574 -46 -5921 -8162 -1210 0 3632 8241 -7118 54 -1437 -3060 -432 0 1297 4490 -1290 4443 372 -26 1430 -2960 7204 0 -3658 8088z"/>
</svg>
