<?xml version="1.0" encoding="UTF-8"?>
<!DOCTYPE svg PUBLIC "-//W3C//DTD SVG 1.1//EN" "http://www.w3.org/Graphics/SVG/1.1/DTD/svg11.dtd">
<!-- Creator: CorelDRAW X7 -->
<svg xmlns="http://www.w3.org/2000/svg" xml:space="preserve" version="1.1" style="shape-rendering:geometricPrecision; text-rendering:geometricPrecision; image-rendering:optimizeQuality; fill-rule:evenodd; clip-rule:evenodd"
viewBox="0 0 20614 21000"
 xmlns:xlink="http://www.w3.org/1999/xlink">
  <path id="морским" class="fil0" d="M5314 6171l10072 0 0 900 -10072 0 0 -900zm9129 1372l900 0 0 900 -900 0 0 -900zm-9129 0l900 0 0 900 -900 0 0 -900zm4543 -4329l900 0 0 900 -900 0 0 -900zm1372 0l900 0 0 900 -900 0 0 -900zm-2743 0l900 0 0 900 -900 0 0 -900zm-1372 0l900 0 0 900 -900 0 0 -900zm5486 0l900 0 0 900 -900 0 0 -900zm6086 16457c-429,258 -943,429 -1457,386l2700 -8057c85,-214 -43,-471 -258,-557l-2485 -1114 0 -4415c0,-771 -600,-1371 -1372,-1371l-685 0 0 -2272c0,-257 -215,-471 -472,-471l-3900 0 0 -1800 -900 0 0 1843 -3900 0c-257,0 -471,214 -471,471l0 2272 -686 0c-771,0 -1371,600 -1371,1371l0 4414 -2486 1115c-214,85 -300,343 -257,557l2700 8057c-515,0 -1029,-129 -1457,-386 -600,-343 -1243,-514 -1929,-514l0 900c514,0 1029,129 1500,386 643,343 1286,514 1971,514 215,0 429,0 686,-43 429,-86 857,-214 1243,-471 943,-557 2057,-557 3000,0 1200,685 2657,685 3857,0 943,-557 2057,-557 3000,0 386,214 814,385 1243,471 257,43 471,43 686,43 685,0 1328,-171 1928,-514 472,-257 986,-429 1500,-386l0 -900c-685,-43 -1328,129 -1928,471l0 0zm214 -7542l-343 985 -7800 -3557 0 -1071 8143 3643zm-12471 -9386l7757 0 0 1843 -7757 0 0 -1843zm-2058 3214c0,-257 215,-471 472,-471l10971 0c257,0 472,214 472,471l0 3986 -5743 -2572c-129,-42 -257,-42 -386,0l-5743 2572 -43 -3986 0 0 0 0zm-2614 6172l8100 -3643 0 1071 -7757 3557 -343 -985zm14529 7842c-215,-85 -429,-171 -600,-257 -1200,-685 -2657,-685 -3857,0 -943,557 -2058,557 -3000,0 -1200,-685 -2658,-685 -3858,0 -214,129 -385,215 -600,257l-2014 -6000 7500 -3428 0 5443 900 0 0 -5443 7500 3428 -1971 6000z"/>
</svg>
