<?xml version="1.0" encoding="UTF-8"?>
<!DOCTYPE svg PUBLIC "-//W3C//DTD SVG 1.1//EN" "http://www.w3.org/Graphics/SVG/1.1/DTD/svg11.dtd">
<!-- Creator: CorelDRAW X7 -->
<svg xmlns="http://www.w3.org/2000/svg" xml:space="preserve" version="1.1" style="shape-rendering:geometricPrecision; text-rendering:geometricPrecision; image-rendering:optimizeQuality; fill-rule:evenodd; clip-rule:evenodd"
viewBox="0 0 20176 21000"
 xmlns:xlink="http://www.w3.org/1999/xlink">
   <path class="fil0" d="M1729 0c-947,0 -1729,782 -1729,1771 0,988 782,1770 1729,1770 947,0 1730,-782 1730,-1770 41,-989 -741,-1771 -1730,-1771zm0 2718c-535,0 -988,-453 -988,-989 0,-535 453,-988 988,-988 536,0 989,453 989,988 0,577 -453,989 -989,989zm16718 7782c947,0 1729,-782 1729,-1771 0,-988 -782,-1729 -1729,-1729 -947,0 -1729,782 -1729,1771 0,988 741,1729 1729,1729zm0 -2718c535,0 988,453 988,989 0,535 -453,988 -988,988 -535,0 -988,-453 -988,-988 0,-536 453,-989 988,-989zm0 9718c-906,0 -1647,700 -1729,1606 -83,-41 -124,-41 -206,-41 -330,0 -577,247 -577,576 0,330 247,577 577,577 164,0 288,-83 412,-165 288,576 864,947 1523,947 947,0 1729,-782 1729,-1771 0,-988 -782,-1729 -1729,-1729zm0 2718c-535,0 -988,-453 -988,-989 0,-535 453,-988 988,-988 535,0 988,453 988,988 -41,577 -453,989 -988,989zm-16882 -577c0,-318 -258,-576 -577,-576 -318,0 -576,258 -576,576 0,319 258,577 576,577 319,0 577,-258 577,-577zm0 -1935c0,-318 -258,-577 -577,-577 -318,0 -576,259 -576,577 0,318 258,576 576,576 319,0 577,-258 577,-576zm0 -1935c0,-319 -258,-577 -577,-577 -318,0 -576,258 -576,577 0,318 258,576 576,576 319,0 577,-258 577,-576zm0 -1977c0,-318 -258,-576 -577,-576 -318,0 -576,258 -576,576 0,319 258,577 576,577 319,0 577,-258 577,-577zm13547 5847c0,-318 -258,-576 -577,-576 -318,0 -576,258 -576,576 0,319 258,577 576,577 319,0 577,-258 577,-577zm-1936 0c0,-318 -258,-576 -576,-576 -318,0 -576,258 -576,576 0,319 258,577 576,577 318,0 576,-258 576,-577zm-1935 0c0,-318 -258,-576 -576,-576 -319,0 -577,258 -577,576 0,319 258,577 577,577 318,0 576,-258 576,-577zm-1935 0c0,-318 -258,-576 -577,-576 -318,0 -576,258 -576,576 0,319 258,577 576,577 319,0 577,-258 577,-577zm-1935 0c0,-318 -258,-576 -577,-576 -318,0 -576,258 -576,576 0,319 258,577 576,577 319,0 577,-258 577,-577zm-1936 0c0,-318 -258,-576 -576,-576 -319,0 -577,258 -577,576 0,319 258,577 577,577 318,0 576,-258 576,-577zm-1935 0c0,-318 -258,-576 -576,-576 -319,0 -577,258 -577,576 0,319 258,577 577,577 318,0 576,-258 576,-577zm15524 -7782c0,-319 -259,-577 -577,-577 -318,0 -576,258 -576,577 0,318 258,576 576,576 318,0 577,-258 577,-576zm0 1935c0,-318 -259,-576 -577,-576 -318,0 -576,258 -576,576 0,319 258,577 576,577 318,0 577,-258 577,-577zm-1977 0c0,-318 -258,-576 -576,-576 -319,0 -577,258 -577,576 0,319 258,577 577,577 318,0 576,-258 576,-577zm-1935 0c0,-318 -258,-576 -577,-576 -318,0 -576,258 -576,576 0,319 258,577 576,577 319,0 577,-258 577,-577zm-1936 0c0,-318 -258,-576 -576,-576 -318,0 -576,258 -576,576 0,319 258,577 576,577 318,0 576,-258 576,-577zm-1935 0c0,-318 -258,-576 -576,-576 -319,0 -577,258 -577,576 0,319 258,577 577,577 318,0 576,-258 576,-577zm-1935 0c0,-318 -258,-576 -577,-576 -318,0 -576,258 -576,576 0,319 258,577 576,577 319,0 577,-258 577,-577zm-1935 0c0,-318 -258,-576 -577,-576 -318,0 -576,258 -576,576 0,319 258,577 576,577 319,0 577,-258 577,-577zm-1936 0c0,-318 -258,-576 -576,-576 -319,0 -577,258 -577,576 0,319 258,577 577,577 318,0 576,-258 576,-577zm-1935 0c0,-318 -258,-576 -576,-576 -319,0 -577,258 -577,576 0,319 258,577 577,577 318,0 576,-258 576,-577zm15524 -8153c0,-318 -259,-576 -577,-576 -318,0 -576,258 -576,576 0,319 258,577 576,577 318,0 577,-258 577,-577zm0 -1935c0,-318 -259,-577 -577,-577 -318,0 -576,259 -576,577 0,318 258,576 576,576 318,0 577,-258 577,-576zm0 -1935c0,-319 -259,-577 -577,-577 -318,0 -576,258 -576,577 0,318 258,576 576,576 318,0 577,-258 577,-576zm-1977 0c0,-319 -258,-577 -576,-577 -319,0 -577,258 -577,577 0,318 258,576 577,576 318,0 576,-258 576,-576zm-1935 0c0,-319 -258,-577 -577,-577 -318,0 -576,258 -576,577 0,318 258,576 576,576 319,0 577,-258 577,-576zm-1936 0c0,-319 -258,-577 -576,-577 -318,0 -576,258 -576,577 0,318 258,576 576,576 318,0 576,-258 576,-576zm-1935 0c0,-319 -258,-577 -576,-577 -319,0 -577,258 -577,577 0,318 258,576 577,576 318,0 576,-258 576,-576zm-1935 0c0,-319 -258,-577 -577,-577 -318,0 -576,258 -576,577 0,318 258,576 576,576 319,0 577,-258 577,-576zm-1935 0c0,-319 -258,-577 -577,-577 -318,0 -576,258 -576,577 0,318 258,576 576,576 319,0 577,-258 577,-576zm-1936 0c0,-319 -258,-577 -576,-577 -319,0 -577,258 -577,577 0,318 258,576 577,576 318,0 576,-258 576,-576zm5271 5435c0,-569 -461,-1030 -1030,-1030 -568,0 -1029,461 -1029,1030 0,568 461,1029 1029,1029 569,0 1030,-461 1030,-1029zm-1030 -3088c-1688,0 -3088,1400 -3088,3088 0,1565 2471,5723 2718,6176l370 577 371 -577c288,-453 2718,-4611 2718,-6176 0,-1688 -1400,-3088 -3089,-3088zm0 8235c-864,-1482 -2264,-4159 -2264,-5147 0,-1235 1029,-2265 2264,-2265 1236,0 2265,1030 2265,2265 0,988 -1400,3665 -2265,5147z"/>
</svg>
