<?xml version="1.0" encoding="UTF-8"?>
<!DOCTYPE svg PUBLIC "-//W3C//DTD SVG 1.1//EN" "http://www.w3.org/Graphics/SVG/1.1/DTD/svg11.dtd">
<!-- Creator: CorelDRAW X7 -->
<svg xmlns="http://www.w3.org/2000/svg" xml:space="preserve" version="1.1" style="shape-rendering:geometricPrecision; text-rendering:geometricPrecision; image-rendering:optimizeQuality; fill-rule:evenodd; clip-rule:evenodd"
viewBox="0 0 21371 21008"
 xmlns:xlink="http://www.w3.org/1999/xlink">
  <path id="Forma_1" class="fil0" d="M18900 11046c-546,-840 -1302,-1512 -2226,-1974 -210,-84 -462,0 -546,210 -84,210 0,462 210,546 0,0 0,0 0,0 2268,1050 3234,3780 2184,6048 -42,84 -84,126 -84,210 -126,210 -42,462 168,546 0,0 0,0 0,0 210,126 462,42 546,-168 882,-1722 798,-3780 -252,-5418zm-3948 -2478l0 0c-252,0 -462,168 -462,420 0,210 168,420 420,420 0,0 0,0 0,0l42 0c210,0 420,-168 420,-420 42,-252 -168,-420 -420,-420 42,0 0,0 0,0l0 0zm-2646 9492c-2268,-1050 -3234,-3780 -2184,-6048 42,-84 84,-126 84,-210 126,-210 42,-462 -168,-546 0,0 0,0 0,0 -210,-126 -462,-42 -546,168 -924,1722 -840,3822 210,5460 546,840 1302,1512 2226,1974 210,84 462,0 546,-210 126,-252 42,-504 -168,-588 0,0 0,0 0,0zm1386 462l0 0c-252,0 -420,168 -462,420 -42,252 168,420 420,420l42 0c210,0 420,-168 420,-378 0,-210 -168,-420 -378,-420 0,-42 -42,-42 -42,-42l0 0zm2520 -11382c-42,-126 -126,-252 -168,-336l1092 0c1050,0 1932,-840 1932,-1890 0,-1050 -840,-1932 -1890,-1932 0,0 -42,0 -42,0l-3360 0c210,-336 336,-714 336,-1092 -42,-1050 -882,-1890 -1932,-1890l-10248 0c-1050,0 -1932,840 -1932,1890 0,1050 882,1932 1932,1890l3360 0c-462,630 -462,1512 0,2142l-1092 0c-1050,0 -1932,840 -1932,1890 0,588 252,1134 714,1512 -840,630 -966,1848 -336,2646 84,126 210,252 336,336 -840,630 -966,1848 -336,2646 84,126 210,252 336,336 -840,630 -966,1848 -336,2688 378,462 924,714 1512,714l4914 0c2646,2898 7140,3108 9996,462 2856,-2646 3108,-7140 462,-9996 -882,-966 -2016,-1638 -3318,-2016l0 0zm882 -3318c588,0 1092,504 1092,1092 0,588 -504,1092 -1092,1092l-10248 0c-588,0 -1092,-504 -1092,-1092 0,-588 504,-1092 1092,-1092l10248 0zm-15162 -840c-588,0 -1092,-462 -1092,-1092 0,-630 504,-1050 1092,-1050l10248 0c588,0 1092,504 1092,1092 0,588 -504,1050 -1092,1050l-10248 0zm2268 3822l10248 0c168,0 336,42 462,126 -210,0 -378,-42 -588,-42 -1890,0 -3696,756 -5040,2058l-5082 0c-588,0 -1092,-504 -1092,-1092 0,-588 462,-1050 1092,-1050l0 0zm0 2982l4368 0c-462,672 -840,1386 -1092,2142l-3276 0c-588,0 -1092,-504 -1092,-1092 0,-588 462,-1050 1092,-1050l0 0zm0 2982l3108 0c-126,714 -126,1428 -42,2142l-3066 0c-588,0 -1092,-504 -1092,-1092 0,-546 462,-1050 1092,-1050l0 0zm0 5166c-588,0 -1092,-504 -1092,-1092 0,-588 504,-1092 1092,-1092l3234 0c210,756 546,1512 1008,2142l-4242 0 0 42zm10122 2226c-3444,-42 -6216,-2856 -6174,-6258 42,-3402 2856,-6216 6258,-6174 3402,0 6174,2814 6174,6216 0,3444 -2814,6216 -6258,6216l0 0zm-924 -4200l1722 0 0 -840 -1722 0 0 -336 1008 0c336,0 672,-42 1008,-210 294,-126 546,-336 714,-588 168,-294 294,-588 294,-924 0,-462 -168,-924 -504,-1218 -378,-336 -882,-504 -1386,-462l-1974 0 0 3738 -378 0 0 840 378 0 0 840 840 0 0 0 0 -840zm0 -3780l1008 0c294,0 546,84 798,210 210,168 294,420 294,672 0,252 -84,504 -294,672 -210,168 -504,252 -798,252l-1008 0 0 -1806z"/>
</svg>
