<svg xmlns="http://www.w3.org/2000/svg" viewBox="0 0 51 50">
  <metadata><?xpacket begin="﻿" id="W5M0MpCehiHzreSzNTczkc9d"?>
<x:xmpmeta xmlns:x="adobe:ns:meta/" x:xmptk="Adobe XMP Core 5.6-c142 79.160924, 2017/07/13-01:06:39        ">
   <rdf:RDF xmlns:rdf="http://www.w3.org/1999/02/22-rdf-syntax-ns#">
      <rdf:Description rdf:about=""/>
   </rdf:RDF>
</x:xmpmeta>
                                                                                                    
                                                                                                    
                                                                                                    
                                                                                                    
                                                                                                    
                                                                                                    
                                                                                                    
                                                                                                    
                                                                                                    
                                                                                                    
                                                                                                    
                                                                                                    
                                                                                                    
                                                                                                    
                                                                                                    
                                                                                                    
                                                                                                    
                                                                                                    
                                                                                                    
                                                                                                    
                           
<?xpacket end="w"?></metadata>
  <path id="Forma_1" data-name="Forma 1" class="cls-1" d="M44.972,26.272a12.946,12.946,0,0,0-5.3-4.654,1,1,0,0,0-1.329.462,0.985,0.985,0,0,0,.466,1.319,10.83,10.83,0,0,1,4.939,14.9,0.984,0.984,0,0,0,.411,1.336,1,1,0,0,0,1.347-.408A12.771,12.771,0,0,0,44.972,26.272Zm-9.344-5.917H35.56a0.988,0.988,0,1,0,0,1.976h0.063A0.988,0.988,0,1,0,35.628,20.356ZM29.326,43a10.831,10.831,0,0,1-4.939-14.9,0.984,0.984,0,0,0-.411-1.337,1,1,0,0,0-1.347.408,12.772,12.772,0,0,0,.533,12.956,12.946,12.946,0,0,0,5.3,4.654,1,1,0,0,0,1.329-.462A0.985,0.985,0,0,0,29.326,43Zm3.247,1.067H32.515a0.988,0.988,0,1,0-.009,1.976h0.067A0.988,0.988,0,1,0,32.572,44.071Zm6.017-27.059a4.53,4.53,0,0,0-.442-0.807H40.74a4.546,4.546,0,1,0,0-9.091H32.763a4.493,4.493,0,0,0,.8-2.569A4.569,4.569,0,0,0,28.986,0H4.582A4.569,4.569,0,0,0,0,4.545,4.569,4.569,0,0,0,4.582,9.091h7.977a4.5,4.5,0,0,0,0,5.138h-2.6a4.536,4.536,0,0,0-2.847,8.1,4.515,4.515,0,0,0,0,7.115,4.515,4.515,0,0,0,0,7.115,4.536,4.536,0,0,0,2.847,8.1H21.7A16.863,16.863,0,1,0,38.589,17.013ZM40.74,9.091a2.569,2.569,0,1,1,0,5.138h-24.4a2.569,2.569,0,1,1,0-5.138h24.4ZM4.582,7.115a2.569,2.569,0,1,1,0-5.138h24.4a2.569,2.569,0,1,1,0,5.138H4.582Zm5.379,9.091h24.4a2.606,2.606,0,0,1,1.13.258c-0.471-.039-0.947-0.06-1.429-0.06a16.949,16.949,0,0,0-11.983,4.941H9.961A2.569,2.569,0,1,1,9.961,16.205Zm0,7.115H20.382a16.7,16.7,0,0,0-2.56,5.138H9.961A2.569,2.569,0,1,1,9.961,23.32Zm0,7.115h7.4a16.676,16.676,0,0,0-.061,5.138H9.961A2.569,2.569,0,1,1,9.961,30.435Zm0,12.253a2.569,2.569,0,1,1,0-5.139h7.748a16.671,16.671,0,0,0,2.39,5.139H9.961Zm24.106,5.336A14.823,14.823,0,1,1,49.008,33.2,14.9,14.9,0,0,1,34.066,48.024Z"/>
  <path id="Р" class="cls-2" d="M31.941,40V35.2h2.371a6.081,6.081,0,0,0,2.4-.451,3.9,3.9,0,0,0,1.714-1.391,3.829,3.829,0,0,0,.653-2.242,3.729,3.729,0,0,0-1.222-2.926,4.776,4.776,0,0,0-3.3-1.091H29.85V40h2.092Zm0-10.994h2.432a2.931,2.931,0,0,1,1.88.548,1.9,1.9,0,0,1,.685,1.577,1.954,1.954,0,0,1-.7,1.565,2.785,2.785,0,0,1-1.868.593H31.941V29.006Z"/>
  <rect class="cls-3" x="29" y="36" width="7" height="2"/>
</svg>
