<?xml version="1.0" encoding="UTF-8"?>
<!DOCTYPE svg PUBLIC "-//W3C//DTD SVG 1.1//EN" "http://www.w3.org/Graphics/SVG/1.1/DTD/svg11.dtd">
<!-- Creator: CorelDRAW 2017 -->
<svg xmlns="http://www.w3.org/2000/svg" xml:space="preserve" version="1.1" style="shape-rendering:geometricPrecision; text-rendering:geometricPrecision; image-rendering:optimizeQuality; fill-rule:evenodd; clip-rule:evenodd"
viewBox="0 0 1706.4 1695.2"
 xmlns:xlink="http://www.w3.org/1999/xlink">
  <path class="fil0" d="M255.97 243.82c3.3,-19.98 13.47,-37.53 27.87,-50.27 14.39,-12.75 33.05,-20.69 53.37,-21.51l164.02 -6.43 98.39 -131.4c12.23,-16.22 29.41,-27.08 48.12,-31.69 18.67,-4.6 38.88,-2.97 57.21,5.74l148.29 70.5 148.1 -70.5 2.5 -1.07c17.67,-7.79 36.96,-9.11 54.79,-4.72 18.65,4.61 35.86,15.53 48.08,31.87l98.45 131.27 164.03 6.43c20.33,0.82 39,8.76 53.39,21.51 14.4,12.74 24.57,30.34 27.87,50.4l26.15 162.11 142.15 81.99c17.74,10.21 30.63,25.87 37.42,43.71 6.84,17.98 7.67,38.24 1.3,57.51l-52.29 155.76 87.84 138.67c10.98,17.18 15.07,37.12 12.74,56.22l-0.17 1.18c-2.55,18.59 -11.24,36.43 -25.64,50.26l-118.45 113.56 13.33 163.58c1.67,20.25 -3.95,39.76 -14.91,55.66 -10.88,15.79 -27.11,27.96 -46.71,33.65l-157.64 45.42 -64.17 151.12c-7.94,18.69 -22.06,33.43 -39.15,42.42 -17.1,9.07 -37.23,12.31 -57.17,8.03l-160.52 -32.94 -127.03 103.98 -2.32 1.74c-7.26,5.53 -15.12,9.75 -23.21,12.64l-2.15 0.69c-8.7,2.86 -17.7,4.3 -26.61,4.3 -9.63,0 -19.34,-1.67 -28.68,-4.99 -9.03,-3.21 -17.66,-7.99 -25.42,-14.25l-127.28 -104.11 -160.43 32.86c-19.96,4.39 -40.11,1.14 -57.26,-7.87 -17.02,-8.95 -31.13,-23.74 -39.17,-42.5l-64.17 -151.12 -157.63 -45.46c-19.57,-5.65 -35.83,-17.83 -46.71,-33.63 -10.96,-15.9 -16.59,-35.4 -14.93,-55.64l13.34 -163.58 -118.46 -113.56c-14.72,-14.09 -23.47,-32.42 -25.8,-51.46l-0.14 -1.39c-1.99,-18.65 2.15,-38.04 12.82,-54.85l87.9 -138.71 -52.79 -157.7c-5.73,-18.76 -4.77,-38.23 1.78,-55.48 6.79,-17.87 19.71,-33.52 37.44,-43.72l142.15 -81.99 26.17 -162.24zm72.93 0.65c-2.94,2.6 -5.05,6.29 -5.75,10.55l-28.73 177.7c-1.6,9.78 -7.41,18.81 -16.67,24.13l-156.24 90.12c-3.51,2.02 -6.14,5.28 -7.58,9.06 -1.33,3.47 -1.61,7.31 -0.63,10.95l56.86 169.56c4.08,9.91 3.46,21.57 -2.71,31.3l-96.53 152.34c-2.11,3.32 -2.96,7.22 -2.62,11.02l0.06 0.44c0.48,3.99 2.28,7.79 5.28,10.66l128.65 123.33c8.04,6.85 12.8,17.32 11.91,28.65l-14.64 179.82c-0.34,4.23 0.76,8.23 2.93,11.38 2.27,3.3 5.64,5.85 9.64,7.01l170.94 49.33c10.43,2.26 19.64,9.38 24.14,19.95l70.45 165.92c1.67,3.9 4.65,7.01 8.25,8.9 3.33,1.75 7.26,2.38 11.14,1.55l174.7 -35.71c10.35,-2.91 21.91,-0.89 30.86,6.43l139.46 114.18c1.56,1.31 3.33,2.27 5.15,2.92 1.84,0.65 3.89,0.99 6.02,0.99 1.72,0 3.41,-0.23 4.99,-0.68l0.83 -0.31c1.64,-0.58 3.2,-1.37 4.58,-2.33l140.18 -114.77 0.07 0.08c7.64,-6.25 17.91,-9.13 28.33,-7.01l177 36.21c3.94,0.84 7.94,0.2 11.32,-1.57l0.14 0c3.46,-1.81 6.37,-4.91 8.06,-8.88l70.45 -165.92c3.96,-9.06 11.75,-16.4 22,-19.33l173.08 -49.95c4.02,-1.16 7.39,-3.71 9.65,-6.99 2.16,-3.14 3.27,-7.15 2.92,-11.4l-14.64 -179.82c-0.69,-9.8 2.77,-19.86 10.4,-27.2l130.29 -124.91c2.75,-2.63 4.48,-6.09 5.06,-9.72l0.09 -0.79c0.47,-3.92 -0.35,-8 -2.56,-11.48l-96.5 -152.47c-5.23,-8.34 -6.83,-18.87 -3.46,-28.93l57.15 -170.85c1.33,-4.03 1.17,-8.24 -0.22,-11.91 -1.44,-3.78 -4.06,-7.03 -7.56,-9.05l-154.92 -89.36c-9.28,-4.81 -16.23,-13.79 -17.99,-24.89l-28.73 -177.83c-0.68,-4.17 -2.78,-7.81 -5.73,-10.42 -2.96,-2.62 -6.82,-4.26 -10.99,-4.43l-180.18 -7.06c-9.87,-0.42 -19.49,-5.08 -25.87,-13.6l-108.17 -144.24c-2.5,-3.34 -6.07,-5.6 -9.94,-6.55 -3.43,-0.85 -7.1,-0.66 -10.45,0.65l-164.01 78.1c-8.96,4.26 -19.69,4.6 -29.34,0l-162.82 -77.48c-3.77,-1.83 -7.94,-2.16 -11.75,-1.22 -3.84,0.94 -7.41,3.23 -9.98,6.63l-107.27 142.98c-5.88,8.54 -15.56,14.3 -26.71,14.73l-180.17 7.06c-4.16,0.17 -8.01,1.81 -10.97,4.43zm458.53 467.66c0,69.86 -11.71,122.64 -35.17,158.33 -23.43,35.69 -57.85,53.54 -103.18,53.54 -42.93,0 -76.24,-18.22 -99.98,-54.71 -23.77,-36.45 -35.62,-88.81 -35.62,-157.16 0,-69.59 11.4,-121.96 34.24,-157.2 22.81,-35.24 56.61,-52.88 101.36,-52.88 44.4,0 78.58,18.25 102.52,54.67 23.88,36.48 35.83,88.26 35.83,155.41zm-210.53 0l0 0c0,52.09 5.65,91.15 17.02,117.2 11.3,26.05 29.7,39.07 55.16,39.07 50.23,0 75.38,-52.09 75.38,-156.27 0,-103.56 -25.15,-155.41 -75.38,-155.41 -25.46,0 -43.86,12.92 -55.16,38.65 -11.37,25.74 -17.02,64.67 -17.02,116.76zm496.89 -200.4l0 0 -372.76 671.96 -67.59 0 372.76 -671.96 67.59 0zm118.58 469.74l0 0c0,69.59 -11.71,122.19 -35.14,157.88 -23.46,35.73 -57.88,53.51 -103.21,53.51 -43.52,0 -76.97,-18.19 -100.43,-54.64 -23.46,-36.49 -35.18,-88.71 -35.18,-156.75 0,-69.56 11.41,-122 34.25,-157.21 22.81,-35.24 56.6,-52.88 101.36,-52.88 43.51,0 77.48,18.05 101.8,54.02 24.35,36 36.55,88.03 36.55,156.07zm-210.98 0l0 0c0,52.4 5.65,91.57 17.02,117.44 11.3,25.91 29.87,38.83 55.61,38.83 25.73,0 44.71,-12.79 56.98,-38.38 12.26,-25.6 18.39,-64.88 18.39,-117.89 0,-52.4 -6.13,-91.26 -18.39,-116.52 -12.27,-25.28 -31.25,-37.93 -56.98,-37.93 -25.74,0 -44.31,12.65 -55.61,37.93 -11.37,25.26 -17.02,64.12 -17.02,116.52z"/>
</svg>
