<svg xmlns="http://www.w3.org/2000/svg" viewBox="0 0 49 49">
  <metadata><?xpacket begin="﻿" id="W5M0MpCehiHzreSzNTczkc9d"?>
<x:xmpmeta xmlns:x="adobe:ns:meta/" x:xmptk="Adobe XMP Core 5.6-c142 79.160924, 2017/07/13-01:06:39        ">
   <rdf:RDF xmlns:rdf="http://www.w3.org/1999/02/22-rdf-syntax-ns#">
      <rdf:Description rdf:about=""/>
   </rdf:RDF>
</x:xmpmeta>
                                                                                                    
                                                                                                    
                                                                                                    
                                                                                                    
                                                                                                    
                                                                                                    
                                                                                                    
                                                                                                    
                                                                                                    
                                                                                                    
                                                                                                    
                                                                                                    
                                                                                                    
                                                                                                    
                                                                                                    
                                                                                                    
                                                                                                    
                                                                                                    
                                                                                                    
                                                                                                    
                           
<?xpacket end="w"?></metadata>

  <path id="Forma_1" data-name="Forma 1" class="cls-1" d="M1474.14,565.538a0.957,0.957,0,1,0,.28.677A0.961,0.961,0,0,0,1474.14,565.538Zm36.8-26.03a0.963,0.963,0,0,0-1.36,0,0.957,0.957,0,0,0,0,1.353,0.966,0.966,0,0,0,1.36,0A0.957,0.957,0,0,0,1510.94,539.508Zm3.78-17.228a0.957,0.957,0,0,0-.68-0.28H1490.5a0.959,0.959,0,0,0-.96.957V525.7l-9.07,2.431a0.965,0.965,0,0,0-.68,1.172l4.71,17.546-4.07,4.067a2.879,2.879,0,0,0-2.37-1.252h-9.19a2.875,2.875,0,0,0-2.87,2.871v15.6a2.875,2.875,0,0,0,2.87,2.871h9.19a2.873,2.873,0,0,0,2.78-2.18l1.14,0.992a4.837,4.837,0,0,0,3.17,1.188h28.89a0.959,0.959,0,0,0,.96-0.957V522.957A0.956,0.956,0,0,0,1514.72,522.28Zm-35.7,45.849a0.96,0.96,0,0,1-.96.957h-9.19a0.96,0.96,0,0,1-.96-0.957v-15.6a0.959,0.959,0,0,1,.96-0.957h3.64V562.6a0.955,0.955,0,1,0,1.91,0V551.573h3.64a0.959,0.959,0,0,1,.96.957v15.6h0Zm2.87-38.4,7.65-2.05v3.546l-0.64.172a0.965,0.965,0,0,0-.68,1.172,2.579,2.579,0,0,1-1.82,3.156,0.977,0.977,0,0,0-.58.447,0.925,0.925,0,0,0-.09.727l3.73,13.813h-1.92l-0.99-3.872a1.241,1.241,0,0,0-.16-0.336Zm7.65,5.885v8.075l-1.74-6.463A4.471,4.471,0,0,0,1489.54,535.612Zm13.75,33.474h-18.14a2.911,2.911,0,0,1-1.91-.717l-2.31-2.015V553.118l4.18-4.179,0.76,2.965a0.947,0.947,0,0,0,.92.72h18.82a1.34,1.34,0,1,1,0,2.68h-9.64a0.957,0.957,0,1,0,0,1.914h12.63a1.34,1.34,0,1,1,0,2.68h-12.63a0.957,0.957,0,1,0,0,1.914h10.59a1.34,1.34,0,1,1,0,2.679h-10.59a0.957,0.957,0,1,0,0,1.914h7.32A1.34,1.34,0,1,1,1503.29,569.086Zm9.8,0h-6.83a3.241,3.241,0,0,0,0-2.68h0.3a48.574,48.574,0,0,1,5.3-7.847,3.258,3.258,0,0,0-.64-1.939V544.491a0.96,0.96,0,0,0-1.92,0v10.89a3.257,3.257,0,0,0-.7-0.076h-0.03a3.165,3.165,0,0,0,.29-1.34,3.257,3.257,0,0,0-3.25-3.254h-1.54a4.58,4.58,0,1,0-3.6,0h-5.23v-18.2a4.5,4.5,0,0,0,3.43-3.431h7.2a4.5,4.5,0,0,0,3.43,3.431v2.976a0.96,0.96,0,0,0,1.92,0v-3.83a0.958,0.958,0,0,0-.96-0.957,2.583,2.583,0,0,1-2.58-2.577,0.956,0.956,0,0,0-.95-0.957h-8.91a0.958,0.958,0,0,0-.96.957,2.583,2.583,0,0,1-2.58,2.577,0.95,0.95,0,0,0-.95.957v19.051h-1.87v-26.8h21.63v45.172Zm-10.82-19.92a2.666,2.666,0,1,1,2.67-2.666A2.664,2.664,0,0,1,1502.27,549.166Z" transform="translate(-1466 -522)"/>
</svg>
