<?xml version="1.0" encoding="UTF-8"?>
<!DOCTYPE svg PUBLIC "-//W3C//DTD SVG 1.1//EN" "http://www.w3.org/Graphics/SVG/1.1/DTD/svg11.dtd">
<!-- Creator: CorelDRAW X7 -->
<svg xmlns="http://www.w3.org/2000/svg" xml:space="preserve" version="1.1" style="shape-rendering:geometricPrecision; text-rendering:geometricPrecision; image-rendering:optimizeQuality; fill-rule:evenodd; clip-rule:evenodd"
viewBox="0 0 21000 21000"
 xmlns:xlink="http://www.w3.org/1999/xlink">
  <path id="Forma_1" class="fil0" d="M3471 18643c-171,-172 -428,-172 -600,0 -171,171 -171,428 0,600 172,171 429,171 600,0 86,-86 129,-172 129,-300 0,-86 -43,-214 -129,-300zm15772 -11143c-172,-171 -429,-171 -600,0 -172,171 -172,429 0,600 171,171 428,171 600,0 171,-171 171,-429 0,-600l0 0zm1628 -7371c-85,-86 -171,-129 -300,-129l-10071 0c-214,0 -429,171 -429,429l0 1157 -3900 1028c-214,43 -342,300 -300,515l2015 7500 -1757 1757c-215,-343 -600,-557 -1029,-557l-3857 0c-686,42 -1243,600 -1243,1242l0 6686c0,686 557,1243 1243,1243l3943 0c557,0 1071,-386 1200,-943l471 429c386,343 857,514 1372,514l12342 0c215,0 429,-171 429,-429l0 -20142c0,-129 -43,-215 -129,-300l0 0zm-15300 19628c0,214 -171,429 -428,429l-3900 0c-214,0 -429,-172 -429,-429l0 -6686c0,-214 172,-428 429,-428l1543 0 0 4714c0,214 171,429 428,429 215,0 429,-172 429,-429l0 0 0 -4714 1543 0c214,0 428,171 428,428l-43 6686 0 0 0 0zm1243 -16457l3300 -857 0 1500 -257 86c-214,42 -343,300 -300,514 172,600 -171,1200 -771,1371 -86,43 -215,86 -257,172 -43,85 -86,214 -43,300l1585 5914 -814 0 -428 -1671c0,-43 -43,-86 -86,-129l-1929 -7200zm3257 2529l0 3471 -728 -2786c300,-128 557,-385 728,-685l0 0zm5915 14357l-7757 0c-300,0 -600,-129 -815,-300l-985 -857 0 -5700 1800 -1800 342 1285c43,172 215,300 386,300l8057 0c300,0 557,257 557,557 0,300 -257,558 -557,558 0,0 0,0 0,0l-4157 0c-214,0 -428,171 -428,428 0,214 171,429 428,429l5400 0c300,0 557,257 557,557 0,300 -257,557 -557,557 0,0 0,0 0,0l-5400 0c-214,0 -428,171 -428,429 0,214 171,428 428,428l4543 0c300,0 600,257 600,557 0,300 -257,600 -557,600 0,0 0,0 -43,0l-4543 0c-214,0 -428,172 -428,429 0,214 171,428 428,428l3129 0c300,0 557,258 557,558 0,300 -257,557 -557,557l0 0zm4200 0l-2915 0c172,-386 172,-772 0,-1157l129 0c643,-1200 1414,-2315 2271,-3343 0,-300 -85,-600 -257,-815l0 -5228c0,-214 -171,-429 -428,-429 -215,0 -429,172 -429,429l0 4671c-86,-43 -214,-43 -300,-43l0 0c86,-171 129,-385 129,-557 0,-771 -643,-1414 -1415,-1414l-642 0c985,-429 1457,-1586 1028,-2571 -428,-986 -1586,-1458 -2571,-1029 -986,429 -1457,1586 -1029,2571 214,472 557,815 1029,1029l-2229 0 0 -7800c729,-171 1329,-729 1457,-1457l3086 0c171,728 729,1328 1457,1457l0 1286c0,214 172,428 429,428 214,0 428,-171 428,-428l0 -1629c0,-214 -171,-428 -428,-428 0,0 0,0 0,0 -600,0 -1115,-515 -1115,-1115 0,-214 -171,-428 -385,-428l-3815 0c-214,0 -428,171 -428,428 0,0 0,0 0,0 0,600 -514,1115 -1114,1115 -215,0 -386,171 -386,428 0,0 0,0 0,0l0 8186 -814 0 0 -11529 9257 0 0 19372 0 0zm-4629 -8529c-643,0 -1157,-514 -1157,-1157 0,-643 514,-1157 1157,-1157 643,0 1157,514 1157,1157 -43,643 -557,1157 -1157,1157 0,0 0,0 0,0l0 0z"/>
</svg>
