<?xml version="1.0" encoding="utf-8"?>
<!-- Generator: Adobe Illustrator 22.0.1, SVG Export Plug-In . SVG Version: 6.00 Build 0)  -->
<svg version="1.1" id="Layer_1" xmlns="http://www.w3.org/2000/svg" xmlns:xlink="http://www.w3.org/1999/xlink" x="0px" y="0px"
	 viewBox="0 0 24.9 30" style="enable-background:new 0 0 24.9 30;" xml:space="preserve">
<style type="text/css">
	.st0{fill:#FFFFFF;}
</style>
<path class="st0" d="M13.1,3.1c0-0.4-0.3-0.6-0.7-0.6C8.4,2.4,4.7,5.1,3.6,9C3.5,9.4,3.7,9.7,4,9.8c0,0,0,0,0,0c0.1,0,0.1,0,0.2,0
	c0.3,0,0.6-0.2,0.6-0.5C5.8,6,9,3.7,12.5,3.7C12.8,3.8,13.1,3.5,13.1,3.1C13.1,3.1,13.1,3.1,13.1,3.1z M4,10.3
	c-0.4,0-0.7,0.2-0.7,0.6c0,0.1,0,0.3,0,0.4c0,0.4,0.3,0.6,0.7,0.6c0.3,0,0.6-0.3,0.6-0.6c0-0.1,0-0.2,0-0.3
	C4.6,10.6,4.3,10.3,4,10.3C4,10.3,4,10.3,4,10.3z M20.9,12.7c-0.3-0.1-0.7,0.1-0.8,0.4c-1,3.4-4.1,5.7-7.6,5.6
	c-0.3,0-0.6,0.2-0.7,0.6c0,0.3,0.2,0.6,0.6,0.7c0,0,0,0,0.1,0c4.1,0.1,7.7-2.6,8.9-6.5C21.5,13.1,21.2,12.8,20.9,12.7
	C20.9,12.7,20.9,12.7,20.9,12.7L20.9,12.7z M21,12.2L21,12.2c0.4,0,0.7-0.3,0.7-0.6c0-0.1,0-0.3,0-0.4c0-0.4-0.3-0.6-0.7-0.6
	c-0.3,0-0.6,0.3-0.6,0.6c0,0.1,0,0.2,0,0.3C20.3,11.9,20.6,12.2,21,12.2C21,12.2,21,12.2,21,12.2L21,12.2z M14.9,15.3
	C15,15.2,15,15.1,15,15v-0.8c0-0.2-0.1-0.3-0.3-0.3c0,0-0.1,0-0.1,0h-0.9V8c0.1-0.4-0.2-0.8-0.6-0.8c-0.1,0-0.1,0-0.2,0h-0.1
	c-0.4,0-0.8,0.1-1.1,0.2L10.1,8C10,8,10,8.1,10,8.2c0.1,0.3,0.2,0.6,0.3,0.9c0,0.1,0.1,0.2,0.2,0.2c0.1,0,0.2,0,0.3-0.1L12,8.8v5.2
	h-1.2c-0.2,0-0.3,0.1-0.4,0.2c0,0,0,0.1,0,0.1V15c0,0.2,0.1,0.3,0.3,0.3c0,0,0.1,0,0.1,0h3.9C14.7,15.3,14.8,15.3,14.9,15.3
	L14.9,15.3z M24.9,25.1l-3.7-6.2c2-2,3.2-4.8,3.2-7.7C24.3,5,19,0,12.5,0S0.6,5,0.6,11.2c0,2.9,1.1,5.6,3.2,7.7l-3.7,6.2
	c-0.1,0.2-0.1,0.5,0,0.7C0.3,26,0.6,26,0.8,26l5.1-1.3l1.4,4.9C7.4,29.8,7.6,30,7.8,30c0,0,0.1,0,0.1,0c0.2,0,0.4-0.1,0.6-0.3l4-6.6
	l4,6.6c0.1,0.2,0.3,0.3,0.6,0.3c0,0,0.1,0,0.1,0c0.3,0,0.5-0.2,0.5-0.5l1.4-4.9l5.1,1.3c0.3,0.1,0.5,0,0.7-0.2
	C25,25.6,25,25.3,24.9,25.1L24.9,25.1z M8.2,27.8l-1.1-4c-0.1-0.3-0.5-0.5-0.8-0.4L2,24.4l2.8-4.6c1.9,1.5,4.2,2.4,6.6,2.7L8.2,27.8
	z M2,11.2C1.7,5.4,6.2,0.5,12,0.2s10.7,4.2,11,10c0.3,5.8-4.2,10.7-10,11c-0.2,0-0.3,0-0.5,0C6.8,21.4,2.1,16.9,2,11.2z M18.7,23.3
	c-0.3-0.1-0.7,0.1-0.8,0.4l-1.1,4l-3.2-5.3c2.4-0.2,4.7-1.1,6.6-2.7l2.8,4.6L18.7,23.3z"/>
</svg>
