<?xml version="1.0" encoding="utf-8"?>
<!-- Generator: Adobe Illustrator 22.0.1, SVG Export Plug-In . SVG Version: 6.00 Build 0)  -->
<svg version="1.1" id="Layer_1" xmlns="http://www.w3.org/2000/svg" xmlns:xlink="http://www.w3.org/1999/xlink" x="0px" y="0px"
	 viewBox="0 0 25 30" style="enable-background:new 0 0 25 30;" xml:space="preserve">
<style type="text/css">
	.st0{fill:#FFFFFF;}
	.st1{font-family:'GothamPro-Black';}
	.st2{font-size:11.0021px;}
</style>
<path class="st0" d="M13.2,3.1c0-0.4-0.3-0.6-0.7-0.6C8.4,2.4,4.8,5.1,3.6,9C3.5,9.4,3.7,9.7,4,9.8c0,0,0,0,0,0c0.1,0,0.1,0,0.2,0
	c0.3,0,0.6-0.2,0.6-0.5C5.9,6,9,3.7,12.5,3.7C12.9,3.8,13.1,3.5,13.2,3.1z M4,10.3c-0.4,0-0.7,0.2-0.7,0.6c0,0.1,0,0.3,0,0.4
	c0,0.4,0.3,0.6,0.7,0.6c0.3,0,0.6-0.3,0.6-0.6c0-0.1,0-0.2,0-0.3C4.6,10.6,4.4,10.3,4,10.3C4,10.3,4,10.3,4,10.3z M20.9,12.7
	c-0.3-0.1-0.7,0.1-0.8,0.4c-1,3.4-4.1,5.7-7.6,5.6c-0.3,0-0.6,0.2-0.7,0.6c0,0.3,0.2,0.6,0.6,0.7c0,0,0,0,0.1,0
	c4.1,0.1,7.7-2.6,8.9-6.5C21.5,13.1,21.3,12.8,20.9,12.7C20.9,12.7,20.9,12.7,20.9,12.7z M21,12.2L21,12.2c0.4,0,0.7-0.3,0.7-0.6
	c0-0.1,0-0.3,0-0.4c0-0.4-0.3-0.6-0.7-0.6c-0.3,0-0.6,0.3-0.6,0.6c0,0.1,0,0.2,0,0.3C20.4,11.9,20.6,12.2,21,12.2
	C21,12.2,21,12.2,21,12.2z M24.9,25.1l-3.7-6.2c2-2,3.2-4.8,3.2-7.7C24.3,5,19,0,12.5,0S0.7,5,0.7,11.2c0,2.9,1.1,5.6,3.2,7.7
	l-3.7,6.2c-0.1,0.2-0.1,0.5,0,0.7C0.3,26,0.6,26,0.9,26L6,24.7l1.4,4.9C7.4,29.8,7.7,30,8,30c0.2,0,0.4-0.1,0.6-0.3l4-6.6l4,6.6
	c0.1,0.2,0.3,0.3,0.6,0.3c0,0,0.1,0,0.1,0c0.3,0,0.5-0.2,0.5-0.5l1.4-4.9l5.1,1.3c0.3,0.1,0.5,0,0.7-0.2C25,25.6,25,25.3,24.9,25.1
	L24.9,25.1z M8.2,27.8l-1.1-4c-0.1-0.3-0.5-0.5-0.8-0.4L2,24.4l2.8-4.6c1.9,1.5,4.2,2.4,6.6,2.7L8.2,27.8z M2,11.2
	c0.1-5.7,4.8-10.1,10.5-10c5.7-0.1,10.4,4.3,10.5,10c-0.1,5.7-4.8,10.1-10.5,10C6.8,21.4,2.1,16.9,2,11.2z M18.7,23.3
	c-0.3-0.1-0.7,0.1-0.8,0.4l-1.1,4l-3.2-5.3c2.4-0.2,4.7-1.1,6.6-2.7l2.8,4.6L18.7,23.3z"/>
<text id="_3" transform="matrix(1 0 0 1 9.0088 15.0635)" class="st0 st1 st2">3</text>
</svg>
