<?xml version="1.0" encoding="utf-8"?>
<!-- Generator: Adobe Illustrator 22.0.1, SVG Export Plug-In . SVG Version: 6.00 Build 0)  -->
<svg version="1.1" id="Layer_1" xmlns="http://www.w3.org/2000/svg" xmlns:xlink="http://www.w3.org/1999/xlink" x="0px" y="0px"
	 viewBox="0 0 17 16" style="enable-background:new 0 0 17 16;" xml:space="preserve">
<style type="text/css">
	.st0{fill:#FFFFFF;stroke:#FF0000;}
</style>
<path id="Forma_1_copy" class="st0" d="M8.5,15.5c-0.2,0-0.3-0.1-0.4-0.2L1.7,8.4v0C0.1,6.6,0.1,3.8,1.7,2l0.1-0.1
	C3.2,0.2,5.7,0,7.3,1.5c0.1,0.1,0.3,0.3,0.4,0.4l0.8,0.8l0.8-0.8c1.4-1.6,3.9-1.8,5.5-0.4c0.1,0.1,0.3,0.3,0.4,0.4L15.3,2
	c1.6,1.8,1.6,4.6,0,6.4v0l-6.4,6.9C8.8,15.4,8.7,15.5,8.5,15.5z M2.5,7.7l6,6.5l6-6.5c1.2-1.4,1.2-3.5,0-5l-0.1-0.1
	c-1-1.2-2.8-1.4-4-0.3c-0.1,0.1-0.2,0.2-0.3,0.3L8.9,3.9c-0.2,0.2-0.5,0.2-0.8,0c0,0,0,0,0,0L6.9,2.6c-1-1.2-2.8-1.4-4-0.3
	C2.8,2.3,2.7,2.5,2.6,2.6L2.5,2.7C1.3,4.1,1.3,6.2,2.5,7.7z"/>
</svg>
