<?xml version="1.0" encoding="UTF-8"?>
<!DOCTYPE svg PUBLIC "-//W3C//DTD SVG 1.1//EN" "http://www.w3.org/Graphics/SVG/1.1/DTD/svg11.dtd">
<!-- Creator: CorelDRAW X7 -->
<svg xmlns="http://www.w3.org/2000/svg" xml:space="preserve" version="1.1" style="shape-rendering:geometricPrecision; text-rendering:geometricPrecision; image-rendering:optimizeQuality; fill-rule:evenodd; clip-rule:evenodd"
viewBox="0 0 22313 21013"
 xmlns:xlink="http://www.w3.org/1999/xlink">
  <path class="fil0" d="M11156 21013c-534,0 -761,-227 -989,-455l-8415 -9074c-1125,-1125 -1752,-3078 -1752,-4646 0,-1664 581,-3330 1742,-4636 1252,-1273 2210,-2048 4090,-2187 1372,-101 2776,305 3921,1248 100,82 193,163 277,242l540 538 586 586 587 -586c1038,-1167 2472,-1823 3940,-1930 1474,-107 2987,339 4173,1377l558 553 157 159c1161,1306 1742,2972 1742,4636 0,1664 -581,3330 -1742,4636l-8410 9066c-269,314 -588,473 -1005,473z"/>
</svg>
