<?xml version="1.0" encoding="utf-8"?>
<!-- Generator: Adobe Illustrator 22.0.1, SVG Export Plug-In . SVG Version: 6.00 Build 0)  -->
<svg version="1.1" id="Layer_1" xmlns="http://www.w3.org/2000/svg" xmlns:xlink="http://www.w3.org/1999/xlink" x="0px" y="0px"
	 viewBox="0 0 21 18" style="enable-background:new 0 0 21 18;" xml:space="preserve">
<style type="text/css">
	.st0{fill:#585858;}
</style>
<path id="Forma_1" class="st0" d="M15.7,14.8c-0.4,0-0.8,0.4-0.8,0.8v0.8H1.6V6.6h2.1c0.4,0,0.8-0.4,0.8-0.8c0-0.4-0.4-0.8-0.8-0.8
	H0.8C0.3,4.9,0,5.3,0,5.8v11.4C0,17.6,0.3,18,0.8,18h15c0.4,0,0.8-0.4,0.8-0.8v-1.6C16.5,15.1,16.2,14.8,15.7,14.8z M20.8,6.2
	L15,0.2c-0.2-0.2-0.6-0.3-0.9-0.2c-0.3,0.1-0.5,0.4-0.5,0.8v2.7c-2.6,0-5.2,1-7.1,2.8C5,8.1,4,10.3,4,12.7c0,0.4,0.2,0.7,0.6,0.8
	c0.1,0,0.1,0,0.2,0c0.3,0,0.5-0.2,0.7-0.4c1.5-2.7,5.4-3.1,7.6-3.1c0.2,0,0.5,0,0.6,0v2.7c0,0.3,0.2,0.6,0.5,0.8
	c0.3,0.1,0.6,0.1,0.9-0.2l5.8-5.9C21.1,7,21.1,6.5,20.8,6.2z M15.2,10.7V9.2c0-0.4-0.3-0.7-0.7-0.8c-0.5-0.1-1-0.1-1.5-0.1
	c-2.4-0.1-4.9,0.5-7,1.8c0.4-1,0.9-1.9,1.6-2.6c1.5-1.6,3.8-2.4,6.8-2.4c0.4,0,0.8-0.4,0.8-0.8V2.8l3.9,4L15.2,10.7L15.2,10.7
	L15.2,10.7z"/>
</svg>
