<?xml version="1.0" encoding="UTF-8"?>
<!DOCTYPE svg PUBLIC "-//W3C//DTD SVG 1.1//EN" "http://www.w3.org/Graphics/SVG/1.1/DTD/svg11.dtd">
<!-- Creator: CorelDRAW X7 -->
<svg xmlns="http://www.w3.org/2000/svg" xml:space="preserve" width="210mm" height="209.364mm" version="1.1" style="shape-rendering:geometricPrecision; text-rendering:geometricPrecision; image-rendering:optimizeQuality; fill-rule:evenodd; clip-rule:evenodd"
viewBox="0 0 21000 20936"
 xmlns:xlink="http://www.w3.org/1999/xlink">
 <defs>
  <style type="text/css">
   <![CDATA[
    .fil0 {fill:#D70022}
   ]]>
  </style>
 </defs>
 <g id="Слой_x0020_1">
  <metadata id="CorelCorpID_0Corel-Layer"/>
  <path id="Forma_1" class="fil0" d="M3245 18645l-954 -954 954 -955 955 955 -955 954zm17755 -10245l-4964 -4964 -1909 637 637 -1909 -2164 -2164 -6045 6045 -955 -954 -4518 4518 1845 3755 -1972 1972c-1273,1273 -1273,3373 0,4646 1272,1273 3372,1273 4645,0l1973 -1973 3754 1846 4518 -4519 -954 -954 6109 -5982zm-9927 9864l-3755 -1846 -2673 2673c-763,764 -2036,764 -2800,-64 -763,-763 -763,-1972 0,-2736l2673 -2673 -1845 -3754 1082 -1082 8400 8400 -1082 1082zm1972 -1973l-8400 -8400 955 -891 8400 8336 -955 955zm-5600 -9291l5155 -5091 636 636 -1209 3628 3691 -1209 1591 1591 -1845 1845 954 955 1846 -1846 954 955 -5154 5091 -6619 -6555zm7000 4200l-954 -955 954 -954 955 954 -955 955z"/>
 </g>
</svg>
