<?xml version="1.0" encoding="UTF-8"?>
<!DOCTYPE svg PUBLIC "-//W3C//DTD SVG 1.1//EN" "http://www.w3.org/Graphics/SVG/1.1/DTD/svg11.dtd">
<!-- Creator: CorelDRAW X7 -->
<svg xmlns="http://www.w3.org/2000/svg" xml:space="preserve" width="246.207mm" height="210mm" version="1.1" style="shape-rendering:geometricPrecision; text-rendering:geometricPrecision; image-rendering:optimizeQuality; fill-rule:evenodd; clip-rule:evenodd"
viewBox="0 0 24621 21000"
 xmlns:xlink="http://www.w3.org/1999/xlink">
 <defs>
  <style type="text/css">
   <![CDATA[
    .fil0 {fill:#D70022}
   ]]>
  </style>
 </defs>
 <g id="Слой_x0020_1">
  <metadata id="CorelCorpID_0Corel-Layer"/>
  <path id="Forma_1" class="fil0" d="M0 0l0 9197 434 0 2390 6589 362 -145 4490 5359 14048 -11803 2897 0 0 -9197 -24621 0zm9269 1521l6155 0 0 6155 -6155 0 0 -6155zm7024 7676l-5359 1955 -724 -1955 6083 0zm-14772 -7676l6155 0 0 6155 -6155 0 0 -6155zm507 7676l6517 0 941 2462 -5793 2100 -1665 -4562zm5793 9631l-3114 -3766 6155 -2245 1666 2028 -4707 3983zm5938 -4925l-1376 -1593 5720 -2100 -4344 3693zm9341 -6227l-6155 0 0 -6155 6155 0 0 6155zm-3838 -3838l1521 0 0 1521 -1521 0 0 -1521z"/>
 </g>
</svg>
